<?xml version="1.0" standalone="no"?>
  <!DOCTYPE svg PUBLIC "-//W3C//DTD SVG 1.1//EN" "http://www.w3.org/Graphics/SVG/1.1/DTD/svg11.dtd" >
  <svg>
  <metadata>
  Created by font-carrier
  </metadata>
  <defs>
  <font id="iconfont" horiz-adv-x="1024" vert-adv-y="1024" >
    <font-face
      
      font-family="iconfont"
      
      font-weight="400"
      
      font-stretch="normal"
      
      units-per-em="1024"
      
      ascent="812"
      
      descent="-212"
      
    />
      <missing-glyph />

      
      <glyph glyph-name="x" unicode="&#x78;" horiz-adv-x="100"
        d="M20 20 L50 20 L50 -20 Z" />
      

      
      <glyph glyph-name="uni7B14" unicode="&#x7B14;" d="M453.632-271.5433Q408.576-269.4952 376.832-241.3353 345.088-213.1753 345.088-156.8553L345.088-91.3192 70.656-103.6072 70.656-30.9032 345.088-17.5913 345.088 84.8088 100.352 73.5448 100.352 147.2728 345.088 158.5367 345.088 265.0328 95.232 253.7688 95.232 326.4728 534.528 346.9528Q579.584 350.0248 629.76 365.8967 679.936 381.7688 722.944 402.2487L722.944 328.5208Q696.32 309.0648 647.168 293.1927 598.016 277.3208 534.528 275.2728 451.584 270.1528 433.152 270.1528L433.152 163.6567 718.848 177.9928 718.848 104.2647 433.152 89.9287 433.152-14.5192 748.544-0.1832 748.544-72.8872 433.152-87.2232 433.152-134.3272Q433.152-166.0712 445.952-181.4313 458.752-196.7912 477.184-197.8152L772.096-197.8152 756.736-271.5433 453.632-271.5433M226.304 496.4568L313.344 496.4568 361.472 393.0327 272.384 393.0327 226.304 496.4568M40.96 393.0327Q80.896 464.7128 116.736 538.4407 152.576 612.1688 168.96 663.3687L253.952 663.3687Q240.64 616.2648 228.352 584.5208L429.056 584.5208 429.056 512.8408 196.608 512.8408Q166.912 449.3528 136.192 393.0327L40.96 393.0327M581.632 496.4568L669.696 496.4568 717.824 408.3927 628.736 408.3927 581.632 496.4568M390.144 394.0567Q429.056 465.7368 464.384 538.9528 499.712 612.1688 516.096 663.3687L601.088 663.3687Q592.896 630.6008 575.488 584.5208L778.24 584.5208 778.24 512.8408 543.744 512.8408Q515.072 449.3528 483.328 394.0567L390.144 394.0567Z"  horiz-adv-x="819" vert-adv-y="1024"  />

      
      <glyph glyph-name="uni8BB0" unicode="&#x8BB0;" d="M454.656-264.3752Q403.456-262.3272 368.64-229.5592 333.824-196.7912 333.824-131.2552L333.824 239.4327 669.696 239.4327 669.696 509.7688Q670.72 527.1767 662.016 538.9528 653.312 550.7287 631.808 550.7287L333.824 550.7287 333.824 624.4568 669.696 624.4568Q709.632 624.4568 730.112 604.4887 750.592 584.5208 751.616 556.8727L751.616 166.7287 416.768 166.7287 416.768-128.1832Q416.768-158.9033 436.224-174.2632 455.68-189.6232 483.328-190.6472L776.192-190.6472 760.832-264.3752 454.656-264.3752M132.096-180.4073L132.096-169.1432 132.096 333.6408Q132.096 344.9048 124.416 353.0968 116.736 361.2888 102.4 361.2888L39.936 361.2888 39.936 435.0168 137.216 435.0168Q177.152 435.0168 197.632 415.0488 218.112 395.0807 219.136 367.4328L219.136-138.4232Q272.384-113.8473 316.416-75.9592L316.416-149.6873Q291.84-177.3353 244.224-202.4232 196.608-227.5112 132.096-242.8713L132.096-180.4073M114.688 660.2967L201.728 660.2967 236.544 516.9367 148.48 516.9367 114.688 660.2967Z"  horiz-adv-x="819" vert-adv-y="1024"  />

      
      <glyph glyph-name="uni6280" unicode="&#x6280;" d="M281.6-271.5433Q325.632-239.7993 377.344-193.2072 429.056-146.6153 477.184-91.3192 348.16 79.6888 333.824 252.7448L418.816 252.7448Q437.248 123.7208 538.624-15.5433 659.456 153.4167 665.6 304.9688L328.704 304.9688 328.704 378.6968 501.76 378.6968 501.76 468.8088 321.536 468.8088 321.536 542.5367 501.76 542.5367 501.76 663.3687 588.8 663.3687 588.8 542.5367 769.024 542.5367 769.024 468.8088 588.8 468.8088 588.8 378.6968 748.544 378.6968 748.544 304.9688Q747.52 97.0967 599.04-93.3672 687.104-195.7672 784.384-271.5433L651.264-271.5433Q596.992-229.5592 538.624-165.0472 476.16-230.5832 416.768-271.5433L281.6-271.5433M55.296-198.8392L112.64-198.8392Q123.904-198.8392 132.608-191.1592 141.312-183.4793 141.312-167.0952L141.312 84.8088Q101.376 71.4968 41.984 56.1368L41.984 129.8648Q86.016 140.1048 141.312 160.5847L141.312 424.7767 41.984 424.7767 41.984 497.4808 141.312 497.4808 141.312 663.3687 228.352 663.3687 228.352 497.4808 295.936 497.4808 295.936 424.7767 228.352 424.7767 228.352 197.4488Q262.144 212.8088 295.936 236.3607L295.936 162.6327Q271.36 144.2008 228.352 121.6728L228.352-179.3833Q228.352-224.4393 199.68-246.9673 171.008-269.4952 130.048-271.5433L69.632-271.5433 55.296-198.8392Z"  horiz-adv-x="819" vert-adv-y="1024"  />

      
      <glyph glyph-name="uni672F" unicode="&#x672F;" d="M370.688 352.0728L83.968 352.0728 83.968 424.7767 370.688 424.7767 370.688 663.3687 457.728 663.3687 457.728 424.7767 742.4 424.7767 742.4 352.0728 457.728 352.0728 457.728 292.6807 629.76 292.6807Q649.216 173.8967 687.104 30.5368 724.992-112.8233 775.168-243.8953L692.224-243.8953Q652.288-148.6633 617.984-17.5913 583.68 113.4808 560.128 228.1687L457.728 228.1687 457.728-270.5192 370.688-270.5192 370.688 352.0728M51.2-243.8953Q102.4-112.8233 139.776 30.5368 177.152 173.8967 197.632 292.6807L280.576 292.6807Q252.928 146.2488 213.504-0.6952 174.08-147.6393 134.144-243.8953L51.2-243.8953M552.96 631.6248L641.024 631.6248 697.344 489.2888 609.28 489.2888 552.96 631.6248Z"  horiz-adv-x="819" vert-adv-y="1024"  />

      
      <glyph glyph-name="uni76EE" unicode="&#x76EE;" d="M96.256 614.2168L640 614.2168Q683.008 614.2168 703.488 594.7608 723.968 575.3048 723.968 548.6807L723.968-247.9913 96.256-247.9913 96.256 614.2168M635.904-174.2632L635.904 15.1767 184.32 15.1767 184.32-174.2632 635.904-174.2632M635.904 87.8808L635.904 278.3448 184.32 278.3448 184.32 87.8808 635.904 87.8808M635.904 351.0488L635.904 515.9127Q635.904 529.2247 628.736 534.8568 621.568 540.4887 612.352 540.4887L184.32 540.4887 184.32 351.0488 635.904 351.0488Z"  horiz-adv-x="819" vert-adv-y="1024"  />

      
      <glyph glyph-name="uni5F55" unicode="&#x5F55;" d="M287.744-196.7912L343.04-196.7912Q355.328-195.7672 364.544-187.5753 373.76-179.3833 373.76-161.9753L373.76 205.6408 51.2 205.6408 51.2 278.3448 608.256 278.3448 608.256 385.8647 128 385.8647 128 459.5928 608.256 459.5928 608.256 537.4167Q608.256 551.7527 599.552 559.4328 590.848 567.1128 577.536 567.1128L113.664 567.1128 113.664 639.8168 607.232 639.8168Q649.216 639.8168 669.696 621.3848 690.176 602.9528 690.176 575.3048L690.176 278.3448 774.144 278.3448 774.144 205.6408 460.8 205.6408 460.8-182.4553Q460.8-226.4872 432.64-247.4793 404.48-268.4712 364.544-270.5192L303.104-270.5192 287.744-196.7912M73.728-252.0872Q159.744-125.1112 209.92-16.5673L293.888-16.5673Q273.408-66.7432 240.64-129.2072 207.872-191.6712 166.912-252.0872L73.728-252.0872M128 179.0168L215.04 179.0168 296.96 18.2488 209.92 18.2488 128 179.0168M662.528-252.0872Q621.568-191.6712 587.776-129.2072 553.984-66.7432 534.528-16.5673L617.472-16.5673Q667.648-125.1112 754.688-252.0872L662.528-252.0872M609.28 179.0168L696.32 179.0168 614.4 18.2488 527.36 18.2488 609.28 179.0168Z"  horiz-adv-x="819" vert-adv-y="1024"  />

      
      <glyph glyph-name="uni5F00" unicode="&#x5F00;" d="M78.848-272.5673Q128-196.7912 164.864-80.5673 201.728 35.6568 204.8 171.8487L56.32 171.8487 56.32 245.5768 204.8 245.5768 204.8 558.9207 94.208 558.9207 94.208 631.6248 733.184 631.6248 733.184 558.9207 627.712 558.9207 627.712 245.5768 771.072 245.5768 771.072 171.8487 627.712 171.8487 627.712-272.5673 540.672-272.5673 540.672 171.8487 292.864 171.8487Q288.768 25.4168 251.904-89.7832 215.04-204.9832 164.864-272.5673L78.848-272.5673M540.672 245.5768L540.672 558.9207 292.864 558.9207 292.864 245.5768 540.672 245.5768Z"  horiz-adv-x="819" vert-adv-y="1024"  />

      
      <glyph glyph-name="uni53D1" unicode="&#x53D1;" d="M68.608-272.5673Q109.568-148.6633 156.672 26.4408 203.776 201.5448 242.688 389.9607L55.296 389.9607 55.296 461.6408 88.064 632.6488 171.008 632.6488 138.24 461.6408 257.024 461.6408Q276.48 558.9207 291.84 662.3447L379.904 662.3447Q359.424 541.5127 343.04 461.6408L764.928 461.6408 764.928 389.9607 328.704 389.9607 315.392 324.4248 724.992 324.4248 724.992 280.3928 724.992 245.5768Q715.776 68.4248 565.248-95.4153 668.672-195.7672 779.264-272.5673L652.288-272.5673Q581.632-227.5112 505.856-154.8073 425.984-227.5112 347.136-272.5673L224.256-272.5673Q274.432-240.8233 333.824-194.2312 393.216-147.6393 447.488-95.4153 333.824 27.4648 279.552 168.7767 217.088-100.5352 155.648-272.5673L68.608-272.5673M505.856-33.9752Q636.928 117.5768 642.048 251.7208L300.032 251.7208Q292.864 221.0007 290.816 210.7608L350.208 210.7608Q386.048 98.1207 505.856-33.9752M557.056 632.6488L642.048 632.6488 672.768 497.4808 588.8 497.4808 557.056 632.6488Z"  horiz-adv-x="819" vert-adv-y="1024"  />

      
      <glyph glyph-name="uni73AF" unicode="&#x73AF;" d="M513.024 395.0807Q485.376 281.4168 453.632 177.9928 421.888 74.5688 392.192 0.8408L304.128 0.8408Q357.376 148.2968 400.896 303.9447 444.416 459.5928 460.8 573.2568L333.824 573.2568 333.824 645.9607 777.216 645.9607 777.216 573.2568 548.864 573.2568Q534.528 489.2888 515.072 407.3687L599.04 407.3687 599.04-272.5673 513.024-272.5673 513.024 395.0807M39.936-114.8713Q79.872-106.6792 129.024-91.3192L129.024 210.7608 49.152 210.7608 49.152 284.4887 129.024 284.4887 129.024 550.7287 40.96 550.7287 40.96 623.4328 304.128 623.4328 304.128 550.7287 215.04 550.7287 215.04 284.4887 294.912 284.4887 294.912 210.7608 215.04 210.7608 215.04-57.5273Q271.36-30.9032 304.128-9.3992L304.128-82.1033Q270.336-111.7993 201.728-140.4712 133.12-169.1432 39.936-188.5992L39.936-114.8713M608.256 407.3687L689.152 407.3687 779.264 0.8408 698.368 0.8408 608.256 407.3687Z"  horiz-adv-x="819" vert-adv-y="1024"  />

      
      <glyph glyph-name="uni5883" unicode="&#x5883;" d="M281.6-271.5433Q338.944-221.3673 378.368-161.4633 417.792-101.5592 417.792-48.3113L417.792-24.7593 332.8-24.7593 332.8 301.8967 675.84 301.8967Q717.824 301.8967 737.792 282.4408 757.76 262.9848 757.76 236.3607L757.76-24.7593 666.624-24.7593 666.624-161.9753Q666.624-181.4313 679.424-190.6472 692.224-199.8632 709.632-198.8392L781.312-198.8392 765.952-271.5433 675.84-271.5433Q636.928-270.5192 609.792-251.0633 582.656-231.6072 582.656-190.6472L582.656-24.7593 505.856-24.7593 505.856-52.4073Q505.856-112.8233 475.648-170.6792 445.44-228.5352 400.384-271.5433L281.6-271.5433M38.912-97.4633Q73.728-93.3672 119.808-82.1033L119.808 353.0968 44.032 353.0968 44.032 426.8247 119.808 426.8247 119.808 663.3687 205.824 663.3687 205.824 426.8247 277.504 426.8247 277.504 353.0968 205.824 353.0968 205.824-51.3833Q244.736-34.9992 282.624-13.4952L282.624-87.2232Q248.832-112.8233 185.856-135.8632 122.88-158.9033 38.912-171.1912L38.912-97.4633M675.84 48.9688L675.84 101.1927 415.744 101.1927 415.744 48.9688 675.84 48.9688M675.84 174.9207L675.84 183.1128Q675.84 209.7368 664.064 219.9767 652.288 230.2167 634.88 228.1687L415.744 228.1687 415.744 174.9207 675.84 174.9207M368.64 505.6728L455.68 505.6728 480.256 426.8247 392.192 426.8247 368.64 505.6728M295.936 409.4167L601.088 409.4167 629.76 505.6728 717.824 505.6728 687.104 409.4167 781.312 409.4167 781.312 335.6888 295.936 335.6888 295.936 409.4167M319.488 600.9048L491.52 600.9048 472.064 663.3687 558.08 663.3687 578.56 600.9048 757.76 600.9048 757.76 529.2247 319.488 529.2247 319.488 600.9048Z"  horiz-adv-x="819" vert-adv-y="1024"  />

      
      <glyph glyph-name="uni6570" unicode="&#x6570;" d="M455.68-272.5673Q515.072-180.4073 566.272-63.6712 486.4 122.6968 486.4 283.4648L486.4 342.8568 574.464 342.8568 574.464 284.4887Q574.464 183.1128 614.4 62.2808 662.528 203.5928 662.528 321.3528L662.528 451.4008 576.512 451.4008Q562.176 392.0087 549.888 359.2408L455.68 359.2408Q477.184 416.5847 497.152 496.4568 517.12 576.3288 528.384 663.3687L615.424 663.3687Q607.232 603.9768 592.896 525.1287L780.288 525.1287 780.288 451.4008 749.568 451.4008 749.568 321.3528Q749.568 147.2728 664.576-63.6712 716.8-179.3833 780.288-272.5673L680.96-272.5673Q650.24-229.5592 616.448-167.0952 583.68-229.5592 556.032-272.5673L455.68-272.5673M48.128-272.5673Q123.904-232.6312 190.464-179.3833 98.304-84.1513 98.304 15.1767L98.304 25.4168 39.936 25.4168 39.936 99.1447 98.304 99.1447 98.304 127.8168 181.248 127.8168 181.248 99.1447 324.608 99.1447 324.608 127.8168 408.576 127.8168 408.576 99.1447 451.584 99.1447 451.584 25.4168 408.576 25.4168 408.576 15.1767Q408.576-85.1752 308.224-180.4073 371.712-232.6312 443.392-272.5673L313.344-272.5673Q281.6-256.1832 247.808-229.5592 209.92-256.1832 177.152-272.5673L48.128-272.5673M250.88-125.1112Q324.608-49.3353 324.608 19.2728L324.608 25.4168 181.248 25.4168 181.248 19.2728Q181.248-49.3353 250.88-125.1112M34.816 150.3448Q54.272 198.4728 69.12 259.9128 83.968 321.3528 91.136 377.6728L173.056 377.6728Q168.96 318.2808 158.208 256.3288 147.456 194.3768 128 150.3448L34.816 150.3448M199.68 407.3687L43.008 407.3687 43.008 481.0968 199.68 481.0968 199.68 663.3687 287.744 663.3687 287.744 481.0968 444.416 481.0968 444.416 407.3687 287.744 407.3687 287.744 377.6728 396.288 377.6728Q403.456 321.3528 418.304 259.9128 433.152 198.4728 452.608 150.3448L359.424 150.3448Q332.8 211.7848 321.536 304.9688L287.744 304.9688 287.744 148.2968 199.68 148.2968 199.68 407.3687M49.152 625.4808L133.12 625.4808 175.104 496.4568 91.136 496.4568 49.152 625.4808M354.304 625.4808L438.272 625.4808 396.288 496.4568 312.32 496.4568 354.304 625.4808Z"  horiz-adv-x="819" vert-adv-y="1024"  />

      
      <glyph glyph-name="uni636E" unicode="&#x636E;" d="M247.808-272.5673Q266.24-221.3673 277.504-157.3673 288.768-93.3672 288.768-31.9272L288.768 646.9847 669.696 646.9847Q711.68 646.9847 732.16 627.5288 752.64 608.0728 752.64 581.4488L752.64 386.8887 376.832 386.8887 376.832-38.0712Q376.832-99.5113 366.592-161.4633 356.352-223.4153 340.992-272.5673L247.808-272.5673M53.248-198.8392L108.544-198.8392Q120.832-198.8392 129.536-191.1592 138.24-183.4793 138.24-167.0952L138.24 84.8088Q100.352 71.4968 39.936 56.1368L39.936 129.8648Q83.968 140.1048 138.24 161.6087L138.24 424.7767 39.936 424.7767 39.936 497.4808 138.24 497.4808 138.24 663.3687 226.304 663.3687 226.304 497.4808 278.528 497.4808 278.528 424.7767 226.304 424.7767 226.304 202.5688Q249.856 214.8568 278.528 236.3607L278.528 162.6327Q260.096 145.2248 226.304 124.7448L226.304-180.4073Q226.304-226.4872 197.632-248.5033 168.96-270.5192 128-272.5673L67.584-272.5673 53.248-198.8392M670.72-185.5273L670.72-21.6873Q670.72 2.8888 658.944 13.6407 647.168 24.3928 629.76 23.3688L492.544 23.3688 492.544-185.5273 670.72-185.5273M410.624 97.0967L538.624 97.0967 538.624 198.4728 390.144 198.4728 390.144 272.2008 538.624 272.2008 538.624 367.4328 626.688 367.4328 626.688 272.2008 775.168 272.2008 775.168 198.4728 626.688 198.4728 626.688 97.0967 670.72 97.0967Q712.704 97.0967 733.184 77.6408 753.664 58.1848 753.664 31.5608L753.664-259.2552 410.624-259.2552 410.624 97.0967M665.6 460.6168L665.6 521.0327 665.6 530.2487Q665.6 554.8247 653.312 565.0648 641.024 575.3048 623.616 573.2568L376.832 573.2568 376.832 460.6168 665.6 460.6168Z"  horiz-adv-x="819" vert-adv-y="1024"  />

      
      <glyph glyph-name="uni57FA" unicode="&#x57FA;" d="M103.424-181.4313L370.688-181.4313 370.688-79.0313 214.016-79.0313 214.016-6.3272 370.688-6.3272 370.688 83.7848 457.728 83.7848 457.728-6.3272 614.4-6.3272Q576.512 52.0408 543.744 119.6248L275.456 119.6248Q217.088 4.9368 156.672-80.0553L54.272-80.0553Q114.688 6.9847 173.056 119.6248L51.2 119.6248 51.2 191.3048 177.152 191.3048 177.152 521.0327 102.4 521.0327 102.4 594.7608 177.152 594.7608 177.152 663.3687 264.192 663.3687 264.192 594.7608 561.152 594.7608 561.152 663.3687 648.192 663.3687 648.192 594.7608 722.944 594.7608 722.944 521.0327 648.192 521.0327 648.192 191.3048 774.144 191.3048 774.144 119.6248 646.144 119.6248Q704.512 6.9847 764.928-80.0553L663.552-80.0553Q642.048-50.3593 614.4-6.3272L614.4-79.0313 457.728-79.0313 457.728-181.4313 723.968-181.4313 723.968-255.1592 103.424-255.1592 103.424-181.4313M561.152 191.3048L561.152 252.7448 264.192 252.7448 264.192 191.3048 561.152 191.3048M561.152 326.4728L561.152 386.8887 264.192 386.8887 264.192 326.4728 561.152 326.4728M561.152 459.5928L561.152 521.0327 264.192 521.0327 264.192 459.5928 561.152 459.5928Z"  horiz-adv-x="819" vert-adv-y="1024"  />

      
      <glyph glyph-name="uni672C" unicode="&#x672C;" d="M366.592-99.5113L228.352-99.5113 228.352-26.8073 366.592-26.8073 366.592 426.8247 79.872 426.8247 79.872 500.5528 366.592 500.5528 366.592 663.3687 452.608 663.3687 452.608 500.5528 739.328 500.5528 739.328 426.8247 452.608 426.8247 452.608 337.7368 624.64 337.7368Q645.12 213.8328 683.008 63.3048 720.896-87.2232 771.072-224.4393L689.152-224.4393Q624.64-63.6712 555.008 272.2008L452.608 272.2008 452.608-26.8073 595.968-26.8073 595.968-99.5113 452.608-99.5113 452.608-270.5192 366.592-270.5192 366.592-99.5113M48.128-224.4393Q98.304-87.2232 136.192 63.3048 174.08 213.8328 194.56 337.7368L276.48 337.7368Q247.808 185.1608 209.408 30.5368 171.008-124.0872 131.072-224.4393L48.128-224.4393Z"  horiz-adv-x="819" vert-adv-y="1024"  />

      
      <glyph glyph-name="uni7C7B" unicode="&#x7C7B;" d="M667.648 161.6087Q613.376 221.0007 564.224 324.4248L454.656 324.4248 454.656 172.8727 365.568 172.8727 365.568 431.9447 59.392 431.9447 59.392 505.6728 365.568 505.6728 365.568 663.3687 454.656 663.3687 454.656 505.6728 760.832 505.6728 760.832 431.9447 454.656 431.9447 454.656 387.9127 627.712 387.9127Q646.144 332.6168 684.544 272.2008 722.944 211.7848 763.904 161.6087L667.648 161.6087M59.392-271.5433Q154.624-202.9352 236.032-129.7192 317.44-56.5033 350.208-3.2552L54.272-3.2552 54.272 68.4248 368.64 68.4248 368.64 145.2248 455.68 145.2248 455.68 68.4248 765.952 68.4248 765.952-3.2552 450.56-3.2552Q447.488-15.5433 440.32-27.8312L489.472-27.8312Q529.408-80.0553 607.232-145.5913 685.056-211.1273 770.048-271.5433L644.096-271.5433Q577.536-224.4393 513.536-170.1672 449.536-115.8953 413.696-67.7672 375.808-115.8953 313.344-171.1912 250.88-226.4872 185.344-271.5433L59.392-271.5433M56.32 161.6087Q97.28 211.7848 135.68 272.2008 174.08 332.6168 192.512 387.9127L281.6 387.9127Q261.12 329.5448 227.328 268.1048 193.536 206.6648 152.576 161.6087L56.32 161.6087M135.168 637.7688L223.232 637.7688 276.48 523.0807 188.416 523.0807 135.168 637.7688M596.992 637.7688L685.056 637.7688 630.784 523.0807 543.744 523.0807 596.992 637.7688Z"  horiz-adv-x="819" vert-adv-y="1024"  />

      
      <glyph glyph-name="uni578B" unicode="&#x578B;" d="M48.128-191.6712L364.544-191.6712 364.544-51.3833 89.088-51.3833 89.088 25.4168 364.544 25.4168 364.544 79.6888 450.56 79.6888 450.56 25.4168 724.992 25.4168 724.992-51.3833 450.56-51.3833 450.56-191.6712 771.072-191.6712 771.072-269.4952 48.128-269.4952 48.128-191.6712M58.368 98.1207Q89.088 141.1288 110.08 204.6168 131.072 268.1048 131.072 338.7608L131.072 344.9048 58.368 344.9048 58.368 417.6087 131.072 417.6087 131.072 568.1368 77.824 568.1368 77.824 640.8408 464.896 640.8408 464.896 568.1368 410.624 568.1368 410.624 417.6087 484.352 417.6087 484.352 344.9048 410.624 344.9048 410.624 98.1207 328.704 98.1207 328.704 344.9048 212.992 344.9048 212.992 333.6408Q212.992 260.9368 193.024 199.4968 173.056 138.0568 145.408 98.1207L58.368 98.1207M328.704 417.6087L328.704 568.1368 212.992 568.1368 212.992 417.6087 328.704 417.6087M525.312 613.1928L608.256 613.1928 608.256 244.5528 525.312 244.5528 525.312 613.1928M575.488 171.8487L632.832 171.8487Q648.192 170.8247 658.944 179.0168 669.696 187.2088 669.696 205.6408L669.696 663.3687 752.64 663.3687 752.64 195.4008Q752.64 148.2968 728.576 124.2328 704.512 100.1687 669.696 98.1207L590.848 98.1207 575.488 171.8487Z"  horiz-adv-x="819" vert-adv-y="1024"  />

      
      <glyph glyph-name="uni5B57" unicode="&#x5B57;" d="M252.928-198.8392L399.36-198.8392Q408.576-198.8392 415.232-192.6952 421.888-186.5513 421.888-173.2392L421.888 21.3208 50.176 21.3208 50.176 95.0487 421.888 95.0487 421.888 133.9608Q563.2 231.2407 602.112 277.3208L123.904 277.3208 123.904 351.0488 708.608 351.0488 708.608 277.3208Q679.936 236.3607 624.64 187.7208 569.344 139.0808 508.928 96.0727L508.928 95.0487 769.024 95.0487 769.024 21.3208 508.928 21.3208 508.928-177.3353Q508.928-221.3673 483.84-245.4313 458.752-269.4952 421.888-272.5673L268.288-272.5673 252.928-198.8392M71.68 570.1848L369.664 570.1848 331.776 663.3687 420.864 663.3687 457.728 570.1848 679.936 570.1848Q719.872 570.1848 740.352 550.2168 760.832 530.2487 761.856 501.5768L761.856 385.8647 679.936 385.8647 679.936 455.4968Q680.96 472.9048 672.256 484.6807 663.552 496.4568 642.048 496.4568L153.6 496.4568 153.6 385.8647 71.68 385.8647 71.68 570.1848Z"  horiz-adv-x="819" vert-adv-y="1024"  />

      
      <glyph glyph-name="uni7B26" unicode="&#x7B26;" d="M425.984-198.8392L562.176-198.8392Q573.44-197.8152 581.12-191.6712 588.8-185.5273 588.8-171.1912L588.8 160.5847 253.952 160.5847 253.952 232.2647 588.8 232.2647 588.8 358.2168 674.816 358.2168 674.816 232.2647 770.048 232.2647 770.048 160.5847 674.816 160.5847 674.816-182.4553Q674.816-228.5352 649.728-250.0393 624.64-271.5433 588.8-272.5673L441.344-272.5673 425.984-198.8392M137.216 78.6648L51.2 78.6648Q96.256 149.3208 135.168 225.6087 174.08 301.8967 190.464 358.2168L279.552 358.2168Q246.784 251.7208 181.248 142.1528L223.232 142.1528 223.232-272.5673 137.216-272.5673 137.216 78.6648M302.08 95.0487L390.144 95.0487 456.704-84.1513 368.64-84.1513 302.08 95.0487M226.304 496.4568L313.344 496.4568 361.472 377.6728 272.384 377.6728 226.304 496.4568M40.96 377.6728Q136.192 564.0408 168.96 663.3687L253.952 663.3687Q246.784 633.6728 228.352 584.5208L429.056 584.5208 429.056 512.8408 196.608 512.8408Q164.864 443.2088 131.072 377.6728L40.96 377.6728M581.632 496.4568L669.696 496.4568 717.824 377.6728 628.736 377.6728 581.632 496.4568M390.144 377.6728Q484.352 564.0408 516.096 663.3687L601.088 663.3687Q594.944 633.6728 575.488 584.5208L778.24 584.5208 778.24 512.8408 545.792 512.8408Q514.048 443.2088 478.208 377.6728L390.144 377.6728Z"  horiz-adv-x="819" vert-adv-y="1024"  />

      
      <glyph glyph-name="uni4E32" unicode="&#x4E32;" d="M364.544-268.4712L364.544-101.5592 62.464-101.5592 62.464 209.7368 364.544 209.7368 364.544 270.1528 108.544 270.1528 108.544 580.4248 364.544 580.4248 364.544 663.3687 450.56 663.3687 450.56 580.4248 624.64 580.4248Q666.624 580.4248 687.104 561.4808 707.584 542.5367 707.584 515.9127L707.584 270.1528 450.56 270.1528 450.56 209.7368 669.696 209.7368Q711.68 209.7368 732.16 190.2808 752.64 170.8247 752.64 144.2008L752.64-101.5592 450.56-101.5592 450.56-272.5673 364.544-272.5673 364.544-268.4712M364.544-27.8312L364.544 136.0088 145.408 136.0088 145.408-27.8312 364.544-27.8312M669.696-27.8312L669.696 90.9527Q669.696 115.5288 657.92 126.2808 646.144 137.0328 628.736 136.0088L450.56 136.0088 450.56-27.8312 669.696-27.8312M364.544 343.8808L364.544 507.7208 191.488 507.7208 191.488 343.8808 364.544 343.8808M624.64 343.8808L624.64 463.6888Q624.64 488.2648 612.864 498.5048 601.088 508.7448 583.68 507.7208L450.56 507.7208 450.56 343.8808 624.64 343.8808Z"  horiz-adv-x="819" vert-adv-y="1024"  />

      
      <glyph glyph-name="uni5217" unicode="&#x5217;" d="M112.64-272.5673Q221.184-131.2552 285.696 6.9847L190.464 250.6968Q154.624 161.6087 120.832 98.1207L33.792 98.1207Q83.968 203.5928 131.072 330.5688 178.176 457.5448 203.776 574.2808L58.368 574.2808 58.368 646.9847 500.736 646.9847 500.736 574.2808 292.864 574.2808Q287.744 548.6807 268.288 473.9288L474.112 473.9288 474.112 400.2007Q474.112 253.7688 406.016 69.4488 337.92-114.8713 217.088-272.5673L112.64-272.5673M329.728 111.4327Q386.048 265.0328 386.048 400.2007L245.76 400.2007Q230.4 351.0488 207.872 294.7287L199.68 271.1768 266.24 271.1768 329.728 111.4327M523.264 561.9928L610.304 561.9928 610.304-71.8632 523.264-71.8632 523.264 561.9928M569.344-198.8392L633.856-198.8392Q649.216-198.8392 660.48-190.6472 671.744-182.4553 671.744-165.0472L671.744 663.3687 757.76 663.3687 757.76-195.7672Q757.76-232.6312 732.672-252.0872 707.584-271.5433 671.744-272.5673L584.704-272.5673 569.344-198.8392Z"  horiz-adv-x="819" vert-adv-y="1024"  />

      
      <glyph glyph-name="uni8868" unicode="&#x8868;" d="M220.16-245.9433L220.16-197.8152 220.16 18.2488Q176.128-36.0232 135.168-82.1033L34.816-82.1033Q94.208-14.5192 152.064 63.3048 209.92 141.1288 245.76 205.6408L46.08 205.6408 46.08 278.3448 365.568 278.3448 365.568 354.1208 83.968 354.1208 83.968 427.8487 365.568 427.8487 365.568 504.6488 69.632 504.6488 69.632 576.3288 365.568 576.3288 365.568 663.3687 452.608 663.3687 452.608 576.3288 748.544 576.3288 748.544 504.6488 452.608 504.6488 452.608 427.8487 734.208 427.8487 734.208 354.1208 452.608 354.1208 452.608 278.3448 772.096 278.3448 772.096 205.6408 344.064 205.6408Q314.368 145.2248 267.264 81.7368L307.2 81.7368 307.2-173.2392Q400.384-140.4712 467.968-93.3672L467.968-167.0952Q436.224-195.7672 372.224-223.9273 308.224-252.0872 220.16-270.5192L220.16-245.9433M654.336-256.1832Q591.872-187.5753 530.944-70.8392 470.016 45.8967 424.96 165.7047L508.928 165.7047Q540.672 76.6168 590.848-18.6153L665.6 165.7047 748.544 165.7047 663.552-43.1912 603.136-43.1912Q674.816-173.2392 757.76-256.1832L654.336-256.1832Z"  horiz-adv-x="819" vert-adv-y="1024"  />

      
      <glyph glyph-name="uni96C6" unicode="&#x96C6;" d="M133.12 417.6087L49.152 417.6087Q86.016 461.6408 123.392 526.6648 160.768 591.6888 185.344 663.3687L269.312 663.3687Q258.048 629.5768 238.592 588.6168L427.008 588.6168 408.576 663.3687 496.64 663.3687 515.072 588.6168 745.472 588.6168 745.472 514.8887 518.144 514.8887 518.144 472.9048 731.136 472.9048 731.136 400.2007 518.144 400.2007 518.144 358.2168 731.136 358.2168 731.136 284.4887 518.144 284.4887 518.144 242.5048 762.88 242.5048 762.88 168.7767 221.184 168.7767 221.184 153.4167 133.12 153.4167 133.12 417.6087M39.936-262.3272Q79.872-215.2233 117.248-150.1993 154.624-85.1752 176.128-16.5673L259.072-16.5673Q238.592-80.0553 205.312-146.6153 172.032-213.1753 130.048-262.3272L39.936-262.3272M367.616 23.3688L59.392 23.3688 59.392 96.0727 367.616 96.0727 367.616 144.2008 455.68 144.2008 455.68 96.0727 762.88 96.0727 762.88 23.3688 455.68 23.3688 455.68-16.5673 643.072-16.5673Q663.552-85.1752 700.928-150.1993 738.304-215.2233 778.24-262.3272L688.128-262.3272Q627.712-189.6232 582.656-81.0793L455.68-81.0793 455.68-272.5673 367.616-272.5673 367.616 23.3688M432.128 242.5048L432.128 284.4887 221.184 284.4887 221.184 242.5048 432.128 242.5048M432.128 358.2168L432.128 400.2007 221.184 400.2007 221.184 358.2168 432.128 358.2168M432.128 472.9048L432.128 514.8887 221.184 514.8887 221.184 472.9048 432.128 472.9048Z"  horiz-adv-x="819" vert-adv-y="1024"  />

      
      <glyph glyph-name="uni5408" unicode="&#x5408;" d="M153.6 314.1848L653.312 314.1848Q578.56 406.3447 522.24 550.7287 518.144 561.9928 510.464 568.6488 502.784 575.3048 480.256 575.3048L294.912 575.3048 294.912 579.4008Q234.496 422.7287 133.12 286.5367L40.96 286.5367Q117.76 403.2727 167.936 497.4808 218.112 591.6888 237.568 649.0327L522.24 649.0327Q574.464 649.0327 591.872 597.8328 617.472 514.8887 669.184 432.4568 720.896 350.0248 778.24 286.5367L677.888 286.5367 665.6 299.8487 665.6 242.5048 153.6 242.5048 153.6 314.1848M141.312 152.3928L595.968 152.3928Q637.952 152.3928 657.92 132.9368 677.888 113.4808 677.888 86.8568L677.888-261.3032 141.312-261.3032 141.312 152.3928M595.968-188.5992L595.968 47.9447Q595.968 64.3288 587.264 71.4968 578.56 78.6648 565.248 78.6648L223.232 78.6648 223.232-188.5992 595.968-188.5992Z"  horiz-adv-x="819" vert-adv-y="1024"  />

      
      <glyph glyph-name="uni6563" unicode="&#x6563;" d="M440.32-272.5673Q504.832-170.1672 558.08-46.2632 486.4 131.9128 486.4 283.4648L486.4 342.8568 573.44 342.8568 573.44 284.4887Q573.44 193.3528 606.208 84.8088 646.144 215.8808 646.144 321.3528L646.144 451.4008 576.512 451.4008Q562.176 392.0087 548.864 359.2408L456.704 359.2408Q478.208 416.5847 497.664 496.4568 517.12 576.3288 529.408 663.3687L615.424 663.3687Q599.04 558.9207 592.896 525.1287L764.928 525.1287 764.928 451.4008 734.208 451.4008 734.208 321.3528Q734.208 153.4167 655.36-46.2632 710.656-170.1672 779.264-272.5673L679.936-272.5673Q644.096-222.3913 607.232-152.7593 573.44-223.4153 539.648-272.5673L440.32-272.5673M54.272 321.3528L352.256 321.3528Q389.12 320.3288 414.208 300.8727 439.296 281.4168 439.296 243.5288L439.296-180.4073Q439.296-226.4872 414.208-248.5033 389.12-270.5192 352.256-272.5673L287.744-272.5673 273.408-198.8392 327.68-198.8392 328.704-198.8392Q352.256-198.8392 352.256-174.2632L352.256-84.1513 142.336-84.1513 142.336-272.5673 54.272-272.5673 54.272 321.3528M352.256-10.4232L352.256 79.6888 142.336 79.6888 142.336-10.4232 352.256-10.4232M352.256 153.4167L352.256 195.4008Q352.256 221.0007 340.48 232.7767 328.704 244.5528 311.296 243.5288L142.336 243.5288 142.336 153.4167 352.256 153.4167M287.744 436.0408L287.744 525.1287 205.824 525.1287 205.824 436.0408 287.744 436.0408M38.912 436.0408L118.784 436.0408 118.784 525.1287 53.248 525.1287 53.248 598.8568 118.784 598.8568 118.784 663.3687 205.824 663.3687 205.824 598.8568 287.744 598.8568 287.744 663.3687 375.808 663.3687 375.808 598.8568 441.344 598.8568 441.344 525.1287 375.808 525.1287 375.808 436.0408 455.68 436.0408 455.68 363.3368 38.912 363.3368 38.912 436.0408Z"  horiz-adv-x="819" vert-adv-y="1024"  />

      
      <glyph glyph-name="uni63A7" unicode="&#x63A7;" d="M299.008-178.3593L496.64-178.3593 496.64 144.2008 320.512 144.2008 320.512 217.9288 758.784 217.9288 758.784 144.2008 583.68 144.2008 583.68-178.3593 780.288-178.3593 780.288-252.0872 299.008-252.0872 299.008-178.3593M56.32-198.8392L113.664-198.8392Q124.928-198.8392 133.632-191.1592 142.336-183.4793 142.336-167.0952L142.336 84.8088Q107.52 72.5208 43.008 56.1368L43.008 129.8648Q87.04 139.0808 142.336 161.6087L142.336 424.7767 43.008 424.7767 43.008 497.4808 142.336 497.4808 142.336 663.3687 229.376 663.3687 229.376 497.4808 281.6 497.4808 281.6 424.7767 229.376 424.7767 229.376 202.5688Q252.928 214.8568 281.6 236.3607L281.6 162.6327Q263.168 145.2248 229.376 124.7448L229.376-180.4073Q229.376-226.4872 200.704-248.5033 172.032-270.5192 131.072-272.5673L70.656-272.5673 56.32-198.8392M306.176 260.9368Q349.184 313.1608 381.952 371.5288L296.96 371.5288 296.96 588.6168 484.352 588.6168 455.68 663.3687 543.744 663.3687 572.416 588.6168 695.296 588.6168Q731.136 587.5928 756.736 568.1368 782.336 548.6807 782.336 510.7928L782.336 371.5288 706.56 371.5288Q739.328 313.1608 782.336 260.9368L685.056 260.9368Q658.432 287.5607 631.808 334.6648 605.184 381.7688 586.752 442.1848L673.792 442.1848Q684.032 412.4887 695.296 393.0327L695.296 463.6888Q695.296 489.2888 683.52 500.0408 671.744 510.7928 654.336 510.7928L385.024 510.7928 385.024 374.6008Q404.48 411.4647 414.72 442.1848L501.76 442.1848Q484.352 381.7688 456.704 334.6648 429.056 287.5607 402.432 260.9368L306.176 260.9368Z"  horiz-adv-x="819" vert-adv-y="1024"  />

      
      <glyph glyph-name="uni5236" unicode="&#x5236;" d="M243.712 145.2248L163.84 145.2248 163.84-210.1033 75.776-210.1033 75.776 217.9288 243.712 217.9288 243.712 295.7527 63.488 295.7527 63.488 369.4808 243.712 369.4808 243.712 484.1688 160.768 484.1688Q145.408 436.0408 129.024 410.4407L39.936 410.4407Q58.368 445.2568 76.8 503.6248 95.232 561.9928 106.496 633.6728L194.56 633.6728Q192.512 615.2408 180.224 556.8727L243.712 556.8727 243.712 663.3687 331.776 663.3687 331.776 556.8727 479.232 556.8727 479.232 484.1688 331.776 484.1688 331.776 369.4808 509.952 369.4808 509.952 295.7527 331.776 295.7527 331.776 217.9288 415.744 217.9288Q457.728 217.9288 477.696 198.9848 497.664 180.0408 497.664 153.4167L497.664-128.1832Q497.664-171.1912 472.064-191.1592 446.464-211.1273 409.6-210.1033L385.024-210.1033 369.664-136.3752 385.024-136.3752Q395.264-134.3272 402.944-129.2072 410.624-124.0872 410.624-113.8473L410.624 100.1687Q410.624 124.7448 398.848 135.4968 387.072 146.2488 369.664 145.2248L331.776 145.2248 331.776-269.4952 243.712-269.4952 243.712 145.2248M542.72 558.9207L630.784 558.9207 630.784-75.9592 542.72-75.9592 542.72 558.9207M570.368-198.8392L634.88-198.8392Q649.216-198.8392 660.48-191.1592 671.744-183.4793 671.744-166.0712L671.744 663.3687 758.784 663.3687 758.784-195.7672Q758.784-232.6312 733.696-252.0872 708.608-271.5433 671.744-272.5673L585.728-272.5673 570.368-198.8392Z"  horiz-adv-x="819" vert-adv-y="1024"  />

      
      <glyph glyph-name="uni6D41" unicode="&#x6D41;" d="M681.984 214.8568Q649.216 204.6168 609.28 196.4248 569.344 188.2328 543.744 188.2328L268.288 188.2328 268.288 260.9368 269.312 260.9368Q343.04 353.0968 401.408 489.2888L243.712 489.2888 243.712 563.0168 463.872 563.0168 430.08 663.3687 518.144 663.3687 551.936 563.0168 773.12 563.0168 773.12 489.2888 494.592 489.2888Q461.824 402.2487 426.496 344.3927 391.168 286.5367 370.688 260.9368L545.792 260.9368Q585.728 260.9368 651.264 279.3688L578.56 430.9207 663.552 430.9207 780.288 186.1848 695.296 186.1848 681.984 214.8568M37.888-272.5673Q69.632-174.2632 94.208-62.6472 118.784 48.9688 124.928 141.1288L210.944 141.1288Q203.776 29.5128 181.248-80.0553 158.72-189.6232 130.048-272.5673L37.888-272.5673M190.464-273.5913Q227.328-216.2473 252.928-150.1993 278.528-84.1513 278.528-26.8073L278.528 161.6087 365.568 161.6087 365.568-30.9032Q365.568-100.5352 341.504-165.0472 317.44-229.5592 282.624-273.5913L190.464-273.5913M444.416 161.6087L530.432 161.6087 530.432-273.5913 444.416-273.5913 444.416 161.6087M60.416 407.3687L147.456 407.3687 210.944 215.8808 122.88 215.8808 60.416 407.3687M687.104-273.5913Q652.288-273.5913 627.712-254.6472 603.136-235.7032 603.136-194.7432L603.136 161.6087 690.176 161.6087 690.176-164.0232Q690.176-183.4793 696.832-192.6952 703.488-201.9112 712.704-199.8632L784.384-199.8632 769.024-273.5913 687.104-273.5913M60.416 663.3687L147.456 663.3687 210.944 472.9048 122.88 472.9048 60.416 663.3687Z"  horiz-adv-x="819" vert-adv-y="1024"  />

      
      <glyph glyph-name="uni51FD" unicode="&#x51FD;" d="M125.952-253.1112Q98.304-253.1112 77.824-232.6312 57.344-212.1513 57.344-183.4793L57.344 451.4008 145.408 451.4008 145.408-150.7113Q145.408-162.9992 153.6-171.1912 161.792-179.3833 173.056-179.3833L673.792-179.3833 673.792 451.4008 761.856 451.4008 761.856-253.1112 125.952-253.1112M160.768-87.2232Q185.344-11.4472 209.92 80.7128 234.496 172.8727 248.832 259.9128L326.656 259.9128Q313.344 171.8487 291.328 79.1768 269.312-13.4952 245.76-87.2232L160.768-87.2232M179.2 460.6168L264.192 460.6168 332.8 305.9928 246.784 305.9928 179.2 460.6168M297.984-50.3593L354.304-50.3593Q366.592-49.3353 375.296-42.1672 384-34.9992 384-19.6393L384 477.0008 526.336 579.4008 150.528 579.4008 150.528 653.1287 635.904 653.1287 635.904 579.4008 633.856 579.4008 466.944 456.5208 466.944-41.1432Q466.944-83.1273 442.88-103.6072 418.816-124.0872 384-124.0872L313.344-124.0872 297.984-50.3593M576.512-87.2232Q553.984-13.4952 531.456 79.1768 508.928 171.8487 496.64 259.9128L573.44 259.9128Q588.8 172.8727 613.376 80.7128 637.952-11.4472 662.528-87.2232L576.512-87.2232M570.368 460.6168L655.36 460.6168 587.776 305.9928 501.76 305.9928 570.368 460.6168Z"  horiz-adv-x="819" vert-adv-y="1024"  />

      
      <glyph glyph-name="uni5B89" unicode="&#x5B89;" d="M70.656-272.5673Q218.112-194.7432 340.992-107.7032 173.056 24.3928 173.056 117.5768L173.056 243.5288 48.128 243.5288 48.128 316.2328 173.056 316.2328 173.056 422.7287 254.976 422.7287 254.976 316.2328 558.08 316.2328 558.08 422.7287 641.024 422.7287 641.024 316.2328 766.976 316.2328 766.976 243.5288 641.024 243.5288 641.024 117.5768Q641.024 24.3928 468.992-104.6312 593.92-193.7192 744.448-272.5673L602.112-272.5673Q498.688-219.3193 401.408-152.7593 300.032-219.3193 192.512-272.5673L70.656-272.5673M407.552-57.5273Q558.08 62.2808 558.08 137.0328L558.08 243.5288 254.976 243.5288 254.976 137.0328Q254.976 63.3048 407.552-57.5273M62.464 607.0488L352.256 607.0488 335.872 663.3687 423.936 663.3687 441.344 607.0488 669.696 607.0488Q710.656 607.0488 731.136 587.0807 751.616 567.1128 752.64 539.4647L752.64 393.0327 669.696 393.0327 669.696 493.3848Q670.72 510.7928 662.016 522.5688 653.312 534.3447 631.808 534.3447L144.384 534.3447 144.384 393.0327 62.464 393.0327 62.464 607.0488Z"  horiz-adv-x="819" vert-adv-y="1024"  />

      
      <glyph glyph-name="uni5168" unicode="&#x5168;" d="M62.464-196.7912L361.472-196.7912 361.472-23.7353 115.712-23.7353 115.712 49.9928 361.472 49.9928 361.472 247.6248 155.648 247.6248 155.648 308.0408 133.12 277.3208 40.96 277.3208Q117.76 393.0327 167.936 491.8487 218.112 590.6648 237.568 654.1527L522.24 654.1527Q574.464 654.1527 591.872 602.9528 617.472 518.9847 669.184 432.4568 720.896 345.9288 778.24 277.3208L686.08 277.3208 663.552 301.8967 663.552 247.6248 449.536 247.6248 449.536 49.9928 703.488 49.9928 703.488-23.7353 449.536-23.7353 449.536-196.7912 756.736-196.7912 756.736-269.4952 62.464-269.4952 62.464-196.7912M649.216 320.3288Q574.464 422.7287 522.24 555.8487 518.144 566.0888 510.464 573.2568 502.784 580.4248 480.256 580.4248L295.936 580.4248Q244.736 441.1608 163.84 320.3288L649.216 320.3288Z"  horiz-adv-x="819" vert-adv-y="1024"  />

      
      <glyph glyph-name="uni8FD4" unicode="&#x8FD4;" d="M63.488-272.5673Q96.256-181.4313 118.784-82.6153 141.312 16.2007 141.312 90.9527L141.312 103.2407 78.848 103.2407Q100.352 163.6567 117.248 236.3607 134.144 309.0648 138.24 371.5288L46.08 371.5288 46.08 445.2568 226.304 445.2568 226.304 411.4647Q226.304 296.7767 174.08 127.8168L226.304 127.8168 226.304 90.9527Q226.304-3.2552 190.464-139.4472 251.904-189.6232 309.248-189.6232L774.144-189.6232 758.784-263.3512 306.176-263.3512Q249.856-263.3512 171.008-206.0072L150.528-272.5673 63.488-272.5673M236.544-164.0232Q266.24-74.9352 286.208 37.7048 306.176 150.3448 306.176 258.8888L306.176 546.6327 306.176 619.3368 636.928 619.3368Q668.672 619.3368 695.808 628.0408 722.944 636.7448 741.376 648.0087L741.376 574.2808Q723.968 563.0168 696.32 554.8247 668.672 546.6327 636.928 546.6327L389.12 546.6327 389.12 408.3927 720.896 408.3927 720.896 239.4327Q720.896 122.6968 620.544-15.5433 679.936-96.4393 752.64-164.0232L649.216-164.0232Q609.28-130.2312 568.32-81.0793 523.264-130.2312 482.304-164.0232L387.072-164.0232Q457.728-97.4633 519.168-16.5673 433.152 112.4567 433.152 217.9288L433.152 270.1528 521.216 270.1528 521.216 223.0487Q521.216 152.3928 571.392 62.2808 633.856 163.6567 633.856 246.6008L633.856 334.6648 389.12 334.6648 389.12 248.6488Q389.12 131.9128 369.152 23.3688 349.184-85.1752 319.488-164.0232L236.544-164.0232M96.256 645.9607L179.2 645.9607 218.112 515.9127 136.192 515.9127 96.256 645.9607Z"  horiz-adv-x="819" vert-adv-y="1024"  />

      
      <glyph glyph-name="uni56DE" unicode="&#x56DE;" d="M63.488 640.8408L672.768 640.8408Q715.776 640.8408 736.256 621.8967 756.736 602.9528 756.736 575.3048L756.736-265.3992 63.488-265.3992 63.488 640.8408M672.768-191.6712L672.768 532.2967Q672.768 550.7287 664.064 558.9207 655.36 567.1128 644.096 567.1128L146.432 567.1128 146.432-191.6712 672.768-191.6712M245.76 473.9288L491.52 473.9288Q533.504 473.9288 553.472 454.9847 573.44 436.0408 573.44 409.4167L573.44-98.4873 245.76-98.4873 245.76 473.9288M491.52-25.7833L491.52 357.1928Q491.52 381.7688 483.84 392.0087 476.16 402.2487 464.896 401.2247L327.68 401.2247 327.68-25.7833 491.52-25.7833Z"  horiz-adv-x="819" vert-adv-y="1024"  />

      
      <glyph glyph-name="uni9876" unicode="&#x9876;" d="M77.824-186.5513L131.072-186.5513Q147.456-185.5273 159.232-173.7512 171.008-161.9753 171.008-138.4232L171.008 538.4407 47.104 538.4407 47.104 612.1688 355.328 612.1688 355.328 538.4407 258.048 538.4407 258.048-164.0232Q258.048-211.1273 227.84-234.1672 197.632-257.2072 154.624-260.2792L93.184-260.2792 77.824-186.5513M355.328-272.5673Q425.984-202.9352 475.648-106.1672 525.312-9.3992 525.312 93.0007L525.312 324.4248 613.376 324.4248 613.376 93.0007Q613.376 30.5368 595.968-31.9272L648.192-31.9272 779.264-272.5673 692.224-272.5673 582.656-71.8632Q560.128-133.3032 523.776-186.0393 487.424-238.7752 450.56-272.5673L355.328-272.5673M388.096 481.0968L473.088 481.0968 497.664 553.8007 369.664 553.8007 369.664 627.5288 769.024 627.5288 769.024 553.8007 584.704 553.8007 560.128 481.0968 664.576 481.0968Q701.44 480.0728 726.528 460.6168 751.616 441.1608 751.616 402.2487L751.616-31.9272 664.576-31.9272 664.576 354.1208Q664.576 379.7208 653.312 391.4968 642.048 403.2727 623.616 402.2487L475.136 402.2487 475.136-31.9272 388.096-31.9272 388.096 481.0968Z"  horiz-adv-x="819" vert-adv-y="1024"  />

      
      <glyph glyph-name="uni90E8" unicode="&#x90E8;" d="M500.736 633.6728L780.288 633.6728 780.288 556.8727Q780.288 451.4008 720.896 272.2008L780.288 272.2008 780.288-82.1033Q780.288-128.1832 755.2-150.7113 730.112-173.2392 693.248-175.2873L638.976-175.2873 622.592-101.5592 660.48-101.5592Q674.816-101.5592 684.032-94.3912 693.248-87.2232 693.248-70.8392L693.248 218.9528 614.4 218.9528Q647.168 308.0408 670.208 399.6888 693.248 491.3368 693.248 556.8727L693.248 561.9928 588.8 561.9928 588.8-272.5673 500.736-272.5673 500.736 633.6728M68.608 164.6807L364.544 164.6807Q406.528 164.6807 427.008 145.2248 447.488 125.7688 447.488 99.1447L447.488-257.2072 68.608-257.2072 68.608 164.6807M364.544-183.4793L364.544 47.9447Q364.544 72.5208 352.768 82.7608 340.992 93.0007 323.584 90.9527L150.528 90.9527 150.528-183.4793 364.544-183.4793M77.824 472.9048L162.816 472.9048 214.016 321.3528 128 321.3528 77.824 472.9048M43.008 299.8487L305.152 299.8487 353.28 472.9048 438.272 472.9048 389.12 299.8487 474.112 299.8487 474.112 227.1447 43.008 227.1447 43.008 299.8487M53.248 581.4488L217.088 581.4488 190.464 663.3687 278.528 663.3687 305.152 581.4488 462.848 581.4488 462.848 508.7448 53.248 508.7448 53.248 581.4488Z"  horiz-adv-x="819" vert-adv-y="1024"  />

      
      <glyph glyph-name="uni4E0B" unicode="&#x4E0B;" d="M366.592 575.3048L40.96 575.3048 40.96 653.1287 778.24 653.1287 778.24 575.3048 452.608 575.3048 452.608-272.5673 366.592-272.5673 366.592 575.3048M527.36 414.5367L620.544 414.5367 728.064 144.2008 633.856 144.2008 527.36 414.5367Z"  horiz-adv-x="819" vert-adv-y="1024"  />

      
      <glyph glyph-name="uni8F7D" unicode="&#x8F7D;" d="M718.848-272.5673Q694.272-272.5673 671.232-262.3272 648.192-252.0872 634.88-227.5112 614.4-181.4313 602.112-147.6393 561.152-212.1513 522.24-263.3512L432.128-263.3512Q512-153.7833 573.44-43.1912 534.528 124.7448 507.904 377.6728L41.984 377.6728 41.984 451.4008 229.376 451.4008 229.376 526.1527 73.728 526.1527 73.728 599.8808 229.376 599.8808 229.376 663.3687 315.392 663.3687 315.392 599.8808 457.728 599.8808 457.728 526.1527 315.392 526.1527 315.392 451.4008 500.736 451.4008Q492.544 532.2967 482.304 663.3687L568.32 663.3687Q576.512 530.2487 583.68 451.4008L778.24 451.4008 778.24 377.6728 590.848 377.6728Q607.232 199.4968 631.808 78.6648 657.408 146.2488 657.408 188.2328L657.408 343.8808 736.256 343.8808 736.256 180.0408Q736.256 89.9287 659.456-49.3353 681.984-128.1832 702.976-163.5112 723.968-198.8392 737.28-198.8392L778.24-198.8392 764.928-272.5673 718.848-272.5673M270.336-144.5673L64.512-144.5673 64.512-71.8632 270.336-71.8632 270.336 31.5608 68.608 31.5608 68.608 105.2887Q109.568 172.8727 143.36 242.5048L68.608 242.5048 68.608 316.2328 176.128 316.2328 190.464 354.1208 278.528 354.1208 264.192 316.2328 499.712 316.2328 499.712 242.5048 232.448 242.5048Q197.632 166.7287 157.696 105.2887L270.336 105.2887 270.336 219.9767 356.352 219.9767 356.352 105.2887 499.712 105.2887 499.712 31.5608 356.352 31.5608 356.352-67.7672Q445.44-60.5992 505.856-38.0712L505.856-111.7993Q485.376-122.0392 446.976-130.7432 408.576-139.4472 356.352-142.5192L356.352-272.5673 270.336-272.5673 270.336-144.5673M616.448 636.7448L699.392 636.7448 745.472 490.3128 662.528 490.3128 616.448 636.7448Z"  horiz-adv-x="819" vert-adv-y="1024"  />

      
      <glyph glyph-name="uni63D2" unicode="&#x63D2;" d="M299.008 278.3448L393.216 278.3448Q417.792 278.3448 435.2 286.5367 452.608 294.7287 460.8 305.9928L460.8 232.2647Q453.632 221.0007 436.736 212.8088 419.84 204.6168 393.216 204.6168L385.024 204.6168 385.024 54.0888 463.872 54.0888 463.872-19.6393 385.024-19.6393 385.024-190.6472 487.424-190.6472 487.424 378.6968 283.648 378.6968 283.648 451.4008 487.424 451.4008 487.424 570.1848 302.08 570.1848 302.08 643.9128 675.84 643.9128Q723.968 643.9128 759.808 663.3687L759.808 590.6648Q726.016 570.1848 675.84 570.1848L575.488 570.1848 575.488 451.4008 778.24 451.4008 778.24 378.6968 575.488 378.6968 575.488-190.6472 675.84-190.6472 675.84-19.6393 601.088-19.6393 601.088 54.0888 675.84 54.0888 675.84 181.0648Q675.84 195.4008 668.16 201.5448 660.48 207.6888 649.216 206.6648L601.088 206.6648 601.088 280.3928 670.72 280.3928Q709.632 281.4168 735.744 264.0088 761.856 246.6008 761.856 206.6648L761.856-264.3752 299.008-264.3752 299.008 278.3448M51.2-198.8392L108.544-198.8392Q119.808-198.8392 128.512-191.1592 137.216-183.4793 137.216-167.0952L137.216 84.8088Q97.28 71.4968 37.888 56.1368L37.888 129.8648Q81.92 139.0808 137.216 161.6087L137.216 424.7767 37.888 424.7767 37.888 497.4808 137.216 497.4808 137.216 663.3687 224.256 663.3687 224.256 497.4808 276.48 497.4808 276.48 424.7767 224.256 424.7767 224.256 202.5688Q247.808 214.8568 276.48 236.3607L276.48 162.6327Q258.048 145.2248 224.256 124.7448L224.256-180.4073Q224.256-226.4872 195.584-248.5033 166.912-270.5192 125.952-272.5673L65.536-272.5673 51.2-198.8392Z"  horiz-adv-x="819" vert-adv-y="1024"  />

      
      <glyph glyph-name="uni4EF6" unicode="&#x4EF6;" d="M475.136 35.6568L250.88 35.6568 250.88 109.3847 475.136 109.3847 475.136 409.4167 362.496 409.4167Q340.992 327.4968 321.536 279.3688L235.52 279.3688Q262.144 357.1928 287.232 456.0087 312.32 554.8247 326.656 649.0327L409.6 649.0327Q400.384 574.2808 379.904 483.1448L475.136 483.1448 475.136 663.3687 563.2 663.3687 563.2 483.1448 745.472 483.1448 745.472 409.4167 563.2 409.4167 563.2 109.3847 772.096 109.3847 772.096 35.6568 563.2 35.6568 563.2-271.5433 475.136-271.5433 475.136 35.6568M111.616 258.8888L40.96 258.8888Q89.088 367.4328 129.024 477.5127 168.96 587.5928 181.248 662.3447L269.312 662.3447Q246.784 538.4407 163.84 337.7368L198.656 337.7368 198.656-271.5433 111.616-271.5433 111.616 258.8888Z"  horiz-adv-x="819" vert-adv-y="1024"  />

      
      <glyph glyph-name="uni6253" unicode="&#x6253;" d="M409.6-197.8152L492.544-197.8152Q502.784-198.8392 510.464-191.1592 518.144-183.4793 518.144-166.0712L518.144 553.8007 330.752 553.8007 330.752 625.4808 778.24 625.4808 778.24 553.8007 604.16 553.8007 604.16-174.2632Q604.16-223.4153 579.072-246.9673 553.984-270.5192 518.144-270.5192L423.936-270.5192 409.6-197.8152M71.68-198.8392L144.384-198.8392Q156.672-198.8392 165.376-191.1592 174.08-183.4793 174.08-167.0952L174.08 89.9287Q111.616 70.4728 44.032 56.1368L44.032 129.8648Q102.4 141.1288 174.08 164.6807L174.08 424.7767 44.032 424.7767 44.032 497.4808 174.08 497.4808 174.08 663.3687 260.096 663.3687 260.096 497.4808 337.92 497.4808 337.92 424.7767 260.096 424.7767 260.096 197.4488Q312.32 221.0007 337.92 236.3607L337.92 162.6327Q311.296 144.2008 260.096 122.6968L260.096-180.4073Q260.096-226.4872 231.424-248.5033 202.752-270.5192 161.792-272.5673L87.04-272.5673 71.68-198.8392Z"  horiz-adv-x="819" vert-adv-y="1024"  />

      
      <glyph glyph-name="uni4F7F" unicode="&#x4F7F;" d="M278.528-272.5673Q310.272-234.6792 345.6-180.4073 380.928-126.1352 409.6-68.7912 345.088 6.9847 300.032 95.0487L382.976 95.0487Q410.624 46.9207 443.392 5.9608 466.944 63.3048 477.184 123.7208L293.888 123.7208 293.888 445.2568 483.328 445.2568 483.328 504.6488 274.432 504.6488 274.432 578.3768 483.328 578.3768 483.328 663.3687 566.272 663.3687 566.272 578.3768 780.288 578.3768 780.288 504.6488 566.272 504.6488 566.272 445.2568 675.84 445.2568Q717.824 445.2568 737.792 426.8247 757.76 408.3927 757.76 381.7688L757.76 123.7208 563.2 123.7208Q552.96 31.5608 505.856-65.7192 567.296-129.2072 637.952-183.4793 708.608-237.7512 769.024-272.5673L643.072-272.5673Q606.208-252.0872 560.64-216.2473 515.072-180.4073 468.992-134.3272 422.912-214.1993 370.688-272.5673L278.528-272.5673M118.784 258.8888L48.128 258.8888Q96.256 366.4088 136.192 477.0008 176.128 587.5928 188.416 662.3447L276.48 662.3447Q263.168 587.5928 233.472 501.0648 203.776 414.5367 171.008 337.7368L205.824 337.7368 205.824-271.5433 118.784-271.5433 118.784 258.8888M483.328 197.4488L483.328 373.5768 375.808 373.5768 375.808 197.4488 483.328 197.4488M675.84 197.4488L675.84 328.5208Q675.84 353.0968 664.064 363.8487 652.288 374.6008 634.88 373.5768L566.272 373.5768 566.272 197.4488 675.84 197.4488Z"  horiz-adv-x="819" vert-adv-y="1024"  />

      
      <glyph glyph-name="uni7528" unicode="&#x7528;" d="M27.648-272.5673Q51.2-230.5832 68.096-167.6072 84.992-104.6312 84.992-33.9752L84.992 630.6008 664.576 630.6008Q700.416 629.5768 725.504 610.1208 750.592 590.6648 750.592 553.8007L750.592-180.4073Q750.592-226.4872 725.504-248.5033 700.416-270.5192 664.576-272.5673L569.344-272.5673 553.984-198.8392 640-198.8392 641.024-198.8392Q664.576-198.8392 664.576-174.2632L664.576 54.0888 456.704 54.0888 456.704-254.1352 370.688-254.1352 370.688 54.0888 173.056 54.0888 173.056-39.0952Q173.056-114.8713 158.208-175.7993 143.36-236.7272 122.88-272.5673L27.648-272.5673M370.688 125.7688L370.688 304.9688 173.056 304.9688 173.056 125.7688 370.688 125.7688M370.688 378.6968L370.688 553.8007 173.056 553.8007 173.056 378.6968 370.688 378.6968M664.576 125.7688L664.576 304.9688 456.704 304.9688 456.704 125.7688 664.576 125.7688M664.576 378.6968L664.576 505.6728Q664.576 531.2727 652.8 542.5367 641.024 553.8007 623.616 553.8007L456.704 553.8007 456.704 378.6968 664.576 378.6968Z"  horiz-adv-x="819" vert-adv-y="1024"  />

      
      <glyph glyph-name="uni662F" unicode="&#x662F;" d="M52.224-272.5673Q95.232-207.0313 125.44-132.7912 155.648-58.5513 155.648 2.8888L155.648 67.4008 240.64 67.4008 240.64-0.1832Q240.64-50.3593 225.28-101.5592 290.816-157.8793 352.256-181.4313L352.256 115.5288 63.488 115.5288 63.488 189.2568 754.688 189.2568 754.688 115.5288 438.272 115.5288 438.272 2.8888 718.848 2.8888 718.848-70.8392 438.272-70.8392 438.272-198.8392 446.464-198.8392 778.24-198.8392 762.88-272.5673 444.416-272.5673Q313.344-272.5673 198.656-175.2873 173.056-231.6072 141.312-272.5673L52.224-272.5673M602.112 321.3528L602.112 415.5607 216.064 415.5607 216.064 321.3528 602.112 321.3528M128 655.1767L607.232 655.1767Q649.216 655.1767 669.184 635.7208 689.152 616.2648 689.152 589.6408L689.152 248.6488 128 248.6488 128 655.1767M602.112 489.2888L602.112 556.8727Q602.112 570.1848 594.944 575.8168 587.776 581.4488 578.56 581.4488L216.064 581.4488 216.064 489.2888 602.112 489.2888Z"  horiz-adv-x="819" vert-adv-y="1024"  />

      
      <glyph glyph-name="uni4E0D" unicode="&#x4E0D;" d="M58.368-31.9272Q140.288 119.6248 211.968 280.3928 283.648 441.1608 315.392 558.9207L35.84 558.9207 35.84 636.7448 782.336 636.7448 782.336 558.9207 403.456 558.9207Q369.664 420.6807 297.984 262.4728 226.304 104.2647 145.408-31.9272L58.368-31.9272M379.904 414.5367L466.944 414.5367 466.944-271.5433 379.904-271.5433 379.904 414.5367M681.984-31.9272Q642.048 123.7208 532.48 414.5367L623.616 414.5367Q723.968 160.5847 770.048-31.9272L681.984-31.9272Z"  horiz-adv-x="819" vert-adv-y="1024"  />

      
      <glyph glyph-name="uni53EF" unicode="&#x53EF;" d="M450.56-196.7912L566.272-196.7912Q578.56-195.7672 587.264-187.5753 595.968-179.3833 595.968-164.0232L595.968 567.1128 47.104 567.1128 47.104 640.8408 773.12 640.8408 773.12 567.1128 683.008 567.1128 683.008-182.4553Q683.008-224.4393 657.408-245.9433 631.808-267.4472 595.968-269.4952L465.92-269.4952 450.56-196.7912M111.616 460.6168L421.888 460.6168Q463.872 460.6168 484.352 441.6728 504.832 422.7287 504.832 395.0807L504.832-83.1273 111.616-83.1273 111.616 460.6168M421.888-9.3992L421.888 357.1928Q421.888 371.5288 413.184 379.2088 404.48 386.8887 391.168 386.8887L194.56 386.8887 194.56-9.3992 421.888-9.3992Z"  horiz-adv-x="819" vert-adv-y="1024"  />

      
      <glyph glyph-name="uni53D8" unicode="&#x53D8;" d="M40.96-272.5673Q105.472-244.9193 184.32-201.3992 263.168-157.8793 336.896-105.6552 221.184-3.2552 146.432 117.5768L234.496 117.5768Q297.984 31.5608 403.456-54.4553 534.528 51.0168 603.136 162.6327L101.376 162.6327 101.376 236.3607 701.44 236.3607 701.44 162.6327Q625.664 17.2248 470.016-104.6312 543.744-156.8553 621.568-200.8872 699.392-244.9193 762.88-272.5673L582.656-272.5673Q494.592-231.6072 398.336-155.8313 338.944-194.7432 280.064-224.9513 221.184-255.1592 175.104-272.5673L40.96-272.5673M128 465.7368L214.016 465.7368 164.864 294.7287 78.848 294.7287 128 465.7368M247.808 525.1287L46.08 525.1287 46.08 598.8568 358.4 598.8568 338.944 663.3687 427.008 663.3687 444.416 598.8568 766.976 598.8568 766.976 525.1287 574.464 525.1287 574.464 273.2248 492.544 273.2248 492.544 525.1287 329.728 525.1287 329.728 273.2248 247.808 273.2248 247.808 525.1287M608.256 465.7368L696.32 465.7368 745.472 294.7287 657.408 294.7287 608.256 465.7368Z"  horiz-adv-x="819" vert-adv-y="1024"  />

      
      <glyph glyph-name="uni53EA" unicode="&#x53EA;" d="M109.568 649.0327L623.616 649.0327Q665.6 649.0327 686.08 630.0888 706.56 611.1448 706.56 583.4968L706.56 149.3208 109.568 149.3208 109.568 649.0327M51.2-272.5673Q102.4-198.8392 150.016-99.5113 197.632-0.1832 223.232 104.2647L307.2 104.2647Q286.72-0.1832 242.688-99.5113 198.656-198.8392 149.504-272.5673L51.2-272.5673M675.84-272.5673Q626.688-198.8392 583.168-99.5113 539.648-0.1832 518.144 104.2647L602.112 104.2647Q627.712-0.1832 675.328-99.5113 722.944-198.8392 774.144-272.5673L675.84-272.5673M623.616 222.0247L623.616 546.6327Q623.616 561.9928 614.912 568.6488 606.208 575.3048 592.896 575.3048L191.488 575.3048 191.488 222.0247 623.616 222.0247Z"  horiz-adv-x="819" vert-adv-y="1024"  />

      
      <glyph glyph-name="uni8BFB" unicode="&#x8BFB;" d="M313.344-270.5192Q364.544-228.5352 414.72-166.5832 464.896-104.6312 496.64-34.9992L278.528-34.9992 278.528 38.7287 524.288 38.7287Q538.624 91.9767 538.624 139.0808L538.624 299.8487 620.544 299.8487 620.544 146.2488Q620.544 91.9767 607.232 38.7287L777.216 38.7287 777.216-34.9992 583.68-34.9992Q578.56-50.3593 572.416-60.5992L638.976-60.5992 761.856-270.5192 675.84-270.5192 563.2-81.0793Q532.48-139.4472 491.008-189.1112 449.536-238.7752 409.6-270.5192L313.344-270.5192M132.096-180.4073L132.096-170.1672 132.096 333.6408Q131.072 344.9048 123.392 353.0968 115.712 361.2888 100.352 361.2888L39.936 361.2888 39.936 435.0168 136.192 435.0168Q177.152 435.0168 197.632 415.0488 218.112 395.0807 219.136 367.4328L219.136-132.2792Q266.24-104.6312 293.888-75.9592L293.888-149.6873Q272.384-177.3353 230.912-202.4232 189.44-227.5112 132.096-242.8713L132.096-180.4073M283.648 188.2328L370.688 188.2328 424.96 68.4248 336.896 68.4248 283.648 188.2328M368.64 284.4887L456.704 284.4887 509.952 165.7047 422.912 165.7047 368.64 284.4887M113.664 660.2967L201.728 660.2967 235.52 515.9127 148.48 515.9127 113.664 660.2967M678.912 299.8487Q679.936 317.2568 671.232 329.0327 662.528 340.8088 641.024 340.8088L292.864 340.8088 292.864 414.5367 480.256 414.5367 480.256 505.6728 301.056 505.6728 301.056 578.3768 480.256 578.3768 480.256 663.3687 566.272 663.3687 566.272 578.3768 753.664 578.3768 753.664 505.6728 566.272 505.6728 566.272 414.5367 678.912 414.5367Q718.848 414.5367 739.328 394.5688 759.808 374.6008 760.832 345.9288L760.832 186.1848 678.912 186.1848 678.912 299.8487Z"  horiz-adv-x="819" vert-adv-y="1024"  />

      
      <glyph glyph-name="uni91CF" unicode="&#x91CF;" d="M52.224-190.6472L365.568-190.6472 365.568-157.8793 95.232-157.8793 95.232-85.1752 365.568-85.1752 365.568-52.4073 108.544-52.4073 108.544 224.0727 626.688 224.0727Q668.672 224.0727 689.152 205.1288 709.632 186.1848 709.632 158.5367L709.632-52.4073 452.608-52.4073 452.608-85.1752 722.944-85.1752 722.944-157.8793 452.608-157.8793 452.608-190.6472 765.952-190.6472 765.952-263.3512 52.224-263.3512 52.224-190.6472M365.568 21.3208L365.568 56.1368 191.488 56.1368 191.488 21.3208 365.568 21.3208M365.568 116.5528L365.568 150.3448 191.488 150.3448 191.488 116.5528 365.568 116.5528M626.688 21.3208L626.688 56.1368 452.608 56.1368 452.608 21.3208 626.688 21.3208M626.688 116.5528L626.688 122.6968Q626.688 137.0328 617.472 143.1768 608.256 149.3208 594.944 150.3448L452.608 150.3448 452.608 116.5528 626.688 116.5528M52.224 330.5688L765.952 330.5688 765.952 256.8408 52.224 256.8408 52.224 330.5688M626.688 433.9928L626.688 467.7848 191.488 467.7848 191.488 433.9928 626.688 433.9928M108.544 637.7688L626.688 637.7688Q668.672 637.7688 689.152 618.3128 709.632 598.8568 709.632 572.2328L709.632 360.2648 108.544 360.2648 108.544 637.7688M626.688 529.2247L626.688 535.3687Q626.688 549.7047 617.472 556.3608 608.256 563.0168 594.944 564.0408L191.488 564.0408 191.488 529.2247 626.688 529.2247Z"  horiz-adv-x="819" vert-adv-y="1024"  />

      
      <glyph glyph-name="uni8FD0" unicode="&#x8FD0;" d="M63.488-272.5673Q96.256-181.4313 118.784-82.6153 141.312 16.2007 141.312 90.9527L141.312 103.2407 78.848 103.2407Q100.352 163.6567 117.248 236.3607 134.144 309.0648 138.24 371.5288L46.08 371.5288 46.08 445.2568 226.304 445.2568 226.304 411.4647Q226.304 296.7767 174.08 127.8168L226.304 127.8168 226.304 90.9527Q226.304-3.2552 190.464-139.4472 251.904-189.6232 309.248-189.6232L774.144-189.6232 758.784-263.3512 307.2-263.3512Q248.832-263.3512 172.032-206.0072L150.528-272.5673 63.488-272.5673M670.72-98.4873Q598.016-126.1352 463.872-126.1352L256-126.1352 256-52.4073 463.872-52.4073Q561.152-52.4073 645.12-30.9032L583.68 131.9128 670.72 131.9128 776.192-145.5913 688.128-145.5913 670.72-98.4873M256-52.4073Q301.056 16.2007 342.528 94.0247 384 171.8487 406.528 234.3127L266.24 234.3127 266.24 308.0408 756.736 308.0408 756.736 234.3127 494.592 234.3127Q462.848 144.2008 422.4 68.9368 381.952-6.3272 344.064-52.4073L256-52.4073M96.256 645.9607L179.2 645.9607 218.112 515.9127 136.192 515.9127 96.256 645.9607M278.528 615.2408L744.448 615.2408 744.448 541.5127 278.528 541.5127 278.528 615.2408Z"  horiz-adv-x="819" vert-adv-y="1024"  />

      
      <glyph glyph-name="uni884C" unicode="&#x884C;" d="M413.696-197.8152L516.096-197.8152Q527.36-197.8152 536.064-189.6232 544.768-181.4313 544.768-165.0472L544.768 223.0487 320.512 223.0487 320.512 296.7767 780.288 296.7767 780.288 223.0487 632.832 223.0487 632.832-178.3593Q632.832-223.4153 604.16-245.9433 575.488-268.4712 533.504-270.5192L429.056-270.5192 413.696-197.8152M157.696 120.6488L58.368 120.6488Q110.592 189.2568 155.648 274.7608 200.704 360.2648 218.112 441.1608L306.176 441.1608Q282.624 322.3768 215.04 209.7368L259.072 209.7368 259.072-270.5192 173.056-270.5192 173.056 141.1288 157.696 120.6488M43.008 341.8328Q95.232 410.4407 140.288 496.4568 185.344 582.4728 203.776 663.3687L290.816 663.3687Q272.384 576.3288 230.912 491.3368 189.44 406.3447 142.336 341.8328L43.008 341.8328M356.352 617.2888L744.448 617.2888 744.448 545.6087 356.352 545.6087 356.352 617.2888Z"  horiz-adv-x="819" vert-adv-y="1024"  />

      
      <glyph glyph-name="uni65F6" unicode="&#x65F6;" d="M441.344-198.8392L574.464-198.8392Q586.752-198.8392 595.456-191.1592 604.16-183.4793 604.16-167.0952L604.16 400.2007 361.472 400.2007 361.472 472.9048 604.16 472.9048 604.16 663.3687 690.176 663.3687 690.176 472.9048 770.048 472.9048 770.048 400.2007 690.176 400.2007 690.176-179.3833Q690.176-224.4393 661.504-247.4793 632.832-270.5192 591.872-272.5673L456.704-272.5673 441.344-198.8392M245.76-116.9193L245.76 173.8967 144.384 173.8967 144.384-116.9193 245.76-116.9193M56.32 612.1688L250.88 612.1688Q292.864 612.1688 313.344 592.7128 333.824 573.2568 333.824 546.6327L333.824-190.6472 56.32-190.6472 56.32 612.1688M245.76 246.6008L245.76 513.8647Q245.76 526.1527 239.616 532.2967 233.472 538.4407 223.232 538.4407L144.384 538.4407 144.384 246.6008 245.76 246.6008M398.336 301.8967L485.376 301.8967 542.72 9.0327 455.68 9.0327 398.336 301.8967Z"  horiz-adv-x="819" vert-adv-y="1024"  />

      
      <glyph glyph-name="uni6307" unicode="&#x6307;" d="M64.512-198.8392L119.808-198.8392Q132.096-198.8392 140.8-191.1592 149.504-183.4793 149.504-167.0952L149.504 84.8088Q111.616 71.4968 51.2 56.1368L51.2 129.8648Q95.232 140.1048 149.504 161.6087L149.504 424.7767 51.2 424.7767 51.2 497.4808 149.504 497.4808 149.504 663.3687 237.568 663.3687 237.568 497.4808 289.792 497.4808 289.792 424.7767 237.568 424.7767 237.568 202.5688Q261.12 214.8568 289.792 236.3607L289.792 162.6327Q271.36 145.2248 237.568 125.7688L237.568-179.3833Q237.568-224.4393 208.896-247.4793 180.224-270.5192 138.24-272.5673L78.848-272.5673 64.512-198.8392M668.672-186.5513L668.672-64.6952 413.696-64.6952 413.696-186.5513 668.672-186.5513M330.752 204.6168L668.672 204.6168Q711.68 204.6168 731.136 185.6728 750.592 166.7287 750.592 140.1048L750.592-260.2792 330.752-260.2792 330.752 204.6168M668.672 9.0327L668.672 87.8808Q668.672 112.4567 656.384 122.6968 644.096 132.9368 626.688 131.9128L413.696 131.9128 413.696 9.0327 668.672 9.0327M439.296 258.8888Q394.24 260.9368 362.496 289.0967 330.752 317.2568 330.752 373.5768L330.752 663.3687 413.696 663.3687 413.696 522.0567Q616.448 549.7047 750.592 599.8808L750.592 526.1527Q712.704 504.6488 626.176 482.6327 539.648 460.6168 413.696 448.3288L413.696 396.1047Q413.696 365.3848 429.568 349.5127 445.44 333.6408 467.968 332.6168L770.048 332.6168 754.688 258.8888 439.296 258.8888Z"  horiz-adv-x="819" vert-adv-y="1024"  />

      
      <glyph glyph-name="uni5B9A" unicode="&#x5B9A;" d="M67.584-271.5433Q100.352-189.6232 123.392-85.1752 146.432 19.2728 146.432 120.6488L146.432 219.9767 232.448 219.9767 232.448 114.5048Q232.448 34.6328 220.16-39.0952 282.624-134.3272 367.616-170.1672L367.616 297.8007 51.2 297.8007 51.2 370.5048 771.072 370.5048 771.072 297.8007 454.656 297.8007 454.656 113.4808 740.352 113.4808 740.352 40.7767 454.656 40.7767 454.656-189.6232 465.92-189.6232 773.12-189.6232 757.76-262.3272 460.8-262.3272Q369.664-262.3272 305.664-224.9513 241.664-187.5753 199.68-134.3272 180.224-214.1993 155.648-271.5433L67.584-271.5433M64.512 607.0488L355.328 607.0488 338.944 663.3687 428.032 663.3687 444.416 607.0488 672.768 607.0488Q712.704 607.0488 733.184 587.0807 753.664 567.1128 754.688 539.4647L754.688 404.2967 672.768 404.2967 672.768 493.3848Q673.792 510.7928 665.088 522.5688 656.384 534.3447 634.88 534.3447L146.432 534.3447 146.432 404.2967 64.512 404.2967 64.512 607.0488Z"  horiz-adv-x="819" vert-adv-y="1024"  />

      
      <glyph glyph-name="uni4FEE" unicode="&#x4FEE;" d="M306.176 195.4008Q404.48 248.6488 497.664 328.5208 446.464 378.6968 417.792 418.6327L390.144 371.5288 305.152 371.5288Q342.016 432.9688 379.904 510.2808 417.792 587.5928 444.416 662.3447L527.36 662.3447Q517.12 630.6008 499.712 588.6168L743.424 588.6168 743.424 514.8887Q710.656 426.8247 609.28 328.5208 702.464 248.6488 800.768 195.4008L676.864 195.4008Q616.448 230.2167 552.96 280.3928 489.472 230.2167 430.08 195.4008L306.176 195.4008M107.52 258.8888L35.84 258.8888Q83.968 367.4328 123.904 477.5127 163.84 587.5928 176.128 662.3447L264.192 662.3447Q250.88 587.5928 221.184 501.0648 191.488 414.5367 158.72 337.7368L193.536 337.7368 193.536-271.5433 107.52-271.5433 107.52 258.8888M223.232 392.0087L297.984 392.0087 297.984-204.9832 223.232-204.9832 223.232 392.0087M338.944-271.5433Q439.296-213.1753 531.456-131.2552 623.616-49.3353 671.744 40.7767L768 40.7767Q720.896-54.4553 635.392-136.3752 549.888-218.2953 458.752-271.5433L338.944-271.5433M327.68-144.5673Q394.24-101.5592 466.432-30.9032 538.624 39.7527 594.944 130.8888L692.224 130.8888Q636.928 35.6568 568.832-34.9992 500.736-105.6552 439.296-144.5673L327.68-144.5673M305.152-11.4472Q358.4 26.4408 417.792 87.8808 477.184 149.3208 524.288 222.0247L623.616 222.0247Q576.512 146.2488 520.192 85.3208 463.872 24.3928 414.72-11.4472L305.152-11.4472M552.96 379.7208Q619.52 447.3048 661.504 514.8887L466.944 514.8887 448.512 480.0728 468.992 480.0728Q505.856 426.8247 552.96 379.7208Z"  horiz-adv-x="819" vert-adv-y="1024"  />

      
      <glyph glyph-name="uni6539" unicode="&#x6539;" d="M378.88-272.5673Q414.72-231.6072 456.192-173.7512 497.664-115.8953 532.48-52.4073 441.344 124.7448 441.344 283.4648L441.344 342.8568 527.36 342.8568 527.36 284.4887Q527.36 179.0168 583.68 46.9207 647.168 191.3048 647.168 308.0408L647.168 452.4248 516.096 452.4248Q501.76 393.0327 489.472 359.2408L395.264 359.2408Q416.768 416.5847 436.736 496.4568 456.704 576.3288 467.968 663.3687L555.008 663.3687Q545.792 590.6648 531.456 525.1287L779.264 525.1287 779.264 452.4248 734.208 452.4248 734.208 305.9928Q734.208 138.0568 631.808-52.4073 697.344-174.2632 779.264-272.5673L679.936-272.5673Q630.784-215.2233 581.632-138.4232 530.432-216.2473 480.256-272.5673L378.88-272.5673M50.176-253.1112L50.176-194.7432 50.176 261.9608 293.888 261.9608 293.888 527.1767Q293.888 540.4887 287.232 546.1208 280.576 551.7527 271.36 551.7527L40.96 551.7527 40.96 625.4808 297.984 625.4808Q340.992 625.4808 361.472 606.5367 381.952 587.5928 381.952 559.9447L381.952 188.2328 137.216 188.2328 137.216-183.4793Q275.456-161.9753 378.88-117.9432L378.88-190.6472Q329.728-215.2233 245.248-237.2392 160.768-259.2552 50.176-268.4712L50.176-253.1112Z"  horiz-adv-x="819" vert-adv-y="1024"  />

      
      <glyph glyph-name="uni7F16" unicode="&#x7F16;" d="M266.24-271.5433Q286.72-222.3913 301.568-137.3992 316.416-52.4073 316.416 55.1128L316.416 597.8328 491.52 597.8328 465.92 663.3687 553.984 663.3687 579.584 597.8328 695.296 597.8328Q737.28 597.8328 757.76 578.3768 778.24 558.9207 778.24 532.2967L778.24 351.0488 404.48 351.0488 404.48 49.9928Q404.48-62.6472 389.12-145.0793 373.76-227.5112 351.232-271.5433L266.24-271.5433M37.888-172.2152L154.624-172.2152Q192.512-172.2152 225.792-161.4633 259.072-150.7113 281.6-136.3752L281.6-208.0553Q265.216-223.4153 232.448-234.6792 199.68-245.9433 154.624-245.9433L37.888-245.9433 37.888-172.2152M37.888 18.2488Q52.224 42.8247 81.408 99.6567 110.592 156.4887 139.264 219.9767L37.888 219.9767 37.888 293.7047Q73.728 376.6488 109.056 475.4647 144.384 574.2808 165.888 663.3687L256 663.3687Q228.352 541.5127 195.072 453.9607 161.792 366.4088 130.048 293.7047L169.984 293.7047Q202.752 377.6728 212.992 426.8247L305.152 426.8247Q264.192 251.7208 138.24 18.2488L154.624 18.2488Q192.512 18.2488 225.792 29.0008 259.072 39.7527 281.6 55.1128L281.6-18.6153Q265.216-33.9752 232.448-44.7272 199.68-55.4793 154.624-55.4793L37.888-55.4793 37.888 18.2488M422.912 320.3288L702.464 320.3288Q735.232 319.3048 758.272 300.3607 781.312 281.4168 781.312 243.5288L781.312-191.6712Q781.312-230.5832 761.856-250.5513 742.4-270.5192 714.752-271.5433L698.368-271.5433 684.032-198.8392 686.08-198.8392Q702.464-198.8392 702.464-180.4073L702.464-16.5673 676.864-16.5673 676.864-261.3032 613.376-261.3032 613.376-16.5673 588.8-16.5673 588.8-261.3032 526.336-261.3032 526.336-16.5673 499.712-16.5673 499.712-271.5433 422.912-271.5433 422.912 320.3288M526.336 57.1608L526.336 243.5288 499.712 243.5288 499.712 57.1608 526.336 57.1608M613.376 57.1608L613.376 243.5288 588.8 243.5288 588.8 57.1608 613.376 57.1608M702.464 57.1608L702.464 223.0487Q702.464 238.4087 692.736 241.9928 683.008 245.5768 676.864 243.5288L676.864 57.1608 702.464 57.1608M691.2 423.7527L691.2 499.5288Q691.2 512.8408 681.472 518.4728 671.744 524.1047 659.456 524.1047L404.48 524.1047 404.48 423.7527 691.2 423.7527Z"  horiz-adv-x="819" vert-adv-y="1024"  />

      
      <glyph glyph-name="uni8BD1" unicode="&#x8BD1;" d="M492.544-100.5352L302.08-100.5352 302.08-26.8073 492.544-26.8073 492.544 98.1207 315.392 98.1207 315.392 170.8247 492.544 170.8247 492.544 256.8408 578.56 256.8408 578.56 170.8247 755.712 170.8247 755.712 98.1207 578.56 98.1207 578.56-26.8073 770.048-26.8073 770.048-100.5352 578.56-100.5352 578.56-272.5673 492.544-272.5673 492.544-100.5352M126.976-180.4073L126.976-169.1432 126.976 333.6408Q125.952 344.9048 118.784 353.0968 111.616 361.2888 97.28 361.2888L34.816 361.2888 34.816 435.0168 132.096 435.0168Q172.032 435.0168 192.512 415.0488 212.992 395.0807 214.016 367.4328L214.016-132.2792Q254.976-107.7032 286.72-75.9592L286.72-149.6873Q265.216-177.3353 224.768-202.4232 184.32-227.5112 126.976-242.8713L126.976-180.4073M109.568 660.2967L196.608 660.2967 231.424 515.9127 143.36 515.9127 109.568 660.2967M286.72 253.7688Q390.144 309.0648 483.328 378.6968 403.456 450.3768 349.184 535.3687L444.416 535.3687Q482.304 483.1448 543.744 428.8727 627.712 506.6968 649.216 571.2088L319.488 571.2088 319.488 644.9368 734.208 644.9368 734.208 573.2568Q708.608 467.7848 607.232 376.6488 697.344 305.9928 791.552 253.7688L652.288 253.7688Q602.112 280.3928 542.72 326.4728 476.16 279.3688 409.6 253.7688L286.72 253.7688Z"  horiz-adv-x="819" vert-adv-y="1024"  />

      
      <glyph glyph-name="uni5E38" unicode="&#x5E38;" d="M366.592 39.7527L183.296 39.7527 183.296-191.6712 96.256-191.6712 96.256 112.4567 366.592 112.4567 366.592 155.4647 154.624 155.4647 154.624 396.1047 578.56 396.1047Q623.616 396.1047 645.12 377.6728 666.624 359.2408 666.624 332.6168L666.624 155.4647 455.68 155.4647 455.68 112.4567 637.952 112.4567Q679.936 112.4567 701.44 93.0007 722.944 73.5448 726.016 45.8967L726.016-108.7272Q726.016-148.6633 699.904-169.1432 673.792-189.6232 637.952-191.6712L594.944-191.6712 579.584-117.9432 614.4-117.9432 616.448-117.9432Q637.952-117.9432 637.952-91.3192L637.952-1.2072Q638.976 16.2007 629.76 27.9768 620.544 39.7527 598.016 39.7527L455.68 39.7527 455.68-270.5192 366.592-270.5192 366.592 39.7527M578.56 229.1927L578.56 297.8007Q578.56 309.0648 571.904 316.7448 565.248 324.4248 550.912 324.4248L243.712 324.4248 243.712 229.1927 578.56 229.1927M144.384 632.6488L231.424 632.6488 271.36 537.4167 182.272 537.4167 144.384 632.6488M57.344 521.0327L367.616 521.0327 367.616 663.3687 453.632 663.3687 453.632 521.0327 681.984 521.0327Q721.92 521.0327 742.4 501.0648 762.88 481.0968 763.904 452.4248L763.904 352.0728 676.864 352.0728 676.864 406.3447Q677.888 423.7527 669.184 435.5288 660.48 447.3048 638.976 447.3048L145.408 447.3048 145.408 352.0728 57.344 352.0728 57.344 521.0327M589.824 632.6488L678.912 632.6488 638.976 537.4167 549.888 537.4167 589.824 632.6488Z"  horiz-adv-x="819" vert-adv-y="1024"  />

      
      <glyph glyph-name="uni5FC5" unicode="&#x5FC5;" d="M347.136-252.0872Q304.128-249.0153 272.384-222.9033 240.64-196.7912 239.616-144.5673 190.464-182.4553 155.648-204.9832L35.84-204.9832Q132.096-137.3992 238.592-33.9752L238.592 502.6008 321.536 502.6008 321.536 49.9928Q549.888 299.8487 641.024 558.9207L745.472 558.9207Q669.696 355.1448 556.544 197.9608 443.392 40.7767 321.536-72.8872L321.536-113.8473Q321.536-145.5913 337.408-161.4633 353.28-177.3353 374.784-178.3593L705.536-178.3593 690.176-252.0872 347.136-252.0872M71.68-30.9032Q95.232 114.5048 106.496 366.4088L186.368 366.4088Q177.152 114.5048 152.576-30.9032L71.68-30.9032M690.176-54.4553Q660.48 158.5367 628.736 283.4648L709.632 283.4648Q741.376 158.5367 771.072-54.4553L690.176-54.4553M401.408 423.7527Q381.952 551.7527 352.256 663.3687L435.2 663.3687Q462.848 551.7527 481.28 423.7527L401.408 423.7527Z"  horiz-adv-x="819" vert-adv-y="1024"  />

      
      <glyph glyph-name="uni987B" unicode="&#x987B;" d="M377.856 481.0968L477.184 481.0968 503.808 553.8007 360.448 553.8007 360.448 627.5288 775.168 627.5288 775.168 553.8007 589.824 553.8007 565.248 481.0968 670.72 481.0968Q706.56 480.0728 732.16 460.6168 757.76 441.1608 757.76 402.2487L757.76-31.9272 670.72-31.9272 670.72 354.1208Q670.72 379.7208 658.944 391.4968 647.168 403.2727 629.76 402.2487L464.896 402.2487 464.896-31.9272 377.856-31.9272 377.856 481.0968M48.128-272.5673Q113.664-204.9832 167.424-122.0392 221.184-39.0952 237.568 39.7527L326.656 39.7527Q312.32-44.2152 262.656-127.6713 212.992-211.1273 151.552-272.5673L48.128-272.5673M48.128 39.7527Q113.664 107.3367 167.424 190.2808 221.184 273.2248 237.568 352.0728L326.656 352.0728Q312.32 268.1048 262.656 184.6488 212.992 101.1927 151.552 39.7527L48.128 39.7527M342.016-272.5673Q417.792-202.9352 471.04-106.1672 524.288-9.3992 524.288 93.0007L524.288 324.4248 611.328 324.4248 611.328 93.0007Q611.328 30.5368 593.92-31.9272L654.336-31.9272 784.384-272.5673 697.344-272.5673 582.656-62.6472Q559.104-126.1352 521.216-181.4313 483.328-236.7272 444.416-272.5673L342.016-272.5673M48.128 352.0728Q113.664 418.6327 167.424 501.5768 221.184 584.5208 237.568 663.3687L326.656 663.3687Q312.32 579.4008 262.656 496.9688 212.992 414.5367 151.552 352.0728L48.128 352.0728Z"  horiz-adv-x="819" vert-adv-y="1024"  />

      
      <glyph glyph-name="uni5728" unicode="&#x5728;" d="M154.624 153.4167Q138.24 132.9368 125.952 121.6728L33.792 121.6728Q81.92 181.0648 137.216 266.0568 192.512 351.0488 239.616 444.2328L47.104 444.2328 47.104 517.9607 274.432 517.9607Q307.2 592.7128 328.704 663.3687L415.744 663.3687Q394.24 592.7128 364.544 517.9607L771.072 517.9607 771.072 444.2328 333.824 444.2328Q284.672 340.8088 221.184 243.5288L240.64 243.5288 240.64-272.5673 154.624-272.5673 154.624 153.4167M263.168-162.9992L474.112-162.9992 474.112 121.6728 286.72 121.6728 286.72 195.4008 474.112 195.4008 474.112 395.0807 561.152 395.0807 561.152 195.4008 748.544 195.4008 748.544 121.6728 561.152 121.6728 561.152-162.9992 771.072-162.9992 771.072-235.7032 263.168-235.7032 263.168-162.9992Z"  horiz-adv-x="819" vert-adv-y="1024"  />

      
      <glyph glyph-name="uni5DF2" unicode="&#x5DF2;" d="M179.2-253.1112Q138.24-253.1112 109.568-229.0472 80.896-204.9832 80.896-153.7833L80.896 392.0087 167.936 392.0087 167.936 268.1048 632.832 268.1048 632.832 543.5607Q632.832 553.8007 625.664 557.8967 618.496 561.9928 609.28 561.9928L70.656 561.9928 70.656 635.7208 649.216 635.7208Q678.912 635.7208 699.392 621.8967 719.872 608.0728 719.872 578.3768L719.872 194.3768 167.936 194.3768 167.936-131.2552Q167.936-155.8313 179.712-167.6072 191.488-179.3833 208.896-180.4073L769.024-180.4073 753.664-253.1112 179.2-253.1112Z"  horiz-adv-x="819" vert-adv-y="1024"  />

      
      <glyph glyph-name="uni77E5" unicode="&#x77E5;" d="M53.248-272.5673Q102.4-187.5753 142.336-76.4712 182.272 34.6328 193.536 145.2248L59.392 145.2248 59.392 217.9288 198.656 217.9288 198.656 222.0247 198.656 461.6408 160.768 461.6408Q145.408 378.6968 126.976 312.1368L44.032 312.1368Q65.536 390.9847 82.432 484.6807 99.328 578.3768 104.448 660.2967L188.416 660.2967Q182.272 589.6408 174.08 535.3687L395.264 535.3687 395.264 461.6408 280.576 461.6408 280.576 217.9288 410.624 217.9288 410.624 145.2248 278.528 145.2248Q275.456 119.6248 268.288 79.6888L339.968 79.6888 411.648-272.5673 323.584-272.5673 262.144 37.7048Q242.688-49.3353 211.456-131.2552 180.224-213.1753 145.408-272.5673L53.248-272.5673M427.008 578.3768L674.816 578.3768Q716.8 578.3768 736.768 558.9207 756.736 539.4647 756.736 512.8408L756.736-246.9673 427.008-246.9673 427.008 578.3768M674.816-173.2392L674.816 482.1208Q674.816 494.4088 667.136 500.0408 659.456 505.6728 649.216 504.6488L508.928 504.6488 508.928-173.2392 674.816-173.2392Z"  horiz-adv-x="819" vert-adv-y="1024"  />

      
      <glyph glyph-name="uni7684" unicode="&#x7684;" d="M534.528-181.4313L658.432-181.4313Q671.744-182.4553 680.448-174.7752 689.152-167.0952 689.152-150.7113L689.152 425.8007Q689.152 451.4008 677.376 462.1527 665.6 472.9048 648.192 469.8328L525.312 469.8328Q503.808 385.8647 481.28 325.4488L399.36 325.4488Q423.936 394.0567 445.952 483.6567 467.968 573.2568 479.232 663.3687L561.152 663.3687Q549.888 582.4728 541.696 543.5607L689.152 543.5607Q731.136 543.5607 751.104 524.6168 771.072 505.6728 771.072 478.0248L771.072-164.0232Q771.072-207.0313 745.472-230.0712 719.872-253.1112 681.984-255.1592L549.888-255.1592 534.528-181.4313M293.888-181.4313L293.888 131.9128 146.432 131.9128 146.432-181.4313 293.888-181.4313M58.368 546.6327L118.784 546.6327 155.648 663.3687 236.544 663.3687 199.68 546.6327 297.984 546.6327Q339.968 546.6327 360.448 527.6888 380.928 508.7448 380.928 482.1208L380.928-255.1592 58.368-255.1592 58.368 546.6327M293.888 204.6168L293.888 449.3528Q293.888 461.6408 287.232 467.7848 280.576 473.9288 271.36 473.9288L146.432 473.9288 146.432 204.6168 293.888 204.6168M443.392 283.4648L532.48 283.4648 588.8-9.3992 500.736-9.3992 443.392 283.4648Z"  horiz-adv-x="819" vert-adv-y="1024"  />

      
      <glyph glyph-name="uni653E" unicode="&#x653E;" d="M37.888-272.5673Q79.872-194.7432 108.544-72.3752 137.216 49.9928 137.216 194.3768L137.216 477.0008 62.464 477.0008 62.464 550.7287 224.256 550.7287 186.368 663.3687 274.432 663.3687 311.296 550.7287 453.632 550.7287 453.632 477.0008 223.232 477.0008 223.232 344.9048 346.112 344.9048Q388.096 344.9048 408.576 325.4488 429.056 305.9928 429.056 279.3688L429.056-180.4073Q429.056-226.4872 404.992-249.0153 380.928-271.5433 347.136-272.5673L257.024-272.5673 241.664-198.8392 324.608-198.8392Q333.824-197.8152 339.968-192.1832 346.112-186.5513 346.112-174.2632L346.112 228.1687Q346.112 252.7448 334.336 262.9848 322.56 273.2248 305.152 271.1768L223.232 271.1768 223.232 185.1608Q223.232 43.8487 195.584-75.9592 167.936-195.7672 128-272.5673L37.888-272.5673M424.96-272.5673Q494.592-172.2152 550.912-49.3353 471.04 131.9128 471.04 283.4648L471.04 342.8568 559.104 342.8568 559.104 284.4887Q559.104 188.2328 598.016 71.4968 646.144 209.7368 646.144 322.3768L646.144 452.4248 545.792 452.4248Q531.456 393.0327 519.168 359.2408L425.984 359.2408Q447.488 416.5847 467.456 496.4568 487.424 576.3288 498.688 663.3687L585.728 663.3687Q569.344 558.9207 562.176 525.1287L780.288 525.1287 780.288 452.4248 734.208 452.4248 734.208 321.3528Q734.208 150.3448 649.216-49.3353 706.56-171.1912 780.288-272.5673L679.936-272.5673Q641.024-221.3673 601.088-148.6633 562.176-221.3673 524.288-272.5673L424.96-272.5673Z"  horiz-adv-x="819" vert-adv-y="1024"  />

      
      <glyph glyph-name="uni6700" unicode="&#x6700;" d="M336.896-201.9112Q212.992-223.4153 61.44-230.5832L61.44-156.8553Q78.848-156.8553 106.496-154.8073L106.496 235.3367 48.128 235.3367 48.128 309.0648 771.072 309.0648 771.072 235.3367 423.936 235.3367 423.936-105.6552 475.136-92.3432 475.136-165.0472Q456.704-172.2152 423.936-181.4313L423.936-270.5192 336.896-270.5192 336.896-201.9112M193.536-146.6153Q279.552-134.3272 336.896-124.0872L336.896-60.5992 193.536-60.5992 193.536-146.6153M336.896 11.0807L336.896 87.8808 193.536 87.8808 193.536 11.0807 336.896 11.0807M336.896 160.5847L336.896 235.3367 193.536 235.3367 193.536 160.5847 336.896 160.5847M440.32-271.5433Q499.712-213.1753 555.008-136.3752 495.616-29.8792 464.896 99.1447L548.864 99.1447Q564.224 21.3208 604.16-55.4793 652.288 35.6568 656.384 120.6488L452.608 120.6488 452.608 194.3768 739.328 194.3768 739.328 120.6488Q736.256-10.4232 653.312-138.4232 705.536-216.2473 762.88-271.5433L653.312-271.5433Q629.76-249.0153 600.064-210.1033 569.344-246.9673 541.696-271.5433L440.32-271.5433M622.592 417.6087L622.592 457.5448 206.848 457.5448 206.848 417.6087 622.592 417.6087M119.808 644.9368L627.712 644.9368Q669.696 644.9368 690.176 625.4808 710.656 606.0248 710.656 579.4008L710.656 343.8808 119.808 343.8808 119.808 644.9368M622.592 531.2727L622.592 546.6327Q622.592 558.9207 616.448 565.0648 610.304 571.2088 600.064 571.2088L206.848 571.2088 206.848 531.2727 622.592 531.2727Z"  horiz-adv-x="819" vert-adv-y="1024"  />

      
      <glyph glyph-name="uni5916" unicode="&#x5916;" d="M97.28-272.5673Q140.288-213.1753 190.976-121.5272 241.664-29.8792 286.72 78.6648L276.48 78.6648 196.608 240.4567Q164.864 162.6327 140.288 109.3847L50.176 109.3847Q100.352 215.8808 149.504 362.3128 198.656 508.7448 230.4 663.3687L322.56 663.3687Q304.128 572.2328 284.672 501.5768L479.232 501.5768 479.232 431.9447Q442.368 221.0007 361.984 36.1688 281.6-148.6633 192.512-272.5673L97.28-272.5673M319.488 165.7047Q366.592 294.7287 393.216 431.9447L263.168 431.9447Q237.568 345.9288 203.776 258.8888L274.432 258.8888 319.488 165.7047M500.736 663.3687L587.776 663.3687 587.776 410.4407 669.696 410.4407 777.216 98.1207 692.224 98.1207 587.776 403.2727 587.776-271.5433 500.736-271.5433 500.736 663.3687Z"  horiz-adv-x="819" vert-adv-y="1024"  />

      
      <glyph glyph-name="uni5C42" unicode="&#x5C42;" d="M49.152-272.5673Q78.848-218.2953 98.304-137.9112 117.76-57.5273 117.76 32.5848L117.76 650.0567 666.624 650.0567Q709.632 650.0567 729.088 631.1128 748.544 612.1688 748.544 584.5208L748.544 367.4328 205.824 367.4328 205.824 26.4408Q205.824-64.6952 187.392-143.0313 168.96-221.3673 141.312-272.5673L49.152-272.5673M655.36-229.5592Q589.824-259.2552 504.832-259.2552L236.544-259.2552 236.544-186.5513Q270.336-138.4232 302.08-77.4952 333.824-16.5673 351.232 41.8007L236.544 41.8007 236.544 114.5048 748.544 114.5048 748.544 41.8007 435.2 41.8007Q409.6-44.2152 377.856-102.5832 346.112-160.9513 326.656-186.5513L504.832-186.5513Q566.272-186.5513 630.784-164.0232L573.44-14.5192 658.432-14.5192 754.688-269.4952 669.696-269.4952 655.36-229.5592M253.952 305.9928L731.136 305.9928 731.136 232.2647 253.952 232.2647 253.952 305.9928M661.504 441.1608L661.504 523.0807 661.504 527.1767 661.504 532.2967Q661.504 557.8967 649.728 568.6488 637.952 579.4008 620.544 576.3288L205.824 576.3288 205.824 441.1608 661.504 441.1608Z"  horiz-adv-x="819" vert-adv-y="1024"  />

      
      <glyph glyph-name="uni63CF" unicode="&#x63CF;" d="M311.296 366.4088L679.936 366.4088Q721.92 366.4088 741.888 346.9528 761.856 327.4968 761.856 300.8727L761.856-257.2072 311.296-257.2072 311.296 366.4088M56.32-198.8392L113.664-198.8392Q124.928-198.8392 133.12-191.1592 141.312-183.4793 141.312-167.0952L141.312 84.8088Q103.424 71.4968 43.008 56.1368L43.008 129.8648Q87.04 139.0808 141.312 161.6087L141.312 424.7767 43.008 424.7767 43.008 497.4808 141.312 497.4808 141.312 663.3687 229.376 663.3687 229.376 497.4808 281.6 497.4808 281.6 424.7767 229.376 424.7767 229.376 202.5688Q252.928 214.8568 281.6 236.3607L281.6 162.6327Q263.168 145.2248 229.376 124.7448L229.376-180.4073Q229.376-226.4872 200.704-248.5033 172.032-270.5192 131.072-272.5673L70.656-272.5673 56.32-198.8392M492.544-183.4793L492.544 29.5128 393.216 29.5128 393.216-183.4793 492.544-183.4793M679.936-183.4793L679.936 29.5128 580.608 29.5128 580.608-183.4793 679.936-183.4793M492.544 103.2407L492.544 292.6807 393.216 292.6807 393.216 103.2407 492.544 103.2407M679.936 103.2407L679.936 247.6248Q679.936 273.2248 668.16 283.9768 656.384 294.7287 638.976 292.6807L580.608 292.6807 580.608 103.2407 679.936 103.2407M400.384 493.3848L297.984 493.3848 297.984 566.0888 400.384 566.0888 400.384 663.3687 486.4 663.3687 486.4 566.0888 591.872 566.0888 591.872 663.3687 678.912 663.3687 678.912 566.0888 774.144 566.0888 774.144 493.3848 678.912 493.3848 678.912 407.3687 591.872 407.3687 591.872 493.3848 486.4 493.3848 486.4 407.3687 400.384 407.3687 400.384 493.3848Z"  horiz-adv-x="819" vert-adv-y="1024"  />

      
      <glyph glyph-name="uni8FF0" unicode="&#x8FF0;" d="M63.488-272.5673Q96.256-181.4313 118.784-82.6153 141.312 16.2007 141.312 90.9527L141.312 103.2407 78.848 103.2407Q100.352 163.6567 117.248 236.3607 134.144 309.0648 138.24 371.5288L46.08 371.5288 46.08 445.2568 226.304 445.2568 226.304 411.4647Q226.304 296.7767 174.08 127.8168L226.304 127.8168 226.304 90.9527Q226.304-3.2552 190.464-139.4472 251.904-189.6232 309.248-189.6232L774.144-189.6232 758.784-263.3512 306.176-263.3512Q249.856-263.3512 171.008-206.0072 160.768-244.9193 150.528-272.5673L63.488-272.5673M247.808-142.5192Q270.336-47.2873 290.816 74.5688 311.296 196.4248 321.536 313.1608L404.48 313.1608 397.312 227.1447Q374.784 34.6328 331.776-142.5192L247.808-142.5192M96.256 645.9607L179.2 645.9607 218.112 515.9127 136.192 515.9127 96.256 645.9607M461.824 392.0087L278.528 392.0087 278.528 465.7368 461.824 465.7368 461.824 663.3687 548.864 663.3687 548.864 465.7368 736.256 465.7368 736.256 392.0087 548.864 392.0087 548.864 313.1608 690.176 313.1608Q699.392 196.4248 719.872 74.5688 740.352-47.2873 763.904-142.5192L678.912-142.5192Q635.904 34.6328 613.376 227.1447 613.376 235.3367 611.328 248.6488L548.864 248.6488 548.864-161.9753 461.824-161.9753 461.824 392.0087M600.064 638.7928L683.008 638.7928 720.896 509.7688 638.976 509.7688 600.064 638.7928Z"  horiz-adv-x="819" vert-adv-y="1024"  />

      
      <glyph glyph-name="uni4E3E" unicode="&#x4E3E;" d="M368.64-56.5033L63.488-56.5033 63.488 21.3208 368.64 21.3208 368.64 142.1528 168.96 142.1528 168.96 215.8808 139.264 182.0888 38.912 182.0888Q88.064 238.4087 136.192 300.8727 184.32 363.3368 212.992 416.5847L38.912 416.5847 38.912 494.4088 533.504 494.4088 596.992 663.3687 685.056 663.3687 620.544 494.4088 785.408 494.4088 785.408 416.5847 603.136 416.5847Q631.808 363.3368 679.936 300.8727 728.064 238.4087 777.216 182.0888L676.864 182.0888 655.36 206.6648 655.36 142.1528 455.68 142.1528 455.68 21.3208 760.832 21.3208 760.832-56.5033 455.68-56.5033 455.68-272.5673 368.64-272.5673 368.64-56.5033M368.64 219.9767L368.64 369.4808 455.68 369.4808 455.68 219.9767 645.12 219.9767Q558.08 322.3768 514.048 416.5847L303.104 416.5847Q260.096 327.4968 172.032 219.9767L368.64 219.9767M132.096 663.3687L219.136 663.3687 263.168 524.1047 176.128 524.1047 132.096 663.3687M332.8 663.3687L418.816 663.3687 462.848 524.1047 375.808 524.1047 332.8 663.3687Z"  horiz-adv-x="819" vert-adv-y="1024"  />

      
      <glyph glyph-name="uni4F8B" unicode="&#x4F8B;" d="M313.344-272.5673Q339.968-212.1513 368.64-122.0392 397.312-31.9272 418.816 68.4248L370.688 68.4248 327.68 201.5448Q306.176 99.1447 286.72 39.7527L198.656 39.7527Q229.376 155.4647 255.488 293.7047 281.6 431.9447 291.84 556.8727L247.808 556.8727 247.808 630.6008 544.768 630.6008 544.768 556.8727 378.88 556.8727Q376.832 539.4647 373.76 508.7448 370.688 489.2888 365.568 443.2088L544.768 443.2088 544.768 369.4808Q529.408 158.5367 489.472-7.8632 449.536-174.2632 401.408-272.5673L313.344-272.5673M102.4 259.9128L43.008 259.9128Q83.968 371.5288 115.2 482.1208 146.432 592.7128 152.576 662.3447L241.664 662.3447Q220.16 506.6968 162.816 340.8088L189.44 340.8088 189.44-271.5433 102.4-271.5433 102.4 259.9128M433.152 144.2008Q451.584 256.8408 458.752 369.4808L356.352 369.4808 339.968 269.1288 392.192 269.1288 433.152 144.2008M572.416 545.6087L649.216 545.6087 649.216-99.5113 572.416-99.5113 572.416 545.6087M567.296-197.8152L654.336-197.8152Q667.648-198.8392 677.376-190.6472 687.104-182.4553 687.104-164.0232L687.104 663.3687 773.12 663.3687 773.12-181.4313Q773.12-226.4872 747.52-247.9913 721.92-269.4952 684.032-271.5433L581.632-271.5433 567.296-197.8152Z"  horiz-adv-x="819" vert-adv-y="1024"  />

      
      <glyph glyph-name="uni5355" unicode="&#x5355;" d="M368.64-70.8392L48.128-70.8392 48.128 2.8888 368.64 2.8888 368.64 98.1207 71.68 98.1207 71.68 533.3207 515.072 533.3207 550.912 663.3687 638.976 663.3687 603.136 533.3207 677.888 533.3207Q706.56 534.3447 727.04 521.0327 747.52 507.7208 747.52 477.0008L747.52 98.1207 450.56 98.1207 450.56 2.8888 771.072 2.8888 771.072-70.8392 450.56-70.8392 450.56-272.5673 368.64-272.5673 368.64-70.8392M368.64 171.8487L368.64 279.3688 157.696 279.3688 157.696 171.8487 368.64 171.8487M368.64 353.0968L368.64 460.6168 157.696 460.6168 157.696 353.0968 368.64 353.0968M661.504 171.8487L661.504 279.3688 450.56 279.3688 450.56 171.8487 661.504 171.8487M169.984 663.3687L258.048 663.3687 294.912 550.7287 206.848 550.7287 169.984 663.3687M661.504 353.0968L661.504 442.1848Q661.504 451.4008 654.336 456.0087 647.168 460.6168 636.928 460.6168L450.56 460.6168 450.56 353.0968 661.504 353.0968Z"  horiz-adv-x="819" vert-adv-y="1024"  />

      
      <glyph glyph-name="uni4E2A" unicode="&#x4E2A;" d="M35.84 253.7688Q100.352 340.8088 153.088 439.1128 205.824 537.4167 221.184 617.2888L227.328 652.1047 510.976 652.1047Q567.296 652.1047 584.704 597.8328 604.16 518.9847 654.848 426.8247 705.536 334.6648 764.928 253.7688L667.648 253.7688Q623.616 309.0648 580.608 386.3768 537.6 463.6888 510.976 547.6567 508.928 558.9207 500.224 566.6008 491.52 574.2808 466.944 574.2808L297.984 574.2808Q272.384 483.1448 226.816 398.6648 181.248 314.1848 133.12 253.7688L35.84 253.7688M353.28 324.4248L439.296 324.4248 439.296-272.5673 353.28-272.5673 353.28 324.4248Z"  horiz-adv-x="819" vert-adv-y="1024"  />

      
      <glyph glyph-name="uni6574" unicode="&#x6574;" d="M192.512 321.3528L72.704 321.3528 72.704 510.7928 192.512 510.7928 192.512 540.4887 55.296 540.4887 55.296 613.1928 192.512 613.1928 192.512 663.3687 278.528 663.3687 278.528 613.1928 415.744 613.1928 415.744 540.4887 278.528 540.4887 278.528 510.7928 316.416 510.7928Q358.4 510.7928 378.368 491.8487 398.336 472.9048 398.336 445.2568L398.336 321.3528 278.528 321.3528 278.528 293.7047 369.664 293.7047Q384 210.7608 417.792 152.3928 476.16 195.4008 531.456 253.7688 455.68 346.9528 455.68 415.5607L455.68 459.5928 537.6 459.5928 537.6 419.6567Q537.6 375.6248 583.68 314.1848 631.808 378.6968 631.808 425.8007L631.808 514.8887 520.192 514.8887 504.832 475.9768 415.744 475.9768Q446.464 563.0168 467.968 663.3687L556.032 663.3687Q550.912 637.7688 540.672 588.6168L760.832 588.6168 760.832 514.8887 714.752 514.8887 714.752 420.6807Q714.752 350.0248 632.832 256.8408 689.152 197.4488 760.832 146.2488L644.096 146.2488Q613.376 169.8007 579.584 203.5928 544.768 170.8247 509.952 146.2488L409.6 146.2488 334.848 146.2488Q316.416 174.9207 305.152 219.9767L278.528 219.9767 278.528 140.1048 192.512 140.1048 192.512 321.3528M51.2 146.2488Q70.656 177.9928 83.456 217.4168 96.256 256.8408 103.424 293.7047L179.2 293.7047Q177.152 254.7928 166.4 214.3448 155.648 173.8967 138.24 146.2488L51.2 146.2488M48.128-186.5513L165.888-186.5513 165.888 9.0327 252.928 9.0327 252.928-186.5513 366.592-186.5513 366.592 41.8007 74.752 41.8007 74.752 115.5288 744.448 115.5288 744.448 41.8007 452.608 41.8007 452.608-17.5913 724.992-17.5913 724.992-91.3192 452.608-91.3192 452.608-186.5513 771.072-186.5513 771.072-259.2552 48.128-259.2552 48.128-186.5513M192.512 386.8887L192.512 445.2568 159.744 445.2568 159.744 386.8887 192.512 386.8887M310.272 386.8887L310.272 420.6807Q310.272 433.9928 303.616 439.6248 296.96 445.2568 287.744 445.2568L278.528 445.2568 278.528 386.8887 310.272 386.8887Z"  horiz-adv-x="819" vert-adv-y="1024"  />

      
      <glyph glyph-name="uni957F" unicode="&#x957F;" d="M159.744 228.1687L56.32 228.1687 56.32 301.8967 159.744 301.8967 159.744 662.3447 245.76 662.3447 245.76 301.8967 758.784 301.8967 758.784 228.1687 245.76 228.1687 245.76-178.3593Q381.952-153.7833 475.136-106.6792L475.136-179.3833Q436.224-204.9832 355.328-229.0472 274.432-253.1112 159.744-264.3752L159.744 228.1687M655.36-230.5832Q586.752-149.6873 514.56-39.0952 442.368 71.4968 391.168 186.1848L481.28 186.1848Q517.12 96.0727 594.432-16.5673 671.744-129.2072 758.784-230.5832L655.36-230.5832M356.352 337.7368Q422.912 402.2487 488.448 485.1928 553.984 568.1368 593.92 650.0567L681.984 650.0567Q643.072 564.0408 581.632 481.6087 520.192 399.1767 458.752 337.7368L356.352 337.7368Z"  horiz-adv-x="819" vert-adv-y="1024"  />

      
      <glyph glyph-name="uni4F4D" unicode="&#x4F4D;" d="M242.688-185.5273L501.76-185.5273Q532.48-80.0553 567.808 78.6648 603.136 237.3847 631.808 433.9928L717.824 433.9928Q692.224 240.4567 658.432 80.7128 624.64-79.0313 594.944-185.5273L774.144-185.5273 774.144-259.2552 242.688-259.2552 242.688-185.5273M113.664 258.8888L43.008 258.8888Q91.136 367.4328 131.072 477.5127 171.008 587.5928 183.296 662.3447L271.36 662.3447Q258.048 587.5928 228.352 501.0648 198.656 414.5367 165.888 337.7368L200.704 337.7368 200.704-271.5433 113.664-271.5433 113.664 258.8888M290.816 436.0408L377.856 436.0408 465.92-108.7272 378.88-108.7272 290.816 436.0408M261.12 571.2088L460.8 571.2088 438.272 663.3687 521.216 663.3687 542.72 571.2088 755.712 571.2088 755.712 497.4808 261.12 497.4808 261.12 571.2088Z"  horiz-adv-x="819" vert-adv-y="1024"  />

      
      <glyph glyph-name="uni6D6E" unicode="&#x6D6E;" d="M329.728-199.8632L490.496-199.8632Q500.736-199.8632 507.904-193.7192 515.072-187.5753 515.072-173.2392L515.072 31.5608 253.952 31.5608 253.952 104.2647 512 104.2647 628.736 233.2887 268.288 233.2887 268.288 305.9928 731.136 305.9928 731.136 233.2887 612.352 104.2647 768 104.2647 768 31.5608 596.992 31.5608 596.992-194.7432Q596.992-233.6552 572.928-252.5992 548.864-271.5433 515.072-272.5673L345.088-272.5673 329.728-199.8632M50.176-272.5673Q81.92-174.2632 107.008-62.6472 132.096 48.9688 138.24 141.1288L224.256 141.1288Q217.088 29.5128 194.048-80.0553 171.008-189.6232 142.336-272.5673L50.176-272.5673M73.728 407.3687L161.792 407.3687 224.256 215.8808 137.216 215.8808 73.728 407.3687M73.728 663.3687L161.792 663.3687 224.256 472.9048 137.216 472.9048 73.728 663.3687M284.672 520.0087L371.712 520.0087 421.888 337.7368 334.848 337.7368 284.672 520.0087M443.392 520.0087L531.456 520.0087 580.608 337.7368 493.568 337.7368 443.392 520.0087M669.696 520.0087L755.712 520.0087 705.536 337.7368 618.496 337.7368 669.696 520.0087M271.36 635.7208L638.976 635.7208Q677.888 635.7208 711.68 643.9128 745.472 652.1047 768 663.3687L768 591.6888Q745.472 579.4008 712.192 570.6968 678.912 561.9928 638.976 561.9928L271.36 561.9928 271.36 635.7208Z"  horiz-adv-x="819" vert-adv-y="1024"  />

      
      <glyph glyph-name="uni70B9" unicode="&#x70B9;" d="M99.328 334.6648L348.16 334.6648 348.16 663.3687 436.224 663.3687 436.224 531.2727 766.976 531.2727 766.976 457.5448 436.224 457.5448 436.224 334.6648 633.856 334.6648Q675.84 334.6648 696.32 315.7208 716.8 296.7767 716.8 270.1528L716.8-32.9512 99.328-32.9512 99.328 334.6648M44.032-272.5673Q74.752-190.6472 102.4-85.1752L183.296-85.1752Q153.6-202.9352 125.952-272.5673L44.032-272.5673M299.008-272.5673Q271.36-167.0952 240.64-85.1752L323.584-85.1752Q352.256-155.8313 379.904-272.5673L299.008-272.5673M496.64-272.5673Q468.992-167.0952 438.272-85.1752L520.192-85.1752Q548.864-155.8313 577.536-272.5673L496.64-272.5673M693.248-272.5673Q666.624-167.0952 634.88-85.1752L717.824-85.1752Q746.496-155.8313 774.144-272.5673L693.248-272.5673M633.856 40.7767L633.856 217.9288Q633.856 242.5048 622.08 252.7448 610.304 262.9848 592.896 261.9608L182.272 261.9608 182.272 40.7767 633.856 40.7767Z"  horiz-adv-x="819" vert-adv-y="1024"  />

      
      <glyph glyph-name="uni7565" unicode="&#x7565;" d="M38.912 608.0728L263.168 608.0728Q306.176 608.0728 326.656 589.1287 347.136 570.1848 347.136 542.5367L347.136 183.1128Q434.176 247.6248 508.928 318.2808 455.68 379.7208 422.912 433.9928L355.328 433.9928Q384 480.0728 412.672 540.4887 441.344 600.9048 458.752 663.3687L540.672 663.3687 524.288 606.0248 743.424 606.0248 743.424 527.1767Q743.424 439.1128 629.76 320.3288 709.632 245.5768 799.744 179.0168L661.504 179.0168Q617.472 211.7848 566.272 259.9128 514.048 212.8088 464.896 179.0168L347.136 179.0168 347.136-193.7192 38.912-193.7192 38.912 608.0728M155.648-121.0152L155.648 171.8487 126.976 171.8487 126.976-121.0152 155.648-121.0152M259.072-121.0152L259.072 171.8487 229.376 171.8487 229.376-121.0152 259.072-121.0152M382.976 154.4407L674.816 154.4407Q716.8 154.4407 736.768 134.9848 756.736 115.5288 756.736 88.9047L756.736-261.3032 382.976-261.3032 382.976 154.4407M674.816-188.5992L674.816 49.9928Q674.816 65.3528 665.6 73.0328 656.384 80.7128 644.096 80.7128L465.92 80.7128 465.92-188.5992 674.816-188.5992M155.648 244.5528L155.648 534.3447 126.976 534.3447 126.976 244.5528 155.648 244.5528M259.072 244.5528L259.072 509.7688Q259.072 523.0807 252.416 528.7128 245.76 534.3447 236.544 534.3447L229.376 534.3447 229.376 244.5528 259.072 244.5528M570.368 378.6968Q656.384 473.9288 660.48 532.2967L497.664 532.2967Q476.16 486.2168 466.944 469.8328L497.664 469.8328Q524.288 428.8727 570.368 378.6968Z"  horiz-adv-x="819" vert-adv-y="1024"  />

      
      <glyph glyph-name="uni5178" unicode="&#x5178;" d="M43.008 62.2808L98.304 62.2808 98.304 573.2568 274.432 573.2568 274.432 663.3687 361.472 663.3687 361.472 573.2568 455.68 573.2568 455.68 663.3687 543.744 663.3687 543.744 573.2568 637.952 573.2568Q679.936 573.2568 699.904 553.8007 719.872 534.3447 719.872 507.7208L719.872 62.2808 775.168 62.2808 775.168-11.4472 43.008-11.4472 43.008 62.2808M87.04-272.5673Q144.384-174.2632 191.488-63.6712L279.552-63.6712Q237.568-174.2632 181.248-272.5673L87.04-272.5673M274.432 62.2808L274.432 239.4327 181.248 239.4327 181.248 62.2808 274.432 62.2808M635.904-272.5673Q583.68-179.3833 540.672-63.6712L627.712-63.6712Q673.792-174.2632 729.088-272.5673L635.904-272.5673M455.68 62.2808L455.68 239.4327 361.472 239.4327 361.472 62.2808 455.68 62.2808M274.432 313.1608L274.432 499.5288 181.248 499.5288 181.248 313.1608 274.432 313.1608M637.952 62.2808L637.952 239.4327 543.744 239.4327 543.744 62.2808 637.952 62.2808M455.68 313.1608L455.68 499.5288 361.472 499.5288 361.472 313.1608 455.68 313.1608M637.952 313.1608L637.952 455.4968Q637.952 481.0968 630.272 491.3368 622.592 501.5768 610.304 499.5288L543.744 499.5288 543.744 313.1608 637.952 313.1608Z"  horiz-adv-x="819" vert-adv-y="1024"  />

      
      <glyph glyph-name="uni622A" unicode="&#x622A;" d="M83.968 116.5528L29.696 116.5528Q60.416 181.0648 85.504 249.1608 110.592 317.2568 119.808 367.4328L207.872 367.4328Q202.752 337.7368 188.416 293.7047L290.816 293.7047 261.12 367.4328 349.184 367.4328 379.904 293.7047 504.832 293.7047 504.832 219.9767 372.736 219.9767 372.736 142.1528 489.472 142.1528 489.472 68.4248 372.736 68.4248 372.736-8.3752 489.472-8.3752 489.472-82.1033 372.736-82.1033 372.736-158.9033 504.832-158.9033 504.832-226.4872Q551.936-134.3272 592.896-39.0952 551.936 125.7688 526.336 390.9847L39.936 390.9847 39.936 464.7128 240.64 464.7128 240.64 524.1047 72.704 524.1047 72.704 597.8328 240.64 597.8328 240.64 663.3687 326.656 663.3687 326.656 597.8328 480.256 597.8328 480.256 524.1047 326.656 524.1047 326.656 464.7128 519.168 464.7128 504.832 663.3687 587.776 663.3687 602.112 464.7128 778.24 464.7128 778.24 390.9847 609.28 390.9847Q626.688 217.9288 645.12 107.3367 666.624 176.9688 666.624 217.9288L666.624 328.5208 744.448 328.5208 744.448 210.7608Q744.448 123.7208 676.864-40.1192 698.368-124.0872 718.848-161.4633 739.328-198.8392 752.64-198.8392L786.432-198.8392 772.096-272.5673 708.608-272.5673Q696.32-271.5433 681.984-259.2552 667.648-246.9673 653.312-221.3673 636.928-188.5992 625.664-152.7593 595.968-210.1033 571.392-256.1832L489.472-256.1832 502.784-232.6312 169.984-232.6312 169.984-272.5673 83.968-272.5673 83.968 116.5528M285.696-158.9033L285.696-82.1033 169.984-82.1033 169.984-158.9033 285.696-158.9033M285.696-8.3752L285.696 68.4248 169.984 68.4248 169.984-8.3752 285.696-8.3752M285.696 142.1528L285.696 219.9767 169.984 219.9767 169.984 142.1528 285.696 142.1528M621.568 623.4328L703.488 623.4328 749.568 507.7208 667.648 507.7208 621.568 623.4328Z"  horiz-adv-x="819" vert-adv-y="1024"  />

      
      <glyph glyph-name="uni53D6" unicode="&#x53D6;" d="M313.344-132.2792Q239.616-142.5192 158.72-142.5192L47.104-142.5192 47.104-70.8392 83.968-70.8392 83.968 579.4008 46.08 579.4008 46.08 653.1287 425.984 653.1287 425.984 579.4008 396.288 579.4008 396.288-40.1192 425.984-31.9272 425.984-105.6552 396.288-114.8713 396.288-272.5673 313.344-272.5673 313.344-132.2792M166.912-70.8392Q235.52-68.7912 313.344-56.5033L313.344 114.5048 166.912 114.5048 166.912-70.8392M313.344 188.2328L313.344 346.9528 166.912 346.9528 166.912 188.2328 313.344 188.2328M313.344 419.6567L313.344 579.4008 166.912 579.4008 166.912 419.6567 313.344 419.6567M433.152-272.5673Q465.92-224.4393 504.832-153.7833 543.744-83.1273 577.536-2.2312 486.4 264.0088 468.992 481.0968L548.864 481.0968Q562.176 324.4248 625.664 119.6248 706.56 345.9288 707.584 553.8007L453.632 553.8007 453.632 627.5288 780.288 627.5288 780.288 553.8007 780.288 547.6567Q780.288 276.2968 666.624-1.2072 718.848-149.6873 776.192-272.5673L688.128-272.5673Q653.312-204.9832 617.472-107.7032 565.248-207.0313 518.144-272.5673L433.152-272.5673Z"  horiz-adv-x="819" vert-adv-y="1024"  />

      
      </font>
</defs>
</svg>
