<?xml version="1.0" standalone="no"?><!DOCTYPE svg PUBLIC "-//W3C//DTD SVG 1.1//EN" "http://www.w3.org/Graphics/SVG/1.1/DTD/svg11.dtd" ><svg xmlns="http://www.w3.org/2000/svg"><metadata></metadata><defs><font id="CJ-gaodeguo-mh:Version 2.000" horiz-adv-x="800"><font-face font-family="CJ-gaodeguo-mh" font-weight="400" font-stretch="normal" units-per-em="1000" panose-1="0 0 0 0 0 0 0 0 0 0" ascent="1000" descent="-240" x-height="0" bbox="22 -65 782 850" underline-thickness="40" underline-position="-80" unicode-range="U+4e0e-96c6" /><missing-glyph horiz-adv-x="800"  /><glyph glyph-name="u4E0E" unicode="&#x4e0e;" d="M325 12 l308 0 q13 1 22.5 10.5 q9.5 9.5 9.5 28.5 l0 322 q0 16 -7.5 22.5 q-7.5 6.5 -19.5 5.5 l-410 0 l0 -1 l-84 0 l38 450 l85 0 l-11 -138 l508 0 l0 -77 l-515 0 l-14 -162 l430 0 q40 0 60 -19.5 q20 -19.5 21 -46.5 l0 -395 q0 -36 -23.5 -55 q-23.5 -19 -57.5 -20 l-325 0 l-15 75 ZM67 232 l499 0 l0 -76 l-499 0 l0 76 Z" /><glyph glyph-name="u4E32" unicode="&#x4e32;" d="M356 -60 l0 163 l-295 0 l0 304 l295 0 l0 59 l-250 0 l0 303 l250 0 l0 81 l84 0 l0 -81 l170 0 q41 0 61 -18.5 q20 -18.5 20 -44.5 l0 -240 l-251 0 l0 -59 l214 0 q41 0 61 -19 q20 -19 20 -45 l0 -240 l-295 0 l0 -167 l-84 0 l0 4 ZM356 175 l0 160 l-214 0 l0 -160 l214 0 ZM654 175 l0 116 q0 24 -11.5 34.5 q-11.5 10.5 -28.5 9.5 l-174 0 l0 -160 l214 0 ZM356 538 l0 160 l-169 0 l0 -160 l169 0 ZM610 538 l0 117 q0 24 -11.5 34 q-11.5 10 -28.5 9 l-130 0 l0 -160 l170 0 Z" /><glyph glyph-name="u4F4D" unicode="&#x4f4d;" d="M237 21 l253 0 q30 103 64.5 258 q34.5 155 62.5 347 l84 0 q-25 -189 -58 -345 q-33 -156 -62 -260 l175 0 l0 -72 l-519 0 l0 72 ZM111 455 l-69 0 q47 106 86 213.5 q39 107.5 51 180.5 l86 0 q-13 -73 -42 -157.5 q-29 -84.5 -61 -159.5 l34 0 l0 -595 l-85 0 l0 518 ZM284 628 l85 0 l86 -532 l-85 0 l-86 532 ZM255 760 l195 0 l-22 90 l81 0 l21 -90 l208 0 l0 -72 l-483 0 l0 72 Z" /><glyph glyph-name="u4FEE" unicode="&#x4fee;" d="M299 393 q96 52 187 130 q-50 49 -78 88 l-27 -46 l-83 0 q36 60 73 135.5 q37 75.5 63 148.5 l81 0 q-10 -31 -27 -72 l238 0 l0 -72 q-32 -86 -131 -182 q91 -78 187 -130 l-121 0 q-59 34 -121 83 q-62 -49 -120 -83 l-121 0 ZM105 455 l-70 0 q47 106 86 213.5 q39 107.5 51 180.5 l86 0 q-13 -73 -42 -157.5 q-29 -84.5 -61 -159.5 l34 0 l0 -595 l-84 0 l0 518 ZM218 585 l73 0 l0 -583 l-73 0 l0 583 ZM331 -63 q98 57 188 137 q90 80 137 168 l94 0 q-46 -93 -129.5 -173 q-83.5 -80 -172.5 -132 l-117 0 ZM320 61 q65 42 135.5 111 q70.5 69 125.5 158 l95 0 q-54 -93 -120.5 -162 q-66.5 -69 -126.5 -107 l-109 0 ZM298 191 q52 37 110 97 q58 60 104 131 l97 0 q-46 -74 -101 -133.5 q-55 -59.5 -103 -94.5 l-107 0 ZM540 573 q65 66 106 132 l-190 0 l-18 -34 l20 0 q36 -52 82 -98 Z" /><glyph glyph-name="u5168" unicode="&#x5168;" d="M61 10 l292 0 l0 169 l-240 0 l0 72 l240 0 l0 193 l-201 0 l0 59 l-22 -30 l-90 0 q75 113 124 209.5 q49 96.5 68 158.5 l278 0 q51 0 68 -50 q25 -82 75.5 -166.5 q50.5 -84.5 106.5 -151.5 l-90 0 l-22 24 l0 -53 l-209 0 l0 -193 l248 0 l0 -72 l-248 0 l0 -169 l300 0 l0 -71 l-678 0 l0 71 ZM634 515 q-73 100 -124 230 q-4 10 -11.5 17 q-7.5 7 -29.5 7 l-180 0 q-50 -136 -129 -254 l474 0 Z" /><glyph glyph-name="u51FD" unicode="&#x51fd;" d="M123 -45 q-27 0 -47 20 q-20 20 -20 48 l0 620 l86 0 l0 -588 q0 -12 8 -20 q8 -8 19 -8 l489 0 l0 616 l86 0 l0 -688 l-621 0 ZM157 117 q24 74 48 164 q24 90 38 175 l76 0 q-13 -86 -34.5 -176.5 q-21.5 -90.5 -44.5 -162.5 l-83 0 ZM175 652 l83 0 l67 -151 l-84 0 l-66 151 ZM291 153 l55 0 q12 1 20.5 8 q8.5 7 8.5 22 l0 485 l139 100 l-367 0 l0 72 l474 0 l0 -72 l-2 0 l-163 -120 l0 -486 q0 -41 -23.5 -61 q-23.5 -20 -57.5 -20 l-69 0 l-15 72 ZM563 117 q-22 72 -44 162.5 q-22 90.5 -34 176.5 l75 0 q15 -85 39 -175 q24 -90 48 -164 l-84 0 ZM557 652 l83 0 l-66 -151 l-84 0 l67 151 Z" /><glyph glyph-name="u5217" unicode="&#x5217;" d="M110 -64 q106 138 169 273 l-93 238 q-35 -87 -68 -149 l-85 0 q49 103 95 227 q46 124 71 238 l-142 0 l0 71 l432 0 l0 -71 l-203 0 q-5 -25 -24 -98 l201 0 l0 -72 q0 -143 -66.5 -323 q-66.5 -180 -184.5 -334 l-102 0 ZM322 311 q55 150 55 282 l-137 0 q-15 -48 -37 -103 l-8 -23 l65 0 l62 -156 ZM511 751 l85 0 l0 -619 l-85 0 l0 619 ZM556 8 l63 0 q15 0 26 8 q11 8 11 25 l0 809 l84 0 l0 -839 q0 -36 -24.5 -55 q-24.5 -19 -59.5 -20 l-85 0 l-15 72 Z" /><glyph glyph-name="u521B" unicode="&#x521b;" d="M189 -61 q-45 2 -76 29.5 q-31 27.5 -31 82.5 l0 415 l314 0 q35 -1 60 -19.5 q25 -18.5 25 -55.5 l0 -164 q0 -42 -25 -64.5 q-25 -22.5 -60 -25.5 l-114 0 l-14 72 l90 0 q16 1 27 8.5 q11 7.5 11 22.5 l0 104 q0 25 -11.5 36.5 q-11.5 11.5 -28.5 10.5 l-192 0 l0 -318 q0 -31 15 -46 q15 -15 37 -17 l295 0 l-15 -71 l-307 0 ZM39 491 q31 66 59 149 q28 83 43 162 l5 33 l189 0 q55 0 72 -52 q18 -77 49 -154.5 q31 -77.5 62 -137.5 l-89 0 q-44 84 -94 242 q-2 12 -10.5 19.5 q-8.5 7.5 -32.5 7.5 l-76 0 q-19 -86 -42.5 -155.5 q-23.5 -69.5 -44.5 -113.5 l-90 0 ZM542 748 l84 0 l0 -620 l-84 0 l0 620 ZM568 8 l62 0 q15 0 25.5 7.5 q10.5 7.5 10.5 24.5 l0 810 l86 0 l0 -839 q0 -36 -25 -55 q-25 -19 -61 -20 l-84 0 l-14 72 Z" /><glyph glyph-name="u5236" unicode="&#x5236;" d="M238 344 l-78 0 l0 -347 l-86 0 l0 418 l164 0 l0 76 l-176 0 l0 72 l176 0 l0 112 l-81 0 q-15 -47 -31 -72 l-87 0 q18 34 36 91 q18 57 29 127 l86 0 q-2 -18 -14 -75 l62 0 l0 104 l86 0 l0 -104 l144 0 l0 -71 l-144 0 l0 -112 l174 0 l0 -72 l-174 0 l0 -76 l82 0 q41 0 60.5 -18.5 q19.5 -18.5 19.5 -44.5 l0 -275 q0 -42 -25 -61.5 q-25 -19.5 -61 -18.5 l-24 0 l-15 72 l15 0 q10 2 17.5 7 q7.5 5 7.5 15 l0 209 q0 24 -11.5 34.5 q-11.5 10.5 -28.5 9.5 l-37 0 l0 -405 l-86 0 l0 405 ZM530 748 l86 0 l0 -620 l-86 0 l0 620 ZM557 8 l63 0 q14 0 25 7.5 q11 7.5 11 24.5 l0 810 l85 0 l0 -839 q0 -36 -24.5 -55 q-24.5 -19 -60.5 -20 l-84 0 l-15 72 Z" /><glyph glyph-name="u5316" unicode="&#x5316;" d="M462 -62 q-46 0 -66.5 25.5 q-20.5 25.5 -19.5 62.5 l0 353 q-64 -30 -115 -48 l0 79 q50 16 115 46 l0 394 l86 0 l0 -354 q162 81 282 180 l0 -87 q-103 -83 -282 -170 l0 -368 q1 -17 11.5 -29.5 q10.5 -12.5 30.5 -12.5 l253 0 l-15 -71 l-280 0 ZM122 456 l-83 0 q34 81 71.5 185.5 q37.5 104.5 65.5 208.5 l86 0 q-33 -131 -105 -314 l51 0 l0 -598 l-86 0 l0 518 Z" /><glyph glyph-name="u5386" unicode="&#x5386;" d="M48 -64 q23 85 38.5 203 q15.5 118 15.5 242 l0 455 l650 0 l0 -72 l-570 0 l0 -389 q0 -122 -15.5 -238 q-15.5 -116 -38.5 -201 l-80 0 ZM238 -64 q39 90 66 218 q27 128 27 266 l0 103 l-108 0 l0 72 l108 0 l0 136 l82 0 l0 -136 l246 0 q29 0 49 -13 q20 -13 20 -43 l0 -511 q0 -45 -24.5 -67.5 q-24.5 -22.5 -60.5 -24.5 l-153 0 l-15 72 l140 0 q11 1 19.5 8.5 q8.5 7.5 8.5 22.5 l0 466 q0 9 -6.5 13.5 q-6.5 4.5 -17.5 4.5 l-206 0 l0 -108 q0 -150 -25 -274.5 q-25 -124.5 -60 -204.5 l-90 0 Z" /><glyph glyph-name="u53D1" unicode="&#x53d1;" d="M67 -64 q40 121 86 292 q46 171 84 355 l-183 0 l0 70 l32 167 l81 0 l-32 -167 l116 0 q19 95 34 196 l86 0 q-20 -118 -36 -196 l412 0 l0 -70 l-426 0 l-13 -64 l400 0 l0 -43 l0 -34 q-9 -173 -156 -333 q101 -98 209 -173 l-124 0 q-69 44 -143 115 q-78 -71 -155 -115 l-120 0 q49 31 107 76.5 q58 45.5 111 96.5 q-111 120 -164 258 q-61 -263 -121 -431 l-85 0 ZM494 169 q128 148 133 279 l-334 0 q-7 -30 -9 -40 l58 0 q35 -110 152 -239 ZM544 820 l83 0 l30 -132 l-82 0 l-31 132 Z" /><glyph glyph-name="u53D6" unicode="&#x53d6;" d="M306 73 q-72 -10 -151 -10 l-109 0 l0 70 l36 0 l0 635 l-37 0 l0 72 l371 0 l0 -72 l-29 0 l0 -605 l29 8 l0 -72 l-29 -9 l0 -154 l-81 0 l0 137 ZM163 133 q67 2 143 14 l0 167 l-143 0 l0 -181 ZM306 386 l0 155 l-143 0 l0 -155 l143 0 ZM306 612 l0 156 l-143 0 l0 -156 l143 0 ZM423 -64 q32 47 70 116 q38 69 71 148 q-89 260 -106 472 l78 0 q13 -153 75 -353 q79 221 80 424 l-248 0 l0 72 l319 0 l0 -72 l0 -6 q0 -265 -111 -536 q51 -145 107 -265 l-86 0 q-34 66 -69 161 q-51 -97 -97 -161 l-83 0 Z" /><glyph glyph-name="u5408" unicode="&#x5408;" d="M150 509 l488 0 q-73 90 -128 231 q-4 11 -11.5 17.5 q-7.5 6.5 -29.5 6.5 l-181 0 l0 4 q-59 -153 -158 -286 l-90 0 q75 114 124 206 q49 92 68 148 l278 0 q51 0 68 -50 q25 -81 75.5 -161.5 q50.5 -80.5 106.5 -142.5 l-98 0 l-12 13 l0 -56 l-500 0 l0 70 ZM138 351 l444 0 q41 0 60.5 -19 q19.5 -19 19.5 -45 l0 -340 l-524 0 l0 404 ZM582 18 l0 231 q0 16 -8.5 23 q-8.5 7 -21.5 7 l-334 0 l0 -261 l364 0 Z" /><glyph glyph-name="u578B" unicode="&#x578b;" d="M47 15 l309 0 l0 137 l-269 0 l0 75 l269 0 l0 53 l84 0 l0 -53 l268 0 l0 -75 l-268 0 l0 -137 l313 0 l0 -76 l-706 0 l0 76 ZM57 298 q30 42 50.5 104 q20.5 62 20.5 131 l0 6 l-71 0 l0 71 l71 0 l0 147 l-52 0 l0 71 l378 0 l0 -71 l-53 0 l0 -147 l72 0 l0 -71 l-72 0 l0 -241 l-80 0 l0 241 l-113 0 l0 -11 q0 -71 -19.5 -131 q-19.5 -60 -46.5 -99 l-85 0 ZM321 610 l0 147 l-113 0 l0 -147 l113 0 ZM513 801 l81 0 l0 -360 l-81 0 l0 360 ZM562 370 l56 0 q15 -1 25.5 7 q10.5 8 10.5 26 l0 447 l81 0 l0 -457 q0 -46 -23.5 -69.5 q-23.5 -23.5 -57.5 -25.5 l-77 0 l-15 72 Z" /><glyph glyph-name="u57FA" unicode="&#x57fa;" d="M101 25 l261 0 l0 100 l-153 0 l0 71 l153 0 l0 88 l85 0 l0 -88 l153 0 q-37 57 -69 123 l-262 0 q-57 -112 -116 -195 l-100 0 q59 85 116 195 l-119 0 l0 70 l123 0 l0 322 l-73 0 l0 72 l73 0 l0 67 l85 0 l0 -67 l290 0 l0 67 l85 0 l0 -67 l73 0 l0 -72 l-73 0 l0 -322 l123 0 l0 -70 l-125 0 q57 -110 116 -195 l-99 0 q-21 29 -48 72 l0 -71 l-153 0 l0 -100 l260 0 l0 -72 l-606 0 l0 72 ZM548 389 l0 60 l-290 0 l0 -60 l290 0 ZM548 521 l0 59 l-290 0 l0 -59 l290 0 ZM548 651 l0 60 l-290 0 l0 -60 l290 0 Z" /><glyph glyph-name="u5883" unicode="&#x5883;" d="M275 -63 q56 49 94.5 107.5 q38.5 58.5 38.5 110.5 l0 23 l-83 0 l0 319 l335 0 q41 0 60.5 -19 q19.5 -19 19.5 -45 l0 -255 l-89 0 l0 -134 q0 -19 12.5 -28 q12.5 -9 29.5 -8 l70 0 l-15 -71 l-88 0 q-38 1 -64.5 20 q-26.5 19 -26.5 59 l0 162 l-75 0 l0 -27 q0 -59 -29.5 -115.5 q-29.5 -56.5 -73.5 -98.5 l-116 0 ZM38 107 q34 4 79 15 l0 425 l-74 0 l0 72 l74 0 l0 231 l84 0 l0 -231 l70 0 l0 -72 l-70 0 l0 -395 q38 16 75 37 l0 -72 q-33 -25 -94.5 -47.5 q-61.5 -22.5 -143.5 -34.5 l0 72 ZM660 250 l0 51 l-254 0 l0 -51 l254 0 ZM660 373 l0 8 q0 26 -11.5 36 q-11.5 10 -28.5 8 l-214 0 l0 -52 l254 0 ZM360 696 l85 0 l24 -77 l-86 0 l-23 77 ZM289 602 l298 0 l28 94 l86 0 l-30 -94 l92 0 l0 -72 l-474 0 l0 72 ZM312 789 l168 0 l-19 61 l84 0 l20 -61 l175 0 l0 -70 l-428 0 l0 70 Z" /><glyph glyph-name="u5B57" unicode="&#x5b57;" d="M247 8 l143 0 q9 0 15.5 6 q6.5 6 6.5 19 l0 190 l-363 0 l0 72 l363 0 l0 38 q138 95 176 140 l-467 0 l0 72 l571 0 l0 -72 q-28 -40 -82 -87.5 q-54 -47.5 -113 -89.5 l0 -1 l254 0 l0 -72 l-254 0 l0 -194 q0 -43 -24.5 -66.5 q-24.5 -23.5 -60.5 -26.5 l-150 0 l-15 72 ZM70 759 l291 0 l-37 91 l87 0 l36 -91 l217 0 q39 0 59 -19.5 q20 -19.5 21 -47.5 l0 -113 l-80 0 l0 68 q1 17 -7.5 28.5 q-8.5 11.5 -29.5 11.5 l-477 0 l0 -108 l-80 0 l0 180 Z" /><glyph glyph-name="u5B89" unicode="&#x5b89;" d="M69 -64 q144 76 264 161 q-164 129 -164 220 l0 123 l-122 0 l0 71 l122 0 l0 104 l80 0 l0 -104 l296 0 l0 104 l81 0 l0 -104 l123 0 l0 -71 l-123 0 l0 -123 q0 -91 -168 -217 q122 -87 269 -164 l-139 0 q-101 52 -196 117 q-99 -65 -204 -117 l-119 0 ZM398 146 q147 117 147 190 l0 104 l-296 0 l0 -104 q0 -72 149 -190 ZM61 795 l283 0 l-16 55 l86 0 l17 -55 l223 0 q40 0 60 -19.5 q20 -19.5 21 -46.5 l0 -143 l-81 0 l0 98 q1 17 -7.5 28.5 q-8.5 11.5 -29.5 11.5 l-476 0 l0 -138 l-80 0 l0 209 Z" /><glyph glyph-name="u5EFA" unicode="&#x5efa;" d="M59 -64 q45 96 75 197 q-29 44 -49 83 l70 0 q13 59 13 109 l0 54 l-63 0 q26 80 44.5 170.5 q18.5 90.5 18.5 164.5 l0 3 l-103 0 l0 71 l187 0 l0 -74 q0 -88 -17 -171 q-17 -83 -38 -141 l55 0 l0 -77 q0 -85 -30 -188 q45 -48 98.5 -81 q53.5 -33 111.5 -33 l324 0 l-15 -72 l-314 0 q-126 0 -231 107 q-25 -69 -52 -122 l-85 0 ZM452 145 l-176 0 l0 71 l176 0 l0 68 l-161 0 l0 72 l161 0 l0 69 l-161 0 l0 71 l161 0 l0 67 l-190 0 l0 72 l190 0 l0 68 l-161 0 l0 72 l161 0 l0 75 l85 0 l0 -75 l104 0 q42 0 63 -22 q21 -22 24 -53 l0 -65 l28 0 l0 -72 l-28 0 l0 -138 l-191 0 l0 -69 l191 0 l0 -72 l-191 0 l0 -68 l205 0 l0 -71 l-205 0 l0 -92 l-85 0 l0 92 ZM646 496 l0 67 l-109 0 l0 -67 l109 0 ZM646 635 l0 38 q0 15 -9 22.5 q-9 7.5 -23 7.5 l-77 0 l0 -68 l109 0 Z" /><glyph glyph-name="u5F00" unicode="&#x5f00;" d="M77 -64 q48 74 84 187.5 q36 113.5 39 246.5 l-145 0 l0 72 l145 0 l0 306 l-108 0 l0 71 l624 0 l0 -71 l-103 0 l0 -306 l140 0 l0 -72 l-140 0 l0 -434 l-85 0 l0 434 l-242 0 q-4 -143 -40 -255.5 q-36 -112.5 -85 -178.5 l-84 0 ZM528 442 l0 306 l-242 0 l0 -306 l242 0 Z" /><glyph glyph-name="u5F0F" unicode="&#x5f0f;" d="M703 -64 q-40 0 -60.5 17 q-20.5 17 -31.5 40 q-32 64 -65.5 237 q-33.5 173 -53.5 405 l-439 0 l0 72 l432 0 q-7 88 -9 143 l81 0 q1 -23 3.5 -53 q2.5 -30 3.5 -45 l3 -45 l184 0 l0 -72 l-177 0 q20 -214 48 -374.5 q28 -160.5 60 -225.5 q5 -11 15 -19 q10 -8 30 -8 l37 0 l-15 -72 l-46 0 ZM75 20 q68 5 156 20 l0 409 l-155 0 l0 72 l394 0 l0 -72 l-154 0 l0 -393 q88 18 172 48 l0 -72 q-57 -25 -163.5 -48 q-106.5 -23 -249.5 -35 l0 71 ZM610 836 l86 0 l32 -105 l-86 0 l-32 105 Z" /><glyph glyph-name="u636E" unicode="&#x636e;" d="M242 -64 q18 50 29 112.5 q11 62.5 11 122.5 l0 663 l372 0 q41 0 61 -19 q20 -19 20 -45 l0 -190 l-367 0 l0 -415 q0 -60 -10 -120.5 q-10 -60.5 -25 -108.5 l-91 0 ZM52 8 l54 0 q12 0 20.5 7.5 q8.5 7.5 8.5 23.5 l0 246 q-37 -13 -96 -28 l0 72 q43 10 96 31 l0 257 l-96 0 l0 71 l96 0 l0 162 l86 0 l0 -162 l51 0 l0 -71 l-51 0 l0 -217 q23 12 51 33 l0 -72 q-18 -17 -51 -37 l0 -298 q0 -45 -28 -66.5 q-28 -21.5 -68 -23.5 l-59 0 l-14 72 ZM655 21 l0 160 q0 24 -11.5 34.5 q-11.5 10.5 -28.5 9.5 l-134 0 l0 -204 l174 0 ZM401 297 l125 0 l0 99 l-145 0 l0 72 l145 0 l0 93 l86 0 l0 -93 l145 0 l0 -72 l-145 0 l0 -99 l43 0 q41 0 61 -19 q20 -19 20 -45 l0 -284 l-335 0 l0 348 ZM650 652 l0 59 l0 9 q0 24 -12 34 q-12 10 -29 8 l-241 0 l0 -110 l282 0 Z" /><glyph glyph-name="u63A7" unicode="&#x63a7;" d="M292 28 l193 0 l0 315 l-172 0 l0 72 l428 0 l0 -72 l-171 0 l0 -315 l192 0 l0 -72 l-470 0 l0 72 ZM55 8 l56 0 q11 0 19.5 7.5 q8.5 7.5 8.5 23.5 l0 246 q-34 -12 -97 -28 l0 72 q43 9 97 31 l0 257 l-97 0 l0 71 l97 0 l0 162 l85 0 l0 -162 l51 0 l0 -71 l-51 0 l0 -217 q23 12 51 33 l0 -72 q-18 -17 -51 -37 l0 -298 q0 -45 -28 -66.5 q-28 -21.5 -68 -23.5 l-59 0 l-14 72 ZM299 457 q42 51 74 108 l-83 0 l0 212 l183 0 l-28 73 l86 0 l28 -73 l120 0 q35 -1 60 -20 q25 -19 25 -56 l0 -136 l-74 0 q32 -57 74 -108 l-95 0 q-26 26 -52 72 q-26 46 -44 105 l85 0 q10 -29 21 -48 l0 69 q0 25 -11.5 35.5 q-11.5 10.5 -28.5 10.5 l-263 0 l0 -133 q19 36 29 66 l85 0 q-17 -59 -44 -105 q-27 -46 -53 -72 l-94 0 Z" /><glyph glyph-name="u6539" unicode="&#x6539;" d="M370 -64 q35 40 75.5 96.5 q40.5 56.5 74.5 118.5 q-89 173 -89 328 l0 58 l84 0 l0 -57 q0 -103 55 -232 q62 141 62 255 l0 141 l-128 0 q-14 -58 -26 -91 l-92 0 q21 56 40.5 134 q19.5 78 30.5 163 l85 0 q-9 -71 -23 -135 l242 0 l0 -71 l-44 0 l0 -143 q0 -164 -100 -350 q64 -119 144 -215 l-97 0 q-48 56 -96 131 q-50 -76 -99 -131 l-99 0 ZM49 -45 l0 57 l0 446 l238 0 l0 259 q0 13 -6.5 18.5 q-6.5 5.5 -15.5 5.5 l-225 0 l0 72 l251 0 q42 0 62 -18.5 q20 -18.5 20 -45.5 l0 -363 l-239 0 l0 -363 q135 21 236 64 l0 -71 q-48 -24 -130.5 -45.5 q-82.5 -21.5 -190.5 -30.5 l0 15 Z" /><glyph glyph-name="u6563" unicode="&#x6563;" d="M430 -64 q63 100 115 221 q-70 174 -70 322 l0 58 l85 0 l0 -57 q0 -89 32 -195 q39 128 39 231 l0 127 l-68 0 q-14 -58 -27 -90 l-90 0 q21 56 40 134 q19 78 31 163 l84 0 q-16 -102 -22 -135 l168 0 l0 -72 l-30 0 l0 -127 q0 -164 -77 -359 q54 -121 121 -221 l-97 0 q-35 49 -71 117 q-33 -69 -66 -117 l-97 0 ZM53 516 l291 0 q36 -1 60.5 -20 q24.5 -19 24.5 -56 l0 -414 q0 -45 -24.5 -66.5 q-24.5 -21.5 -60.5 -23.5 l-63 0 l-14 72 l53 0 l1 0 q23 0 23 24 l0 88 l-205 0 l0 -184 l-86 0 l0 580 ZM344 192 l0 88 l-205 0 l0 -88 l205 0 ZM344 352 l0 41 q0 25 -11.5 36.5 q-11.5 11.5 -28.5 10.5 l-165 0 l0 -88 l205 0 ZM281 628 l0 87 l-80 0 l0 -87 l80 0 ZM38 628 l78 0 l0 87 l-64 0 l0 72 l64 0 l0 63 l85 0 l0 -63 l80 0 l0 63 l86 0 l0 -63 l64 0 l0 -72 l-64 0 l0 -87 l78 0 l0 -71 l-407 0 l0 71 Z" /><glyph glyph-name="u6570" unicode="&#x6570;" d="M445 -64 q58 90 108 204 q-78 182 -78 339 l0 58 l86 0 l0 -57 q0 -99 39 -217 q47 138 47 253 l0 127 l-84 0 q-14 -58 -26 -90 l-92 0 q21 56 40.5 134 q19.5 78 30.5 163 l85 0 q-8 -58 -22 -135 l183 0 l0 -72 l-30 0 l0 -127 q0 -170 -83 -376 q51 -113 113 -204 l-97 0 q-30 42 -63 103 q-32 -61 -59 -103 l-98 0 ZM47 -64 q74 39 139 91 q-90 93 -90 190 l0 10 l-57 0 l0 72 l57 0 l0 28 l81 0 l0 -28 l140 0 l0 28 l82 0 l0 -28 l42 0 l0 -72 l-42 0 l0 -10 q0 -98 -98 -191 q62 -51 132 -90 l-127 0 q-31 16 -64 42 q-37 -26 -69 -42 l-126 0 ZM245 80 q72 74 72 141 l0 6 l-140 0 l0 -6 q0 -67 68 -141 ZM34 349 q19 47 33.5 107 q14.5 60 21.5 115 l80 0 q-4 -58 -14.5 -118.5 q-10.5 -60.5 -29.5 -103.5 l-91 0 ZM195 600 l-153 0 l0 72 l153 0 l0 178 l86 0 l0 -178 l153 0 l0 -72 l-153 0 l0 -29 l106 0 q7 -55 21.5 -115 q14.5 -60 33.5 -107 l-91 0 q-26 60 -37 151 l-33 0 l0 -153 l-86 0 l0 253 ZM48 813 l82 0 l41 -126 l-82 0 l-41 126 ZM346 813 l82 0 l-41 -126 l-82 0 l41 126 Z" /><glyph glyph-name="u672C" unicode="&#x672c;" d="M358 105 l-135 0 l0 71 l135 0 l0 443 l-280 0 l0 72 l280 0 l0 159 l84 0 l0 -159 l280 0 l0 -72 l-280 0 l0 -87 l168 0 q20 -121 57 -268 q37 -147 86 -281 l-80 0 q-63 157 -131 485 l-100 0 l0 -292 l140 0 l0 -71 l-140 0 l0 -167 l-84 0 l0 167 ZM47 -17 q49 134 86 281 q37 147 57 268 l80 0 q-28 -149 -65.5 -300 q-37.5 -151 -76.5 -249 l-81 0 Z" /><glyph glyph-name="u6784" unicode="&#x6784;" d="M541 8 l98 0 q14 0 23.5 8 q9.5 8 9.5 24 l0 605 q0 10 -7 14 q-7 4 -17 4 l-189 0 q-25 -79 -52 -149 l-86 0 q33 88 60.5 180 q27.5 92 35.5 156 l86 0 q-5 -39 -23 -115 l208 0 q29 0 49 -13.5 q20 -13.5 20 -42.5 l0 -659 q0 -42 -25 -62.5 q-25 -20.5 -60 -21.5 l-117 0 l-14 72 ZM48 -54 q17 117 26 280 q9 163 11 320 l73 0 q-4 -177 -13 -343 q-9 -166 -24 -257 l-73 0 ZM176 594 l-122 0 l0 72 l122 0 l0 184 l85 0 l0 -184 l77 0 l0 -72 l-77 0 l0 -64 l77 -34 l0 -71 l-77 33 l0 -522 l-85 0 l0 658 ZM571 127 q-49 -20 -108 -20 l-164 0 l0 71 q31 66 65.5 159.5 q34.5 93.5 62.5 191.5 l85 0 q-51 -206 -125 -351 l76 0 q39 0 86 15 l-61 186 l82 0 l94 -287 l-82 0 l-11 35 Z" /><glyph glyph-name="u683C" unicode="&#x683c;" d="M163 594 l-121 0 l0 72 l121 0 l0 184 l86 0 l0 -184 l57 0 l0 -27 q23 35 49.5 91 q26.5 56 44.5 120 l81 0 q-9 -31 -21 -66 l262 0 l0 -77 q0 -87 -129 -203 q86 -72 185 -137 l-136 0 q-56 36 -114 84 q-63 -48 -124 -84 l-134 0 q106 65 198 138 q-67 65 -96 121 l-66 0 l0 -32 l-57 0 l0 -71 l57 -27 l0 -71 l-57 26 l0 -515 l-86 0 l0 658 ZM33 -54 q18 117 27.5 280 q9.5 163 10.5 320 l72 0 q-4 -177 -13.5 -343 q-9.5 -166 -24.5 -257 l-72 0 ZM326 343 l314 0 q41 0 61 -19 q20 -19 20 -45 l0 -335 l-395 0 l0 399 ZM640 16 l0 232 q0 11 -7.5 17 q-7.5 6 -18.5 6 l-207 0 l0 -255 l233 0 ZM532 559 q104 96 109 153 l-208 0 q-15 -35 -31 -61 l52 0 q25 -41 78 -92 Z" /><glyph glyph-name="u6D41" unicode="&#x6d41;" d="M666 412 q-32 -10 -71 -18 q-39 -8 -64 -8 l-269 0 l0 71 l1 0 q72 90 129 223 l-154 0 l0 72 l215 0 l-33 98 l86 0 l33 -98 l216 0 l0 -72 l-272 0 q-32 -85 -66.5 -141.5 q-34.5 -56.5 -54.5 -81.5 l171 0 q39 0 103 18 l-71 148 l83 0 l114 -239 l-83 0 l-13 28 ZM37 -64 q31 96 55 205 q24 109 30 199 l84 0 q-7 -109 -29 -216 q-22 -107 -50 -188 l-90 0 ZM186 -65 q36 56 61 120.5 q25 64.5 25 120.5 l0 184 l85 0 l0 -188 q0 -68 -23.5 -131 q-23.5 -63 -57.5 -106 l-90 0 ZM434 360 l84 0 l0 -425 l-84 0 l0 425 ZM59 600 l85 0 l62 -187 l-86 0 l-61 187 ZM671 -65 q-34 0 -58 18.5 q-24 18.5 -24 58.5 l0 348 l85 0 l0 -318 q0 -19 6.5 -28 q6.5 -9 15.5 -7 l70 0 l-15 -72 l-80 0 ZM59 850 l85 0 l62 -186 l-86 0 l-61 186 Z" /><glyph glyph-name="u73AF" unicode="&#x73af;" d="M501 588 q-27 -111 -58 -212 q-31 -101 -60 -173 l-86 0 q52 144 94.5 296 q42.5 152 58.5 263 l-124 0 l0 71 l433 0 l0 -71 l-223 0 q-14 -82 -33 -162 l82 0 l0 -664 l-84 0 l0 652 ZM39 90 q39 8 87 23 l0 295 l-78 0 l0 72 l78 0 l0 260 l-86 0 l0 71 l257 0 l0 -71 l-87 0 l0 -260 l78 0 l0 -72 l-78 0 l0 -262 q55 26 87 47 l0 -71 q-33 -29 -100 -57 q-67 -28 -158 -47 l0 72 ZM594 600 l79 0 l88 -397 l-79 0 l-88 397 Z" /><glyph glyph-name="u7B14" unicode="&#x7b14;" d="M443 -63 q-44 2 -75 29.5 q-31 27.5 -31 82.5 l0 64 l-268 -12 l0 71 l268 13 l0 100 l-239 -11 l0 72 l239 11 l0 104 l-244 -11 l0 71 l429 20 q44 3 93 18.5 q49 15.5 91 35.5 l0 -72 q-26 -19 -74 -34.5 q-48 -15.5 -110 -17.5 q-81 -5 -99 -5 l0 -104 l279 14 l0 -72 l-279 -14 l0 -102 l308 14 l0 -71 l-308 -14 l0 -46 q0 -31 12.5 -46 q12.5 -15 30.5 -16 l288 0 l-15 -72 l-296 0 ZM221 687 l85 0 l47 -101 l-87 0 l-45 101 ZM40 586 q39 70 74 142 q35 72 51 122 l83 0 q-13 -46 -25 -77 l196 0 l0 -70 l-227 0 q-29 -62 -59 -117 l-93 0 ZM568 687 l86 0 l47 -86 l-87 0 l-46 86 ZM381 587 q38 70 72.5 141.5 q34.5 71.5 50.5 121.5 l83 0 q-8 -32 -25 -77 l198 0 l0 -70 l-229 0 q-28 -62 -59 -116 l-91 0 Z" /><glyph glyph-name="u7B26" unicode="&#x7b26;" d="M416 8 l133 0 q11 1 18.5 7 q7.5 6 7.5 20 l0 324 l-327 0 l0 70 l327 0 l0 123 l84 0 l0 -123 l93 0 l0 -70 l-93 0 l0 -335 q0 -45 -24.5 -66 q-24.5 -21 -59.5 -22 l-144 0 l-15 72 ZM134 279 l-84 0 q44 69 82 143.5 q38 74.5 54 129.5 l87 0 q-32 -104 -96 -211 l41 0 l0 -405 l-84 0 l0 343 ZM295 295 l86 0 l65 -175 l-86 0 l-65 175 ZM221 687 l85 0 l47 -116 l-87 0 l-45 116 ZM40 571 q93 182 125 279 l83 0 q-7 -29 -25 -77 l196 0 l0 -70 l-227 0 q-31 -68 -64 -132 l-88 0 ZM568 687 l86 0 l47 -116 l-87 0 l-46 116 ZM381 571 q92 182 123 279 l83 0 q-6 -29 -25 -77 l198 0 l0 -70 l-227 0 q-31 -68 -66 -132 l-86 0 Z" /><glyph glyph-name="u7B97" unicode="&#x7b97;" d="M71 -63 q44 30 81 74.5 q37 44.5 48 96.5 l-138 0 l0 71 l141 0 l0 53 l-94 0 l0 395 l501 0 q41 0 61 -19 q20 -19 20 -45 l0 -331 l-83 0 l0 -53 l130 0 l0 -71 l-130 0 l0 -171 l-86 0 l0 171 l-236 0 q-8 -57 -38 -101.5 q-30 -44.5 -67 -69.5 l-110 0 ZM522 179 l0 53 l-233 0 l0 -53 l233 0 ZM606 303 l0 40 l-412 0 l0 -40 l412 0 ZM606 410 l0 39 l-412 0 l0 -39 l412 0 ZM606 516 l0 15 q0 13 -6.5 18.5 q-6.5 5.5 -15.5 5.5 l-390 0 l0 -39 l412 0 ZM215 722 l86 0 l45 -79 l-85 0 l-46 79 ZM40 643 q78 132 110 207 l83 0 l-15 -39 l201 0 l0 -71 l-236 0 q-28 -51 -57 -97 l-86 0 ZM552 722 l87 0 l46 -79 l-86 0 l-47 79 ZM381 643 q77 132 108 207 l84 0 q-4 -11 -15 -39 l202 0 l0 -71 l-238 0 q-27 -51 -57 -97 l-84 0 Z" /><glyph glyph-name="u7C7B" unicode="&#x7c7b;" d="M652 360 q-53 58 -101 159 l-107 0 l0 -148 l-87 0 l0 253 l-299 0 l0 72 l299 0 l0 154 l87 0 l0 -154 l299 0 l0 -72 l-299 0 l0 -43 l169 0 q18 -54 55.5 -113 q37.5 -59 77.5 -108 l-94 0 ZM58 -63 q93 67 172.5 138.5 q79.5 71.5 111.5 123.5 l-289 0 l0 70 l307 0 l0 75 l85 0 l0 -75 l303 0 l0 -70 l-308 0 q-3 -12 -10 -24 l48 0 q39 -51 115 -115 q76 -64 159 -123 l-123 0 q-65 46 -127.5 99 q-62.5 53 -97.5 100 q-37 -47 -98 -101 q-61 -54 -125 -98 l-123 0 ZM55 360 q40 49 77.5 108 q37.5 59 55.5 113 l87 0 q-20 -57 -53 -117 q-33 -60 -73 -104 l-94 0 ZM132 825 l86 0 l52 -112 l-86 0 l-52 112 ZM583 825 l86 0 l-53 -112 l-85 0 l52 112 Z" /><glyph glyph-name="u83B7" unicode="&#x83b7;" d="M275 -64 q72 122 124.5 237 q52.5 115 57.5 179 l0 25 l-153 0 l0 71 l153 0 l0 188 l84 0 l0 -188 l174 0 l0 -71 l-174 0 l0 -25 q0 -17 -5 -40 l28 0 q20 -64 73 -167.5 q53 -103.5 116 -208.5 l-92 0 q-35 51 -75.5 127 q-40.5 76 -74.5 162 q-26 -69 -64.5 -146.5 q-38.5 -77.5 -78.5 -142.5 l-93 0 ZM66 8 l80 0 q13 0 21.5 7.5 q8.5 7.5 8.5 24.5 l0 152 q-59 -27 -119 -47 l0 80 q55 17 119 50 l0 98 q0 30 -7 59 q-54 -28 -112 -51 l0 80 q41 15 91 43 q-25 68 -61 132 l89 0 q24 -37 44 -88 q48 35 72 59 l0 -92 q-16 -16 -48 -38 q17 -59 17 -112 l0 -342 q0 -43 -25 -64 q-25 -21 -60 -23 l-95 0 l-15 72 ZM216 709 l-166 0 l0 72 l166 0 l0 69 l85 0 l0 -69 l189 0 l0 69 l85 0 l0 -69 l165 0 l0 -72 l-165 0 l0 -53 l-85 0 l0 53 l-189 0 l0 -53 l-85 0 l0 53 ZM597 612 l85 0 l33 -119 l-84 0 l-34 119 Z" /><glyph glyph-name="u8868" unicode="&#x8868;" d="M215 -38 l0 47 l0 211 q-43 -53 -83 -98 l-98 0 q58 66 114.5 142 q56.5 76 91.5 139 l-195 0 l0 71 l312 0 l0 74 l-275 0 l0 72 l275 0 l0 75 l-289 0 l0 70 l289 0 l0 85 l85 0 l0 -85 l289 0 l0 -70 l-289 0 l0 -75 l275 0 l0 -72 l-275 0 l0 -74 l312 0 l0 -71 l-418 0 q-29 -59 -75 -121 l39 0 l0 -249 q91 32 157 78 l0 -72 q-31 -28 -93.5 -55.5 q-62.5 -27.5 -148.5 -45.5 l0 24 ZM639 -48 q-61 67 -120.5 181 q-59.5 114 -103.5 231 l82 0 q31 -87 80 -180 l73 180 l81 0 l-83 -204 l-59 0 q70 -127 151 -208 l-101 0 Z" /><glyph glyph-name="u89E3" unicode="&#x89e3;" d="M35 -64 q12 61 21 143 q9 82 9 166 l0 367 l-43 0 q33 60 62 124.5 q29 64.5 44 113.5 l86 0 l-14 -45 l139 0 l0 -70 q-13 -39 -42 -86 q27 -2 52.5 -17 q25.5 -15 25.5 -59 l0 -565 q0 -36 -21 -53.5 q-21 -17.5 -52 -18.5 l-54 0 l-15 72 l37 0 q10 0 17.5 6 q7.5 6 7.5 20 l0 158 l-38 0 l0 -161 l-75 0 l0 161 l-37 0 q-2 -79 -11 -146 q-9 -67 -22 -110 l-77 0 ZM182 263 l0 113 l-35 0 l0 -113 l35 0 ZM295 263 l0 113 l-38 0 l0 -113 l38 0 ZM182 448 l0 125 l-35 0 l0 -125 l35 0 ZM552 104 l-154 0 l0 71 l154 0 l0 122 l-66 0 l-14 -70 l-75 0 l44 225 l76 0 l-16 -83 l51 0 l0 97 l85 0 l0 -97 l106 0 l0 -72 l-106 0 l0 -122 l124 0 l0 -71 l-124 0 l0 -168 l-85 0 l0 168 ZM295 448 l0 97 q0 15 -8.5 21.5 q-8.5 6.5 -21.5 6.5 l-8 0 l0 -125 l38 0 ZM208 649 q31 44 45 86 l-81 0 q-22 -50 -45 -86 l81 0 ZM400 488 q22 50 38.5 118 q16.5 68 21.5 139 l-69 0 l0 75 l266 0 q36 -1 61 -20 q25 -19 25 -55 l0 -169 q0 -44 -25 -65.5 q-25 -21.5 -61 -22.5 l-60 0 l-15 71 l46 0 q12 -2 20.5 5 q8.5 7 8.5 24 l0 110 q0 25 -11 36 q-11 11 -29 11 l-76 0 q-5 -72 -22 -140 q-17 -68 -39 -117 l-80 0 Z" /><glyph glyph-name="u8BB0" unicode="&#x8bb0;" d="M444 -56 q-50 2 -84 34 q-34 32 -34 96 l0 362 l328 0 l0 264 q1 17 -7.5 28.5 q-8.5 11.5 -29.5 11.5 l-291 0 l0 72 l328 0 q39 0 59 -19.5 q20 -19.5 21 -46.5 l0 -381 l-327 0 l0 -288 q0 -30 19 -45 q19 -15 46 -16 l286 0 l-15 -72 l-299 0 ZM129 26 l0 11 l0 491 q0 11 -7.5 19 q-7.5 8 -21.5 8 l-61 0 l0 72 l95 0 q39 0 59 -19.5 q20 -19.5 21 -46.5 l0 -494 q52 24 95 61 l0 -72 q-24 -27 -70.5 -51.5 q-46.5 -24.5 -109.5 -39.5 l0 61 ZM112 847 l85 0 l34 -140 l-86 0 l-33 140 Z" /><glyph glyph-name="u8F6C" unicode="&#x8f6c;" d="M372 225 l101 0 l79 -113 q45 44 72 88.5 q27 44.5 32 98.5 l-285 0 l38 177 l-61 0 l0 72 l77 0 l23 105 l-70 0 l0 72 l86 0 l27 125 l85 0 l-28 -125 l183 0 l0 -72 l-198 0 l-22 -105 l249 0 l0 -72 l-265 0 l-23 -101 l265 0 l0 -66 l0 -5 l0 -5 q-2 -82 -39 -142.5 q-37 -60.5 -99 -111.5 l77 -109 l-100 0 l-204 289 ZM181 117 q-59 -18 -147 -34 l0 71 q70 13 147 38 l0 155 l-140 0 l0 71 q30 120 54 235 l-61 0 l0 72 l75 0 q16 94 20 125 l81 0 q-7 -50 -18 -125 l154 0 l0 -72 l-168 0 q-21 -106 -54 -235 l57 0 l0 161 l85 0 l0 -161 l72 0 l0 -71 l-72 0 l0 -124 q34 14 72 35 l0 -72 q-24 -17 -72 -38 l0 -212 l-85 0 l0 181 Z" /><glyph glyph-name="u8FD0" unicode="&#x8fd0;" d="M62 -64 q32 89 54 185.5 q22 96.5 22 169.5 l0 12 l-61 0 q21 59 37.5 130 q16.5 71 20.5 132 l-90 0 l0 72 l176 0 l0 -33 q0 -112 -51 -277 l51 0 l0 -36 q0 -92 -35 -225 q60 -49 116 -49 l454 0 l-15 -72 l-441 0 q-57 0 -132 56 l-21 -65 l-85 0 ZM655 106 q-71 -27 -202 -27 l-203 0 l0 72 l203 0 q95 0 177 21 l-60 159 l85 0 l103 -271 l-86 0 l-17 46 ZM250 151 q44 67 84.5 143 q40.5 76 62.5 137 l-137 0 l0 72 l479 0 l0 -72 l-256 0 q-31 -88 -70.5 -161.5 q-39.5 -73.5 -76.5 -118.5 l-86 0 ZM94 833 l81 0 l38 -127 l-80 0 l-39 127 ZM272 803 l455 0 l0 -72 l-455 0 l0 72 Z" /><glyph glyph-name="u904D" unicode="&#x904d;" d="M62 -62 q32 89 54 184.5 q22 95.5 22 168.5 l0 12 l-61 0 q21 59 37.5 130 q16.5 71 20.5 132 l-90 0 l0 72 l176 0 l0 -33 q0 -67 -16 -142 q-16 -75 -35 -134 l51 0 l0 -37 q0 -92 -35 -225 q21 -16 30 -22 q15 29 31 99 q16 70 16 176 l0 464 l187 0 l-28 67 l86 0 l27 -67 l115 0 q41 0 60.5 -19 q19.5 -19 19.5 -45 l0 -168 l-381 0 l0 -237 q0 -95 -15 -165 q-15 -70 -35 -108 l-77 0 q42 -24 80 -24 l454 0 l-15 -72 l-442 0 q-52 0 -132 56 q-11 -36 -20 -63 l-85 0 ZM367 507 l293 0 q33 -1 56.5 -20 q23.5 -19 23.5 -55 l0 -315 q0 -38 -20 -57.5 q-20 -19.5 -49 -20.5 l-17 0 l-15 70 l4 0 q17 0 17 19 l0 104 l-26 0 l0 -184 l-67 0 l0 184 l-26 0 l0 -185 l-66 0 l0 185 l-27 0 l0 -193 l-81 0 l0 468 ZM475 303 l0 129 l-27 0 l0 -129 l27 0 ZM567 303 l0 129 l-26 0 l0 -129 l26 0 ZM94 833 l81 0 l38 -127 l-80 0 l-39 127 ZM660 303 l0 108 q0 21 -26 21 l0 -129 l26 0 ZM644 623 l0 56 q0 17 -9 25 q-9 8 -23 7 l-263 0 l0 -88 l295 0 Z" /><glyph glyph-name="u96C6" unicode="&#x96c6;" d="M130 610 l-82 0 q36 43 72.5 106.5 q36.5 63.5 60.5 133.5 l82 0 q-11 -33 -30 -73 l184 0 l-18 73 l86 0 l18 -73 l225 0 l0 -72 l-222 0 l0 -41 l208 0 l0 -71 l-208 0 l0 -41 l208 0 l0 -72 l-208 0 l0 -41 l239 0 l0 -72 l-529 0 l0 -15 l-86 0 l0 258 ZM39 -54 q39 46 75.5 109.5 q36.5 63.5 57.5 130.5 l81 0 q-20 -62 -52.5 -127 q-32.5 -65 -73.5 -113 l-88 0 ZM359 225 l-301 0 l0 71 l301 0 l0 47 l86 0 l0 -47 l300 0 l0 -71 l-300 0 l0 -39 l183 0 q20 -67 56.5 -130.5 q36.5 -63.5 75.5 -109.5 l-88 0 q-59 71 -103 177 l-124 0 l0 -187 l-86 0 l0 289 ZM422 439 l0 41 l-206 0 l0 -41 l206 0 ZM422 552 l0 41 l-206 0 l0 -41 l206 0 ZM422 664 l0 41 l-206 0 l0 -41 l206 0 Z" /></font>
</defs>
</svg>
