<?xml version="1.0" standalone="no"?><!DOCTYPE svg PUBLIC "-//W3C//DTD SVG 1.1//EN" "http://www.w3.org/Graphics/SVG/1.1/DTD/svg11.dtd" ><svg xmlns="http://www.w3.org/2000/svg"><metadata></metadata><defs><font id="LXGW WenKai Screen:Version 1.245" horiz-adv-x="2048"><font-face font-family="LXGW WenKai Screen" font-weight="400" font-stretch="normal" units-per-em="2048" panose-1="2 2 8 0 0 0 0 0 0 0" ascent="1900" descent="-500" x-height="0" bbox="41 -258 2046 1815" underline-thickness="100" underline-position="-408" unicode-range="U+2f00-9a8c" /><missing-glyph horiz-adv-x="2048" d="M1638 -131 l-614 797 l-614 -797 l1228 0 ZM1729 -29 l0 1610 l-619 -805 l619 -805 ZM319 -29 l619 805 l-619 805 l0 -1610 ZM1024 887 l616 801 l-1232 0 l616 -801 ZM1855 -258 l-1662 0 l0 2073 l1662 0 l0 -2073 Z" /><glyph glyph-name="uni2F00" unicode="&#x2f00;&#x4e00;" d="M260 641 q-57 0 -82 16 q-37 31 -53 75 q-16 44 -16 56 q0 23 20 23 q8 0 32.5 -7 q24.5 -7 63.5 -7 l1489 75 q47 5 67.5 13 q20.5 8 35.5 8 q16 0 46.5 -18.5 q30.5 -18.5 56.5 -47 q26 -28.5 26 -53.5 q0 -45 -60 -49 l-1626 -84 Z" /><glyph glyph-name="uni2F0A" unicode="&#x2f0a;&#x5165;" d="M115 -156 q-31 0 -31 35 q0 29 57 80 q359 336 582 690 q127 203 221 447 q-61 164 -84.5 238.5 q-23.5 74.5 -40 115.5 q-16.5 41 -34 57.5 q-17.5 16.5 -44.5 32.5 q-26 10 -26 33 q0 43 86 43 q76 0 111.5 -16.5 q35.5 -16.5 50 -56.5 q14.5 -40 28.5 -91 q103 -338 240 -588 q137 -250 330.5 -466 q193.5 -216 466.5 -421 q18 -14 18 -34 q0 -23 -33 -45 q-67 -45 -102 -45 q-35 0 -49 14 q-562 475 -822 1012 q-225 -445 -520 -732 q-151 -147 -336 -272 q-47 -31 -69 -31 Z" /><glyph glyph-name="uni4E2A" unicode="&#x4e2a;" d="M88 518 q-29 0 -29 24.5 q0 24.5 50 67.5 q376 316 600 600 q137 172 231 373 q18 41 18 80 q0 39 35 39 q25 0 60 -21 q90 -49 90 -94 q0 -16 -45 -98 q241 -322 547 -528 q155 -109 346 -209 q39 -21 39 -41 q0 -19 -48.5 -62 q-48.5 -43 -83.5 -43 q-14 0 -97 46 q-83 46 -212 139 q-323 231 -573 561 q-176 -277 -451 -514 q-217 -189 -387 -281 q-69 -39 -90 -39 ZM1055 -219 q-19 0 -51 16 q-80 43 -80 99 q0 14 8 55 q8 41 8 88 l0 860 q0 39 -35 82 q-12 18 -12 29 q0 28 47 28 q35 0 84 -17 q49 -17 64.5 -33.5 q15.5 -16.5 15.5 -47.5 l2 -1092 q0 -67 -51 -67 Z" /><glyph glyph-name="uni4E3A" unicode="&#x4e3a;" d="M782 1192 q-18 0 -61 41 q-57 57 -254 188 q-39 25 -39 52 q0 22 23.5 51.5 q23.5 29.5 46.5 29.5 q20 0 43 -14 q325 -194 325 -250 q0 -30 -31.5 -64 q-31.5 -34 -52.5 -34 ZM1335 391 q-28 0 -53 31 q-104 145 -221 250 q-47 41 -47 67 q0 25 28.5 53.5 q28.5 28.5 55.5 28.5 q24 0 52 -24.5 q28 -24.5 82 -72.5 q54 -48 89 -79 q35 -31 76 -79 q41 -48 41 -74 q0 -29 -38 -65 q-38 -36 -65 -36 ZM1493 -184 q-47 0 -91 27.5 q-44 27.5 -132 88 q-88 60.5 -190.5 150.5 q-102.5 90 -102.5 123 q0 37 35 37 q26 0 89.5 -38 q63.5 -38 202 -107.5 q138.5 -69.5 156.5 -69.5 q8 0 8 6 q125 438 146 993 l-545 -29 q-82 -389 -309 -688 q-178 -231 -391 -372 q-170 -115 -232 -115 q-31 0 -31 33 q0 24 41 53 q373 258 566 618 q116 228 174 463 q-402 -22 -465 -24 q-57 0 -96 63 q-31 51 -31 72 q0 28 29 28 q12 0 36.5 -6 q24.5 -6 63.5 -6 l498 21 q32 186 32 389 q0 55 -8 74.5 q-8 19.5 -8 33.5 q0 33 37 33 q24 0 61 -10 q99 -35 99 -76 q-7 -248 -39 -436 l590 33 q38 0 74 -29 q36 -29 36 -55 q0 -25 -6 -39.5 q-6 -14.5 -8 -22.5 q-17 -354 -59 -612 q-42 -258 -61.5 -338 q-19.5 -80 -31.5 -135.5 q-12 -55.5 -52 -93 q-40 -37.5 -85 -37.5 Z" /><glyph glyph-name="uni4E49" unicode="&#x4e49;" d="M1120 1178 q-24 0 -45 24 q-127 156 -244 254 q-22 21 -22 43 q0 19 24.5 47.5 q24.5 28.5 53.5 28.5 q26 0 128.5 -98.5 q102.5 -98.5 144.5 -144.5 q42 -46 42 -72 q0 -29 -30.5 -55.5 q-30.5 -26.5 -51.5 -26.5 ZM117 -156 q-35 0 -35 29 q0 39 55 66 q479 256 789 626 q-197 234 -381 588 q-94 178 -94 211 q0 37 38.5 52.5 q38.5 15.5 59.5 15.5 q39 0 65 -66 q43 -106 168 -317 q125 -211 244 -355 q135 183 245.5 429.5 q110.5 246.5 110.5 353.5 q0 26 -2 36 q0 35 31 35 q14 0 53 -20 q105 -49 105 -109 q0 -8 -27 -86 q-141 -426 -407 -764 q223 -233 475 -387 q147 -88 338 -166 q43 -16 43 -43 q0 -10 -27 -39 q-61 -71 -115 -71 q-10 0 -26 8 q-447 211 -791 573 q-270 -317 -684 -510 q-192 -90 -231 -90 Z" /><glyph glyph-name="uni4F8B" unicode="&#x4f8b;" d="M1716 -215 q-53 0 -254 164 q-110 98 -110 139 q0 25 30 25 q23 0 110 -51.5 q87 -51.5 191 -86.5 l5 1561 q0 41 -35 88 q-6 8 -6 21 q0 20 30 20 q19 0 58 -6 q106 -14 106 -76 l-4 -1583 l2 -74 q0 -61 -27.5 -92 q-27.5 -31 -55 -40 q-27.5 -9 -40.5 -9 ZM428 -188 q-29 0 -71 30.5 q-42 30.5 -42 83.5 q9 80 23 928 q-111 -197 -207 -281 q-41 -32 -55 -32 q-23 0 -23 28 q0 21 73 146 q73 125 169 340 q176 397 176 573 q0 35 31 35 q22 0 55 -18 q86 -41 86 -93 q0 -12 -20.5 -66 q-20.5 -54 -61.5 -167 q-41 -113 -86 -203 l-2 -1245 q0 -59 -45 -59 ZM578 -106 q-23 0 -23 28 q0 19 61.5 83.5 q61.5 64.5 147.5 179 q86 114.5 149 235.5 q-90 125 -126.5 160.5 q-36.5 35.5 -36.5 58.5 q0 18 26.5 47 q26.5 29 48.5 29 q37 0 152 -154 q63 154 108 342 l-213 -14 q-98 -201 -206 -330 q-52 -61 -76 -61 q-31 0 -31 28 q0 19 40 88.5 q40 69.5 91 192.5 q117 270 164 481 q-109 -6 -135 -6 q-62 0 -93.5 44 q-31.5 44 -31.5 67 q0 30 24 30 q52 -10 95 -10 q28 0 223 14 q246 19 271.5 28 q25.5 9 35.5 9 q12 0 39 -16 q27 -16 50.5 -39 q23.5 -23 23.5 -49 q0 -31 -47 -37 l-289 -23 q-19 -61 -41.5 -144 q-22.5 -83 -44.5 -130 l229 16 q35 0 70 -23.5 q35 -23.5 35 -49.5 q0 -25 -9.5 -42.5 q-9.5 -17.5 -11.5 -25.5 q-104 -434 -307 -700 q-156 -203 -297 -277 q-53 -30 -65 -30 ZM1464 258 q-8 0 -35.5 11.5 q-27.5 11.5 -54 33 q-26.5 21.5 -26.5 45.5 q0 21 6 48.5 q6 27.5 10 760.5 q0 37 -29 88 l-4 15 q0 24 27 24 q147 0 147 -80 l6 -876 q0 -70 -47 -70 Z" /><glyph glyph-name="uni5143" unicode="&#x5143;" d="M582 1274 q-72 0 -93.5 13 q-21.5 13 -47 49 q-25.5 36 -25.5 61 q0 30 22 30 q13 0 34.5 -6 q21.5 -6 98.5 -6 q844 53 868.5 62.5 q24.5 9.5 41.5 9.5 q18 0 48 -22.5 q30 -22.5 52.5 -49 q22.5 -26.5 22.5 -43.5 q0 -37 -64 -41 l-958 -57 ZM76 -178 q-33 0 -33 22 q0 27 53 56 q174 102 297 223 q236 237 328 690 q-383 -20 -414 -20 q-94 0 -129 94 q-12 33 -12 39 q0 24 45 24 q37 -12 92 -12 l1313 66 q49 4 75.5 13 q26.5 9 41 9 q14.5 0 43.5 -20 q82 -58 82 -101 q0 -35 -62 -39 l-549 -28 l-12 -695 q0 -73 53 -88.5 q53 -15.5 168 -15.5 q221 0 258 55 q45 56 86 350 q15 99 53 99 q41 0 43 -113 q2 -43 2 -127 q0 -221 -30 -303 q-56 -123 -369 -123 q-213 0 -282.5 24.5 q-69.5 24.5 -105.5 74 q-36 49.5 -36 137.5 l12 718 l-194 -12 q-105 -543 -401 -790 q-152 -125 -369 -199 q-27 -8 -47 -8 Z" /><glyph glyph-name="uni5178" unicode="&#x5178;" d="M207 305 q-43 0 -68 17 q-71 63 -71 108 q0 21 26 21 l96 -13 l224 11 l-33 669 q-6 68 -23.5 103.5 q-17.5 35.5 -17.5 52.5 q0 26 45 26 q33 0 131 -49 l234 15 l-7 231 q0 39 -24.5 70.5 q-24.5 31.5 -24.5 42.5 q0 26 41 26 q29 0 80 -15 q51 -15 61.5 -30.5 q10.5 -15.5 10.5 -42.5 l6 -274 l223 14 l4 242 q0 51 -30 84 q-13 18 -13 33 q0 22 43 22 q33 0 77 -12 q44 -12 56.5 -30.5 q12.5 -18.5 12.5 -57.5 l-6 -275 l288 19 q62 0 94.5 -31 q32.5 -31 32.5 -53.5 q0 -22.5 -6 -31.5 q-6 -9 -59 -703 q188 8 209.5 17 q21.5 9 31.5 9 q13 0 41 -18 q84 -56 84 -94 q0 -33 -61 -37 l-1708 -66 ZM1251 907 l242 15 l18 245 l-254 -14 l-6 -246 ZM901 889 l207 12 l6 246 l-219 -14 l6 -244 ZM539 870 l221 13 l-8 243 l-226 -12 l13 -244 ZM1243 479 l219 10 l23 297 l-236 -12 l-6 -295 ZM911 467 l189 8 l6 293 l-203 -10 l8 -291 ZM559 453 l211 10 l-8 289 l-217 -11 l14 -288 ZM240 -195 q-45 0 -45 27 q0 29 43 51 q258 148 430 310 q26 28 32.5 69 q6.5 41 34.5 41 q21 0 50.5 -26.5 q29.5 -26.5 51 -58.5 q21.5 -32 21.5 -52 q0 -23 -24 -43 q-189 -154 -374.5 -236 q-185.5 -82 -219.5 -82 ZM1659 -184 q-21 0 -60 26 q-204 178 -434 318 q-32 20 -32 49 q0 24 23.5 55 q23.5 31 53.5 31 q54 0 494 -315 q41 -29 41 -58 q0 -10 -14 -35 q-33 -71 -72 -71 Z" /><glyph glyph-name="uni521B" unicode="&#x521b;" d="M399 899 l-2 4 q-2 0 -2 -8 l4 4 ZM774 -78 q-92 0 -174 8 q-190 21 -190 209 l10 674 q0 49 -12 74 q-5 8 -7 12 q-116 -139 -235 -229 q-51 -39 -68 -39 q-26 0 -26 18 q0 21 32 62 q316 366 512 788 q19 45 19 103 l-2 20 q0 33 29 33 q18 0 55 -18.5 q37 -18.5 66.5 -47 q29.5 -28.5 29.5 -51.5 q0 -18 -8 -39 l-39 -72 q8 0 160 -129 q262 -219 262 -256 q0 -20 -17 -45 q-32 -61 -73 -61 q-19 0 -41 27 q-215 233 -359 348 q-141 -232 -245 -353 q8 0 102 -38 l365 24 q30 0 60 -22.5 q30 -22.5 30 -44.5 q0 -19 -5.5 -31 q-5.5 -12 -9.5 -55 q-4 -43 -11 -158 q-7 -115 -21 -182 q-35 -164 -125 -164 q-50 0 -132.5 81 q-82.5 81 -82.5 117 q0 25 26 25 q19 0 77 -34 q58 -34 77 -34 q43 0 51 373 l-291 -18 l-6 -627 q0 -39 12 -61 q21 -37 224 -37 q204 0 240 33.5 q36 33.5 48.5 116.5 q12.5 83 26.5 164 q14 81 49 81 q43 0 43 -158 q0 -147 -11 -219 q-11 -72 -48 -104 q-70 -64 -367 -64 ZM1413 246 l-27 6 q-86 22 -86 82 q0 12 7.5 42 q7.5 30 7.5 87 l-2 708 q0 48 -17.5 73.5 q-17.5 25.5 -17.5 41.5 q0 23 35 23 q24 0 69 -17.5 q45 -17.5 59.5 -33 q14.5 -15.5 14.5 -41.5 l6 -908 q0 -63 -49 -63 ZM1731 -217 q-33 0 -105 36 q-72 36 -181.5 124 q-109.5 88 -109.5 129 q0 24 31 24 q20 0 95 -39 q75 -39 210 -75 l4 1550 q0 49 -28 86 q-13 18 -13 33 q0 20 39 20 q29 0 94.5 -20.5 q65.5 -20.5 65.5 -71.5 l-4 -1608 l4 -69 q0 -41 -33 -80 q-33 -39 -69 -39 Z" /><glyph glyph-name="uni5220" unicode="&#x5220;" d="M719 -2 q72 264 86 772 l-88 -6 l-2 -707 l4 -59 ZM1507 254 q-43 0 -77.5 27.5 q-34.5 27.5 -34.5 56.5 q0 22 6 51 q6 29 6 90 l-4 707 q0 45 -16.5 72.5 q-16.5 27.5 -16.5 37.5 q0 29 37 29 q25 0 71 -16.5 q46 -16.5 57 -32.5 q11 -16 11 -43 l6 -930 q0 -49 -45 -49 ZM1739 -229 q-35 0 -79 27.5 q-44 27.5 -96.5 67.5 q-52.5 40 -97.5 84 q-45 44 -76.5 80 q-31.5 36 -31.5 52 q0 24 31 24 q20 0 113 -48 q93 -48 181 -83 l5 1577 q0 41 -19.5 70 q-19.5 29 -19.5 43 q0 29 41 29 q28 0 77.5 -18.5 q49.5 -18.5 63.5 -34 q14 -15.5 14 -42.5 l-4 -1638 l4 -70 q0 -41 -34.5 -80.5 q-34.5 -39.5 -71.5 -39.5 ZM455 883 l120 8 l3 471 l-117 -10 q0 -193 -6 -469 ZM950 907 l142 11 l2 464 l-140 -14 q0 -354 -4 -461 ZM1143 -193 q-60 0 -166.5 110 q-106.5 110 -106.5 142 q0 27 39 27 q29 0 63 -25.5 q34 -25.5 72.5 -44 q38.5 -18.5 45.5 -20.5 l2 788 l-142 -8 q-12 -188 -24 -340 q-27 -323 -148 -553 q-33 -55 -57 -55 q-33 0 -33 37 q0 18 14 78 q-6 -13 -18 -25 q-35 -31 -66 -31 q-53 0 -155 103 q-92 96 -92 141 q0 27 30 27 q21 0 60 -27 q39 -27 70.5 -40 q31.5 -13 39.5 -15 l4 682 l-124 -8 q-11 -275 -68 -488 q-68 -246 -154 -364 q-39 -54 -61 -54 q-31 0 -31 33 q0 23 32 115 q32 92 77 276.5 q45 184.5 61 474.5 l-94 -4 q-53 0 -74 25 q-47 63 -47 88 q0 33 27 33 q14 0 37.5 -7.5 q23.5 -7.5 54.5 -7.5 l100 7 q4 157 4 253 q0 95 -2 190 q-2 95 -14 134 q-12 39 -12 51 q0 31 37 31 q26 0 120 -53 l174 18 q64 0 86.5 -28.5 q22.5 -28.5 22.5 -49.5 q-8 -53 -10 -528 l90 8 l2 168 q0 352 -27 426 q-4 19 -4 33 q0 24 35 24 q27 0 125 -55 l215 27 q29 0 61.5 -21.5 q32.5 -21.5 32.5 -60.5 l-8 -51 l0 -467 l47 10 q51 0 98 -62 q17 -24 17 -36 q0 -37 -59.5 -40 q-59.5 -3 -102.5 -7 l-2 -814 l4 -57 q0 -33 -29.5 -73 q-29.5 -40 -68.5 -40 Z" /><glyph glyph-name="uni5355" unicode="&#x5355;" d="M1022 -219 q-27 0 -67 26.5 q-40 26.5 -40 71.5 q13 90 13 172 l0 158 q-654 -23 -723 -27 q-21 0 -54.5 16.5 q-33.5 16.5 -58.5 98.5 q-2 6 -2 18 q0 21 25 21 q59 -14 104 -14 l711 22 l0 170 l-338 -16 l2 -35 q0 -49 -41 -49 q-41 0 -78 29.5 q-37 29.5 -37 66.5 q2 12 2 29 l-43 548 q-4 66 -22.5 105 q-18.5 39 -18.5 55 q0 25 39 25 q27 0 125 -37 l506 27 q2 16 89 101 q87 85 149.5 165 q62.5 80 68.5 151 q4 31 31 31 q20 0 69.5 -36 q49.5 -36 55.5 -91 q0 -29 -53.5 -85 q-53.5 -56 -243.5 -208 q-41 -22 -41 -24 l10 4 l373 20 q53 0 85 -35.5 q32 -35.5 32 -52.5 q0 -18 -7.5 -29.5 q-7.5 -11.5 -66.5 -504.5 q57 -60 57 -84 q0 -29 -20.5 -36 q-20.5 -7 -536.5 -30 l-2 -170 q707 25 734.5 33 q27.5 8 43.5 8 q19 0 46.5 -19.5 q27.5 -19.5 48 -44 q20.5 -24.5 20.5 -42.5 q0 -39 -65 -43 l-830 -27 l-2 -375 q0 -57 -49 -57 ZM795 1303 q-19 0 -35 18 l-33 35 q-74 92 -184 180 q-17 16 -17 30.5 q0 14.5 21.5 45 q21.5 30.5 42.5 30.5 q18 0 73.5 -33.5 q55.5 -33.5 140.5 -110.5 q85 -77 85 -107 q0 -33 -45 -68 q-27 -20 -49 -20 ZM580 629 l350 16 l0 189 l-367 -21 l17 -184 ZM1077 649 l357 17 l16 192 l-371 -18 l-2 -191 ZM553 938 l379 20 l0 172 l-393 -22 q8 -84 14 -170 ZM1079 965 l387 20 l15 174 l-400 -22 l-2 -172 Z" /><glyph glyph-name="uni540E" unicode="&#x540e;" d="M94 -137 q-31 0 -31 31 q0 22 54.5 88.5 q54.5 66.5 118.5 179.5 q131 244 163 467 q33 194 33 577 q0 76 -11 110 q-11 34 -11 56 q0 31 45 31 q34 0 137 -51 q254 51 446 116 q336 115 402 181 q12 12 28.5 12 q16.5 0 44.5 -21 q70 -53 70 -104 q0 -31 -39 -49 q-489 -199 -946 -258 q-2 -51 -3 -114.5 q-1 -63.5 -5 -117.5 l1081 62 q62 6 79 13 q17 7 30 7 q14 0 45 -20 q80 -58 80 -98 q0 -37 -66 -41 l-1255 -68 q-9 -117 -32.5 -258 q-23.5 -141 -89 -278.5 q-65.5 -137.5 -141 -238 q-75.5 -100.5 -140 -157.5 q-64.5 -57 -87.5 -57 ZM815 -211 q-45 0 -83 29.5 q-38 29.5 -38 72.5 q6 43 6 84 q0 29 -32 459 q-4 68 -21.5 99.5 q-17.5 31.5 -17.5 50.5 q0 26 43 26 q30 0 139 -43 l723 41 q84 0 112.5 -32.5 q28.5 -32.5 28.5 -53 q0 -20.5 -8 -33 q-8 -12.5 -68 -419.5 q54 -66 54 -90 q0 -31 -29 -36 q-29 -5 -762 -26 l4 -61 q0 -68 -51 -68 ZM852 55 l596 23 l43 387 l-668 -35 l29 -375 Z" /><glyph glyph-name="uni5411" unicode="&#x5411;" d="M385 -203 q-6 0 -36 9.5 q-30 9.5 -58.5 32 q-28.5 22.5 -28.5 55.5 q0 24 8.5 75 q8.5 51 12.5 1035 q0 116 -14.5 173.5 q-14.5 57.5 -14.5 71.5 q0 25 41 25 q29 0 151 -62 l252 17 q205 317 220 399 q4 23 4 47.5 q0 24.5 30 24.5 q23 0 54 -21 q84 -51 84 -94 q0 -41 -218 -346 l809 49 q33 0 67 -25.5 q34 -25.5 34 -64.5 l-10 -43 l-5 -1147 l2 -86 q0 -55 -36.5 -89 q-36.5 -34 -63.5 -34 q-24 0 -105 37 q-81 37 -214 127 q-133 90 -133 139 q0 27 36 27 q25 0 82 -29 q117 -61 277 -104 l0 1145 l-1176 -68 l0 -1212 q0 -64 -51 -64 ZM821 205 q-20 0 -69.5 24.5 q-49.5 24.5 -49.5 79.5 q7 68 7 88 l-29 320 q-4 61 -22.5 101 q-18.5 40 -18.5 56 q0 27 43 27 q31 0 137 -51 l441 33 q34 0 70 -33 q36 -33 36 -57 q0 -23 -8 -34 q-8 -11 -58 -327 q70 -59 70 -86 q0 -33 -22.5 -39 q-22.5 -6 -485.5 -20 l2 -33 q0 -49 -43 -49 ZM854 418 l303 12 l35 309 l-363 -24 l25 -297 Z" /><glyph glyph-name="uni5426" unicode="&#x5426;" d="M1018 541 q-49 0 -83 33.5 q-34 33.5 -34 58.5 q0 20 9.5 55 q9.5 35 9.5 98 l-2 246 q-209 -166 -494 -301 q-225 -110 -277 -110 q-41 0 -41 32.5 q0 32.5 48 55.5 q473 256 753 497 q-2 6 -15 27.5 q-13 21.5 -13 34.5 q0 28 39 28 q28 0 69 -16 l57 61 q-655 -38 -698 -38 q-53 6 -82 36 q-37 47 -37 80 q0 39 23 39 q12 0 33.5 -6 q21.5 -6 99.5 -6 q1270 78 1294.5 87 q24.5 9 38.5 9 q17 0 47 -20 q78 -54 78 -97 q0 -36 -63 -41 l-527 -30 q-84 -107 -186 -199 l4 -553 q0 -61 -51 -61 ZM1837 670 q-16 0 -104 53 q-297 172 -549 270 q-41 17 -41 47 q18 93 67 93 q47 0 350.5 -147.5 q303.5 -147.5 335.5 -178.5 q13 -14 13 -32.5 q0 -18.5 -19.5 -61.5 q-19.5 -43 -52.5 -43 ZM645 -209 q-49 0 -83 34 q-34 34 -34 64 q7 43 7 91 q0 20 -31 405 q-4 66 -21.5 100.5 q-17.5 34.5 -17.5 44.5 q0 27 41 27 q29 0 141 -43 l807 31 q80 0 107 -62 q6 -20 6 -30 q0 -15 -7.5 -24 q-7.5 -9 -62.5 -374 q45 -63 45 -88 q0 -33 -21.5 -38 q-21.5 -5 -826.5 -17 l4 -55 q0 -66 -53 -66 ZM684 51 l662 12 l40 338 l-729 -24 l27 -326 Z" /><glyph glyph-name="uni5934" unicode="&#x5934;" d="M715 752 q-23 0 -127.5 88 q-104.5 88 -261.5 188 q-31 21 -31 47 q0 21 14 41 q31 43 58 43 q20 0 123.5 -62.5 q103.5 -62.5 265.5 -187.5 q45 -32 45 -65 q-4 -35 -36 -63.5 q-32 -28.5 -50 -28.5 ZM188 -188 q-30 0 -30 28 q0 33 67 62 q371 161 537 334 q104 104 166 241 l-627 -28 q-27 0 -70 16 q-43 16 -71 100 q-4 15 -4 23 q0 18 20 18 q10 0 32.5 -8 q22.5 -8 78.5 -8 l698 31 l29 98 q35 160 45 440 q0 365 -6 394.5 q-6 29.5 -20.5 52 q-14.5 22.5 -14.5 39.5 q0 24 35 24 q24 0 69 -15.5 q45 -15.5 72 -33.5 q27 -18 28 -61 q1 -43 1 -193 q0 -485 -72 -739 l514 24 q45 4 67.5 13.5 q22.5 9.5 35 9.5 q12.5 0 40.5 -19 q84 -51 84 -98 q0 -39 -59 -43 l-725 -31 q-84 -227 -301 -399 q-176 -133 -367.5 -202.5 q-191.5 -69.5 -251.5 -69.5 ZM1747 -186 q-31 0 -53 28 q-146 135 -272 243 q-126 108 -273 191 q-21 21 -21 37 q0 19 13 37 q26 51 65 51 q23 0 113 -53 q207 -123 496 -391 q26 -25 26 -51 q0 -31 -32.5 -61.5 q-32.5 -30.5 -61.5 -30.5 ZM885 1112 q-23 0 -129.5 89 q-106.5 89 -259.5 188 q-31 22 -31 49 q0 20 14 41 q31 41 58 41 q20 0 121.5 -60.5 q101.5 -60.5 267.5 -189.5 q43 -33 43 -66 q0 -33 -33 -62.5 q-33 -29.5 -51 -29.5 Z" /><glyph glyph-name="uni5B9A" unicode="&#x5b9a;" d="M336 895 q-12 -8 -28.5 -8 q-16.5 0 -52.5 26.5 q-36 26.5 -36 47.5 q0 18 26.5 63 q26.5 45 70.5 156.5 q44 111.5 77 222.5 q15 39 45 39 q25 0 61 -15.5 q36 -15.5 36 -40.5 q0 -20 -13 -63 l422 27 l0 172 q0 39 -19.5 66.5 q-19.5 27.5 -19.5 41.5 q0 29 37 29 q25 0 62 -10 q102 -33 102 -76 l-2 -215 l622 39 q66 0 100 -29 q34 -29 34 -51.5 q0 -22.5 -15.5 -38.5 q-15.5 -16 -39 -49 q-23.5 -33 -74.5 -94 q-125 -156 -175 -156 q-22 0 -22 29 q0 20 43 91.5 q43 71.5 70 149.5 l-1168 -65 q-98 -262 -143 -289 ZM166 -184 q-31 0 -31 30 q0 21 29 52 q274 315 368 585 q39 107 39 131 q0 43 -4 64 q0 35 33 35 q25 0 57.5 -17.5 q32.5 -17.5 58 -44 q25.5 -26.5 25.5 -45.5 q0 -16 -28.5 -95 q-28.5 -79 -81.5 -179 q157 -88 311 -146 l6 645 q-307 -18 -366 -20 q-39 0 -54 14 q-63 66 -63 119 q0 23 27 23 q8 0 28.5 -5.5 q20.5 -5.5 81.5 -5.5 q774 41 807 50 q16 4 37 4 q22 0 51 -21 q68 -49 68 -88 q0 -37 -62 -41 l-401 -22 l-4 -260 q301 14 328.5 23 q27.5 9 42 9 q14.5 0 41 -16 q26.5 -16 50 -42 q23.5 -26 23.5 -46 q0 -41 -61 -45 l-424 -17 l-4 -311 q321 -100 790 -129 q64 -2 64 -35 q0 -10 -19 -45 q-47 -86 -96 -86 q-252 29 -453 70 q-465 96 -819 309 q-149 -217 -309 -350 q-66 -51 -86 -51 Z" /><glyph glyph-name="uni5B9E" unicode="&#x5b9e;" d="M281 864 q-27 0 -67 27 q-40 27 -40 53 q0 23 33 75 q33 52 79 163.5 q46 111.5 79 220.5 q14 43 49 43 q20 0 57 -13.5 q37 -13.5 37 -41.5 q0 -23 -23 -88 l453 26 l0 193 q0 34 -21.5 65 q-21.5 31 -21.5 43 q0 31 39 31 q29 0 65 -8 q111 -29 111 -80 l-2 -234 l655 39 q60 0 97.5 -25.5 q37.5 -25.5 37.5 -54 q0 -28.5 -15 -43 q-15 -14.5 -39.5 -52.5 q-24.5 -38 -116 -156.5 q-91.5 -118.5 -136.5 -118.5 q-28 0 -28 35 q0 24 44 99 q44 75 74 169 l-1243 -72 q-45 -135 -114 -264 q-13 -31 -43 -31 ZM796.5 526.5 q-26.5 -32.5 -47 -32.5 q-20.5 0 -115.5 64.5 q-95 64.5 -241 133.5 q-33 21 -33 45 q0 21 18.5 50.5 q18.5 29.5 43.5 29.5 q20 0 128.5 -49 q108.5 -49 223.5 -123 q49 -29 49 -57.5 q0 -28.5 -26.5 -61 ZM907 745 q-18 0 -118.5 68 q-100.5 68 -235.5 131 q-33 21 -33 45 q0 21 18.5 50.5 q18.5 29.5 43.5 29.5 q20 0 122.5 -46 q102.5 -46 229.5 -126 q47 -29 47 -59 q0 -29 -26.5 -61 q-26.5 -32 -47.5 -32 ZM1698 -207 q-27 0 -53 25 q-111 78 -231 154.5 q-120 76.5 -273 142.5 q-27 16 -27 35 q0 14 10 34 q25 56 66 56 q18 0 113 -43 q198 -88 452 -258 q33 -23 33 -51.5 q0 -28.5 -31 -61.5 q-31 -33 -59 -33 ZM193 -227 q-33 0 -33 32 q0 37 57 60 q266 88 471 227 q133 92 197 176 l-586 -24 q-27 0 -69 16 q-42 16 -70 100 q-4 15 -4 23 q0 18 20 18 q10 0 32.5 -8 q22.5 -8 76.5 -8 l688 31 q55 127 88 368 q6 54 6 172 q0 60 -33 101 q-8 12 -8 28 q0 35 37 35 q22 0 61 -6 q39 -6 76 -22.5 q37 -16.5 37 -67.5 q-4 -170 -32.5 -346 q-28.5 -176 -59.5 -256 l500 24 q45 5 67.5 14 q22.5 9 34.5 9 q12 0 41 -18 q82 -52 82 -99 q0 -35 -58 -43 l-739 -33 q-117 -196 -379 -331 q-207 -109 -424 -156 l-77 -16 Z" /><glyph glyph-name="uni5BFB" unicode="&#x5bfb;" d="M1270 -248 q-90 0 -271 148 q-102 90 -102 116 q0 31 31 31 q18 0 108 -42 q90 -42 176 -58 l5 555 l-934 -47 q-117 0 -144 129 q0 24 21 24 q8 0 24.5 -6 q16.5 -6 69.5 -6 q27 0 963 47 q0 76 -29 119 q-12 18 -12 35 q0 22 30 22 q172 -28 172 -96 l0 -74 q367 21 395.5 30 q28.5 9 49.5 9 q22 0 50 -22.5 q28 -22.5 47 -50 q19 -27.5 19 -44.5 q0 -32 -63 -36 l-498 -25 l-4 -565 l6 -80 q0 -58 -37.5 -85.5 q-37.5 -27.5 -72.5 -27.5 ZM840 76 q-25 0 -47 22 q-109 109 -238 199 q-31 18 -31 41 q0 18 29 52 q29 34 51 34 q21 0 106 -53.5 q85 -53.5 183 -141.5 q27 -20 27 -51 q0 -28 -29 -65 q-29 -37 -51 -37 ZM518 799 q-39 0 -70.5 15 q-31.5 15 -54.5 104 q0 30 35 30 q37 -8 74 -8 l930 37 l14 166 q-793 -49 -852 -51 q-33 0 -67.5 16 q-34.5 16 -59.5 96 q-2 6 -2 19 q0 20 20 20 q9 0 39.5 -8 q30.5 -8 63.5 -8 l874 49 l15 145 q-918 -61 -945 -61 q-45 0 -65.5 21.5 q-20.5 21.5 -38.5 54 q-18 32.5 -18 53.5 q0 27 30 27 q6 0 32 -9.5 q26 -9.5 58 -9.5 q23 0 1002 64 q57 0 89 -26 q32 -26 32 -50 q0 -23 -8.5 -39 q-8.5 -16 -69.5 -469 q53 -57 53 -82 q0 -31 -22.5 -39 q-22.5 -8 -1034.5 -53 q-30 -4 -53 -4 Z" /><glyph glyph-name="uni5EFA" unicode="&#x5efa;" d="M1298 80 q-4 0 -31.5 6 q-27.5 6 -54 27.5 q-26.5 21.5 -26.5 72.5 q0 13 6 42.5 q6 29.5 6 97.5 l-344 -15 l-82 2 q-65 15 -96 76 q-2 8 -8 17.5 q-6 9.5 -6 21.5 q0 27 30 27 q6 0 23.5 -6.5 q17.5 -6.5 79.5 -6.5 q26 0 403 17 l2 112 l-248 -14 q-96 0 -135 66 q-18 30 -18 47 q0 24 22 24 q10 0 26.5 -4 q16.5 -4 49.5 -4 q64 2 303 16 l0 107 l-246 -14 q-75 0 -116 108 q0 25 26 25 q31 -6 60 -6 l278 14 l0 111 l-377 -21 q-45 0 -65.5 17.5 q-20.5 17.5 -39 50 q-18.5 32.5 -18.5 47.5 q0 20 25 20 q41 -8 92 -8 q31 0 383 21 l0 106 q-112 -8 -239 -14 q-64 0 -117 88 q-12 20 -12 32 q0 21 24 21 l96 -8 q21 0 250 14 l0 78 q0 78 -24 111 q-11 14 -11 26 q0 21 31 21 q19 0 49 -7 q94 -18 94 -77 l0 -146 l259 17 q8 2 34 2 q29 0 62 -28 q33 -28 33 -54.5 q0 -26.5 -8.5 -41 q-8.5 -14.5 -20.5 -112.5 q72 4 96.5 13.5 q24.5 9.5 42.5 9.5 q21 0 45.5 -20.5 q24.5 -20.5 38.5 -43 q14 -22.5 14 -35.5 q0 -34 -57 -41 l-196 -12 l-15 -119 q53 -57 53 -80 q0 -28 -22.5 -33 q-22.5 -5 -358.5 -26 l0 -104 q248 14 279 24 q20 8 37 8 q18 0 43 -16 q65 -39 65 -84 q0 -37 -55 -43 l-369 -22 l0 -115 l343 14 q79 8 99.5 16.5 q20.5 8.5 39.5 8.5 q20 0 49 -19 q70 -45 70 -82 q0 -43 -48 -49 l-553 -22 l0 -193 q0 -57 -45 -57 ZM98 -203 q-28 0 -28 31 q0 20 65 90 q148 164 234 322 q-17 2 -64 2 q-47 0 -90 -10.5 q-43 -10.5 -51 -10.5 q-58 0 -58 88 q0 39 37 54.5 q37 15.5 138 15.5 q98 0 153 -12 q62 139 105 315 q-177 -14 -193 -20.5 q-16 -6.5 -39 -6.5 q-26 0 -56 28 q-30 28 -30 52 q0 23 21 53 q141 193 247 400 q-198 -27 -231 -27 q-33 0 -61.5 24.5 q-28.5 24.5 -44 56.5 q-15.5 32 -15.5 44 q0 21 25 21 l78 -9 q34 0 186 18.5 q152 18.5 158 18.5 q65 0 91.5 -33.5 q26.5 -33.5 26.5 -52.5 q0 -20 -16 -37.5 q-16 -17.5 -24 -27.5 q-146 -262 -234 -377 l186 20 q74 0 105 -59 q10 -23 10 -35 q0 -14 -58.5 -178 q-58.5 -164 -95.5 -236 q11 -2 80 -34 q492 -232 1301 -314 q45 -6 45 -34 q0 -13 -21 -41 q-51 -84 -100 -84 q-20 0 -27 2 q-358 55 -664 130.5 q-306 75.5 -575 211.5 q-57 30 -102 47 q-80 -131 -170 -222.5 q-90 -91.5 -157.5 -137.5 q-67.5 -46 -86.5 -46 ZM1343 1182 l211 12 l9 109 l-220 -15 l0 -106 ZM1343 942 l189 12 l10 113 l-199 -12 l0 -113 Z" /><glyph glyph-name="uni627E" unicode="&#x627e;" d="M1891.5 -149.5 q-23.5 -22.5 -77 -22.5 q-53.5 0 -120.5 43 q-119 78 -221.5 222.5 q-102.5 144.5 -149.5 236.5 q-137 -115 -338 -213 q-141 -72 -188 -72 q-31 0 -31 27 q0 20 43 49 q293 188 453 338 q-91 213 -125 448 q-246 -39 -269 -39 q-53 0 -104 93 l-4 14 q0 29 33 29 q12 -3 34 -3 q31 0 287 41 q-14 119 -27.5 248 q-13.5 129 -22.5 199 q-9 70 -18.5 92.5 q-9.5 22.5 -30 37.5 q-20.5 15 -20.5 28 q0 26 80 26 q119 0 127 -74 q17 -131 30 -269 q13 -138 30 -265 q428 65 451.5 75.5 q23.5 10.5 42 10.5 q18.5 0 43 -18.5 q24.5 -18.5 42 -40 q17.5 -21.5 17.5 -35.5 q0 -39 -64 -47 l-510 -80 q35 -201 90 -357 q197 220 197 318 q0 47 28 47 q13 0 43 -18 q91 -56 91 -105 q0 -55 -297 -379 q71 -137 151 -235.5 q80 -98.5 139.5 -145.5 q59.5 -47 67.5 -47 q14 0 102 336 q25 86 60 86 q35 0 35 -78 q0 -59 -21.5 -215.5 q-21.5 -156.5 -38 -210 q-16.5 -53.5 -40 -76 ZM520 -168 q-69 0 -229 160 q-96 88 -96 125 q0 24 28 24 q21 0 70 -28 q113 -70 186 -97 l2 486 q-239 -119 -297 -119 q-26 0 -54 22.5 q-28 22.5 -47.5 50 q-19.5 27.5 -19.5 46 q0 18.5 34 20.5 q34 2 90.5 18.5 q56.5 16.5 121 39 q64.5 22.5 115.5 43 q51 20.5 59 22.5 l2 383 q-223 -16 -243 -16 q-74 0 -105 69 q-14 31 -14 45 q0 23 27 23 q36 -6 67 -6 q47 2 268 18 l2 334 q0 64 -26 98 q-12 13 -12 25 q0 20 30 20 l25 -2 q131 -10 131 -94 l-2 -373 q135 11 159.5 19 q24.5 8 38.5 8 q17 0 42.5 -16.5 q25.5 -16.5 46 -41 q20.5 -24.5 20.5 -44.5 q0 -35 -59 -39 l-248 -19 l-2 -331 q256 116 278 116 q29 0 29 -24 q0 -21 -32 -46.5 q-32 -25.5 -77 -54 q-45 -28.5 -90 -55.5 q-45 -27 -77 -45 l-33 -16 l-2 -568 l2 -61 q0 -64 -42 -91.5 q-42 -27.5 -67 -27.5 ZM1593 1157 q-22 0 -57 39 q-98 131 -223 234 q-35 30 -35 49 q0 16 24.5 44.5 q24.5 28.5 53.5 28.5 q24 0 41.5 -13 q17.5 -13 44 -38.5 q26.5 -25.5 65.5 -60.5 q170 -150 170 -195 q0 -31 -32.5 -59.5 q-32.5 -28.5 -51.5 -28.5 Z" /><glyph glyph-name="uni636E" unicode="&#x636e;" d="M461 -172 q-66 0 -186.5 125 q-120.5 125 -120.5 170 q0 22 26 22 q17 0 85.5 -47 q68.5 -47 156.5 -78 l2 484 l-18 -12 q-35 -19 -115 -64 q-80 -45 -107 -45 q-73 0 -137 96 q-6 13 -6 19 q0 22 27.5 26 q27.5 4 76 17.5 q48.5 13.5 281.5 113.5 l2 361 q-180 -15 -201 -15 q-65 0 -98 76 q-10 27 -13 31 q-3 4 -3 18 q0 21 24 21 q33 -8 76 -8 q18 0 215 14 l2 326 q0 51 -35 106 q-8 12 -8 23 q0 26 33 26 q22 0 57 -8 q103 -24 103 -90 l-2 -375 l79 6 q27 2 55.5 14.5 q28.5 12.5 41.5 12.5 q14 0 43 -18 q77 -50 77 -86 q0 -35 -61 -43 l-238 -21 l-2 -301 q99 45 203 102 q29 15 47 15 q29 0 29 -27 q0 -49 -279 -223 l-4 -553 l4 -84 q0 -57 -37.5 -92 q-37.5 -35 -74.5 -35 ZM733 -86 q-31 -51 -57.5 -51 q-26.5 0 -26.5 35 q0 22 13 55 q243 586 243 1212 l0 142 q0 153 -24 196 q-13 25 -13 39 q0 23 45 23 q33 0 136 -37 l714 49 q95 -35 95 -86 q0 -16 -8.5 -28.5 q-8.5 -12.5 -49.5 -256.5 q51 -57 51 -80 q0 -28 -23.5 -33.5 q-23.5 -5.5 -770.5 -45.5 q-13 -256 -51 -447 q-82 -381 -273 -686 ZM1059 1174 l590 36 l28 228 l-618 -39 q2 -15 2 -107 q0 -96 -2 -118 ZM1243 -180 q-20 0 -53 12 q-64 27 -64 96 q4 37 4 70 l-24 315 q-4 45 -23.5 80 q-19.5 35 -19.5 45 q0 27 47 27 q35 0 133 -39 l143 8 l0 232 l-229 -13 q-49 0 -63 11 q-60 53 -60 104 q0 23 23 23 q61 -11 86 -11 l243 11 l0 135 q0 43 -16 67.5 q-16 24.5 -16 38.5 q0 23 32 23 q23 0 71 -17.5 q48 -17.5 62.5 -29 q14.5 -11.5 14.5 -37.5 l-4 -174 q248 10 282 20 q25 6 39 6 q17 0 41 -16 q66 -41 66 -80 q0 -33 -47 -39 l-381 -18 l-6 -230 l207 11 q51 0 84.5 -28 q33.5 -28 33.5 -46.5 q0 -18.5 -7 -26.5 q-7 -8 -54 -293 q45 -61 45 -84 q0 -30 -29 -30 q-55 -4 -522 -13 l4 -49 q0 -61 -43 -61 ZM1274 55 l373 11 l32 260 l-424 -21 l19 -250 Z" /><glyph glyph-name="uni63D2" unicode="&#x63d2;" d="M1397 707 l2 -652 l264 4 l18 246 l-112 -6 q-70 0 -96.5 16.5 q-26.5 16.5 -51.5 87.5 q-2 7 -2 19 q0 20 25 20 l86 -10 l158 6 l14 195 l-158 -10 q-86 0 -114 30 q-19 21 -33 54 ZM414 -176 q-62 0 -199 184 q-59 80 -59 103 q0 30 28 30 q25 0 80 -42 q55 -42 119 -79 l2 476 q-152 -115 -197 -115 q-14 0 -32 8 q-56 27 -80 64 l-25 36 q0 27 29 31 q96 10 307 131 l2 393 l-80 -8 q-22 -2 -41.5 -4 q-19.5 -2 -40.5 -2 q-26 0 -47 14 q-63 62 -63 105 q0 22 24 22 q25 -6 70 -6 q33 0 178 15 l2 315 q0 57 -33 107 q-8 12 -8 22 q0 27 37 27 q27 0 75 -17.5 q48 -17.5 63.5 -37 q15.5 -19.5 15.5 -46.5 l-2 -356 q84 6 109.5 18.5 q25.5 12.5 39.5 12.5 q14 0 39 -19 q68 -47 68 -86 q0 -35 -56 -41 l-200 -18 l-2 -326 q88 49 165 103 q29 18 50 18 q28 0 28 -33 q0 -45 -243 -219 l-5 -567 l5 -76 q0 -61 -42 -99 q-42 -38 -81 -38 ZM948 -186 q-16 0 -51 16 q-61 29 -61 74 l0 14 q4 37 4 72 q0 33 -35 545 q-4 77 -19.5 113 q-15.5 36 -15.5 42 q0 27 35 27 q24 0 102 -27 q185 94 207 166 q16 41 41 41 q21 0 43 -27 q51 -59 51 -106 q0 -21 -16 -35 q-129 -96 -285 -147 l13 -164 q34 0 81.5 3 q47.5 3 65.5 10 q18 7 31 7 q14 0 54 -33.5 q40 -33.5 40 -74.5 q0 -35 -62 -39 l-204 -8 l16 -234 l272 4 l-4 895 l-403 -22 q-60 0 -76 12 q-70 55 -70 111 q0 24 27 24 q10 0 36 -6 q26 -6 69 -6 l417 22 l-2 215 q-313 -92 -358 -92 q-57 0 -57 31 q0 35 89 67.5 q89 32.5 199 75.5 q381 152 420 203 q14 16 23.5 41 q9.5 25 36.5 25 q22 0 48.5 -35 q26.5 -35 45 -72 q18.5 -37 18.5 -49 q0 -14 -8 -25.5 q-8 -11.5 -45 -29 q-37 -17.5 -264 -95.5 l0 -251 l348 20 q45 4 73.5 13.5 q28.5 9.5 45 9.5 q16.5 0 44 -18.5 q27.5 -18.5 49 -44 q21.5 -25.5 21.5 -44.5 q0 -33 -57 -39 l-524 -33 l0 -188 q6 2 16 2 q6 0 31.5 -7 q25.5 -7 48.5 -7 l285 16 q41 0 67.5 -31.5 q26.5 -31.5 26.5 -50 q0 -18.5 -7 -33 q-7 -14.5 -59 -608.5 q58 -69 58 -90 q0 -29 -29 -33 q-29 -4 -844 -20 l2 -35 q0 -57 -45 -57 Z" /><glyph glyph-name="uni6570" unicode="&#x6570;" d="M987 -188 q-26 0 -26 28 q0 21 32 54 q267 264 416 544 q-84 162 -158 391 q-51 -98 -106 -169.5 q-55 -71.5 -80 -71.5 q-25 0 -25 33 q0 22 17 57 q178 395 241 733 q21 117 21 135 q0 17 -6 45 q0 35 33 35 q14 0 47 -12 q98 -43 98 -96 q0 -23 -40 -162 q-40 -139 -65 -207 l322 20 q41 5 72.5 15 q31.5 10 52.5 10 q22 0 51 -23 q64 -51 64 -84 q0 -28 -54 -34 l-120 -9 q-76 -356 -207 -612 q157 -260 430 -487 q26 -23 26 -41.5 q0 -18.5 -44 -49 q-44 -30.5 -70 -30.5 q-29 0 -47 18 q-228 226 -371 455 q-125 -201 -307 -356 q-152 -129 -197 -129 ZM162 662 q-31 0 -31 24.5 q0 24.5 37 52.5 q180 135 330 305 l-181 -12 q-47 0 -80.5 14.5 q-33.5 14.5 -52.5 81.5 q-2 7 -2 17 q0 18 21 18 q10 0 27.5 -5 q17.5 -5 48.5 -5 l294 18 l0 308 q0 49 -11 71.5 q-11 22.5 -11 36.5 q0 23 29 23 q18 0 47 -6 q90 -19 90 -70 l-2 -356 q270 20 288.5 26 q18.5 6 38.5 6 q23 0 57 -33.5 q34 -33.5 34 -58.5 q0 -31 -56 -37 l-364 -24 q4 -6 26 -6 q27 0 141.5 -68 q114.5 -68 148.5 -92.5 q34 -24.5 34 -50.5 q0 -25 -23.5 -55.5 q-23.5 -30.5 -42 -30.5 q-18.5 0 -45.5 18 q-104 90 -239 168 l-2 -182 q0 -64 -43 -64 q-37 0 -71 27 q-34 27 -34 57 q10 62 10 137 q0 21 -2 25 l9 14 l-9 -10 q-153 -158 -321 -246 q-70 -36 -88 -36 ZM743 1186 q-22 0 -22 24 q0 17 59 84 q111 127 111 199 q6 39 31 39 q10 0 34 -19 q76 -47 76 -81.5 q0 -34.5 -86 -110.5 q-155 -135 -203 -135 ZM463 1180 q-23 0 -49 34 q-68 93 -133 158 q-17 23 -17 39 q0 14 20.5 38 q20.5 24 43.5 24 q26 0 141 -119 q74 -76 74 -103 q0 -18 -30 -44.5 q-30 -26.5 -50 -26.5 ZM1483 592 q78 190 123 446 l-267 -16 l-4 -10 q68 -258 148 -420 ZM143 -172 q-43 0 -43 27 q0 32 95 67 q208 74 356 211 q-113 62 -159 73 q-46 11 -46 68 q0 19 57 121 q-163 -16 -176 -16 q-90 0 -125 125 q0 33 23 33 q12 0 36.5 -6.5 q24.5 -6.5 74.5 -6.5 l237 11 q49 108 49 156 q0 48 25 48 q14 0 41 -16 q78 -47 78 -90 q0 -21 -31 -88 l162 16 q8 31 8 53 l-2 31 q0 33 31 33 q22 0 49 -16 q73 -39 73 -89 l136 13 q59 0 59 -33 q0 -37 -68.5 -50.5 q-68.5 -13.5 -152.5 -25.5 q-66 -190 -164 -313 q113 -66 173 -106 q60 -40 60 -68 q0 -25 -18 -64 q-18 -39 -47 -39 q-25 0 -94.5 58.5 q-69.5 58.5 -171.5 117.5 q-193 -180 -473 -227 l-52 -8 ZM645 229 q72 88 119 220 l-195 -31 q-18 -33 -35.5 -64.5 q-17.5 -31.5 -29.5 -50.5 q41 -18 141 -74 ZM571 940 l0 2 q-2 0 -6 -14 l6 12 Z" /><glyph glyph-name="uni662F" unicode="&#x662f;" d="M672 842 q-43 0 -78 27.5 q-35 27.5 -35 64.5 q4 31 4 55 l-37 412 q-4 49 -24.5 83 q-20.5 34 -20.5 48 q0 29 49 29 q37 0 134 -39 l778 41 q57 0 88 -22.5 q31 -22.5 31 -43.5 q0 -18 -6.5 -31.5 q-6.5 -13.5 -51.5 -380.5 q49 -57 49 -79 q0 -29 -23.5 -35 q-23.5 -6 -807.5 -45 l2 -29 q0 -55 -51 -55 ZM688 1290 l694 39 l9 107 l-711 -43 l8 -103 ZM709 1053 l651 34 l10 121 l-670 -39 l9 -116 ZM115 -178 q-29 0 -29 28 q0 23 72 82 q137 111 286 340 q123 197 123 281 q0 61 31 61 q23 0 56.5 -19.5 q33.5 -19.5 62 -47 q28.5 -27.5 28.5 -45.5 q0 -39 -98 -193 q150 -71 314 -129 l4 496 l-623 -33 q-39 0 -57 12 q-66 68 -66 115 q0 27 37 27 q45 -13 94 -13 q1350 70 1367.5 78 q17.5 8 33.5 8 q16 0 45 -20 q66 -47 66 -88 q0 -41 -60 -45 l-686 -35 l-2 -182 l303 14 q56 6 71 12 q15 6 27.5 6 q12.5 0 38.5 -18 q72 -45 72 -86 q0 -41 -63 -45 l-449 -23 l-2 -225 q352 -98 850 -133 q57 -6 57 -37 q0 -45 -51 -92 q-29 -25 -80 -25 q-471 39 -913 181 q-223 71 -406 166 q-92 -123 -191 -207 q-99 -84 -172 -125 q-73 -41 -91 -41 Z" /><glyph glyph-name="uni6700" unicode="&#x6700;" d="M614 965 q-43 0 -81.5 25.5 q-38.5 25.5 -38.5 66.5 q4 28 4 53 q0 12 -33 317 q-4 46 -22.5 78.5 q-18.5 32.5 -18.5 42.5 q0 29 47 29 q37 0 133 -37 l879 47 q57 0 89 -23.5 q32 -23.5 32 -44 q0 -20.5 -6.5 -28.5 q-6.5 -8 -51.5 -317 q43 -56 43 -76 q0 -29 -23.5 -34 q-23.5 -5 -901.5 -46 q0 -53 -50 -53 ZM629 1339 l790 43 l8 82 l-804 -45 l6 -80 ZM651 1135 l744 39 l10 94 l-762 -41 l8 -92 ZM549 670 l305 16 l0 121 l-305 -16 l0 -121 ZM1858.5 -124.5 q-21.5 -18.5 -38 -18.5 q-16.5 0 -81.5 39 q-160 92 -316 233 q-153 -160 -323 -231 q-64 -27 -86 -27 q-8 0 -15 2 l0 -41 q0 -53 -45 -53 q-6 0 -32.5 10 q-26.5 10 -53 33.5 q-26.5 23.5 -26.5 68.5 q0 13 6 47.5 q6 34.5 6 174.5 q-266 -97 -430 -141 q-164 -44 -182 -44 q-23 0 -57.5 33 q-34.5 33 -50 61.5 q-15.5 28.5 -15.5 43.5 q0 20 33 20 q4 0 19 -1 q15 -1 60 -1 q41 0 179 31 l-4 669 l-156 -8 q-90 0 -119 78 q-12 37 -12 47 q0 19 22 19 q52 -11 125 -11 q1522 72 1544.5 80 q22.5 8 35 8 q12.5 0 36.5 -16 q68 -39 68 -76 q0 -43 -41 -49 l-914 -45 l4 -874 q13 10 31 22 q170 109 303 260 q-205 215 -205 270 q0 25 30 49.5 q30 24.5 48.5 24.5 q18.5 0 34.5 -20 q100 -137 178 -219 q101 141 137 274 l-331 -25 q-35 -4 -54 -4 q-108 0 -137 115 q0 25 29 25 q41 -9 65 -9 l517 35 q53 0 76.5 -33.5 q23.5 -33.5 23.5 -50 q0 -16.5 -9.5 -29 q-9.5 -12.5 -31 -67.5 q-21.5 -55 -73.5 -151.5 q-52 -96.5 -115 -174.5 q170 -149 376 -233 q23 -10 23 -33 q0 -20 -17.5 -44.5 q-17.5 -24.5 -39 -43 ZM551 424 l303 16 l0 125 l-305 -18 l2 -123 ZM551 143 q88 21 303 82 l0 90 l-303 -16 l0 -156 Z" /><glyph glyph-name="uni6784" unicode="&#x6784;" d="M526 -207 q-41 0 -73.5 27.5 q-32.5 27.5 -32.5 56.5 q0 23 10 60 q6 26 10 157 l4 563 q-36 -127 -194 -323 q-86 -103 -111 -119 l-4 -6 q-31 -25 -47 -25 q-25 0 -25 27 q0 18 27 57 q195 283 334 725 l-195 -14 q-73 0 -112 100 q-4 6 -4 17 q0 26 34 26 q41 -6 74 -6 q25 0 230 17 l4 405 q0 33 -18.5 62.5 q-18.5 29.5 -18.5 39.5 q0 27 35 27 q24 0 70 -16.5 q46 -16.5 58.5 -32.5 q12.5 -16 12.5 -43 l-4 -434 q45 4 99 9 q54 5 67.5 10 q13.5 5 30 5 q16.5 0 61.5 -31.5 q45 -31.5 45 -64.5 q0 -37 -53 -43 l-252 -20 l-2 -189 q8 6 24 6 q33 0 133.5 -118.5 q100.5 -118.5 100.5 -149.5 q0 -33 -32 -57.5 q-32 -24.5 -54 -24.5 q-27 0 -53 41 q-52 90 -121 174 l-11 -833 q0 -62 -47 -62 ZM1546 270 q-28 0 -48.5 50.5 q-20.5 50.5 -39.5 93.5 q-379 -144 -491 -144 q-19 0 -49.5 24.5 q-30.5 24.5 -52 54.5 q-21.5 30 -21.5 46 q0 23 39 23 q39 0 80 4 q96 182 140 319.5 q44 137.5 44 158 q0 20.5 -2 28.5 q0 35 31 35 q18 0 49 -13 q88 -37 88 -86 q-6 -33 -80 -192.5 q-74 -159.5 -113 -227.5 q140 29 287 76 q-21 37 -66 98 q-12 19 -12 44 q0 26 31 41.5 q31 15.5 53 15.5 q25 0 43 -29 q113 -172 151 -254 q38 -82 38 -90 q0 -37 -56 -61 q-28 -15 -43 -15 ZM1651 -193 q-64 0 -211 95 q-238 151 -238 202 q0 29 31 29 q22 0 98 -41 q76 -41 264 -102 q13 0 15 8 q78 248 102 790 q8 154 8 324 l-618 -33 q-111 -174 -246 -282 q-53 -43 -65 -43 q-23 0 -23 28 q0 19 33 68 q149 194 247.5 421.5 q98.5 227.5 98.5 297.5 l-4 24 q0 35 28 35 q19 0 54 -16 q100 -43 100 -94 q0 -5 -31.5 -83.5 q-31.5 -78.5 -105.5 -209.5 l579 28 q68 0 90.5 -30.5 q22.5 -30.5 22.5 -46.5 l-6 -48 q-8 -571 -82 -1046 q-35 -275 -141 -275 Z" /><glyph glyph-name="uni68C0" unicode="&#x68c0;" d="M729 758 q-31 0 -31 30 q0 21 37 58 q217 211 361.5 446.5 q144.5 235.5 144.5 302.5 l-2 27 q0 37 31 37 q14 0 50 -17.5 q36 -17.5 68.5 -43 q32.5 -25.5 32.5 -48 q0 -22.5 -35 -84.5 q179 -211 367 -364 q100 -82 217 -166 q27 -23 27 -39 q0 -14 -36 -58 q-36 -44 -68.5 -44 q-32.5 0 -208 161.5 q-175.5 161.5 -369.5 386.5 q-94 -149 -230 -305 q-118 -131 -294 -254 q-41 -26 -62 -26 ZM1114 813 q-31 0 -58.5 16.5 q-27.5 16.5 -49.5 92.5 q0 32 34 32 l11 0 q65 -8 82 -8 q346 23 358 30 q12 7 34.5 7 q22.5 0 49.5 -18 q61 -39 61 -82 q0 -39 -69 -43 l-453 -27 ZM1333 285 q-43 0 -53 49 q-51 203 -113 321 q-10 19 -10 31 q0 16 37 43 q20 14 43 14 l16 -2 q43 -14 140 -245 q39 -99 39 -140 q0 -34 -50 -57 q-28 -14 -49 -14 ZM1069 150 q-47 0 -65 49 q-52 155 -142 317 q-8 16 -8 29 q0 26 37 46.5 q37 20.5 55 20.5 q23 0 53 -47 q64 -92 109 -194 q53 -121 53 -145.5 q0 -24.5 -37 -50 q-37 -25.5 -55 -25.5 ZM498 -207 q-45 0 -78 37 q-33 37 -33 55 q0 17 10 54 q6 24 11 143 l2 532 q-27 -88 -162 -274 q-125 -170 -164 -170 q-27 0 -27 29 q0 20 56 118 q186 330 288 664 q-182 -14 -198 -14 q-39 0 -62.5 28.5 q-23.5 28.5 -34 56 q-10.5 27.5 -10.5 31.5 q0 25 29 25 q41 -8 68 -8 l223 16 l4 383 q0 37 -15.5 61.5 q-15.5 24.5 -15.5 36.5 q0 29 37 29 q25 0 69 -17.5 q44 -17.5 57 -31.5 q13 -14 13 -41 l-4 -412 q113 9 134.5 17 q21.5 8 38 8 q16.5 0 61.5 -32 q45 -32 45 -64 q0 -37 -54 -43 l-227 -19 l-2 -121 l21 0 q40 0 132.5 -122.5 q92.5 -122.5 92.5 -147.5 q0 -27 -32 -54.5 q-32 -27.5 -52 -27.5 q-25 0 -35 13.5 q-10 13.5 -20 29.5 q-62 113 -109 170 l-10 -878 q0 -60 -47 -60 ZM809 -94 q-33 0 -58.5 27.5 q-25.5 27.5 -41 58.5 q-15.5 31 -15.5 47 q0 24 25 24 q12 0 35.5 -6 q23.5 -6 62.5 -6 l582 19 q143 241 209 485 q6 18 6 37 l-10 57 q0 35 49 35 q43 0 98 -39 q35 -31 35 -49 q-72 -295 -258 -522 q254 10 277.5 17 q23.5 7 40 7 q16.5 0 44 -21.5 q27.5 -21.5 49 -48 q21.5 -26.5 21.5 -44.5 q0 -37 -59 -41 l-1029 -33 q-38 -4 -63 -4 Z" /><glyph glyph-name="uni6D4B" unicode="&#x6d4b;" d="M1411 1176 q0 41 -10 66.5 q-10 25.5 -14.5 30.5 q-4.5 5 -4.5 20.5 q0 15.5 28 15.5 q28 0 73 -17.5 q45 -17.5 56 -35 q11 -17.5 11 -48.5 l4 -884 q0 -68 -43 -68 q-43 0 -76.5 27.5 q-33.5 27.5 -33.5 49 q0 21.5 5 58.5 q5 37 5 115 l0 670 ZM1839 -18 l4 -72 q0 -60 -34.5 -91.5 q-34.5 -31.5 -63.5 -31.5 q-29 0 -70 25.5 q-41 25.5 -90 60.5 q-49 35 -91 75 q-42 40 -71.5 72.5 q-29.5 32.5 -29.5 52 q0 19.5 28.5 19.5 q28.5 0 110.5 -44 q82 -44 162 -73 l4 1545 q0 45 -31 90 q-10 14 -10 32.5 q0 18.5 31.5 18.5 q31.5 0 85 -20.5 q53.5 -20.5 61.5 -41 q8 -20.5 8 -51.5 l-4 -1566 ZM1284 146.5 q35 -50.5 58.5 -90.5 q23.5 -40 23.5 -69.5 q0 -29.5 -38 -50 q-38 -20.5 -54.5 -20.5 q-16.5 0 -25.5 11.5 q-9 11.5 -62 105.5 q-53 94 -104.5 163.5 q-51.5 69.5 -51.5 95 q0 25.5 30 44 q30 18.5 50 18.5 q20 0 44 -30.5 q24 -30.5 59.5 -78.5 q35.5 -48 70.5 -98.5 ZM666 410 q8 77 8 110 l0 49 l-15 754 q0 66 -15 96.5 q-15 30.5 -15 53 q0 22.5 26.5 22.5 q26.5 0 135.5 -37 l397 21 l22 2 q25 0 56.5 -20.5 q31.5 -20.5 31.5 -63.5 l-4 -37 l-22 -950 l0 -13 q-2 -51 -41 -51 q-45 8 -75 31.5 q-30 23.5 -28 56.5 l13 64 l12 848 l-362 -19 l10 -493 l0 -105 l2 -160 l2 -65 l2 -109 l0 -12 q0 -53 -37 -53 q-43 0 -73.5 24.5 q-30.5 24.5 -30.5 55.5 ZM518 -178 q-22 -10 -38.5 -10 q-16.5 0 -16.5 28.5 q0 28.5 31 53.5 q225 172 321 395 q51 125 77 290.5 q26 165.5 26 497.5 q0 29 -15.5 54.5 q-15.5 25.5 -15.5 37.5 q0 31 27.5 31 q27.5 0 71.5 -15.5 q44 -15.5 59.5 -28.5 q15.5 -13 15.5 -46 q-6 -322 -26.5 -501 q-20.5 -179 -76 -323.5 q-55.5 -144.5 -162 -258 q-106.5 -113.5 -278.5 -205.5 ZM213 -96 l-33 6 q-108 20 -108 72 q0 16 22 30 q45 25 84 88 q152 252 289 531 q33 69 65 69 q29 0 29 -37.5 q0 -37.5 -62.5 -212 q-62.5 -174.5 -148.5 -360.5 q-86 -186 -137 -186 ZM512 846 q0 -35 -28.5 -68 q-28.5 -33 -51 -33 q-22.5 0 -112 80 q-89.5 80 -199.5 152 q-35 22 -35 40.5 q0 18.5 18.5 52.5 q18.5 34 42 34 q23.5 0 113.5 -55.5 q90 -55.5 217 -155.5 q35 -29 35 -47 ZM495 1389 q44 -41 74.5 -76 q30.5 -35 30.5 -49.5 q0 -14.5 -13.5 -35 q-13.5 -20.5 -34 -37.5 q-20.5 -17 -44 -17 q-23.5 0 -51.5 32 q-84 105 -234 226 q-30 24 -30 42.5 q0 18.5 19 51.5 q19 33 44 33 q25 0 62.5 -26 q37.5 -26 85 -64.5 q47.5 -38.5 91.5 -79.5 Z" /><glyph glyph-name="uni6E05" unicode="&#x6e05;" d="M680 850 q-70 0 -98 78 q-11 30 -11 43 q0 22 23 22 q10 0 28.5 -5 q18.5 -5 77.5 -5 l471 25 l-2 106 l-237 -14 q-41 0 -62 14 q-47 39 -61 94 q0 27 22 27 q13 0 35.5 -6 q22.5 -6 51.5 -6 l251 14 l0 96 l-346 -18 q-55 0 -80.5 29.5 q-25.5 29.5 -44.5 87.5 q0 24 27 24 q61 -12 98 -12 l344 16 l0 76 q0 59 -15 87 q-15 28 -15 44 q0 23 30 23 q150 0 150 -84 l0 -140 q289 15 316.5 23 q27.5 8 45.5 8 q15 0 39 -12 q74 -35 74 -80 q0 -37 -55 -43 l-420 -23 l-2 -96 q254 14 275.5 22.5 q21.5 8.5 33.5 8.5 q14 0 39 -14 q63 -39 63 -80 q0 -33 -53 -39 l-358 -21 l0 -108 q510 26 528.5 34.5 q18.5 8.5 34.5 8.5 q16 0 41 -15.5 q25 -15.5 44 -40 q19 -24.5 19 -47.5 q0 -51 -1302 -102 ZM580 1171 q-21 0 -108 92.5 q-87 92.5 -189 168.5 q-31 24 -31 47 q0 20 22.5 50 q22.5 30 44.5 30 q19 0 77.5 -38 q58.5 -38 164 -132.5 q105.5 -94.5 105.5 -129 q0 -34.5 -35 -61.5 q-35 -27 -51 -27 ZM444 743 q-18 0 -51 29 q-114 107 -264 205 q-35 22 -35 47 q0 23 21.5 52.5 q21.5 29.5 48.5 29.5 q24 0 144 -82 q120 -82 168 -120 q48 -38 48 -58.5 q0 -20.5 -12 -43 q-12 -22.5 -29.5 -41 q-17.5 -18.5 -38.5 -18.5 ZM1612 -193 q-51 0 -190.5 95.5 q-139.5 95.5 -139.5 132.5 q0 24 29 24 q16 0 83.5 -25.5 q67.5 -25.5 159.5 -49.5 l-2 225 l-616 -23 l-6 -311 q0 -61 -56 -61 q-40 0 -73 28.5 q-33 28.5 -33 63.5 q25 168 31 647 l2 86 q0 66 -12.5 101.5 q-12.5 35.5 -12.5 45.5 q0 27 31 27 q20 0 129 -35 l655 27 q37 0 75 -17.5 q38 -17.5 38 -62.5 l-6 -45 q6 -700 10 -764 q0 -39 -33 -74 q-33 -35 -63 -35 ZM242 -80 q-58 6 -97 35 q-39 29 -39 45 q0 16 35 39 q64 41 238 321 q82 129 164 273 q37 63 69 63 q29 0 29 -32 q0 -48 -115 -295 q-207 -449 -284 -449 ZM942 553 l608 22 l0 95 l-606 -27 l-2 -90 ZM938 322 l614 22 l0 100 l-612 -22 l-2 -100 Z" /><glyph glyph-name="uni73B0" unicode="&#x73b0;" d="M616 -182 q-16 0 -16 26 q0 43 43 66 q322 168 453 373 q69 114 102 268 q33 154 33 586 q0 20 -21.5 44.5 q-21.5 24.5 -21.5 47.5 q0 28 24 28 q37 0 89.5 -13 q52.5 -13 71 -26.5 q18.5 -13.5 18.5 -48.5 q-7 -309 -23 -475 q55 -14 74.5 -33.5 q19.5 -19.5 19.5 -54.5 l-6 -504 q0 -55 9.5 -76.5 q9.5 -21.5 42 -25.5 q32.5 -4 161.5 -4 q125 0 158 8 q33 8 47 53 q31 103 47 216.5 q16 113.5 51 113.5 q47 0 47 -209 q0 -112 -6 -173.5 q-6 -61.5 -36.5 -95.5 q-30.5 -34 -95 -47.5 q-64.5 -13.5 -216.5 -13.5 q-154 0 -223.5 16.5 q-69.5 16.5 -102 64.5 q-32.5 48 -32.5 141 l2 311 q-4 -21 -62 -125 q-155 -270 -606 -430 l-25 -8 ZM1016 469 q-33 0 -73 23.5 q-40 23.5 -40 56.5 q8 43 8 98 l-20 762 q-4 61 -21.5 91 q-17.5 30 -17.5 46 q0 23 45 23 q33 0 131 -39 l596 37 q59 0 94 -28 q35 -28 35 -48 q0 -18 -5 -31.5 q-5 -13.5 -34 -808.5 q-2 -106 -4 -125 q-2 -53 -47 -53 q-33 0 -72 25.5 q-39 25.5 -39 56.5 l15 104 q2 31 20 771 l-549 -33 l25 -871 q0 -57 -47 -57 ZM215 129 q-70 0 -131 90 q-2 6 -6 12.5 q-4 6.5 -4 14.5 q0 33 31.5 33 q31.5 0 87 11 q55.5 11 217.5 77 l4 421 l-123 -8 q-55 0 -70 11 q-67 51 -67 104 q0 27 28 27 q11 0 28 -4.5 q17 -4.5 54 -4.5 q27 0 150 11 l4 342 l-115 -9 q-35 -4 -61 -4 q-31 0 -49 13 q-72 55 -72 104 q0 27 29 27 l73 -8 l434 26 q52 6 71.5 13.5 q19.5 7.5 29.5 7.5 q12 0 39 -17 q73 -43 73 -86 q0 -33 -57 -41 l-246 -18 l-2 -342 q86 6 111.5 16 q25.5 10 42 10 q16.5 0 43.5 -18 q65 -47 65 -86 q0 -37 -61 -41 l-203 -14 l-2 -371 q115 51 194 90 q79 39 103 39 q35 0 35 -29 q0 -36 -145.5 -128.5 q-145.5 -92.5 -321.5 -181.5 q-176 -89 -211 -89 Z" /><glyph glyph-name="uni7A7A" unicode="&#x7a7a;" d="M281 813 l-27 8 q-72 29 -72 72 q0 16 35 77.5 q35 61.5 77 186.5 q42 125 54 191.5 q12 66.5 23.5 82 q11.5 15.5 58.5 15.5 q74 0 74 -74 q0 -22 -15 -76 l463 31 l-2 205 q0 39 -18.5 68.5 q-18.5 29.5 -18.5 46.5 q0 30 35 30 q35 0 86 -16 q51 -16 63.5 -33.5 q12.5 -17.5 12.5 -50.5 l-2 -240 l704 49 q27 0 65 -27.5 q38 -27.5 38 -62 q0 -34.5 -16.5 -52 q-16.5 -17.5 -22.5 -25.5 q-227 -326 -295 -326 q-31 0 -31 25.5 q0 25.5 56.5 113.5 q56.5 88 107.5 209 l-1259 -84 q-49 -162 -123 -305 q-21 -39 -51 -39 ZM307 -125 l-43 0 q-104 0 -143 119 q-2 6 -2 20 q0 25 24 25 q13 0 34.5 -8 q21.5 -8 70.5 -8 l684 18 l-4 416 l-348 -15 q-41 0 -58 13 q-67 57 -67 114 q0 25 22 25 q12 0 38 -6 q26 -6 60 -6 l803 34 q54 7 69 13 q15 6 32.5 6 q17.5 0 46.5 -21 q67 -51 67 -90 q0 -35 -51 -43 l-455 -18 l0 -418 q682 21 706 29 q24 8 38 8 q14 0 43 -19 q76 -51 76 -96 q0 -37 -58 -43 l-1585 -49 ZM577.5 732 q-122.5 -75 -207.5 -107.5 q-85 -32.5 -113 -32.5 q-28 0 -28 26 q0 19 39 46 q250 163 387 331 q33 37 33 82 q0 45 35 45 q25 0 56.5 -28.5 q31.5 -28.5 54 -62.5 q22.5 -34 22.5 -52 q0 -18 -22 -41 q-134 -131 -256.5 -206 ZM1704 756.5 q0 -31.5 -31 -67.5 q-31 -36 -50 -36 q-19 0 -38 13 q-237 202 -436 321 q-29 14 -29 30.5 q0 16.5 6 35.5 q17 59 60 59 q12 0 86 -39 q184 -94 403 -262 q29 -23 29 -54.5 Z" /><glyph glyph-name="uni7D20" unicode="&#x7d20;" d="M1012 -231 q-45 0 -184.5 92 q-139.5 92 -139.5 135 q0 27 27.5 27 q27.5 0 91 -28 q63.5 -28 156.5 -48 l0 338 q-168 -15 -488 -27 q-106 0 -137 125 q0 31 29 31 q10 0 41.5 -9.5 q31.5 -9.5 99.5 -9.5 l104 2 q133 68 228 121 q-154 88 -265 135 q-57 25 -57 58 q31 80 72 80 q22 0 129 -58 q174 123 186 144 q-616 -33 -643 -33 q-86 0 -121 74 q-14 32 -14 43 q0 18 31 18 q39 -6 73 -6 l711 37 l-2 110 l-324 -20 q-63 0 -94 65 q-20 41 -20 52 q0 18 24 18 q58 -8 86.5 -8 q28.5 0 327.5 18 l0 92 l-434 -28 q-82 0 -115 69 q-12 27 -12 39 q0 21 33 21 q32 -4 59 -4 l467 28 l0 94 q0 52 -17.5 75.5 q-17.5 23.5 -17.5 35.5 q0 21 27 21 q162 -15 162 -80 l0 -138 q395 25 415.5 32 q20.5 7 41 7 q20.5 0 44.5 -18 q58 -47 58 -76 q0 -35 -62 -39 l-497 -33 l-2 -90 q307 19 325.5 27 q18.5 8 34.5 8 q16 0 41 -18 q63 -47 63 -80 q0 -33 -61 -37 l-403 -25 l0 -112 q690 37 710.5 44 q20.5 7 34.5 7 q14 0 39 -16 q68 -41 68 -82 q0 -35 -66 -39 l-817 -43 q8 -8 8 -35 q0 -45 -229 -184 l133 -72 q286 184 309 242 q10 24 30.5 24 q20.5 0 65.5 -37 q45 -37 45 -65.5 q0 -28.5 -22 -42.5 q-279 -191 -527 -311 q213 8 533 30 q-31 27 -80 59.5 q-49 32.5 -49 55 q0 22.5 26.5 52.5 q26.5 30 53 30 q26.5 0 62.5 -27.5 q36 -27.5 91 -70.5 q224 -175 224 -224 q0 -39 -33 -64.5 q-33 -25.5 -54.5 -25.5 q-21.5 0 -45 27.5 q-23.5 27.5 -43 46 q-19.5 18.5 -33.5 35.5 l-408 -37 q0 -352 2 -415.5 q2 -63.5 -63 -96.5 q-27 -12 -43 -12 ZM1794 -29 q0 -26 -21.5 -66 q-21.5 -40 -49 -40 q-27.5 0 -135 80 q-107.5 80 -312.5 182 q-39 18 -39 44 q0 26 27.5 59.5 q27.5 33.5 47 33.5 q19.5 0 111.5 -47 q371 -186 371 -246 ZM646 9 q-169 -89 -264 -120.5 q-95 -31.5 -128 -31.5 q-33 0 -33 25.5 q0 25.5 78 66.5 q178 94 330 219 q26 20 37.5 57 q11.5 37 41 37 q29.5 0 68.5 -46 q39 -46 39 -79 q0 -39 -169 -128 Z" /><glyph glyph-name="uni7ECF" unicode="&#x7ecf;" d="M1808 641 q-16 0 -45 23 q-161 139 -393 288 q-240 -209 -483 -288 q-74 -21 -90 -21 q-23 0 -23 33 q0 26 51 57 q230 121 430 311 q183 177 263 320 q-494 -33 -512 -33 q-35 0 -66 24.5 q-31 24.5 -45 56.5 q-14 32 -14 46 q0 27 26 27 q39 -6 86 -6 l619 37 q35 0 74.5 -25 q39.5 -25 39.5 -59.5 q0 -34.5 -16 -49 q-16 -14.5 -20 -20.5 q-76 -158 -217 -307 l32 -19 q90 -55 147.5 -90 q57.5 -35 113 -72.5 q55.5 -37.5 94 -70.5 q38.5 -33 38.5 -53 q0 -19 -16 -44.5 q-16 -25.5 -37.5 -45 q-21.5 -19.5 -36.5 -19.5 ZM850 -115 q-109 0 -143 131 q0 35 16 35 q10 0 37.5 -9 q27.5 -9 87.5 -9 l393 10 l2 408 l-192 -11 q-58 0 -86.5 17.5 q-28.5 17.5 -57.5 89.5 q-2 8 -2 22 q0 25 17 25 q8 0 33.5 -7 q25.5 -7 107.5 -7 q520 28 545.5 35.5 q25.5 7.5 40.5 7.5 q16 0 43.5 -15.5 q27.5 -15.5 51 -41 q23.5 -25.5 23.5 -50.5 q0 -37 -49 -43 l-321 -16 l-4 -410 l309 10 q98 4 122.5 12.5 q24.5 8.5 43.5 8.5 q16 0 45 -19 q78 -49 78 -96 q0 -37 -52 -45 l-1089 -33 ZM287 387 q-27 0 -47 19 q-64 75 -64 126 q4 29 31 29 l92 -4 l23 0 q88 127 157 248 q-147 104 -301 172 q-47 20 -47 51 q0 19 15.5 53.5 q15.5 34.5 50.5 34.5 q26 0 59 -14 q168 244 204 336 q36 92 36 155 q0 35 28 35 q15 0 45 -18 q84 -51 84 -103 q-28 -123 -272 -471 q121 -65 176 -104 l2 2 q150 248 164 309 q4 19 6 54.5 q2 35.5 27 35.5 q14 0 43 -18 q82 -47 84 -101 q0 -16 -9 -34 q-188 -330 -372 -596 q246 39 268 39 q51 0 51 -29 q0 -37 -116.5 -88 q-116.5 -51 -252 -85 q-135.5 -34 -165.5 -34 ZM229 -70 q-20 0 -49.5 26 q-29.5 26 -51.5 58.5 q-22 32.5 -24 53.5 q0 18 43 22 q43 4 103 23 q342 123 506 194 q114 49 137 49 q25 0 25 -18 q0 -53 -314.5 -228.5 q-314.5 -175.5 -374.5 -179.5 Z" /><glyph glyph-name="uni7ED3" unicode="&#x7ed3;" d="M254 -70 q-18 0 -47 26 q-29 26 -48.5 58.5 q-19.5 32.5 -21.5 53.5 q0 18 40 22 q40 4 95 23 q314 123 465 194 q105 49 129 49 q23 0 23 -18 q0 -53 -290 -228.5 q-290 -175.5 -345 -179.5 ZM1065 684 q-53 0 -78 25 q0 2 -13 15 q-13 13 -28.5 37.5 q-15.5 24.5 -15.5 47.5 q0 25 26 25 q11 0 19 -3 q31 -8 72 -8 q22 0 243 13 l-2 256 l-260 -17 q-37 0 -59 4 q-62 13 -86 103 q-2 8 -2 18 q0 27 24 27 q10 0 19 -2 q53 -13 77 -13 l287 17 l-2 282 q0 35 -26 80 q-9 13 -9 23 q0 26 41 26 q29 0 73 -8 q44 -8 60.5 -23.5 q16.5 -15.5 16.5 -52.5 l0 -319 q344 23 377 33 q8 2 22 2 q21 0 47.5 -16.5 q26.5 -16.5 49 -40 q22.5 -23.5 22.5 -46.5 q0 -34 -57 -41 l-463 -28 l0 -258 l159 8 q39 0 97 18 q6 2 16 2 q27 0 54.5 -15 q27.5 -15 48 -38.5 q20.5 -23.5 20.5 -46.5 q0 -43 -63 -47 l-707 -39 ZM1143 -205 l-29 8 q-86 21 -86 84 q8 66 8 97 q0 28 -16 209 q-23 239 -37 274 q-14 29 -14 45 q0 27 28 27 q31 0 148 -45 l532 28 q37 0 81 -20.5 q44 -20.5 44 -59.5 q0 -18 -8 -29.5 q-8 -11.5 -59 -351.5 q51 -53 51 -86 q0 -26 -24.5 -32 q-24.5 -6 -575.5 -21 l6 -65 q0 -62 -49 -62 ZM1178 59 l411 13 l39 313 l-475 -25 l25 -301 ZM297 408 q-27 0 -45 18 q-64 76 -64 127 q5 29 31 29 l96 -4 l156 241 q-137 94 -281 158 q-47 20 -47 51 q0 19 15.5 53.5 q15.5 34.5 50.5 34.5 q27 0 59 -14 q168 244 204 336 q36 92 36 155 q0 35 29 35 q14 0 45 -18 q84 -51 84 -103 q-29 -123 -273 -471 q96 -51 156 -92 q133 221 147 279 q4 18 8.5 54 q4.5 36 26.5 36 q14 0 43 -19 q80 -49 82 -100 q0 -16 -8 -35 q-180 -309 -352 -557 q30 6 102 16 q107 17 160 27 q43 6 71 6 q52 0 52 -28 q0 -39 -144.5 -93.5 q-144.5 -54.5 -277.5 -88 q-133 -33.5 -162 -33.5 Z" /><glyph glyph-name="uni8868" unicode="&#x8868;" d="M539 -180 q-37 0 -79 55 q-42 55 -42 80 q0 29 52 29 q52 0 196 39 l6 352 q-148 -115 -281 -184.5 q-133 -69.5 -214 -94 q-81 -24.5 -87 -24.5 q-33 0 -33 24 q0 27 52 58 q415 243 704 542 l-475 -22 q-57 0 -79.5 20.5 q-22.5 20.5 -39 53 q-16.5 32.5 -16.5 49.5 q0 24 26 24 l90 -10 q23 0 619 31 l2 137 l-256 -12 q-96 0 -123 20 q0 4 -26.5 37 q-26.5 33 -26.5 55 q0 31 27 31 l90 -10 l315 14 l2 129 q-405 -22 -438 -22 q-39 4 -64 32 q-43 50 -43 86 q0 25 27 25 l90 -10 q23 0 428 22 l2 191 q0 39 -16.5 68.5 q-16.5 29.5 -16.5 41.5 q0 31 37 31 q27 0 73 -16.5 q46 -16.5 61.5 -33 q15.5 -16.5 15.5 -44.5 l-2 -230 q383 21 405.5 29 q22.5 8 36.5 8 q14 0 41 -18 q74 -43 74 -86 q0 -35 -62 -39 l-495 -27 l0 -129 l258 13 q59 6 76.5 12 q17.5 6 32 6 q14.5 0 42.5 -16 q72 -45 72 -88 q0 -37 -61 -41 l-420 -21 l-2 -139 l536 26 q60 7 77 13 q17 6 31.5 6 q14.5 0 41.5 -19 q73 -43 73 -86 q0 -36 -61 -40 l-750 -37 q95 -127 220 -246 q110 70 190 164 q35 39 45 70.5 q10 31.5 31 31.5 q37 0 90 -76 q20 -28 20 -51 q0 -24 -82.5 -94 q-82.5 -70 -191.5 -137 q240 -205 614 -328 q52 -18 52 -39 q0 -16 -21 -45 q-55 -80 -92 -80 q-10 0 -21 4 q-411 152 -694 430 q-141 138 -262 303 l-113 -112 l-6 -434 q144 49 219.5 83.5 q75.5 34.5 98.5 34.5 q30 0 30 -24 q0 -33 -123.5 -108.5 q-123.5 -75.5 -288.5 -156.5 q-165 -81 -218 -81 Z" /><glyph glyph-name="uni8BD5" unicode="&#x8bd5;" d="M618 1106 q-28 0 -69 55 q-105 144 -217 254 q-27 27 -27 45 q0 17 19.5 45.5 q19.5 28.5 46.5 28.5 q22 0 60 -30.5 q38 -30.5 85 -76 q47 -45.5 91 -92.5 q44 -47 74 -85 q30 -38 30 -60 q0 -25 -33 -54.5 q-33 -29.5 -60 -29.5 ZM1860 -213 q-43 0 -117 64.5 q-74 64.5 -156 203.5 q-196 332 -291 899 l-467 -32 q-67 0 -91.5 29.5 q-24.5 29.5 -43.5 86.5 q0 25 23 25 l67 -8 l490 32 q-35 234 -45 349.5 q-10 115.5 -16.5 138 q-6.5 22.5 -22.5 40 q-16 17.5 -16 34.5 q0 24 32 24 q23 0 76 -9 q53 -9 67.5 -24.5 q14.5 -15.5 16.5 -40.5 q20 -278 55 -503 q289 20 307.5 27 q18.5 7 32.5 7 q17 0 41 -18 q64 -43 64 -82 q0 -39 -64 -43 l-358 -24 q78 -447 233 -748 q66 -123 109 -178 l43 -57 l0 2 q35 112 61 266 q17 94 54 94 q38 0 38 -104 q-4 -250 -31.5 -350.5 q-27.5 -100.5 -90.5 -100.5 ZM1671 1178 q-20 0 -55 43 q-96 125 -189 192 q-20 17 -20 39.5 q0 22.5 26.5 47 q26.5 24.5 51 24.5 q24.5 0 146.5 -110.5 q122 -110.5 122 -147.5 q0 -37 -31.5 -62.5 q-31.5 -25.5 -50.5 -25.5 ZM815 -4 q-39 0 -69.5 27.5 q-30.5 27.5 -48 58.5 q-17.5 31 -17.5 41 q0 27 31 27 q41 -9 69 -9 q27 0 205 49 l0 402 q-90 -8 -108 -8 q-80 0 -105 100 q-2 6 -2 18 q0 23 27 23 q51 -10 73 -10 q17 0 25 2 q283 22 304.5 30.5 q21.5 8.5 35.5 8.5 q16 0 58 -30 q42 -30 42 -69 q0 -34 -53 -43 l-158 -14 l0 -371 q88 27 159 51.5 q71 24.5 95 24.5 q35 0 35 -26 q0 -37 -137 -105 q-137 -68 -281.5 -123 q-144.5 -55 -179.5 -55 ZM442 -53 l-8 0 q-24 0 -57 21.5 q-33 21.5 -60.5 51 q-27.5 29.5 -29.5 48.5 q0 20 41 28 q41 8 86 27 l24 690 l-221 -22 q-78 0 -113.5 43 q-35.5 43 -35.5 67 q0 33 24 33 q49 -8 80 -8 q10 0 344 39 q21 0 55.5 -25 q34.5 -25 34.5 -51 q0 -25 -26 -53 l-25 -635 q14 10 119.5 93 q105.5 83 136.5 83 q31 0 31 -25 q0 -16 -34 -56 q-34 -40 -139.5 -163 q-105.5 -123 -154.5 -153.5 q-49 -30.5 -72 -32.5 Z" /><glyph glyph-name="uni94FE" unicode="&#x94fe;" d="M1589 78 q-18 0 -62 23.5 q-44 23.5 -44 66.5 q12 96 12 260 q-207 -8 -244 -8 q-86 0 -114 106 q-2 6 -2 17 q0 22 28 22 q13 0 35.5 -7 q22.5 -7 52.5 -7 l244 10 l0 182 q-184 -14 -229 -20 q-80 0 -80 76 q6 12 6 20 q94 191 143 357 l-116 -9 q-33 0 -56 15 q-57 47 -57 92 q0 22 29 22 q39 -4 65 -4 l166 11 q49 227 49 273 q0 46 43 46 q21 0 49 -16 q60 -27 60 -70 q0 -14 -10.5 -45 q-10.5 -31 -28.5 -111 q-10 -49 -17 -65 q261 18 287.5 27.5 q26.5 9.5 46.5 9.5 q23 0 58.5 -32 q35.5 -32 35.5 -60 q0 -37 -53 -43 l-401 -31 q-35 -115 -123 -314 l133 7 l2 65 q0 66 -24 107 q-7 12 -7 18 q0 29 54 29 q39 0 77.5 -19.5 q38.5 -19.5 38.5 -60.5 l0 -131 q109 8 121 13 q12 5 29 5 q33 0 69 -53 q15 -23 15 -47.5 q0 -24.5 -18.5 -31.5 q-18.5 -7 -215.5 -21 l0 -187 q193 10 210.5 18.5 q17.5 8.5 37.5 8.5 q23 0 49 -23 q56 -45 56 -84 q0 -34 -60 -39 l-293 -14 l0 -297 q0 -57 -47 -57 ZM106 870 q-30 0 -30 31 q0 23 37 86 q86 146 150.5 321 q64.5 175 64.5 271 q0 37 37 37 q20 0 47 -21 q69 -45 69 -92 q0 -14 -25.5 -76.5 q-25.5 -62.5 -35.5 -85.5 l-10 -22 l125 8 q22 2 59 15.5 q37 13.5 53 13.5 q43 0 75 -42 q32 -42 32 -71 q0 -35 -37 -41 l-373 -20 q-76 -133 -131 -209 q2 0 4 0 q16 0 31.5 -5 q15.5 -5 64.5 -5 q238 6 281 28 l31 2 q18 0 59 -37 q16 -14 27 -28 q6 12 16 12 l59 -8 q29 0 269 20 q59 0 82.5 -27.5 q23.5 -27.5 23.5 -45.5 q0 -23 -12 -34 q-12 -11 -33 -38 q-133 -201 -133 -213 q0 -10 19.5 -25.5 q19.5 -15.5 54.5 -50.5 q92 -96 92 -133 q0 -39 -51 -109.5 q-51 -70.5 -123 -134.5 l26 -6 q537 -123 963 -135 q45 -2 45 -29 q0 -16 -12 -43 q-35 -75 -90 -75 q-111 0 -494 65 q-237 41 -368.5 74 q-131.5 33 -176.5 33 q-45 0 -91 -14.5 q-46 -14.5 -66 -14.5 q-29 0 -44.5 27.5 q-15.5 27.5 -15.5 60.5 q0 68 154 68 q184 174 184 223 q0 22 -71 84 q-25 22 -33 26 q-51 35 -51 82 q0 43 32.5 91.5 q32.5 48.5 100.5 160.5 l-150 -16 q-33 0 -65 31 q-19 18 -31 38 q-12 -24 -55 -24 l-164 -12 l-2 -250 q123 8 140 15 q17 7 28 7 q18 0 45 -18 q61 -45 61 -86 q0 -33 -55 -39 l-221 -14 l-2 -314 q65 39 159 103 q27 18 47 18 q35 0 35 -33 q0 -22 -39 -63 q-102 -105 -202.5 -188 q-100.5 -83 -139.5 -83 q-32 0 -61 54.5 q-29 54.5 -29 70.5 q0 21 26.5 24 q26.5 3 59.5 23 l4 383 l-145 -8 q-33 0 -62.5 28 q-29.5 28 -39 56.5 q-9.5 28.5 -9.5 34.5 q0 27 31 27 l64 -11 l161 9 l2 247 l-69 0 q-27 0 -51 25 q-43 41 -48 88 q-55 -72 -84 -72 ZM1014 1073 q-29 0 -64 57 q-80 132 -176 226 q-29 28 -29 47 q0 20 27 41.5 q27 21.5 45.5 21.5 q18.5 0 52 -27.5 q33.5 -27.5 71.5 -65.5 q38 -38 75 -80 q37 -42 61.5 -78.5 q24.5 -36.5 24.5 -59.5 q0 -25 -31 -53.5 q-31 -28.5 -57 -28.5 Z" /><glyph glyph-name="uni9664" unicode="&#x9664;" d="M367 762 q6 8 22 8 q19 0 97.5 -51 q78.5 -51 95.5 -51 l0 51 q0 59 -22.5 130 q-22.5 71 -102.5 161 q-29 30 -29 67 q0 35 36 87.5 q36 52.5 118 221.5 l-207 -18 l-8 -606 ZM1272 -213 q-35 0 -102.5 39 q-67.5 39 -152.5 118 q-85 79 -85 105 q0 25 31 25 q20 0 97 -39 q77 -39 150 -64 l-4 561 l-348 -18 q-63 0 -94 72 q-16 32 -16 49 q0 24 20 24 q10 0 27.5 -6 q17.5 -6 66.5 -6 q23 0 344 17 l-2 178 l-153 -8 q-37 0 -52 14 q-59 61 -59 72 q-84 -86 -213 -185 l0 -28 q0 -105 -27.5 -147 q-27.5 -42 -56.5 -52 q-29 -10 -33 -10 q-49 0 -149 104 q-78 82 -94 123 l-13 -852 q0 -68 -49 -68 q-29 0 -69.5 28 q-40.5 28 -40.5 65 q0 18 7 50 q7 32 23 1420 q0 66 -13 100.5 q-13 34.5 -13 53.5 q0 28 41 28 q30 0 137 -49 l303 27 q43 0 69.5 -32 q26.5 -32 26.5 -48 q0 -16 -11 -28.5 q-11 -12.5 -60.5 -104.5 q-49.5 -92 -137.5 -225 q-2 -5 -2 -11 q0 -4 30 -35.5 q30 -31.5 66.5 -96 q36.5 -64.5 47.5 -116.5 q286 287 462 672 q21 47 21 96.5 q0 49.5 37 49.5 q10 0 45 -13 q98 -39 98 -90 q0 -16 -35 -86 q334 -381 660 -618 q28 -19 28 -37 q0 -17 -32.5 -57.5 q-32.5 -40.5 -67.5 -40.5 q-33 0 -156 114 q-274 256 -501 516 q-125 -213 -279 -368 q17 -6 86 -6 q391 20 414.5 27 q23.5 7 44 7 q20.5 0 47.5 -20.5 q27 -20.5 45.5 -43 q18.5 -22.5 18.5 -36.5 q0 -35 -64 -39 l-227 -10 l2 -178 q313 16 331.5 24 q18.5 8 39 8 q20.5 0 46 -19 q25.5 -19 44 -42 q18.5 -23 18.5 -37 q0 -39 -63 -43 l-416 -22 q4 -590 8 -654 q0 -35 -27.5 -66.5 q-27.5 -31.5 -64.5 -31.5 ZM643 -59 q-29 0 -29 30 q0 21 62 84 q123 129 219 295 q14 27 14 82 q0 39 31 39 q21 0 52.5 -17.5 q31.5 -17.5 59 -42 q27.5 -24.5 27.5 -45 q0 -20.5 -12 -38.5 q-90 -140 -180 -225 q-90 -85 -156.5 -123.5 q-66.5 -38.5 -87.5 -38.5 ZM1819 -41 q-27 0 -56 43 q-110 170 -266 338 q-24 25 -24 47 q0 25 27.5 48.5 q27.5 23.5 47.5 23.5 q31 0 200 -181.5 q169 -181.5 169 -228.5 q0 -29 -37 -59.5 q-37 -30.5 -61 -30.5 Z" /><glyph glyph-name="uni9A8C" unicode="&#x9a8c;" d="M963 -94 q-33 0 -57.5 29.5 q-24.5 29.5 -37 59.5 q-12.5 30 -12.5 44 q0 24 29 24 q18 0 38.5 -6 q20.5 -6 49.5 -6 l391 15 q172 241 258 493 q12 27 12 47 q0 25 -2 47 q0 35 43 35 q47 0 97 -55 q22 -29 22 -45 l-6 -29 q-107 -293 -293 -487 q307 12 327.5 19 q20.5 7 39.5 7 q20 0 65 -41 q45 -41 45 -71 q0 -39 -61 -43 l-889 -33 q-35 -4 -59 -4 ZM1161 141 q-47 0 -65 49 q-43 156 -123 320 q-4 18 -4 33 q0 18 32.5 39.5 q32.5 21.5 51.5 21.5 q26 0 55 -48 q29 -48 96 -196 q45 -106 45 -145 q0 -22 -34.5 -48 q-34.5 -26 -53.5 -26 ZM1384 289 q-41 0 -55 49 q-43 205 -98 326 q-4 16 -4 26 q0 17 30 43 q21 17 41 17 q58 0 127 -197 q54 -156 54 -199 q0 -26 -47 -51 q-27 -14 -48 -14 ZM1165 827 q-30 0 -56 16.5 q-26 16.5 -48 92.5 q0 33 33 33 l10 0 q63 -8 80 -8 q332 22 344 29 q12 7 35 7 q20 0 47 -18 q59 -39 59 -82 q0 -39 -67 -43 l-437 -27 ZM692 -170 q-53 0 -166 109 q-116 102 -116 137 q0 26 34 26 q27 0 92.5 -38.5 q65.5 -38.5 104.5 -51.5 l29 -8 q61 217 82 592 q-424 -33 -433.5 -37 q-9.5 -4 -25.5 -4 q-6 0 -21.5 1 q-15.5 1 -46 27.5 q-30.5 26.5 -30.5 55.5 l2 18 q20 64 39 172 q55 357 55 388 l-10 63 q4 27 32 27 q21 0 21 -2 l-4 0 q116 -54 116 -125 q-18 -97 -40 -242 q-23 -139 -44 -236 l199 11 l111 686 l-373 -29 q-90 0 -119 115 q0 37 29 37 q16 0 36.5 -5.5 q20.5 -5.5 59.5 -5.5 q14 0 443 35 q34 0 66 -23.5 q32 -23.5 32 -43.5 q0 -19 -5 -30 q-5 -11 -120 -728 l76 4 q55 0 84.5 -25.5 q29.5 -25.5 29.5 -50.5 q0 -20 -4 -33.5 q-4 -13.5 -6 -21.5 q-45 -666 -143 -737 q-37 -27 -66 -27 ZM795 758 q-31 0 -31 30 q0 21 37 58 q207 211 347 446.5 q140 235.5 140 302.5 l-2 27 q0 37 31 37 q12 0 47 -17.5 q35 -17.5 66.5 -43 q31.5 -25.5 31.5 -48.5 q0 -18 -32 -84 q172 -211 354 -364 q96 -82 207 -166 q26 -23 26 -39 q0 -14 -35.5 -58 q-35.5 -44 -68.5 -44 q-31 0 -202 164.5 q-171 164.5 -353 383.5 q-84 -143 -217 -305 q-135 -147 -287 -254 q-39 -26 -59 -26 ZM348 219 q-131 -76 -159.5 -76 q-28.5 0 -49.5 15 q-76 73 -76 139 q0 25 25 25 l21 -3 q122 0 518 193 q26 16 49 16 q29 0 29 -28 q0 -33 -113 -119 q-113 -86 -244 -162 Z" /></font>
</defs>
</svg>
