<?xml version="1.0" standalone="no"?><!DOCTYPE svg PUBLIC "-//W3C//DTD SVG 1.1//EN" "http://www.w3.org/Graphics/SVG/1.1/DTD/svg11.dtd" ><svg xmlns="http://www.w3.org/2000/svg"><metadata></metadata><defs><font id="CJ-gaodeguo-mh:Version 2.000" horiz-adv-x="800"><font-face font-family="CJ-gaodeguo-mh" font-weight="400" font-stretch="normal" units-per-em="1000" panose-1="0 0 0 0 0 0 0 0 0 0" ascent="1000" descent="-240" x-height="0" bbox="31 -67 772 851" underline-thickness="40" underline-position="-80" unicode-range="U+4e00-ff1a" /><missing-glyph horiz-adv-x="800"  /><glyph glyph-name="u4E00" unicode="&#x4e00;" d="M40 474 l720 0 l0 -75 l-720 0 l0 75 Z" /><glyph glyph-name="u4E1D" unicode="&#x4e1d;" d="M418 173 q35 44 77.5 105 q42.5 61 77.5 126 l-155 0 l0 71 q40 70 83 168 q43 98 73 207 l82 0 q-32 -115 -73.5 -213 q-41.5 -98 -77.5 -162 l105 0 q33 70 54 142 l81 0 q-32 -119 -97.5 -236.5 q-65.5 -117.5 -135.5 -207.5 l214 0 l0 -72 l-308 0 l0 72 ZM35 21 l729 0 l0 -75 l-729 0 l0 75 ZM76 173 q36 44 78 105 q42 61 78 126 l-156 0 l0 71 q40 70 83 168 q43 98 74 207 l81 0 q-32 -115 -73 -213 q-41 -98 -78 -162 l105 0 q33 70 54 142 l81 0 q-32 -119 -96.5 -236.5 q-64.5 -117.5 -135.5 -207.5 l214 0 l0 -72 l-309 0 l0 72 Z" /><glyph glyph-name="u4E2A" unicode="&#x4e2a;" d="M35 450 q63 85 114.5 181 q51.5 96 66.5 174 l6 34 l277 0 q55 0 72 -53 q19 -77 68.5 -167 q49.5 -90 107.5 -169 l-95 0 q-43 54 -85 129.5 q-42 75.5 -68 157.5 q-2 11 -10.5 18.5 q-8.5 7.5 -32.5 7.5 l-165 0 q-25 -89 -69.5 -171.5 q-44.5 -82.5 -91.5 -141.5 l-95 0 ZM345 519 l84 0 l0 -583 l-84 0 l0 583 Z" /><glyph glyph-name="u4EE3" unicode="&#x4ee3;" d="M697 -62 q-50 0 -79 32 q-38 42 -92.5 192.5 q-54.5 150.5 -98.5 361.5 l-191 -18 l0 72 l177 16 q-21 118 -37 256 l80 0 q17 -139 39 -248 l252 23 l0 -72 l-239 -22 q37 -178 81 -315 q44 -137 80 -181 q11 -11 21.5 -18.5 q10.5 -7.5 29.5 -7.5 l45 0 l-14 -71 l-54 0 ZM112 456 l-70 0 q47 105 86 213 q39 108 51 181 l86 0 q-13 -73 -42 -157.5 q-29 -84.5 -61 -159.5 l34 0 l0 -595 l-84 0 l0 518 ZM543 816 l81 0 l39 -149 l-80 0 l-40 149 Z" /><glyph glyph-name="u4F1A" unicode="&#x4f1a;" d="M128 469 q0 0 -0.5 -0.5 q-0.5 -0.5 -0.5 -0.5 l-90 0 q75 115 124 211.5 q49 96.5 68 157.5 l278 0 q34 0 47.5 -16 q13.5 -16 20.5 -34 q25 -81 75.5 -166 q50.5 -85 106.5 -153 l-90 0 l-1 1 l0 -21 l-538 0 l0 21 ZM614 -17 q-24 -12 -67.5 -23 q-43.5 -11 -99.5 -11 l-349 0 l0 72 l349 0 q62 0 140 24 l-68 157 l84 0 l113 -266 l-82 0 l-20 47 ZM98 21 q80 118 142 235 l-196 0 l0 72 l706 0 l0 -72 l-423 0 q-66 -131 -141 -235 l-88 0 ZM626 519 q-74 105 -119 221 q-4 11 -11.5 18 q-7.5 7 -29.5 7 l-180 0 q-49 -131 -123 -246 l463 0 Z" /><glyph glyph-name="u4F5C" unicode="&#x4f5c;" d="M432 659 l-59 0 q-20 -82 -47 -161 l-85 0 q25 73 49.5 167 q24.5 94 38.5 185 l81 0 q-6 -41 -21 -120 l373 0 l0 -71 l-246 0 l0 -169 l226 0 l0 -72 l-226 0 l0 -184 l226 0 l0 -72 l-226 0 l0 -226 l-84 0 l0 723 ZM112 455 l-69 0 q47 106 86 213.5 q39 107.5 51 180.5 l86 0 q-13 -73 -42 -157.5 q-29 -84.5 -61 -159.5 l34 0 l0 -595 l-85 0 l0 518 Z" /><glyph glyph-name="u5168" unicode="&#x5168;" d="M61 10 l292 0 l0 169 l-240 0 l0 72 l240 0 l0 193 l-201 0 l0 59 l-22 -30 l-90 0 q75 113 124 209.5 q49 96.5 68 158.5 l278 0 q51 0 68 -50 q25 -82 75.5 -166.5 q50.5 -84.5 106.5 -151.5 l-90 0 l-22 24 l0 -53 l-209 0 l0 -193 l248 0 l0 -72 l-248 0 l0 -169 l300 0 l0 -71 l-678 0 l0 71 ZM634 515 q-73 100 -124 230 q-4 10 -11.5 17 q-7.5 7 -29.5 7 l-180 0 q-50 -136 -129 -254 l474 0 Z" /><glyph glyph-name="u51FA" unicode="&#x51fa;" d="M127 -45 q-27 0 -46.5 19.5 q-19.5 19.5 -19.5 46.5 l0 331 l86 0 l0 -301 q0 -9 6.5 -16.5 q6.5 -7.5 17.5 -7.5 l192 0 l0 400 l-227 0 q-25 0 -42.5 18 q-17.5 18 -17.5 43 l0 306 l86 0 l0 -271 q0 -10 6.5 -17.5 q6.5 -7.5 17.5 -7.5 l177 0 l0 353 l84 0 l0 -353 l203 0 l0 296 l84 0 l0 -367 l-287 0 l0 -400 l217 0 l0 325 l85 0 l0 -397 l-622 0 Z" /><glyph glyph-name="u5206" unicode="&#x5206;" d="M78 -64 q78 74 114 155.5 q36 81.5 43.5 145.5 q7.5 64 7.5 150 l-117 0 l0 70 l-85 0 q75 114 124.5 214.5 q49.5 100.5 68.5 169.5 l80 0 q-24 -89 -70 -191.5 q-46 -102.5 -110 -190.5 l494 0 q29 0 49 -13 q20 -13 20 -43 l0 -387 q0 -39 -24.5 -59 q-24.5 -20 -60.5 -21 l-173 0 l-15 72 l160 0 q11 -1 19.5 4.5 q8.5 5.5 8.5 19.5 l0 338 q0 9 -6.5 13 q-6.5 4 -15.5 4 l-262 0 q0 -84 -8 -157.5 q-8 -73.5 -40 -154 q-32 -80.5 -98 -139.5 l-104 0 ZM671 457 q-39 49 -82 124 q-43 75 -77 164 q-5 11 -12.5 17.5 q-7.5 6.5 -29.5 6.5 l-110 0 l0 72 l152 0 q50 0 67 -50 q25 -82 75.5 -171 q50.5 -89 106.5 -163 l-90 0 Z" /><glyph glyph-name="u5217" unicode="&#x5217;" d="M110 -64 q106 138 169 273 l-93 238 q-35 -87 -68 -149 l-85 0 q49 103 95 227 q46 124 71 238 l-142 0 l0 71 l432 0 l0 -71 l-203 0 q-5 -25 -24 -98 l201 0 l0 -72 q0 -143 -66.5 -323 q-66.5 -180 -184.5 -334 l-102 0 ZM322 311 q55 150 55 282 l-137 0 q-15 -48 -37 -103 l-8 -23 l65 0 l62 -156 ZM511 751 l85 0 l0 -619 l-85 0 l0 619 ZM556 8 l63 0 q15 0 26 8 q11 8 11 25 l0 809 l84 0 l0 -839 q0 -36 -24.5 -55 q-24.5 -19 -59.5 -20 l-85 0 l-15 72 Z" /><glyph glyph-name="u5230" unicode="&#x5230;" d="M48 13 l190 0 l0 181 l-177 0 l0 72 l177 0 l0 151 l-185 0 l0 71 l187 0 q95 0 167 21 l-52 164 l86 0 l88 -276 l-86 0 l-14 46 q-40 -17 -107 -23 l0 -154 l169 0 l0 -72 l-169 0 l0 -181 l28 0 q40 0 79.5 9 q39.5 9 69.5 20 l0 -72 q-24 -11 -62.5 -20 q-38.5 -9 -86.5 -9 l-302 0 l0 72 ZM170 759 l-117 0 l0 70 l446 0 l0 -70 l-242 0 l-119 -271 l-85 0 l117 271 ZM534 748 l85 0 l0 -620 l-85 0 l0 620 ZM565 8 l62 0 q15 0 26 7.5 q11 7.5 11 24.5 l0 810 l85 0 l0 -839 q0 -36 -25 -55 q-25 -19 -60 -20 l-85 0 l-14 72 Z" /><glyph glyph-name="u524D" unicode="&#x524d;" d="M87 639 l286 0 q41 0 60.5 -19 q19.5 -19 19.5 -45 l0 -565 q0 -33 -23.5 -51 q-23.5 -18 -56.5 -20 l-84 0 l-15 71 l71 0 q12 1 20 8.5 q8 7.5 8 22.5 l0 122 l-205 0 l0 -224 l-81 0 l0 700 ZM373 235 l0 130 l-205 0 l0 -130 l205 0 ZM373 437 l0 101 q0 15 -8.5 22 q-8.5 7 -21.5 7 l-175 0 l0 -130 l205 0 ZM502 560 l84 0 l0 -459 l-84 0 l0 459 ZM528 8 l85 0 q12 0 20.5 5.5 q8.5 5.5 8.5 18.5 l0 604 l85 0 l0 -619 q0 -44 -24.5 -63 q-24.5 -19 -60.5 -18 l-99 0 l-15 72 ZM200 850 l85 0 l27 -81 l-84 0 l-28 81 ZM55 752 l459 0 l29 98 l85 0 l-29 -98 l152 0 l0 -71 l-696 0 l0 71 Z" /><glyph glyph-name="u53C2" unicode="&#x53c2;" d="M34 281 q46 44 95 100 q49 56 86 109 l-149 0 l0 72 l192 0 q5 8 11 24 l91 0 q-7 -16 -12 -24 l388 0 l0 -72 l-129 0 q36 -62 80 -117.5 q44 -55.5 82 -91.5 l-103 0 q-32 32 -72.5 86 q-40.5 54 -79.5 123 l-206 0 q-36 -57 -83.5 -112.5 q-47.5 -55.5 -91.5 -96.5 l-99 0 ZM137 -64 q135 69 256 148.5 q121 79.5 182 146.5 l96 0 q-71 -87 -186.5 -165 q-115.5 -78 -233.5 -130 l-114 0 ZM131 72 q97 53 191 122.5 q94 69.5 150 136.5 l96 0 q-62 -82 -150 -149.5 q-88 -67.5 -173 -109.5 l-114 0 ZM95 187 q85 53 167.5 121.5 q82.5 68.5 132.5 135.5 l96 0 q-65 -87 -142.5 -153 q-77.5 -66 -145.5 -104 l-108 0 ZM568 628 q-62 -24 -145 -24 l-280 0 l0 72 q22 17 69 63 q47 46 91 111 l83 0 q-75 -115 -146 -174 l184 0 q59 0 107 13 l-54 86 l83 0 l112 -180 l-83 0 l-21 33 Z" /><glyph glyph-name="u53CC" unicode="&#x53cc;" d="M416 -64 q30 47 66.5 115 q36.5 68 68.5 145 q-106 297 -114 491 l79 0 q12 -149 83 -365 q80 232 80 434 l0 1 l-272 0 l0 72 l349 0 l0 -72 l0 -5 q0 -272 -112 -555 q53 -141 108 -261 l-94 0 q-30 64 -65 149 q-43 -90 -84 -149 l-93 0 ZM48 -64 q30 47 66.5 115 q36.5 68 68.5 145 q-106 297 -114 491 l79 0 q12 -149 83 -365 q79 229 79 434 l0 1 l-271 0 l0 72 l349 0 l0 -72 l0 -5 q0 -275 -114 -555 q54 -141 109 -261 l-93 0 q-30 64 -65 149 q-44 -90 -84 -149 l-93 0 Z" /><glyph glyph-name="u53D8" unicode="&#x53d8;" d="M40 -64 q63 27 140 69.5 q77 42.5 149 93.5 q-113 100 -186 218 l86 0 q62 -84 165 -168 q128 103 195 212 l-490 0 l0 72 l586 0 l0 -72 q-74 -142 -226 -261 q72 -51 148 -94 q76 -43 138 -70 l-176 0 q-86 40 -180 114 q-58 -38 -115.5 -67.5 q-57.5 -29.5 -102.5 -46.5 l-131 0 ZM125 657 l84 0 l-48 -167 l-84 0 l48 167 ZM242 715 l-197 0 l0 72 l305 0 l-19 63 l86 0 l17 -63 l315 0 l0 -72 l-188 0 l0 -246 l-80 0 l0 246 l-159 0 l0 -246 l-80 0 l0 246 ZM594 657 l86 0 l48 -167 l-86 0 l-48 167 Z" /><glyph glyph-name="u5668" unicode="&#x5668;" d="M40 338 q119 10 236 43 q17 5 39.5 19.5 q22.5 14.5 33.5 42.5 l-310 0 l0 72 l314 0 l0 29 l86 0 l0 -29 l145 0 l-7 29 l85 0 l8 -29 l83 0 l0 -72 l-309 0 q10 -28 33.5 -42.5 q23.5 -14.5 40.5 -19.5 q115 -33 234 -43 l0 -74 q-52 3 -127.5 15 q-75.5 12 -152.5 34 q-15 4 -36 17 q-21 13 -39 32 q-19 -19 -40.5 -32 q-21.5 -13 -36.5 -17 q-76 -22 -151.5 -34 q-75.5 -12 -128.5 -15 l0 74 ZM46 244 l250 0 q41 0 60.5 -18.5 q19.5 -18.5 19.5 -45.5 l0 -235 l-330 0 l0 299 ZM296 17 l0 138 q0 7 -6 12 q-6 5 -20 5 l-144 0 l0 -155 l170 0 ZM416 244 l250 0 q42 0 61 -18.5 q19 -18.5 19 -45.5 l0 -235 l-330 0 l0 299 ZM666 17 l0 138 l0 1 q0 16 -25 16 l-144 0 l0 -155 l169 0 ZM46 850 l250 0 q41 0 60.5 -19 q19.5 -19 19.5 -45 l0 -221 l-330 0 l0 285 ZM296 637 l0 124 q0 7 -6 12 q-6 5 -20 5 l-144 0 l0 -141 l170 0 ZM416 850 l250 0 q42 0 61 -19 q19 -19 19 -45 l0 -221 l-330 0 l0 285 ZM666 637 l0 124 l0 1 q0 16 -25 16 l-144 0 l0 -141 l169 0 Z" /><glyph glyph-name="u5757" unicode="&#x5757;" d="M239 -64 q61 95 113 198 q52 103 72 185 l-153 0 l0 72 l163 0 l0 2 l0 295 l-144 0 l0 72 l144 0 l0 90 l86 0 l0 -90 l115 0 q40 0 60 -19.5 q20 -19.5 21 -47.5 l0 -302 l35 0 l0 -72 l-238 0 q-5 -20 -13 -47 l70 0 q30 -76 84 -166 q54 -90 113 -170 l-93 0 q-53 72 -102 157 q-49 85 -76 160 q-25 -76 -71 -161 q-46 -85 -95 -156 l-91 0 ZM42 107 q34 4 79 15 l0 425 l-74 0 l0 72 l74 0 l0 231 l84 0 l0 -231 l70 0 l0 -72 l-70 0 l0 -395 q38 16 75 37 l0 -72 q-33 -25 -94.5 -47.5 q-61.5 -22.5 -143.5 -34.5 l0 72 ZM631 391 l0 257 q1 17 -7.5 28.5 q-8.5 11.5 -29.5 11.5 l-74 0 l0 -297 l111 0 Z" /><glyph glyph-name="u591A" unicode="&#x591a;" d="M47 -63 q69 19 151.5 52.5 q82.5 33.5 158.5 74.5 l-97 154 q-36 -22 -64 -37 l-115 0 q89 53 176 120 q87 67 140 132 q-89 -46 -169 -66 l-181 0 q69 19 151 52.5 q82 33.5 158 75.5 l-93 148 q-38 -27 -69 -44 l-114 0 q77 50 154 117 q77 67 127 134 l89 0 q-14 -27 -42 -65 l296 0 l0 -71 q-87 -159 -280 -266 l72 0 q-26 -47 -58 -83 l281 0 l0 -70 q-71 -134 -207 -225.5 q-136 -91.5 -284 -132.5 l-181 0 ZM418 99 q148 92 206 194 l-260 0 q-48 -41 -100 -72 l79 0 l75 -122 ZM417 531 q137 88 192 183 l-264 0 q-29 -30 -73 -64 l71 0 l74 -119 Z" /><glyph glyph-name="u5BF9" unicode="&#x5bf9;" d="M515 8 l64 0 q11 0 19 5.5 q8 5.5 8 18.5 l0 548 l-213 0 l0 71 l213 0 l0 199 l86 0 l0 -199 l58 0 l0 -71 l-58 0 l0 -546 q0 -48 -25.5 -72 q-25.5 -24 -60.5 -26 l-77 0 l-14 72 ZM54 -64 q71 115 130 256 q-95 226 -95 432 l0 41 l82 0 l0 -30 q0 -151 60 -322 q61 182 61 322 l0 95 l-223 0 l0 71 l304 0 l0 -71 l0 -106 q0 -191 -95 -428 q33 -75 72.5 -143.5 q39.5 -68.5 72.5 -116.5 l-99 0 q-46 64 -93 156 q-44 -91 -87 -156 l-90 0 ZM404 467 l85 0 l53 -268 l-85 0 l-53 268 Z" /><glyph glyph-name="u5C06" unicode="&#x5c06;" d="M504 8 l76 0 q11 -1 18.5 5.5 q7.5 6.5 7.5 21.5 l0 240 l-306 0 l0 72 l306 0 l0 96 l86 0 l0 -96 l73 0 l0 -72 l-73 0 l0 -242 q0 -48 -25.5 -72 q-25.5 -24 -60.5 -25 l-87 0 l-15 72 ZM98 396 l85 0 l-66 -275 l-86 0 l67 275 ZM335 228 l82 0 l65 -152 l-82 0 l-65 152 ZM198 850 l84 0 l0 -914 l-84 0 l0 914 ZM46 715 l86 0 l51 -216 l-85 0 l-52 216 ZM335 377 q86 50 167 127 l-5 0 l-58 135 q-25 -37 -46 -60 l-93 0 q45 55 89.5 127 q44.5 72 73.5 144 l86 0 q-1 -5 -22 -55 l211 0 l0 -72 q-30 -114 -108.5 -204 q-78.5 -90 -169.5 -142 l-125 0 ZM556 561 q68 80 101 162 l-165 0 q-20 -35 -40 -67 l62 0 l42 -95 Z" /><glyph glyph-name="u5E38" unicode="&#x5e38;" d="M358 241 l-179 0 l0 -226 l-85 0 l0 297 l264 0 l0 42 l-207 0 l0 235 l414 0 q44 0 65 -18 q21 -18 21 -44 l0 -173 l-206 0 l0 -42 l178 0 q41 0 62 -19 q21 -19 24 -46 l0 -151 q0 -39 -25.5 -59 q-25.5 -20 -60.5 -22 l-42 0 l-15 72 l34 0 l2 0 q21 0 21 26 l0 88 q1 17 -8 28.5 q-9 11.5 -31 11.5 l-139 0 l0 -303 l-87 0 l0 303 ZM565 426 l0 67 q0 11 -6.5 18.5 q-6.5 7.5 -20.5 7.5 l-300 0 l0 -93 l327 0 ZM141 820 l85 0 l39 -93 l-87 0 l-37 93 ZM56 711 l303 0 l0 139 l84 0 l0 -139 l223 0 q39 0 59 -19.5 q20 -19.5 21 -47.5 l0 -98 l-85 0 l0 53 q1 17 -7.5 28.5 q-8.5 11.5 -29.5 11.5 l-482 0 l0 -93 l-86 0 l0 165 ZM576 820 l87 0 l-39 -93 l-87 0 l39 93 Z" /><glyph glyph-name="u5F02" unicode="&#x5f02;" d="M73 -64 q45 35 80 102.5 q35 67.5 42 157.5 l-144 0 l0 72 l145 0 l0 100 l86 0 l0 -100 l242 0 l0 100 l85 0 l0 -100 l139 0 l0 -72 l-139 0 l0 -260 l-85 0 l0 260 l-243 0 q-6 -97 -37 -164 q-31 -67 -72 -96 l-99 0 ZM204 396 q-40 0 -68 23.5 q-28 23.5 -28 73.5 l0 341 l510 0 q30 1 50 -12 q20 -13 20 -43 l0 -198 l-495 0 l0 -66 q0 -23 11.5 -34.5 q11.5 -11.5 28.5 -12.5 l503 0 l-15 -72 l-517 0 ZM602 653 l0 92 q0 9 -7 13.5 q-7 4.5 -16 4.5 l-386 0 l0 -110 l409 0 Z" /><glyph glyph-name="u5F97" unicode="&#x5f97;" d="M482 8 l78 0 q15 -1 25.5 7 q10.5 8 10.5 27 l0 186 l-335 0 l0 72 l335 0 l0 52 l-306 0 l0 72 l453 0 l0 -72 l-62 0 l0 -52 l77 0 l0 -72 l-77 0 l0 -199 q0 -45 -29 -68 q-29 -23 -70 -25 l-85 0 l-15 72 ZM330 201 l86 0 l48 -138 l-84 0 l-50 138 ZM142 324 l-87 0 q51 68 95 150 q44 82 62 160 q-35 -55 -70 -95 l-87 0 q51 68 95 150.5 q44 82.5 62 160.5 l85 0 q-18 -107 -85 -215 l85 0 q-18 -107 -85 -215 l25 0 l0 -484 l-85 0 l0 400 l-10 -12 ZM648 543 l0 72 l-250 0 l0 -72 l250 0 ZM317 831 l331 0 q41 0 61 -18.5 q20 -18.5 20 -44.5 l0 -297 l-412 0 l0 360 ZM648 687 l0 45 q0 15 -7.5 21.5 q-7.5 6.5 -17.5 6.5 l-225 0 l0 -73 l250 0 Z" /><glyph glyph-name="u603B" unicode="&#x603b;" d="M110 736 l370 0 l42 113 l86 0 l-43 -113 l45 0 q42 0 61 -19 q19 -19 19 -45 l0 -352 l-580 0 l0 416 ZM55 -44 q24 120 33 327 l79 0 q-9 -207 -33 -327 l-79 0 ZM327 -59 q-45 3 -75.5 30.5 q-30.5 27.5 -30.5 81.5 l0 230 l80 0 l0 -208 q0 -31 15.5 -45.5 q15.5 -14.5 37.5 -17.5 l277 0 l-15 -71 l-289 0 ZM442 71 q-20 112 -52 212 l80 0 q30 -92 51 -212 l-79 0 ZM666 -44 q-30 207 -67 327 l79 0 q36 -120 67 -327 l-79 0 ZM606 391 l0 249 q0 12 -7 18 q-7 6 -16 6 l-387 0 l0 -273 l410 0 ZM177 849 l85 0 l43 -95 l-84 0 l-44 95 Z" /><glyph glyph-name="u6210" unicode="&#x6210;" d="M38 -64 q23 65 39 169.5 q16 104.5 16 230.5 l0 339 l362 0 q-7 63 -15 175 l83 0 q8 -106 14 -175 l213 0 l0 -71 l-206 0 q23 -195 56 -332 q27 66 27 109 l0 150 l77 0 l0 -158 q0 -81 -71 -214 q28 -78 54 -114.5 q26 -36.5 40 -36.5 l45 0 l-15 -72 l-45 0 q-27 -3 -61.5 30.5 q-34.5 33.5 -67.5 106.5 q-46 -72 -80 -117 l-89 0 q80 110 135 208 q-53 161 -86 440 l-284 0 l0 -129 l155 0 q35 -1 60 -19.5 q25 -18.5 25 -55.5 l0 -348 q0 -44 -28 -67 q-28 -23 -68 -25 l-109 0 l-15 72 l101 0 q15 -3 24.5 5 q9.5 8 9.5 28 l0 288 q0 25 -11.5 36 q-11.5 11 -28.5 11 l-115 0 l0 -72 q0 -137 -15.5 -238 q-15.5 -101 -38.5 -154 l-87 0 ZM583 825 l80 0 l46 -113 l-81 0 l-45 113 Z" /><glyph glyph-name="u629B" unicode="&#x629b;" d="M210 -62 q38 107 64 243 q26 136 26 268 l0 132 l-33 0 l0 72 l33 0 l0 197 l81 0 l0 -197 l31 0 q33 -1 56 -17.5 q23 -16.5 23 -49.5 l0 -529 q0 -23 11 -34.5 q11 -11.5 27 -13.5 l228 0 l-13 -71 l-243 0 q-37 1 -63 23.5 q-26 22.5 -26 69.5 l0 520 q0 17 -6.5 24.5 q-6.5 7.5 -17.5 5.5 l-7 0 l0 -142 q0 -144 -25 -276 q-25 -132 -60 -225 l-86 0 ZM42 9 l55 0 q11 0 19.5 8 q8.5 8 8.5 24 l0 241 q-32 -13 -77 -25 l0 72 q34 8 77 26 l0 262 l-77 0 l0 71 l77 0 l0 162 l84 0 l0 -162 l50 0 l0 -71 l-50 0 l0 -220 q31 20 50 36 l0 -72 q-17 -18 -50 -39 l0 -294 q0 -44 -27.5 -66 q-27.5 -22 -67.5 -24 l-57 0 l-15 71 ZM498 41 q19 95 33 215.5 q14 120.5 14 238.5 l0 157 l-49 0 l0 72 l49 0 l0 126 l81 0 l0 -126 l48 0 q29 0 48 -13 q19 -13 19 -43 l0 -544 q0 -41 -24 -61 q-24 -20 -59 -22 l-32 0 l-15 72 l8 0 q16 -1 27.5 7.5 q11.5 8.5 11.5 26.5 l0 487 q0 9 -7 13.5 q-7 4.5 -16 4.5 l-9 0 l0 -167 q0 -128 -12.5 -245 q-12.5 -117 -30.5 -199 l-85 0 Z" /><glyph glyph-name="u6328" unicode="&#x6328;" d="M290 -64 q47 59 91 131.5 q44 72.5 69 139.5 l-167 0 l0 72 l188 0 q5 30 5 51 l0 87 l-74 0 q-21 -50 -42 -90 l-92 0 q27 46 52 105 q25 59 39 116 l81 0 q-5 -26 -14 -59 l311 0 l0 -72 l-181 0 l0 -95 q0 -14 -2 -43 l197 0 l0 -72 l-214 0 q0 -3 -6 -19 l52 0 q25 -61 69.5 -128.5 q44.5 -67.5 91.5 -123.5 l-99 0 q-35 42 -71 97 q-36 55 -61 110 q-25 -56 -59 -111 q-34 -55 -67 -96 l-97 0 ZM55 8 l56 0 q11 0 19.5 7.5 q8.5 7.5 8.5 23.5 l0 246 q-38 -13 -97 -28 l0 72 q45 9 97 31 l0 257 l-97 0 l0 71 l97 0 l0 162 l85 0 l0 -162 l51 0 l0 -71 l-51 0 l0 -217 q28 15 51 33 l0 -72 q-17 -17 -51 -37 l0 -298 q0 -45 -28 -66.5 q-28 -21.5 -68 -23.5 l-59 0 l-14 72 ZM650 597 q-59 -20 -128 -20 l-226 0 l0 71 q39 34 81.5 87 q42.5 53 74.5 115 l84 0 q-40 -81 -79 -130 q-39 -49 -63 -72 l129 0 q48 0 93 13 l-47 85 l82 0 l100 -179 l-83 0 l-18 30 Z" /><glyph glyph-name="u636E" unicode="&#x636e;" d="M242 -64 q18 50 29 112.5 q11 62.5 11 122.5 l0 663 l372 0 q41 0 61 -19 q20 -19 20 -45 l0 -190 l-367 0 l0 -415 q0 -60 -10 -120.5 q-10 -60.5 -25 -108.5 l-91 0 ZM52 8 l54 0 q12 0 20.5 7.5 q8.5 7.5 8.5 23.5 l0 246 q-37 -13 -96 -28 l0 72 q43 10 96 31 l0 257 l-96 0 l0 71 l96 0 l0 162 l86 0 l0 -162 l51 0 l0 -71 l-51 0 l0 -217 q23 12 51 33 l0 -72 q-18 -17 -51 -37 l0 -298 q0 -45 -28 -66.5 q-28 -21.5 -68 -23.5 l-59 0 l-14 72 ZM655 21 l0 160 q0 24 -11.5 34.5 q-11.5 10.5 -28.5 9.5 l-134 0 l0 -204 l174 0 ZM401 297 l125 0 l0 99 l-145 0 l0 72 l145 0 l0 93 l86 0 l0 -93 l145 0 l0 -72 l-145 0 l0 -99 l43 0 q41 0 61 -19 q20 -19 20 -45 l0 -284 l-335 0 l0 348 ZM650 652 l0 59 l0 9 q0 24 -12 34 q-12 10 -29 8 l-241 0 l0 -110 l282 0 Z" /><glyph glyph-name="u6392" unicode="&#x6392;" d="M537 850 l86 0 l0 -145 l130 0 l0 -72 l-130 0 l0 -180 l121 0 l0 -72 l-121 0 l0 -179 l130 0 l0 -72 l-130 0 l0 -194 l-86 0 l0 914 ZM50 8 l56 0 q12 0 20.5 7.5 q8.5 7.5 8.5 23.5 l0 246 q-46 -18 -88 -28 l0 72 q40 9 88 30 l0 258 l-88 0 l0 71 l88 0 l0 162 l85 0 l0 -162 l42 0 l0 -71 l-42 0 l0 -214 q18 10 42 30 l0 -72 q-14 -15 -42 -33 l0 -301 q0 -44 -28 -66.5 q-28 -22.5 -68 -24.5 l-59 0 l-15 72 ZM389 130 l-117 0 l0 72 l117 0 l0 179 l-108 0 l0 72 l108 0 l0 180 l-117 0 l0 72 l117 0 l0 145 l85 0 l0 -914 l-85 0 l0 194 Z" /><glyph glyph-name="u63D0" unicode="&#x63d0;" d="M249 -64 q32 59 53.5 131 q21.5 72 21.5 138 l0 98 l85 0 l0 -98 q0 -44 -13 -107 q32 -55 78 -77 l0 327 l-187 0 l0 72 l459 0 l0 -72 l-187 0 l0 -120 l169 0 l0 -71 l-169 0 l0 -149 l201 0 l-15 -72 l-206 0 q-103 0 -163 85 q-15 -49 -33 -85 l-94 0 ZM55 8 l56 0 q11 0 19.5 7.5 q8.5 7.5 8.5 23.5 l0 246 q-39 -13 -97 -28 l0 72 q43 9 97 31 l0 257 l-97 0 l0 71 l97 0 l0 162 l85 0 l0 -162 l51 0 l0 -71 l-51 0 l0 -217 q23 12 51 33 l0 -72 q-18 -17 -51 -37 l0 -298 q0 -45 -28 -66.5 q-28 -21.5 -68 -23.5 l-59 0 l-14 72 ZM628 547 l0 69 l-224 0 l0 -69 l224 0 ZM324 827 l304 0 q41 0 60.5 -18 q19.5 -18 19.5 -45 l0 -289 l-384 0 l0 352 ZM628 688 l0 39 q0 14 -8.5 21.5 q-8.5 7.5 -20.5 7.5 l-195 0 l0 -68 l224 0 Z" /><glyph glyph-name="u64CD" unicode="&#x64cd;" d="M473 279 l-193 0 l0 72 l193 0 l0 32 l85 0 l0 -32 l192 0 l0 -72 l-192 0 l0 -44 l130 0 q27 -147 75 -281 l-85 0 q-35 95 -61 209 l-59 0 l0 -227 l-85 0 l0 343 ZM262 -46 q48 134 75 281 l86 0 q-28 -147 -74 -281 l-87 0 ZM54 9 l55 0 q11 0 19.5 7.5 q8.5 7.5 8.5 23.5 l0 245 q-38 -13 -97 -28 l0 72 q45 10 97 31 l0 257 l-97 0 l0 71 l97 0 l0 162 l86 0 l0 -162 l51 0 l0 -71 l-51 0 l0 -217 q23 12 51 33 l0 -72 q-18 -17 -51 -36 l0 -298 q0 -44 -28 -66 q-28 -22 -69 -24 l-57 0 l-15 72 ZM283 604 l148 0 q41 0 60.5 -18 q19.5 -18 19.5 -45 l0 -138 l-228 0 l0 201 ZM431 474 l0 31 q0 11 -7 19.5 q-7 8.5 -21 8.5 l-38 0 l0 -59 l66 0 ZM529 604 l80 0 l66 0 q42 0 62 -18 q20 -18 20 -45 l0 -138 l-228 0 l0 201 ZM675 474 l0 31 q0 11 -6.5 19.5 q-6.5 8.5 -20.5 8.5 l-39 0 l0 -59 l66 0 ZM320 823 l337 0 q41 0 61 -18.5 q20 -18.5 20 -44.5 l0 -134 l-418 0 l0 197 ZM657 698 l0 25 q0 12 -7 20.5 q-7 8.5 -20 8.5 l-230 0 l0 -54 l257 0 Z" /><glyph glyph-name="u6570" unicode="&#x6570;" d="M445 -64 q58 90 108 204 q-78 182 -78 339 l0 58 l86 0 l0 -57 q0 -99 39 -217 q47 138 47 253 l0 127 l-84 0 q-14 -58 -26 -90 l-92 0 q21 56 40.5 134 q19.5 78 30.5 163 l85 0 q-8 -58 -22 -135 l183 0 l0 -72 l-30 0 l0 -127 q0 -170 -83 -376 q51 -113 113 -204 l-97 0 q-30 42 -63 103 q-32 -61 -59 -103 l-98 0 ZM47 -64 q74 39 139 91 q-90 93 -90 190 l0 10 l-57 0 l0 72 l57 0 l0 28 l81 0 l0 -28 l140 0 l0 28 l82 0 l0 -28 l42 0 l0 -72 l-42 0 l0 -10 q0 -98 -98 -191 q62 -51 132 -90 l-127 0 q-31 16 -64 42 q-37 -26 -69 -42 l-126 0 ZM245 80 q72 74 72 141 l0 6 l-140 0 l0 -6 q0 -67 68 -141 ZM34 349 q19 47 33.5 107 q14.5 60 21.5 115 l80 0 q-4 -58 -14.5 -118.5 q-10.5 -60.5 -29.5 -103.5 l-91 0 ZM195 600 l-153 0 l0 72 l153 0 l0 178 l86 0 l0 -178 l153 0 l0 -72 l-153 0 l0 -29 l106 0 q7 -55 21.5 -115 q14.5 -60 33.5 -107 l-91 0 q-26 60 -37 151 l-33 0 l0 -153 l-86 0 l0 253 ZM48 813 l82 0 l41 -126 l-82 0 l-41 126 ZM346 813 l82 0 l-41 -126 l-82 0 l41 126 Z" /><glyph glyph-name="u65AD" unicode="&#x65ad;" d="M443 -64 q8 37 14 116 l-71 0 q-25 181 -33 382 l-10 0 l0 -382 l-86 0 l0 481 l-102 0 l0 72 l102 0 l0 245 l86 0 l0 -245 l100 0 l0 -72 l-100 0 l0 -36 l79 0 q2 -104 13 -223.5 q11 -119.5 23 -208.5 q8 104 8 256 l0 482 l200 0 q24 0 44.5 8 q20.5 8 35.5 20 l0 -71 q-14 -12 -34.5 -20.5 q-20.5 -8.5 -45.5 -8.5 l-118 0 l0 -226 l212 0 l0 -72 l-54 0 l0 -497 l-86 0 l0 497 l-72 0 l0 -121 q0 -136 -5 -232.5 q-5 -96.5 -13 -143.5 l-87 0 ZM142 52 q13 91 24 214 q11 123 13 231 l71 0 q-6 -232 -34 -445 l-74 0 ZM159 -53 q-54 0 -81 29 q-27 29 -29 72 l0 747 l86 0 l0 -728 q0 -27 13 -38.5 q13 -11.5 31 -9.5 l264 0 l0 -72 l-284 0 ZM155 833 l71 0 l23 -205 l-71 0 l-23 205 ZM372 833 l72 0 l-22 -205 l-71 0 l21 205 Z" /><glyph glyph-name="u6A21" unicode="&#x6a21;" d="M668 -64 q-31 25 -67 66.5 q-36 41.5 -67 94.5 q-24 -45 -60.5 -87 q-36.5 -42 -73.5 -72 l-109 0 q56 47 105 103.5 q49 56.5 72 107.5 l-157 0 l0 72 l172 0 l0 72 l-159 0 l0 344 l343 0 q41 0 61 -18.5 q20 -18.5 20 -45.5 l0 -280 l-180 0 l0 -72 l192 0 l0 -72 l-203 0 l-10 -27 l59 0 q32 -54 76.5 -103 q44.5 -49 88.5 -83 l-103 0 ZM37 -54 q18 117 27.5 280 q9.5 163 10.5 320 l71 0 q-4 -177 -13 -343 q-9 -166 -24 -257 l-72 0 ZM167 594 l-122 0 l0 72 l122 0 l0 184 l85 0 l0 -184 l59 0 l0 -72 l-59 0 l0 -74 l59 -24 l0 -71 l-59 23 l0 -512 l-85 0 l0 658 ZM667 364 l0 68 l-263 0 l0 -68 l263 0 ZM667 499 l0 24 q0 24 -11.5 34.5 q-11.5 10.5 -28.5 7.5 l-223 0 l0 -66 l263 0 ZM400 717 l-89 0 l0 71 l89 0 l0 62 l85 0 l0 -62 l101 0 l0 62 l85 0 l0 -62 l89 0 l0 -71 l-89 0 l0 -50 l-85 0 l0 50 l-101 0 l0 -50 l-85 0 l0 50 Z" /><glyph glyph-name="u6C47" unicode="&#x6c47;" d="M354 -47 q-49 0 -73 23 q-24 23 -25 56 l0 801 l479 0 l0 -72 l-398 0 l0 -695 q0 -17 9 -29 q9 -12 31 -12 l372 0 l0 -72 l-395 0 ZM40 -64 q31 96 55.5 205 q24.5 109 30.5 199 l84 0 q-7 -109 -29.5 -216 q-22.5 -107 -50.5 -188 l-90 0 ZM63 600 l86 0 l61 -187 l-87 0 l-60 187 ZM63 850 l86 0 l61 -186 l-87 0 l-60 186 Z" /><glyph glyph-name="u6EE4" unicode="&#x6ee4;" d="M166 -63 q23 67 39 149.5 q16 82.5 16 160.5 l0 426 l85 0 l111 0 l0 177 l86 0 l0 -55 l233 0 l0 -72 l-233 0 l0 -50 l167 0 q39 0 59 -19.5 q20 -19.5 22 -46.5 l0 -69 l-81 0 l0 38 q1 10 -7.5 17.5 q-8.5 7.5 -29.5 7.5 l-327 0 l0 -359 q0 -75 -14.5 -157 q-14.5 -82 -35.5 -148 l-90 0 ZM40 -64 q31 96 55 205 q24 109 30 199 l84 0 q-7 -109 -29 -216 q-22 -107 -50 -188 l-90 0 ZM299 -49 q18 53 28.5 139 q10.5 86 10.5 189 l84 0 q0 -108 -11.5 -193 q-11.5 -85 -27.5 -135 l-84 0 ZM62 600 l85 0 l62 -187 l-86 0 l-61 187 ZM530 -64 q-37 2 -63.5 25.5 q-26.5 23.5 -26.5 70.5 l0 247 l81 0 l0 -226 q0 -22 11.5 -33.5 q11.5 -11.5 28.5 -11.5 l97 0 l-15 -72 l-113 0 ZM562 60 q-12 127 -31 219 l84 0 q17 -86 30 -219 l-83 0 ZM683 -49 q-10 185 -38 328 l82 0 q27 -132 39 -328 l-83 0 ZM62 850 l85 0 l62 -186 l-86 0 l-61 186 ZM502 315 q-38 2 -63.5 22 q-25.5 20 -25.5 62 l0 29 l-80 -5 l0 72 l80 5 l0 77 l80 0 l0 -71 l195 15 l0 -72 l-195 -15 l0 -11 q0 -19 11 -27.5 q11 -8.5 29 -8.5 l219 0 l-15 -72 l-235 0 Z" /><glyph glyph-name="u7684" unicode="&#x7684;" d="M522 25 l121 0 q13 -1 21.5 6.5 q8.5 7.5 8.5 23.5 l0 563 q0 25 -11.5 35.5 q-11.5 10.5 -28.5 7.5 l-120 0 q-21 -82 -43 -141 l-80 0 q24 67 45.5 154.5 q21.5 87.5 32.5 175.5 l80 0 q-11 -79 -19 -117 l144 0 q41 0 60.5 -18.5 q19.5 -18.5 19.5 -45.5 l0 -627 q0 -42 -25 -64.5 q-25 -22.5 -62 -24.5 l-129 0 l-15 72 ZM287 25 l0 306 l-144 0 l0 -306 l144 0 ZM57 736 l59 0 l36 114 l79 0 l-36 -114 l96 0 q41 0 61 -18.5 q20 -18.5 20 -44.5 l0 -720 l-315 0 l0 783 ZM287 402 l0 239 q0 12 -6.5 18 q-6.5 6 -15.5 6 l-122 0 l0 -263 l144 0 ZM433 479 l87 0 l55 -286 l-86 0 l-56 286 Z" /><glyph glyph-name="u7C7B" unicode="&#x7c7b;" d="M652 360 q-53 58 -101 159 l-107 0 l0 -148 l-87 0 l0 253 l-299 0 l0 72 l299 0 l0 154 l87 0 l0 -154 l299 0 l0 -72 l-299 0 l0 -43 l169 0 q18 -54 55.5 -113 q37.5 -59 77.5 -108 l-94 0 ZM58 -63 q93 67 172.5 138.5 q79.5 71.5 111.5 123.5 l-289 0 l0 70 l307 0 l0 75 l85 0 l0 -75 l303 0 l0 -70 l-308 0 q-3 -12 -10 -24 l48 0 q39 -51 115 -115 q76 -64 159 -123 l-123 0 q-65 46 -127.5 99 q-62.5 53 -97.5 100 q-37 -47 -98 -101 q-61 -54 -125 -98 l-123 0 ZM55 360 q40 49 77.5 108 q37.5 59 55.5 113 l87 0 q-20 -57 -53 -117 q-33 -60 -73 -104 l-94 0 ZM132 825 l86 0 l52 -112 l-86 0 l-52 112 ZM583 825 l86 0 l-53 -112 l-85 0 l52 112 Z" /><glyph glyph-name="u7CFB" unicode="&#x7cfb;" d="M260 10 l76 0 l2 0 q22 0 22 23 l0 250 l-297 0 l0 71 l69 0 q93 78 159 139 l-184 0 l0 71 q89 78 154 158 l-209 0 l0 72 l492 0 q57 0 109 12.5 q52 12.5 90 30.5 l0 -70 q-26 -19 -76.5 -32 q-50.5 -13 -122.5 -13 l-179 0 q-70 -91 -149 -158 l149 0 q62 62 92 102 l106 0 q-55 -78 -139.5 -160 q-84.5 -82 -170.5 -152 l132 0 q107 0 207 35 l-80 131 l85 0 l144 -237 l-84 0 l-30 47 q-79 -37 -183 -45 l0 -254 q0 -45 -24.5 -68 q-24.5 -23 -59.5 -25 l-85 0 l-15 72 ZM42 -11 q37 55 63.5 118 q26.5 63 40.5 118 l81 0 q-12 -56 -37 -119.5 q-25 -63.5 -57 -116.5 l-91 0 ZM666 -11 q-32 53 -56.5 116.5 q-24.5 63.5 -37.5 119.5 l81 0 q14 -55 41 -118 q27 -63 63 -118 l-91 0 Z" /><glyph glyph-name="u8003" unicode="&#x8003;" d="M45 204 q24 51 55.5 131.5 q31.5 80.5 54.5 162.5 l-108 0 l0 72 l310 0 l0 97 l-269 0 l0 72 l269 0 l0 111 l85 0 l0 -111 l267 0 l0 -72 l-267 0 l0 -97 l121 0 l0 67 l85 0 l0 -67 l103 0 l0 -72 l-507 0 q-40 -152 -109 -294 l-90 0 ZM310 19 l290 0 q15 -1 25 6.5 q10 7.5 10 25.5 l0 92 q0 25 -11.5 35.5 q-11.5 10.5 -28.5 10.5 l-369 0 l35 271 l86 0 l-7 -51 l411 0 l0 -71 l-421 0 l-10 -73 l315 0 q35 -1 59.5 -20 q24.5 -19 24.5 -56 l0 -154 q0 -44 -24.5 -66 q-24.5 -22 -59.5 -23 l-310 0 l-15 73 Z" /><glyph glyph-name="u85D5" unicode="&#x85d5;" d="M361 300 l152 0 l0 45 l-137 0 l0 290 l279 0 q41 0 61 -18 q20 -18 20 -45 l0 -227 l-137 0 l0 -45 l67 0 q35 -1 60 -20 q25 -19 25 -55 l0 -197 q0 -44 -28 -67 q-28 -23 -68 -25 l-20 0 l-15 72 l12 0 q11 -1 20 4 q9 5 13 17 l-38 0 l-6 27 q-40 -8 -72 -8 l-96 0 l0 65 l34 0 q26 52 26 105 l0 10 l-68 0 l0 -292 l-84 0 l0 364 ZM42 -59 q18 50 28.5 127 q10.5 77 12.5 155 l76 0 q-5 -88 -16 -166.5 q-11 -78.5 -26 -115.5 l-75 0 ZM171 256 l-112 0 l0 72 l112 0 l0 56 l-100 0 l0 72 l100 0 l0 56 l-107 0 l0 72 l107 0 l0 75 l85 0 l0 -75 l92 0 l0 -72 l-92 0 l0 -56 l84 0 l0 -72 l-84 0 l0 -56 l97 0 l0 -72 l-97 0 l0 -56 l82 -44 l0 -72 l-82 44 l0 -192 l-85 0 l0 320 ZM666 193 q0 18 -10.5 26.5 q-10.5 8.5 -24.5 8.5 l-32 0 l0 -10 q0 -46 -27 -104 q6 0 37 3 l-10 51 l50 0 l17 -81 l0 106 ZM513 417 l0 41 l-57 0 l0 -41 l57 0 ZM513 523 l0 41 l-57 0 l0 -41 l57 0 ZM656 417 l0 41 l-57 0 l0 -41 l57 0 ZM220 717 l-165 0 l0 71 l165 0 l0 62 l86 0 l0 -62 l187 0 l0 62 l86 0 l0 -62 l166 0 l0 -71 l-166 0 l0 -43 l-86 0 l0 43 l-187 0 l0 -43 l-86 0 l0 43 ZM656 523 l0 17 q0 13 -6.5 18.5 q-6.5 5.5 -15.5 5.5 l-35 0 l0 -41 l57 0 Z" /><glyph glyph-name="u8FC7" unicode="&#x8fc7;" d="M62 -64 q32 89 54 185.5 q22 96.5 22 169.5 l0 12 l-61 0 q21 59 37.5 130 q16.5 71 20.5 132 l-90 0 l0 72 l176 0 l0 -33 q0 -112 -51 -277 l51 0 l0 -36 q0 -88 -34 -225 q25 -21 55 -35 q30 -14 60 -14 l454 0 l-15 -72 l-441 0 q-57 0 -132 56 l-21 -65 l-85 0 ZM300 530 l86 0 l56 -242 l-87 0 l-55 242 ZM94 833 l81 0 l38 -127 l-80 0 l-39 127 ZM387 136 l160 0 q11 0 19.5 7.5 q8.5 7.5 8.5 23.5 l0 443 l-306 0 l0 72 l306 0 l0 168 l85 0 l0 -168 l88 0 l0 -72 l-88 0 l0 -456 q0 -45 -28 -66.5 q-28 -21.5 -68 -23.5 l-162 0 l-15 72 Z" /><glyph glyph-name="u8FDE" unicode="&#x8fde;" d="M62 -64 q32 89 54 185.5 q22 96.5 22 169.5 l0 12 l-61 0 q21 59 37.5 130 q16.5 71 20.5 132 l-90 0 l0 72 l176 0 l0 -33 q0 -112 -51 -277 l51 0 l0 -36 q0 -92 -35 -225 q60 -49 116 -49 l454 0 l-15 -72 l-442 0 q-55 0 -132 56 q-10 -38 -20 -65 l-85 0 ZM94 833 l81 0 l38 -127 l-80 0 l-39 127 ZM468 205 l-202 0 l0 71 l202 0 l0 132 l-191 0 l0 72 q41 95 78 191 l-89 0 l0 72 l115 0 q21 54 37 107 l80 0 q-12 -43 -35 -107 l279 0 l0 -72 l-304 0 q-33 -90 -78 -191 l108 0 l0 161 l84 0 l0 -161 l175 0 l0 -72 l-175 0 l0 -132 l190 0 l0 -71 l-190 0 l0 -166 l-84 0 l0 166 Z" /><glyph glyph-name="u8FED" unicode="&#x8fed;" d="M62 -64 q32 89 54 185.5 q22 96.5 22 169.5 l0 12 l-61 0 q21 59 37.5 130 q16.5 71 20.5 132 l-90 0 l0 72 l176 0 l0 -33 q0 -112 -51 -277 l51 0 l0 -36 q0 -92 -35 -225 q60 -49 116 -49 l454 0 l-15 -72 l-442 0 q-55 0 -132 56 q-10 -38 -20 -65 l-85 0 ZM94 833 l81 0 l38 -127 l-80 0 l-39 127 ZM239 45 q68 55 122.5 139.5 q54.5 84.5 72.5 185.5 l-200 0 l0 72 l208 0 l0 13 l0 162 l-86 0 q-12 -55 -33 -118 l-86 0 q22 64 41.5 144 q19.5 80 27.5 158 l81 0 q-5 -49 -16 -112 l71 0 l0 161 l85 0 l0 -161 l172 0 l0 -72 l-172 0 l0 -170 l0 -5 l200 0 l0 -72 l-205 0 q-6 -32 -14 -61 l76 0 l140 -264 l-85 0 l-135 255 q-24 -77 -69 -144 q-45 -67 -93 -111 l-103 0 Z" /><glyph glyph-name="uFF1A" unicode="&#xff1a;" d="M148 82 q0 8 6.5 15 q6.5 7 14.5 7 l60 0 q9 0 15.5 -6.5 q6.5 -6.5 6.5 -15.5 l0 -61 q0 -8 -6.5 -13.5 q-6.5 -5.5 -15.5 -5.5 l-60 0 q-8 0 -14.5 5.5 q-6.5 5.5 -6.5 13.5 l0 61 ZM148 349 q0 8 6.5 15 q6.5 7 14.5 7 l60 0 q9 0 15.5 -6 q6.5 -6 6.5 -16 l0 -60 q0 -8 -6.5 -14 q-6.5 -6 -15.5 -6 l-60 0 q-8 0 -14.5 6 q-6.5 6 -6.5 14 l0 60 Z" /><glyph glyph-name="uFF0C" unicode="&#xff0c;" d="M141 -57 q43 24 57 53 l-27 0 q-6 0 -10 4 q-4 4 -4 9 l0 69 q0 6 4 10 q4 4 10 4 l67 0 q6 0 10.5 -4.5 q4.5 -4.5 4.5 -10.5 l0 -69 q0 -5 -5.5 -14 q-5.5 -9 -9.5 -12 q-42 -40 -87 -49 l-10 10 Z" /></font>
</defs>
</svg>
