<?xml version="1.0" standalone="no"?><!DOCTYPE svg PUBLIC "-//W3C//DTD SVG 1.1//EN" "http://www.w3.org/Graphics/SVG/1.1/DTD/svg11.dtd" ><svg xmlns="http://www.w3.org/2000/svg"><metadata></metadata><defs><font id="LXGW WenKai Screen:Version 1.245" horiz-adv-x="2048"><font-face font-family="LXGW WenKai Screen" font-weight="400" font-stretch="normal" units-per-em="2048" panose-1="2 2 8 0 0 0 0 0 0 0" ascent="1900" descent="-500" x-height="0" bbox="41 -258 2042 1815" underline-thickness="100" underline-position="-408" unicode-range="U+2f64-ff0c" /><missing-glyph horiz-adv-x="2048" d="M1638 -131 l-614 797 l-614 -797 l1228 0 ZM1729 -29 l0 1610 l-619 -805 l619 -805 ZM319 -29 l619 805 l-619 805 l0 -1610 ZM1024 887 l616 801 l-1232 0 l616 -801 ZM1855 -258 l-1662 0 l0 2073 l1662 0 l0 -2073 Z" /><glyph glyph-name="uni2F64" unicode="&#x2f64;&#x7528;" d="M1628 -215 q-47 0 -133 61 q-235 172 -235 232 q0 26 32 26 q23 0 109 -47 q86 -47 174 -75 l0 526 l-469 -21 l0 -532 q0 -66 -45 -66 q-10 0 -39 11.5 q-29 11.5 -55.5 36 q-26.5 24.5 -26.5 71.5 q0 12 8 47 q8 35 8 90 l0 338 l-450 -20 q-53 -266 -195 -483 q-57 -91 -105 -140 q-48 -49 -72.5 -49 q-24.5 0 -24.5 33 q0 22 22 59 q178 303 229 602 q33 203 33 617 q0 172 -1 240.5 q-1 68.5 -18.5 105.5 q-17.5 37 -17.5 49 q0 21 39 21 q27 0 137 -50 l1092 68 q49 0 80 -22.5 q31 -22.5 31 -61.5 l-6 -47 q2 -1440 4 -1499 q0 -94 -105 -121 ZM1104 1073 l469 25 l0 293 l-469 -31 l0 -287 ZM547 1044 l409 23 l0 287 l-411 -27 q2 -63 2 -283 ZM1106 627 l469 20 l-2 311 l-469 -24 l2 -307 ZM530 604 l426 19 l0 305 l-409 -23 q-4 -225 -17 -301 Z" /><glyph glyph-name="uni2F83" unicode="&#x2f83;&#x81ea;" d="M553 -207 q-49 0 -86 30 q-37 30 -37 73 q8 49 8 122 l-32 1129 q-5 61 -27.5 102 q-22.5 41 -22.5 60 q0 26 41 26 q29 0 156 -45 l152 8 q198 236 198 320 q0 29 -2 39 q0 41 35 41 q22 0 61 -19 q99 -45 99 -100 q0 -33 -82 -131 q-82 -98 -121 -139 l600 32 q84 0 122 -29.5 q38 -29.5 38 -56.5 q0 -24 -8.5 -37.5 q-8.5 -13.5 -65.5 -1104.5 q57 -72 57 -99 q0 -32 -24.5 -38.5 q-24.5 -6.5 -1005.5 -30.5 l4 -97 q0 -55 -57 -55 ZM575 899 l881 43 l12 250 l-901 -49 l8 -244 ZM590 512 l850 39 l12 248 l-872 -43 l10 -244 ZM602 90 l819 23 l15 297 l-844 -39 l10 -281 Z" /><glyph glyph-name="uni2F8F" unicode="&#x2f8f;&#x884c;" d="M170 915 q-27 0 -27 27 q0 16 39 55 q166 166 320 392 q90 135 90 194 l-2 12 q0 41 37 41 q18 0 52 -17 q34 -17 62.5 -43 q28.5 -26 28.5 -46.5 q0 -20.5 -10 -34.5 q-225 -358 -537 -557 q-37 -23 -53 -23 ZM1047 1292 q-37 0 -72 13.5 q-35 13.5 -60 83.5 q-4 14 -4 22 q0 27 37 27 q37 -6 68 -6 l553 34 q43 2 67.5 10.5 q24.5 8.5 40.5 8.5 q19 0 45 -17 q70 -45 70 -88 q0 -37 -57 -43 l-688 -45 ZM520 -205 q-45 0 -82 27.5 q-37 27.5 -37 56.5 q0 23 9.5 60.5 q9.5 37.5 9.5 109.5 l4 514 q-137 -149 -297 -260 q-33 -24 -53 -24 q-29 0 -29 22.5 q0 22.5 35 58.5 q289 304 487 656 q21 39 21 74 q0 63 35 63 q26 0 59 -20.5 q33 -20.5 59.5 -48 q26.5 -27.5 26.5 -46.5 q0 -45 -205 -311 l10 -866 q0 -66 -53 -66 ZM1419 -225 q-86 0 -317 162 q-129 92 -129 122 q0 25 37 25 q24 0 135.5 -44 q111.5 -44 214.5 -79 l6 891 l-485 -29 q-74 0 -96.5 20.5 q-22.5 20.5 -38 54.5 q-15.5 34 -15.5 46 q0 29 29 29 q10 0 29.5 -4 q19.5 -4 80.5 -4 q955 51 977.5 59 q22.5 8 38.5 8 q19 0 45 -18 q70 -43 70 -86 q0 -39 -57 -45 l-418 -25 l-4 -911 l4 -60 q0 -37 -35 -74.5 q-35 -37.5 -72 -37.5 Z" /><glyph glyph-name="uni4E3A" unicode="&#x4e3a;" d="M782 1192 q-18 0 -61 41 q-57 57 -254 188 q-39 25 -39 52 q0 22 23.5 51.5 q23.5 29.5 46.5 29.5 q20 0 43 -14 q325 -194 325 -250 q0 -30 -31.5 -64 q-31.5 -34 -52.5 -34 ZM1335 391 q-28 0 -53 31 q-104 145 -221 250 q-47 41 -47 67 q0 25 28.5 53.5 q28.5 28.5 55.5 28.5 q24 0 52 -24.5 q28 -24.5 82 -72.5 q54 -48 89 -79 q35 -31 76 -79 q41 -48 41 -74 q0 -29 -38 -65 q-38 -36 -65 -36 ZM1493 -184 q-47 0 -91 27.5 q-44 27.5 -132 88 q-88 60.5 -190.5 150.5 q-102.5 90 -102.5 123 q0 37 35 37 q26 0 89.5 -38 q63.5 -38 202 -107.5 q138.5 -69.5 156.5 -69.5 q8 0 8 6 q125 438 146 993 l-545 -29 q-82 -389 -309 -688 q-178 -231 -391 -372 q-170 -115 -232 -115 q-31 0 -31 33 q0 24 41 53 q373 258 566 618 q116 228 174 463 q-402 -22 -465 -24 q-57 0 -96 63 q-31 51 -31 72 q0 28 29 28 q12 0 36.5 -6 q24.5 -6 63.5 -6 l498 21 q32 186 32 389 q0 55 -8 74.5 q-8 19.5 -8 33.5 q0 33 37 33 q24 0 61 -10 q99 -35 99 -76 q-7 -248 -39 -436 l590 33 q38 0 74 -29 q36 -29 36 -55 q0 -25 -6 -39.5 q-6 -14.5 -8 -22.5 q-17 -354 -59 -612 q-42 -258 -61.5 -338 q-19.5 -80 -31.5 -135.5 q-12 -55.5 -52 -93 q-40 -37.5 -85 -37.5 Z" /><glyph glyph-name="uni4F20" unicode="&#x4f20;" d="M512 -211 q-35 0 -79 29.5 q-44 29.5 -44 75.5 q0 12 7 44.5 q7 32.5 12 944.5 q-56 -78 -172.5 -193 q-116.5 -115 -155.5 -115 q-25 0 -25 27 q0 19 31 62 q195 239 371 565 q147 274 147 342 q0 22 -4 39 q0 43 37 43 q25 0 57 -17 q90 -37 90 -84 q0 -10 -32 -79 q-80 -191 -197 -377 l6 -1252 q0 -55 -49 -55 ZM1505 -215 q-24 0 -57 33 q-234 219 -418 344 q-31 22 -31 45 q0 24 21.5 52 q21.5 28 42.5 28 q37 0 223 -142 q187 158 309 328 q-575 -39 -584.5 -41 q-9.5 -2 -17.5 -2 q-37 0 -71 41 q-27 29 -27 59 q0 11 6 29 q47 100 86 236 l-239 -15 q-107 0 -146 117 q-2 6 -2 16 q0 21 21 21 q10 0 34.5 -8 q24.5 -8 73.5 -8 l297 14 l66 215 q-158 -10 -195 -10 q-53 0 -92 75 q-17 33 -17 48 q0 24 21 24 q8 0 31.5 -8 q23.5 -8 77.5 -8 l210 12 q78 256 78 283 q0 24 -10 49 q-4 16 -4 26 q0 27 31 27 q28 0 83.5 -31.5 q55.5 -31.5 55.5 -66.5 q0 -19 -76 -279 q344 21 367.5 30 q23.5 9 38.5 9 q16 0 66 -37 q50 -37 50 -69.5 q0 -32.5 -63 -36.5 l-498 -29 l-63 -215 l594 31 q57 4 81.5 13 q24.5 9 38.5 9 q17 0 44.5 -22.5 q27.5 -22.5 50 -48 q22.5 -25.5 22.5 -39.5 q0 -33 -65 -37 l-807 -45 l-68 -230 l608 39 q68 0 100 -25.5 q32 -25.5 32 -54.5 q0 -20 -15.5 -36.5 q-15.5 -16.5 -19.5 -20.5 q-152 -201 -383 -414 q102 -75 159 -127 q29 -28 29 -53 q0 -26 -28.5 -60 q-28.5 -34 -51.5 -34 Z" /><glyph glyph-name="uni4F7F" unicode="&#x4f7f;" d="M1894 -178 q-16 0 -34 6 q-390 133 -721 348 q-156 -219 -496 -334 q-41 -12 -65 -12 q-37 0 -37 25 q0 32 67 63 q301 158 412 338 q-72 55 -118 79.5 q-46 24.5 -93 24.5 q-49 0 -98 -4 q-39 0 -55.5 14.5 q-16.5 14.5 -18.5 55.5 q0 49 18.5 58.5 q18.5 9.5 118.5 13.5 q64 0 135.5 -20.5 q71.5 -20.5 169.5 -94.5 q43 102 54 197 l-185 -11 l0 -2 q0 -57 -47 -57 q-41 0 -77 23.5 q-36 23.5 -36 58.5 l5 39 q0 31 -35 289 q-10 57 -27.5 88.5 q-17.5 31.5 -17.5 46.5 q0 28 41 28 q28 0 127 -30 l284 16 l0 148 l-340 -21 q-94 0 -123 119 q0 28 31 28 q12 0 36 -6 q24 -6 58 -6 l336 19 l-6 180 q0 39 -15.5 67.5 q-15.5 28.5 -15.5 42.5 q0 21 29 21 q19 0 51 -6 q105 -15 105 -80 l2 -219 q336 18 356.5 26.5 q20.5 8.5 38.5 8.5 q18 0 45 -21.5 q27 -21.5 45.5 -46.5 q18.5 -25 18.5 -37 q0 -35 -66 -39 l-436 -24 l0 -148 l332 19 q57 0 89.5 -27 q32.5 -27 32.5 -49.5 q0 -22.5 -7 -31.5 q-7 -9 -58 -269 q49 -55 49 -78 q0 -29 -24.5 -34 q-24.5 -5 -444.5 -21 q-29 -178 -78 -287 q336 -213 764 -332 q39 -14 39 -33 q0 -8 -16 -34 q-45 -76 -99 -76 ZM477 -180 q-14 0 -45 14 q-72 35 -72 86 q0 12 6.5 44 q6.5 32 12.5 913 q-107 -154 -219 -263 q-56 -51 -76 -51 q-31 0 -31 31 q0 22 29 61 q213 277 354 584 q58 123 86.5 208 q28.5 85 28.5 101 q0 27 -6 51 q0 31 37 31 q24 0 57 -12 q90 -35 90 -80 q0 -8 -20 -72 q-62 -170 -187 -381 l2 -1214 q0 -51 -47 -51 ZM1300 715 l259 12 l36 240 l-282 -19 q-4 -151 -13 -233 ZM932 698 l219 11 q10 108 14 233 l-262 -16 l29 -228 Z" /><glyph glyph-name="uni51FA" unicode="&#x51fa;" d="M1714 -217 q-12 0 -45 13.5 q-33 13.5 -61.5 37 q-28.5 23.5 -28.5 49.5 q0 15 16 103 l-1134 -82 q-37 -2 -61.5 -13.5 q-24.5 -11.5 -51.5 -11.5 q-33 0 -58.5 33 q-25.5 33 -25.5 53 l21 111 l16 346 q0 76 -14.5 98.5 q-14.5 22.5 -14.5 38.5 q0 23 31 23 q19 0 53 -9 q109 -24 109 -86 l-25 -424 l492 33 l2 625 q-420 -33 -439.5 -41 q-19.5 -8 -39.5 -8 q-23 0 -51.5 21.5 q-28.5 21.5 -28.5 45.5 q0 21 6 46.5 q6 25.5 14 396.5 q0 59 -17.5 84.5 q-17.5 25.5 -17.5 42.5 q0 22 33 22 q21 0 76 -18.5 q55 -18.5 69.5 -33.5 q14.5 -15 14.5 -42 l-10 -399 l391 30 l2 645 q0 54 -35 123 q0 29 39 29 q29 0 68 -10 q88 -29 88 -78 l-4 -698 l405 30 l0 322 q0 80 -18 104 q-11 15 -11 23 q0 24 27 24 q14 0 47 -6 q111 -20 111 -90 l-8 -590 q0 -53 -43 -53 q-43 0 -83 31 q-40 31 -40 61 l6 27 l-395 -31 l-5 -625 l512 35 l5 308 q0 73 -25 110 q-10 14 -10 29 q0 20 28 20 q19 0 54 -6 q112 -22 112 -92 l-10 -664 q0 -63 -37 -63 Z" /><glyph glyph-name="uni5206" unicode="&#x5206;" d="M1890 631 q-28 0 -47 12 q-479 369 -739 856 q-17 33 -48.5 49.5 q-31.5 16.5 -31.5 36.5 q0 45 94 45 q62 -2 82.5 -14 q20.5 -12 32.5 -41 q135 -279 430 -559 q147 -139 315 -252 q31 -19 31 -37 q0 -20 -27 -45 q-65 -51 -92 -51 ZM76 553 q-29 0 -29 31 q0 24 55 71 q265 215 443 494 q76 121 113.5 211 q37.5 90 37.5 136 q0 46 37 46 q29 0 87.5 -40 q58.5 -40 58.5 -68 q0 -13 -11 -33 q-145 -322 -361 -537 q-216 -215 -394 -301 q-17 -10 -37 -10 ZM1260 -178 q-78 0 -285 180 q-115 100 -115 137 q0 29 37 29 q29 0 107.5 -48 q78.5 -48 226.5 -102 q2 -2 6 -2 l4 9 q86 192 125 667 l-377 -26 q-127 -408 -424 -635 q-139 -107 -293 -178 q-34 -17 -57 -17 q-35 0 -35 27 q0 31 53 63 q443 287 588 727 l-254 -16 q-59 0 -94 70 q-24 49 -24 65 q0 21 24 21 q12 0 29.5 -5.5 q17.5 -5.5 52.5 -5.5 l852 56 q10 2 31 2 q47 0 76.5 -24.5 q29.5 -24.5 29.5 -51.5 q0 -25 -6 -38 q-6 -13 -8 -21 q-21 -343 -92 -637 q-60 -246 -178 -246 Z" /><glyph glyph-name="uni521D" unicode="&#x521d;" d="M623 1251 q-25 0 -73 63.5 q-48 63.5 -218 223.5 q-19 18 -19 41 q0 25 33 48.5 q33 23.5 51 23.5 q31 0 213 -170 q105 -97 105 -135 q0 -23 -36 -59 q-36 -36 -56 -36 ZM1680.5 -142 q-48.5 -46 -85 -46 q-36.5 0 -105.5 41 q-69 41 -175.5 140 q-106.5 99 -106.5 128 q0 29 37 29 q27 0 116 -54.5 q89 -54.5 202 -89.5 q2 -2 6 -2 l0 4 q112 426 121 1202 l-271 -18 q-37 -477 -239 -858 q-88 -166 -178.5 -281.5 q-90.5 -115.5 -161 -177 q-70.5 -61.5 -97.5 -61.5 q-34 0 -34 28 q0 27 52 86.5 q52 59.5 134 180.5 q322 477 358 1075 l-276 -19 q-47 0 -78 43 q-39 58 -39 78 q0 29 29 29 q10 0 28.5 -5 q18.5 -5 55.5 -5 l753 49 q125 0 125 -88 l-8 -54 q-12 -710 -94 -1177 q-20 -131 -68.5 -177 ZM588 -203 q-49 0 -84 32 q-35 32 -35 58 q0 21 6 50.5 q6 29.5 10 703.5 q-161 -186 -315 -283 q-59 -41 -76 -41 q-26 0 -26 27 q0 18 36 57 q377 396 533 697 q-358 -39 -383 -39 q-37 0 -66.5 27.5 q-29.5 27.5 -41 57.5 q-11.5 30 -11.5 40 q0 20 21 20 q10 0 25.5 -5 q15.5 -5 51.5 -5 q27 0 258.5 23.5 q231.5 23.5 245.5 23.5 q39 0 71 -24.5 q32 -24.5 32 -49.5 q0 -22 -12.5 -36.5 q-12.5 -14.5 -54.5 -91 q-42 -76.5 -150 -228.5 l0 -39 l77 -41 q111 125 111 195 q0 32 27 32 q18 0 45 -16 q75 -41 75 -86 q0 -43 -151 -194 q129 -82 148.5 -106 q19.5 -24 19.5 -38 q0 -12 -8 -35 q-27 -69 -66 -69 q-16 0 -83.5 61.5 q-67.5 61.5 -194.5 147.5 l10 -764 q0 -62 -45 -62 Z" /><glyph glyph-name="uni5236" unicode="&#x5236;" d="M248 958 l418 23 l0 160 l-248 -15 q-56 -71 -115 -125 q-35 -28 -55 -43 ZM1726 -229 q-26 0 -85.5 32.5 q-59.5 32.5 -177 127 q-117.5 94.5 -117.5 122.5 q0 27 30 27 q19 0 60 -14 q153 -66 237 -95 l4 1561 q0 41 -28 86 q-11 16 -11 29 q0 28 41 28 q29 0 80 -18.5 q51 -18.5 63.5 -34.5 q12.5 -16 12.5 -43 l-4 -1620 l2 -68 q0 -57 -41 -88.5 q-41 -31.5 -66 -31.5 ZM756 -193 q-29 0 -69 25 q-40 25 -40 62 q0 12 6 39.5 q6 27.5 9 611.5 l-224 -10 l17 -461 q0 -60 -47 -60 q-43 0 -77 30 q-34 30 -34 52 l10 101 l-12 333 q-4 62 -16.5 98 q-12.5 36 -12.5 54 q0 27 39 27 q27 0 121 -45 l238 12 l0 170 l-412 -25 q-62 0 -86 21 q0 4 -10 14 q-50 49 -50 88 q0 25 27 25 l62 -6 q-2 4 -2 10 q0 22 35.5 74.5 q35.5 52.5 80.5 134.5 q103 188 103 266 q0 53 34 53 q11 0 41 -14 q86 -37 86 -84 q0 -29 -30 -84 l-31 -53 l154 8 l2 203 q0 45 -14.5 71.5 q-14.5 26.5 -14.5 40.5 q0 29 41 29 q29 0 71 -15.5 q42 -15.5 54 -32 q12 -16.5 12 -44.5 l-2 -244 q232 14 258 25 q19 6 35 6 q16 0 43 -19 q61 -45 61 -84 q0 -36 -53 -43 l-344 -20 l-2 -158 l305 17 q58 6 75 12 q17 6 33.5 6 q16.5 0 43.5 -18 q61 -45 61 -84 q0 -35 -57 -41 l-461 -27 l-2 -172 l287 16 q51 0 85 -24.5 q34 -24.5 34 -46.5 q0 -21 -5.5 -32 q-5.5 -11 -7.5 -22 q-18 -374 -18 -426.5 q0 -52.5 -35 -87 q-35 -34.5 -61 -34.5 q-29 0 -150 75 q-121 82 -121 123 q0 23 29 23 q18 0 79.5 -23.5 q61.5 -23.5 116.5 -36.5 l17 377 l-250 -12 l-4 -684 q0 -60 -51 -60 ZM1501 307 q0 -57 -47 -57 q-47 0 -81 33.5 q-34 33.5 -34 54.5 q0 18 6.5 45 q6.5 27 6.5 100 l-2 686 q0 50 -31 101 l-2 10 q0 29 41 29 q31 0 73 -16.5 q42 -16.5 53 -33 q11 -16.5 11 -42.5 l6 -910 Z" /><glyph glyph-name="uni52A8" unicode="&#x52a8;" d="M915 102 q-24 0 -37.5 16.5 q-13.5 16.5 -66.5 170.5 q-246 -101 -395.5 -144 q-149.5 -43 -186.5 -43 q-41 0 -65.5 29 q-24.5 29 -36.5 63.5 q-12 34.5 -12 45.5 q0 18 20 18 l51 -6 q25 0 52 6 q131 285 229 580 q-193 -15 -217 -15 q-43 0 -72 33 q-55 62 -55 90 q0 10 2 10 q0 21 33 21 q49 -8 116 -8 q572 41 591.5 48 q19.5 7 33.5 7 q14 0 44 -17.5 q30 -17.5 52.5 -43 q22.5 -25.5 22.5 -45.5 q0 -37 -57 -44 l-340 -24 q-105 -315 -215 -555 q192 49 364 113 q-49 129 -90 194 q-12 25 -12 43 q0 27 22 39 q43 21 70 21 q28 0 49 -35 q109 -185 213 -477 q0 -37 -43 -64 q-43 -27 -64 -27 ZM1620 -174 q-35 0 -95.5 37 q-60.5 37 -154.5 129 q-94 92 -94 121 q0 34 35 34 q16 0 51 -20 q90 -57 157.5 -88 q67.5 -31 77.5 -31 l0 6 q70 265 99 627 q14 176 14 334 l-211 -14 q-98 -760 -549 -1098 q-43 -33 -65 -33 q-31 0 -31 23 q0 26 76 110 q315 346 413 989 l-135 -8 q-39 -4 -73 -4 q-41 0 -68 16 q-23 27 -41 65 q-18 38 -18 52 q0 25 22 25 q10 0 35 -5.5 q25 -5.5 70 -5.5 q20 0 225 13 q12 104 12 397 q0 57 -12 85 q-12 28 -12 42 q0 25 32 25 q23 0 74 -17 q86 -30 86 -94 q-6 -272 -24 -430 l245 14 q47 0 81 -21.5 q34 -21.5 34 -60.5 l-12 -53 q-17 -561 -92 -942 q-35 -219 -152 -219 ZM391 1266 l-31 0 q-63 0 -77 34 q-45 54 -45 91 q0 22 24 22 q82 -6 109 -6 q440 25 465.5 32 q25.5 7 46.5 7 q22 0 47.5 -19.5 q25.5 -19.5 44 -43 q18.5 -23.5 18.5 -40.5 q0 -40 -73 -45 l-529 -32 Z" /><glyph glyph-name="uni5316" unicode="&#x5316;" d="M559 -180 q-6 0 -36.5 7 q-30.5 7 -60.5 30.5 q-30 23.5 -30 54.5 q0 25 7 52.5 q7 27.5 18 930.5 q-82 -104 -170 -186 q-162 -154 -203 -154 q-25 0 -25 27 q0 18 52 80 q200 237 413 595 q135 228 135 295 q0 21 -2 33 q0 37 35 37 q23 0 60 -18 q86 -48 86 -88 q0 -29 -83 -177.5 q-83 -148.5 -141 -238.5 l-2 -1225 q0 -55 -53 -55 ZM1452 -104 q-149 0 -244.5 22.5 q-95.5 22.5 -129.5 76.5 q-34 54 -34 150 l3 414 q-252 -141 -320 -141 q-33 0 -33 24 q0 27 74 72 q174 104 281 184 l4 772 q0 46 -16.5 72.5 q-16.5 26.5 -16.5 40.5 q0 21 37 21 q26 0 76 -15 q84 -18 84 -71 l-5 -693 q191 156 353 351 q20 22 27 70 q7 48 30 48 q16 0 45 -26 q78 -66 78 -123 q0 -19 -12 -31 q-240 -276 -523 -455 l-2 -485 q0 -65 17 -84 q35 -45 256 -45 q241 0 283 53.5 q42 53.5 81 321.5 q15 102 53 102 q52 0 52 -215 q0 -104 -8 -190 q-21 -185 -182 -203 q-161 -18 -308 -18 Z" /><glyph glyph-name="uni534F" unicode="&#x534f;" d="M1419 -190 q-69 0 -256 194 q-100 111 -100 135 q0 31 31 31 q20 0 86 -47 q51 -37 217 -125 l0 2 q73 262 110 1047 l-229 -17 q-80 -602 -352 -981 q-82 -112 -145.5 -170.5 q-63.5 -58.5 -84.5 -58.5 q-30 0 -30 26 q0 19 21.5 48.5 q21.5 29.5 74.5 109.5 q266 399 356 1018 q-41 -4 -81 -7 q-40 -3 -64 -3 q-66 0 -109 80 q-16 28 -16 45 q0 24 26 24 q9 0 30.5 -5 q21.5 -5 64.5 -5 q24 0 170 10 q18 115 18 334 q0 53 -12 77.5 q-12 24.5 -12 33.5 q0 30 38 30 q29 0 72 -14 q43 -14 58.5 -27.5 q15.5 -13.5 15.5 -46.5 q0 -266 -19 -377 l285 19 q35 0 61.5 -26.5 q26.5 -26.5 26.5 -57.5 l-12 -47 q-49 -1092 -164 -1209 q-43 -40 -76 -40 ZM449 -195 q-117 27 -117 84 q0 23 10 82.5 q10 59.5 10 102.5 l6 874 q-155 -12 -176 -12 q-30 0 -67 18.5 q-37 18.5 -62 92.5 q-2 6 -2 18 q0 20 25 20 q12 0 40.5 -6 q28.5 -6 61.5 -6 q15 0 180 14 l4 410 q0 43 -14 68.5 q-14 25.5 -14 42.5 q0 22 31 22 q16 0 49 -4 q96 -16 96 -74 l-2 -452 q115 10 138.5 17 q23.5 7 39.5 7 q19 0 47.5 -15 q28.5 -15 52 -40 q23.5 -25 23.5 -47 q0 -37 -49 -43 l-252 -21 l-6 -1091 q0 -62 -53 -62 ZM713 301 q-11 0 -31 8 q-61 25 -61 68 q0 18 12 39 q110 202 182 452 q12 45 57 45 q41 0 63.5 -19.5 q22.5 -19.5 22.5 -37.5 q-47 -231 -194 -518 q-19 -37 -51 -37 ZM1880 297 q-51 0 -65 68 q-64 262 -132 456 q-6 19 -6 33 q0 29 23 43 q39 29 65 29 q35 0 54 -54 q163 -403 163 -505 q0 -19 -31.5 -44.5 q-31.5 -25.5 -70.5 -25.5 Z" /><glyph glyph-name="uni53D1" unicode="&#x53d1;" d="M1835 -184 q-27 0 -250 96 q-223 96 -471 254 q-203 -146 -454.5 -243 q-251.5 -97 -342.5 -97 q-45 0 -45 31 q0 34 96.5 69 q96.5 35 213.5 88 q262 121 415 240 q-135 119 -301 315 q-176 -276 -405 -469 q-96 -77 -123 -77 q-35 0 -35 30 q0 23 71.5 92.5 q71.5 69.5 164.5 190.5 q196 254 290 448 q48 103 89 213 l-293 -16 q-19 -2 -33 -10 q-14 -8 -41 -8 q-25 0 -62.5 22.5 q-37.5 22.5 -37.5 54.5 q0 17 4 35 q198 330 211 379 l6 68 l-8 63 q4 27 30 27 q25 0 70 -27 q76 -45 76 -90 q0 -43 -193 -373 l320 21 q92 321 92 397 q0 41 -8.5 67.5 q-8.5 26.5 -8.5 34.5 q0 33 37 33 q27 0 64 -10 q100 -37 100 -96 q-43 -223 -108 -416 l651 39 q41 2 63.5 10 q22.5 8 43 8 q20.5 0 50 -22.5 q29.5 -22.5 50 -48 q20.5 -25.5 20.5 -39.5 q-2 -35 -63 -39 l-862 -51 q-29 -78 -99 -217 l649 32 q50 0 90.5 -18.5 q40.5 -18.5 40.5 -52.5 q0 -2 0 -21.5 q0 -19.5 -19 -38 q-19 -18.5 -58 -81 q-39 -62.5 -126 -167 q-87 -104.5 -167 -182.5 q317 -201 698 -297 q37 -14 37 -49 q0 -35 -74 -84 q-26 -18 -55 -18 ZM1610 1274 q-39 -55 -74 -55 q-35 0 -63 38 q-89 127 -207 236 q-23 18 -23 45 q0 2 0 16.5 q0 14.5 33 37 q33 22.5 47 22.5 q14 0 51 -25.5 q37 -25.5 78 -65.5 q41 -40 81 -81 q40 -41 66.5 -77 q26.5 -36 26.5 -52.5 q0 -16.5 -16 -38.5 ZM1108 350 q166 158 268 332 l-567 -27 q135 -178 299 -305 Z" /><glyph glyph-name="uni53EA" unicode="&#x53ea;" d="M567 508 q-51 0 -84.5 33.5 q-33.5 33.5 -33.5 76.5 q6 44 6 107 l-45 557 q-4 64 -21.5 99.5 q-17.5 35.5 -17.5 50.5 q0 24 41 24 q28 0 143 -41 q934 53 956 53 q76 0 103 -61 q10 -21 10 -33 q0 -14 -8 -23.5 q-8 -9.5 -74 -543.5 q53 -62 53 -86 q0 -33 -30.5 -39 q-30.5 -6 -946.5 -43 l7 -64 q0 -67 -58 -67 ZM608 782 l778 33 l48 508 l-867 -47 l41 -494 ZM1710 -123 q-24 0 -53 35 q-199 254 -471 512 q-29 22 -29 51 q0 27 31 51.5 q31 24.5 51.5 24.5 q20.5 0 37.5 -14.5 q17 -14.5 56 -50 q39 -35.5 97.5 -91 q58.5 -55.5 124 -118 q65.5 -62.5 123 -121 q57.5 -58.5 96 -104.5 q38.5 -46 38.5 -66.5 q0 -20.5 -17 -46 q-17 -25.5 -39.5 -44 q-22.5 -18.5 -45.5 -18.5 ZM225 -129 q-30 0 -30 25 q0 26 47 67 q153 123 299.5 289 q146.5 166 169.5 260 q8 35 34 35 q21 0 49.5 -31 q28.5 -31 51 -66.5 q22.5 -35.5 22.5 -54.5 q0 -20 -14 -35 q-184 -219 -377.5 -354 q-193.5 -135 -251.5 -135 Z" /><glyph glyph-name="uni5668" unicode="&#x5668;" d="M1239 1235 l303 18 l29 205 l-348 -24 l16 -199 ZM475 1188 l281 20 l20 201 l-319 -23 l18 -198 ZM1223 -190 q-21 0 -49 14 q-62 29 -62 78 l6 49 q0 53 -18 328 q-2 53 -24.5 92 q-22.5 39 -22.5 55 q0 23 45 23 q32 0 135 -37 l395 18 q-51 14 -117 33 q-297 90 -514 291 q-116 -201 -385 -293 q-120 -41 -188 -53 l-21 2 q0 -4 50 -21 l387 19 q67 0 91.5 -31 q24.5 -31 24.5 -47 q0 -19 -7 -29 q-7 -10 -36 -283 q50 -61 50 -84 q0 -28 -25 -34 q-25 -6 -436 -17 l2 -16 q0 -62 -47 -62 q-23 0 -49 17 q-64 31 -64 80 q6 43 6 73 q0 17 -26 277 q-7 55 -26 89 q-19 34 -19 38 q-56 -8 -74 -8 q-37 0 -37 32 q0 35 63 52 q480 125 609 321 l-375 -18 q-170 0 -170 125 q0 22 20 22 q9 0 37.5 -8 q28.5 -8 73.5 -8 l485 22 q31 90 31 129 q0 39 -6 58 q-2 4 -2 8 q-6 -10 -21 -12 q-22 -7 -424 -33 l3 -19 q0 -55 -54 -55 q-45 0 -74.5 24.5 q-29.5 24.5 -29.5 59.5 q6 43 6 72 q0 26 -16 147 q-17 154 -38.5 186.5 q-21.5 32.5 -21.5 51.5 q0 24 39 24 q29 0 139 -39 l379 27 q60 0 89.5 -24.5 q29.5 -24.5 29.5 -45 q0 -20.5 -7 -29.5 q-7 -9 -42 -237 q31 -39 41 -61 q6 12 29 12 q20 0 53 -8 q88 -29 88 -72 q0 -47 -33 -157 l369 18 q-25 18 -138 80 q-38 18 -38 45 q0 20 16 45 q0 2 2 4 q-16 -2 -35 -2 l2 -16 q0 -56 -45 -56 q-37 0 -73.5 28 q-36.5 28 -36.5 54 q6 49 6 82 q-15 268 -45 320 q-23 36 -23 55 q0 24 39 24 q27 0 141 -38 l439 30 q32 0 60 -25.5 q28 -25.5 28 -47.5 q0 -21 -6.5 -30 q-6.5 -9 -51.5 -243 q43 -55 43 -76 q0 -28 -22 -34 q-21 -5 -330 -21 l2 0 q201 -84 201 -135 q0 -23 -8 -35 q12 6 65 21 q21 0 49 -19 q76 -47 76 -90 q0 -33 -59 -37 l-547 -26 q252 -195 729 -265 q39 -6 39 -26 q0 -17 -19 -43 q-43 -70 -90 -70 q-20 0 -75 12 q30 -22 30 -46.5 q0 -24.5 -7 -35 q-7 -10.5 -46 -282.5 q45 -64 45 -84 q0 -29 -26.5 -34 q-26.5 -5 -460.5 -15 l2 -31 q0 -63 -47 -63 ZM1262 37 l309 6 l22 252 l-348 -14 l17 -244 ZM492 18 l278 5 l21 249 l-320 -14 l21 -240 Z" /><glyph glyph-name="uni57FA" unicode="&#x57fa;" d="M111 57 q-29 0 -29 31 q0 23 45 51 q330 199 469 377 l-277 -10 q-53 0 -77.5 21.5 q-24.5 21.5 -43 53 q-18.5 31.5 -18.5 46.5 q0 22 25 22 q12 0 34.5 -5 q22.5 -5 75.5 -5 l351 14 l-7 600 l-204 -12 q-52 0 -74.5 19.5 q-22.5 19.5 -40.5 51 q-18 31.5 -18 46.5 q0 22 24 22 q72 -10 88 -10 l223 12 l-2 123 q0 43 -19.5 72 q-19.5 29 -19.5 41 q0 27 37 27 q27 0 80 -17.5 q53 -17.5 65.5 -37 q12.5 -19.5 12.5 -52.5 l0 -147 l428 26 l2 127 q0 53 -17.5 78 q-17.5 25 -17.5 39 q0 22 39 22 q27 0 79 -18 q52 -18 62.5 -39.5 q10.5 -21.5 10.5 -52.5 l-2 -148 q114 7 153 17 q27 8 41.5 8 q14.5 0 44.5 -12 q86 -37 86 -84 q0 -37 -51 -45 l-276 -17 l-13 -608 l248 10 q53 4 82 12.5 q29 8.5 49 8.5 q23 0 53.5 -17.5 q30.5 -17.5 53 -41 q22.5 -23.5 22.5 -42.5 q0 -34 -53 -43 l-414 -18 q230 -166 537 -272 q37 -9 37 -37 q0 -13 -35 -56 q-35 -43 -76 -43 q-10 0 -24 5 q-357 157 -633 395 l-426 -19 q-197 -243 -441 -372 q-184 -97 -249 -97 ZM813 1145 l424 26 l2 115 l-426 -26 l0 -115 ZM813 905 l422 23 l2 114 l-424 -24 l0 -113 ZM815 659 l418 19 l2 123 l-420 -23 l0 -119 ZM489 -158 q-86 0 -124.5 16.5 q-38.5 16.5 -61.5 90.5 q-2 6 -2 14 q0 25 29 25 q65 -17 112 -17 l506 13 l0 182 l-217 -8 q-121 0 -147 108 q-2 6 -2 19 q0 20 22 20 q10 0 38 -9 q28 -9 85 -9 l221 10 l0 92 q0 41 -18.5 69.5 q-18.5 28.5 -18.5 45.5 q0 24 29 24 q18 0 53 -8 q107 -24 107 -78 l-2 -141 q198 8 225 16.5 q27 8.5 43 8.5 q18 0 47 -16.5 q29 -16.5 51.5 -41 q22.5 -24.5 22.5 -43.5 q0 -37 -60 -41 l-329 -12 l-2 -184 l438 10 q35 0 78 11 q43 11 59 11 q19 0 45.5 -19 q26.5 -19 47 -46 q20.5 -27 20.5 -49 q0 -39 -58 -39 l-1237 -25 Z" /><glyph glyph-name="uni59CB" unicode="&#x59cb;" d="M1858 647 q-39 0 -64 47 l-76 140 q-637 -109 -747 -109 q-39 0 -68 28.5 q-29 28.5 -42 58.5 q-13 30 -13 38 q0 29 33 29 q30 -7 69 -7 q39 0 60 5 q299 559 299 663 l-9 53 q0 27 29 27 q19 0 55 -12 q101 -37 101 -88 q0 -23 -93.5 -225.5 q-93.5 -202.5 -211.5 -401.5 q196 20 465 61 q-62 97 -105 151 q-43 54 -43 74.5 q0 20.5 31 43 q31 22.5 55.5 22.5 q24.5 0 98 -89 q73.5 -89 172 -237.5 q98.5 -148.5 98.5 -179.5 q0 -12 -17 -34 q-43 -58 -77 -58 ZM106 -137 q-26 0 -26 31 q0 22 45 57 q197 149 348 393 q-121 129 -169 156.5 q-48 27.5 -48 83.5 q0 16 5 30.5 q5 14.5 14.5 47 q9.5 32.5 22.5 87 q13 54.5 24 93.5 q-121 -23 -140 -23 q-51 0 -87 53.5 q-36 53.5 -36 73.5 q0 29 27 29 q31 -6 55 -6 q33 0 213 18 q78 356 78 494 q0 39 -8 60.5 q-8 21.5 -8 25.5 q0 26 35 26 q24 0 61 -10 q92 -31 92 -92 q-31 -229 -90 -487 l174 22 q2 18 2 49 q0 39 -7 60.5 q-7 21.5 -7 33.5 q0 23 29 23 q16 0 53 -10 q102 -33 102 -78 q0 -41 -4 -53 l98 16 q66 0 66 -29 q0 -26 -40 -41.5 q-40 -15.5 -136 -42.5 q-41 -352 -182 -587 q253 -250 253 -287 q0 -12 -13 -36 q-13 -24 -32.5 -44 q-19.5 -20 -42 -20 q-22.5 0 -43.5 24 q-127 158 -200 240 q-117 -164 -275.5 -272.5 q-158.5 -108.5 -202.5 -108.5 ZM547 467 q90 174 129 451 l-193 -46 q-34 -145 -73 -278 q65 -53 137 -127 ZM1151 -207 q-43 0 -85 31 q-42 31 -42 61 l8 86 l-28 459 q-5 66 -33 123 q-6 12 -6 20 q0 27 43 27 q32 0 135 -37 l559 31 q65 0 99 -27.5 q34 -27.5 34 -54.5 q0 -25 -8 -36 q-8 -11 -64 -408 q54 -68 54 -91 q0 -28 -27 -33 q-27 -5 -600 -18 l6 -67 q0 -66 -45 -66 ZM1182 66 l432 12 l37 373 l-496 -25 l27 -360 Z" /><glyph glyph-name="uni5E94" unicode="&#x5e94;" d="M121 -176 q-29 0 -29 35 q0 26 19 57 q141 252 201.5 512 q60.5 260 60.5 664 q0 170 -27 233 q-6 12 -6 23 q0 18 37 18 q29 0 149 -66 l475 29 l-2 199 q0 33 -19 58.5 q-19 25.5 -19 41.5 q0 25 30 25 q21 0 56 -6 q110 -19 110 -78 l-4 -232 l457 27 q59 4 81.5 16.5 q22.5 12.5 43.5 12.5 q18 0 68 -40 q50 -40 50 -75 q0 -31 -61 -39 l-1257 -76 q0 -581 -117 -891 q-96 -249 -223 -391 q-52 -57 -74 -57 ZM524 -74 q-69 0 -92 29 q-51 61 -51 111 q0 22 20 22 q9 0 39.5 -10 q30.5 -10 77.5 -10 l727 22 q68 100 123 193 q150 260 211 516 q4 18 4 35 q0 24 -6 47.5 q-6 23.5 -6 38.5 q0 38 49 38 q39 0 93 -32.5 q54 -32.5 54 -63.5 q0 -12 -4 -26 q-90 -410 -344 -742 l305 8 q25 0 111 15 q41 0 98 -64 q27 -26 27 -47 q0 -41 -62 -45 l-1374 -35 ZM895 225 q-41 0 -59 51 q-82 216 -205 414 q-23 37 -23 58 q0 20 43 47 q21 16 43 16 q33 0 58 -41 q247 -381 247 -469 q0 -27 -47 -55 q-30 -21 -57 -21 ZM1225 434 q-45 0 -66 51 q-84 275 -180 471 q-21 39 -21 56 q0 24 46 47 q20 12 38 12 q68 0 193 -301 q94 -231 94 -264 q0 -29 -55 -57 q-29 -15 -49 -15 Z" /><glyph glyph-name="uni636E" unicode="&#x636e;" d="M461 -172 q-66 0 -186.5 125 q-120.5 125 -120.5 170 q0 22 26 22 q17 0 85.5 -47 q68.5 -47 156.5 -78 l2 484 l-18 -12 q-35 -19 -115 -64 q-80 -45 -107 -45 q-73 0 -137 96 q-6 13 -6 19 q0 22 27.5 26 q27.5 4 76 17.5 q48.5 13.5 281.5 113.5 l2 361 q-180 -15 -201 -15 q-65 0 -98 76 q-10 27 -13 31 q-3 4 -3 18 q0 21 24 21 q33 -8 76 -8 q18 0 215 14 l2 326 q0 51 -35 106 q-8 12 -8 23 q0 26 33 26 q22 0 57 -8 q103 -24 103 -90 l-2 -375 l79 6 q27 2 55.5 14.5 q28.5 12.5 41.5 12.5 q14 0 43 -18 q77 -50 77 -86 q0 -35 -61 -43 l-238 -21 l-2 -301 q99 45 203 102 q29 15 47 15 q29 0 29 -27 q0 -49 -279 -223 l-4 -553 l4 -84 q0 -57 -37.5 -92 q-37.5 -35 -74.5 -35 ZM733 -86 q-31 -51 -57.5 -51 q-26.5 0 -26.5 35 q0 22 13 55 q243 586 243 1212 l0 142 q0 153 -24 196 q-13 25 -13 39 q0 23 45 23 q33 0 136 -37 l714 49 q95 -35 95 -86 q0 -16 -8.5 -28.5 q-8.5 -12.5 -49.5 -256.5 q51 -57 51 -80 q0 -28 -23.5 -33.5 q-23.5 -5.5 -770.5 -45.5 q-13 -256 -51 -447 q-82 -381 -273 -686 ZM1059 1174 l590 36 l28 228 l-618 -39 q2 -15 2 -107 q0 -96 -2 -118 ZM1243 -180 q-20 0 -53 12 q-64 27 -64 96 q4 37 4 70 l-24 315 q-4 45 -23.5 80 q-19.5 35 -19.5 45 q0 27 47 27 q35 0 133 -39 l143 8 l0 232 l-229 -13 q-49 0 -63 11 q-60 53 -60 104 q0 23 23 23 q61 -11 86 -11 l243 11 l0 135 q0 43 -16 67.5 q-16 24.5 -16 38.5 q0 23 32 23 q23 0 71 -17.5 q48 -17.5 62.5 -29 q14.5 -11.5 14.5 -37.5 l-4 -174 q248 10 282 20 q25 6 39 6 q17 0 41 -16 q66 -41 66 -80 q0 -33 -47 -39 l-381 -18 l-6 -230 l207 11 q51 0 84.5 -28 q33.5 -28 33.5 -46.5 q0 -18.5 -7 -26.5 q-7 -8 -54 -293 q45 -61 45 -84 q0 -30 -29 -30 q-55 -4 -522 -13 l4 -49 q0 -61 -43 -61 ZM1274 55 l373 11 l32 260 l-424 -21 l19 -250 Z" /><glyph glyph-name="uni63A5" unicode="&#x63a5;" d="M1100 1214 q26 -10 96 -112 q74 -111 74 -146 q0 -22 -37 -47 q-8 -8 -16 -12 l133 6 q49 94 72.5 169 q23.5 75 23.5 93 l-6 45 q0 17 8 25 l-348 -21 ZM946 1204 q-53 0 -78 19 q-2 6 -30.5 36.5 q-28.5 30.5 -28.5 55.5 q0 31 22 31 q13 0 33.5 -6.5 q20.5 -6.5 55.5 -6.5 l313 19 l-6 149 q-4 41 -23.5 64.5 q-19.5 23.5 -19.5 38.5 q0 22 41 22 q157 0 157 -78 l-2 -188 q265 16 291.5 24.5 q26.5 8.5 44.5 8.5 q21 0 47 -19 q70 -45 70 -80 q0 -37 -72 -41 l-258 -16 q17 -4 39 -14 q76 -35 76 -78 q0 -19 -54.5 -110 q-54.5 -91 -78.5 -126 q287 15 312.5 23 q25.5 8 41.5 8 q19 0 45 -20 q62 -52 62 -91 q0 -30 -64 -34 l-573 -29 q39 -18 39 -57 q0 -13 -64 -142 q526 25 555 33 q29 8 51 8 q27 0 47.5 -23.5 q20.5 -23.5 32.5 -47 q12 -23.5 12 -29.5 q0 -35 -61 -39 l-303 -14 q-68 -183 -162 -299 q119 -52 246 -117.5 q127 -65.5 139 -78.5 q12 -13 12 -28 q0 -10 -4 -36 q-14 -76 -63 -76 q-19 0 -156 83 q-137 83 -272 152 q-184 -172 -557 -235 q-72 -13 -103 -13 q-41 0 -41 31 q0 33 72 53 q340 99 490 230 q-82 41 -205 76 q-49 10 -49 84 q0 26 12 43 q49 51 76 106 l-219 -10 q-58 0 -96 12 q-38 12 -70 86 q-4 14 -4 23 q0 18 22 18 q10 0 30.5 -5 q20.5 -5 65.5 -5 q31 0 338 14 q68 133 68 199 l-297 -17 q-84 0 -111 27 q-10 -20 -219 -174 l-4 -561 l4 -76 q0 -53 -34.5 -93 q-34.5 -40 -86.5 -40 q-49 0 -178 115 q-123 112 -123 157 q0 27 31 27 q20 0 79.5 -37 q59.5 -37 158.5 -78 l2 482 q-172 -115 -226 -115 q-14 0 -28 4 q-56 29 -80 66 l-25 36 q0 27 27.5 30 q27.5 3 75 19.5 q47.5 16.5 258.5 116.5 l2 369 q-170 -14 -193 -14 q-71 0 -112 106 q-3 6 -3 18 q0 21 25 21 q33 -8 74 -8 q20 0 209 14 l2 322 q0 57 -33 106 q-8 12 -8 23 q0 26 37 26 q26 0 74.5 -17.5 q48.5 -17.5 63.5 -36.5 q15 -19 15 -46 l-2 -369 q31 2 59.5 4 q28.5 2 57.5 14.5 q29 12.5 43 12.5 q14 0 42 -16.5 q28 -16.5 51.5 -42 q23.5 -25.5 23.5 -45.5 q0 -39 -62 -43 l-215 -19 l-2 -301 l180 102 q-10 23 -10 35 q0 23 23 23 q71 -10 106 -10 l285 14 q-2 2 -4 4 q-11 14 -36.5 78.5 q-25.5 64.5 -59 114 q-33.5 49.5 -33.5 71.5 q0 25 32 39 q23 8 35 12 l-133 -8 ZM1317 217 q86 100 131 232 l-234 -13 q-53 -94 -88 -139 q70 -25 191 -80 Z" /><glyph glyph-name="uni63A7" unicode="&#x63a7;" d="M838 860 q-29 0 -65 23.5 q-36 23.5 -36 45 q0 21.5 16.5 54.5 q16.5 33 24.5 51 q-8 -2 -16 -4 l-203 -18 l0 -320 q211 92 238.5 92 q27.5 0 27.5 -24.5 q0 -24.5 -71.5 -71.5 q-71.5 -47 -194.5 -121 l-2 -542 l4 -72 q0 -57 -39 -93 q-39 -36 -67 -36 q-70 0 -244 160 q-102 94 -102 137 q0 24 26.5 24 q26.5 0 107.5 -49 q81 -49 160 -78 l3 463 q-66 -32 -124.5 -63 q-58.5 -31 -90 -31 q-31.5 0 -64.5 21.5 q-33 21.5 -56.5 49 q-23.5 27.5 -23.5 48 q0 20.5 24.5 23.5 q24.5 3 73 10.5 q48.5 7.5 261.5 91.5 l2 370 q-150 -12 -185 -12 q-35 0 -55 23 q-53 69 -53 96 q0 27 24 27 q13 0 34.5 -6.5 q21.5 -6.5 52 -6.5 q30.5 0 182.5 15 l2 323 q0 51 -37 113 l-2 10 q0 29 31.5 29 q31.5 0 80.5 -16.5 q49 -16.5 63.5 -33 q14.5 -16.5 14.5 -42.5 l-2 -373 q70 6 91.5 13 q21.5 7 40 7 q18.5 0 57 -24.5 q38.5 -24.5 55.5 -46.5 q49 129 78 252 q10 49 51 49 q96 0 96 -56 q0 -22 -10 -51 l233 15 l0 188 q0 45 -15 68.5 q-15 23.5 -15 37.5 q0 29 29.5 29 q29.5 0 62.5 -6 q94 -23 94 -61 l-4 -248 l405 24 q66 0 98.5 -32.5 q32.5 -32.5 32.5 -55 q0 -22.5 -15 -37 q-15 -14.5 -21 -22.5 q-142 -272 -201 -272 q-33 0 -33 30 q0 21 20.5 86.5 q20.5 65.5 45.5 163.5 l-754 -41 q-86 -297 -143 -297 ZM834 -100 q-105 0 -136 92 l-10 37 q0 28 29 28 q10 0 43 -7 q33 -7 76 -7 l399 12 l6 396 l-194 -9 q-46 0 -76.5 21.5 q-30.5 21.5 -55.5 91.5 q-2 6 -2 14 q0 25 25 25 q12 0 43 -8 q31 -8 63 -8 l459 22 l105 16 q43 0 86 -39.5 q43 -39.5 43 -66.5 q0 -37 -54 -43 l-286 -12 l-8 -396 q405 13 428.5 20 q23.5 7 34 7 q10.5 0 41 -15.5 q30.5 -15.5 57 -41 q26.5 -25.5 26.5 -56.5 q0 -43 -49 -43 l-1093 -30 ZM778 553 q-30 0 -30 29 q0 22 32 49 q205 178 307 336 q15 22 15 57 l0 20 q0 31 35 31 q18 0 73.5 -19.5 q55.5 -19.5 69.5 -74.5 q-2 -18 -8 -27 q-166 -231 -424 -372 q-53 -29 -70 -29 ZM1854.5 660.5 q-13.5 -23.5 -35 -41 q-21.5 -17.5 -39 -17.5 q-17.5 0 -58.5 43 q-106 137 -319 309 q-33 27 -33 51.5 q0 24.5 37 53.5 q29 18 45 18 q16 0 32.5 -4 q16.5 -4 200 -169 q183.5 -165 183.5 -208 q0 -12 -13.5 -35.5 Z" /><glyph glyph-name="uni6536" unicode="&#x6536;" d="M1938.5 -142.5 q-29.5 -17.5 -48 -17.5 q-18.5 0 -94.5 62 q-188 157 -399 428 q-105 -150 -300.5 -312.5 q-195.5 -162.5 -260.5 -162.5 q-35 0 -35 28.5 q0 28.5 45 61.5 q252 196 459 512 q-136 196 -220 411 q-112 -174 -202 -252 q-25 -18 -41 -18 q-25 0 -25 31 q0 20 45 92 q144 227 275 602 q73 213 73 283 q0 18 -2 28 q0 33 35 33 q25 0 58.5 -20.5 q33.5 -20.5 61.5 -49 q28 -28.5 28 -43.5 q0 -12 -36 -117.5 q-36 -105.5 -112 -271.5 l461 29 q35 2 66.5 13.5 q31.5 11.5 50.5 11.5 q20 0 48.5 -22.5 q28.5 -22.5 49 -49.5 q20.5 -27 20.5 -43 q0 -33 -57 -39 l-162 -10 q-86 -350 -239 -598 q231 -291 512 -486 q26 -18 26 -34.5 q0 -16.5 -25.5 -39 q-25.5 -22.5 -55 -40 ZM721 -190 q-29 0 -75 23.5 q-46 23.5 -46 70.5 q0 12 10.5 71.5 q10.5 59.5 10.5 102.5 l2 373 q-365 -244 -408 -244 q-43 0 -74 22 q-53 43 -75 95 q0 24 43 31 q43 7 151 57 l4 880 q0 51 -15.5 72.5 q-15.5 21.5 -15.5 32.5 q0 28 37 28 q25 0 56 -8 q86 -20 86 -55 l-11 -887 q41 19 103.5 48.5 q62.5 29.5 120.5 60.5 l6 917 q0 43 -14.5 68.5 q-14.5 25.5 -14.5 42.5 q0 22 31 22 q16 0 49 -4 q100 -14 100 -74 l-8 -1685 q0 -61 -53 -61 ZM1382 596 q103 199 158 451 l-364 -23 l-2 -4 q83 -238 208 -424 Z" /><glyph glyph-name="uni6570" unicode="&#x6570;" d="M987 -188 q-26 0 -26 28 q0 21 32 54 q267 264 416 544 q-84 162 -158 391 q-51 -98 -106 -169.5 q-55 -71.5 -80 -71.5 q-25 0 -25 33 q0 22 17 57 q178 395 241 733 q21 117 21 135 q0 17 -6 45 q0 35 33 35 q14 0 47 -12 q98 -43 98 -96 q0 -23 -40 -162 q-40 -139 -65 -207 l322 20 q41 5 72.5 15 q31.5 10 52.5 10 q22 0 51 -23 q64 -51 64 -84 q0 -28 -54 -34 l-120 -9 q-76 -356 -207 -612 q157 -260 430 -487 q26 -23 26 -41.5 q0 -18.5 -44 -49 q-44 -30.5 -70 -30.5 q-29 0 -47 18 q-228 226 -371 455 q-125 -201 -307 -356 q-152 -129 -197 -129 ZM162 662 q-31 0 -31 24.5 q0 24.5 37 52.5 q180 135 330 305 l-181 -12 q-47 0 -80.5 14.5 q-33.5 14.5 -52.5 81.5 q-2 7 -2 17 q0 18 21 18 q10 0 27.5 -5 q17.5 -5 48.5 -5 l294 18 l0 308 q0 49 -11 71.5 q-11 22.5 -11 36.5 q0 23 29 23 q18 0 47 -6 q90 -19 90 -70 l-2 -356 q270 20 288.5 26 q18.5 6 38.5 6 q23 0 57 -33.5 q34 -33.5 34 -58.5 q0 -31 -56 -37 l-364 -24 q4 -6 26 -6 q27 0 141.5 -68 q114.5 -68 148.5 -92.5 q34 -24.5 34 -50.5 q0 -25 -23.5 -55.5 q-23.5 -30.5 -42 -30.5 q-18.5 0 -45.5 18 q-104 90 -239 168 l-2 -182 q0 -64 -43 -64 q-37 0 -71 27 q-34 27 -34 57 q10 62 10 137 q0 21 -2 25 l9 14 l-9 -10 q-153 -158 -321 -246 q-70 -36 -88 -36 ZM743 1186 q-22 0 -22 24 q0 17 59 84 q111 127 111 199 q6 39 31 39 q10 0 34 -19 q76 -47 76 -81.5 q0 -34.5 -86 -110.5 q-155 -135 -203 -135 ZM463 1180 q-23 0 -49 34 q-68 93 -133 158 q-17 23 -17 39 q0 14 20.5 38 q20.5 24 43.5 24 q26 0 141 -119 q74 -76 74 -103 q0 -18 -30 -44.5 q-30 -26.5 -50 -26.5 ZM1483 592 q78 190 123 446 l-267 -16 l-4 -10 q68 -258 148 -420 ZM143 -172 q-43 0 -43 27 q0 32 95 67 q208 74 356 211 q-113 62 -159 73 q-46 11 -46 68 q0 19 57 121 q-163 -16 -176 -16 q-90 0 -125 125 q0 33 23 33 q12 0 36.5 -6.5 q24.5 -6.5 74.5 -6.5 l237 11 q49 108 49 156 q0 48 25 48 q14 0 41 -16 q78 -47 78 -90 q0 -21 -31 -88 l162 16 q8 31 8 53 l-2 31 q0 33 31 33 q22 0 49 -16 q73 -39 73 -89 l136 13 q59 0 59 -33 q0 -37 -68.5 -50.5 q-68.5 -13.5 -152.5 -25.5 q-66 -190 -164 -313 q113 -66 173 -106 q60 -40 60 -68 q0 -25 -18 -64 q-18 -39 -47 -39 q-25 0 -94.5 58.5 q-69.5 58.5 -171.5 117.5 q-193 -180 -473 -227 l-52 -8 ZM645 229 q72 88 119 220 l-195 -31 q-18 -33 -35.5 -64.5 q-17.5 -31.5 -29.5 -50.5 q41 -18 141 -74 ZM571 940 l0 2 q-2 0 -6 -14 l6 12 Z" /><glyph glyph-name="uni672C" unicode="&#x672c;" d="M1038 -217 q-45 0 -96 47 q-20 20 -20 41 q0 18 8 55 q8 37 8 289 l-236 -10 q-96 0 -118 22 q-37 37 -52 90 q-2 7 -2 17 q0 20 21 20 q8 0 30.5 -6 q22.5 -6 57.5 -6 l299 12 l0 568 q-113 -197 -258 -360 q-145 -163 -273 -265 q-128 -102 -217.5 -149.5 q-89.5 -47.5 -109.5 -47.5 q-31 0 -31 29 q0 21 37 51 q281 205 535 533 q135 170 239 356 l-463 -25 q-39 0 -82 15 q-53 16 -75 106 q0 29 28 29 q11 0 29 -5 q18 -5 68 -5 q30 0 573 30 l0 347 q0 47 -18.5 73.5 q-18.5 26.5 -18.5 38.5 q0 27 39 27 l21 -4 q131 -13 131 -84 l0 -389 l493 28 q64 6 82.5 13.5 q18.5 7.5 34.5 7.5 q16 0 47 -21.5 q31 -21.5 54.5 -48 q23.5 -26.5 23.5 -43.5 q0 -35 -64 -39 l-606 -33 q176 -233 385 -447 q209 -214 465 -347 q35 -21 35 -35 q0 -14 -44 -51 q-44 -37 -73 -37 q-29 0 -57 18 q-490 320 -776 768 l0 -596 l208 9 q50 4 76.5 13 q26.5 9 47 9 q20.5 0 48 -19.5 q27.5 -19.5 45 -44 q17.5 -24.5 17.5 -40.5 q0 -45 -66 -49 l-376 -17 l0 -371 q0 -67 -54 -67 Z" /><glyph glyph-name="uni6765" unicode="&#x6765;" d="M1024 -236 q-31 0 -74 26 q-43 26 -43 71 q13 86 13 139 l2 494 q-234 -299 -535 -471 q-119 -70 -198.5 -101 q-79.5 -31 -100.5 -31 q-31 0 -31 25 q0 31 68 72 q436 262 725 645 l-543 -25 q-45 0 -57 15 q-55 65 -55 110 q0 21 22 21 q62 -11 78 -11 l629 33 l2 481 q-492 -30 -529 -30 q-37 0 -67 33 q-39 49 -39 90 q0 20 24 20 q62 -10 78 -10 l535 35 l0 174 q0 43 -14.5 69.5 q-14.5 26.5 -14.5 40.5 q0 29 31 29 q45 0 80 -16 q41 -17 56 -32 q15 -15 15 -44 l-2 -213 q480 29 499 36 q19 7 37.5 7 q18.5 0 45.5 -16.5 q27 -16.5 48.5 -41 q21.5 -24.5 21.5 -45.5 q0 -36 -62 -40 l-590 -37 l-2 -484 q621 31 641.5 38 q20.5 7 37 7 q16.5 0 44.5 -18 q72 -43 72 -86 q0 -37 -62 -41 l-680 -33 q226 -233 498 -401 q150 -92 330 -182 q39 -17 39 -41 q0 -23 -44 -59 q-44 -36 -65 -36 q-18 0 -121.5 53.5 q-103.5 53.5 -296.5 194.5 q-241 172 -395 338 l-4 -688 q0 -64 -47 -64 ZM1143 795 q-27 0 -27 26 q0 19 35 53 q231 242 260 373 q8 39 39 39 q16 0 44 -21.5 q28 -21.5 50.5 -51 q22.5 -29.5 22.5 -54.5 q0 -26 -37 -69 q-72 -84 -205 -189.5 q-133 -105.5 -182 -105.5 ZM812 840.5 q-30 -33.5 -56.5 -33.5 q-26.5 0 -53.5 33 q-108 141 -229 245 q-22 23 -22 47.5 q0 24.5 29.5 49 q29.5 24.5 47.5 24.5 q17 0 53.5 -27.5 q36.5 -27.5 80 -68.5 q43.5 -41 84 -84 q40.5 -43 68.5 -80 q28 -37 28 -53 q0 -19 -30 -52.5 Z" /><glyph glyph-name="uni6D41" unicode="&#x6d41;" d="M1690 688 q-19 0 -34.5 13.5 q-15.5 13.5 -43 49 q-27.5 35.5 -74.5 99.5 q-553 -125 -756 -125 q-26 0 -50.5 29.5 q-24.5 29.5 -39 61.5 q-14.5 32 -14.5 44 q0 21 39 21 q41 -7 82 -7 l63 7 q111 147 193 309 l-275 -16 q-28 0 -64 12 q-36 12 -69 82 q-8 16 -8 28 q0 23 25 23 q14 0 34.5 -5 q20.5 -5 59.5 -5 l372 24 l-2 187 q0 51 -16 73.5 q-16 22.5 -16 36.5 q0 23 32 23 q21 0 54 -6 q104 -19 104 -84 l-2 -222 q324 21 360.5 30 q36.5 9 63.5 9 q27 0 54.5 -22.5 q27.5 -22.5 45 -46 q17.5 -23.5 17.5 -35.5 q0 -39 -70 -43 l-534 -33 q-109 -190 -191 -303 q174 18 412 61 q-12 15 -60.5 59 q-48.5 44 -55.5 52 q-7 8 -7 25 q0 18 29.5 42.5 q29.5 24.5 52 24.5 q22.5 0 41 -15.5 q18.5 -15.5 53.5 -47.5 q283 -258 283 -320 q0 -30 -36 -60 q-36 -30 -52 -30 ZM551 1167 q-21 0 -79 66.5 q-58 66.5 -200 181.5 q-28 27 -28 49 q0 21 21.5 49.5 q21.5 28.5 41.5 28.5 q47 0 228 -158 q104 -92 104 -120 q0 -31 -36 -64 q-36 -33 -52 -33 ZM440 741 q-20 0 -51 27 q-143 133 -260 209 q-33 22 -33 47 q0 23 19.5 52.5 q19.5 29.5 40.5 29.5 q41 0 250 -145 q116 -91 116 -123.5 q0 -32.5 -31.5 -64.5 q-31.5 -32 -50.5 -32 ZM1681 -139 q-82 0 -131 10 q-120 25 -120 184 l2 557 q0 47 -16.5 67.5 q-16.5 20.5 -16.5 37.5 q0 22 37 22 q26 0 69 -13 q43 -13 59.5 -31.5 q16.5 -18.5 16.5 -45.5 l-4 -577 q0 -45 12.5 -54.5 q12.5 -9.5 84 -9.5 q71.5 0 101 8.5 q29.5 8.5 39 20.5 q9.5 12 18.5 43 q9 31 19.5 89 q10.5 58 24.5 138 q14 80 51 80 q37 0 37 -86 q2 -27 2 -78 q0 -141 -9 -209.5 q-9 -68.5 -41 -102.5 q-32 -34 -93.5 -42 q-61.5 -8 -141.5 -8 ZM1219 -109 q-43 0 -76 29 q-33 29 -33 74 q8 59 12 569 q0 53 -17.5 78 q-17.5 25 -17.5 43 q0 27 31 27 q154 0 154 -99 l-2 -659 q0 -62 -51 -62 ZM504 -164 q-33 0 -33 23 q0 26 51 69 q109 88 176 183 q131 176 140 481 q0 33 -13.5 53.5 q-13.5 20.5 -13.5 36.5 q0 23 29 23 q153 0 153 -103 q-14 -272 -112.5 -459.5 q-98.5 -187.5 -311.5 -283.5 q-45 -23 -65 -23 ZM260 -84 q-53 6 -95 32.5 q-42 26.5 -42 47.5 q0 14 36 38.5 q36 24.5 58 59.5 q205 312 318 535 q34 67 65 67 q29 0 29 -39 q0 -28 -33 -125 q-80 -225 -242 -518 q-24 -45 -42.5 -71.5 q-18.5 -26.5 -51.5 -26.5 Z" /><glyph glyph-name="uni7684" unicode="&#x7684;" d="M1626 -186 q-51 0 -82 20.5 q-31 20.5 -78 55 q-47 34.5 -98 78.5 q-51 44 -90 83 q-39 39 -39 60 q0 28 37 28 q27 0 99.5 -44 q72.5 -44 211.5 -97 q4 0 6 8 q90 350 103 1092 l-494 -33 q-88 -150 -159.5 -244 q-71.5 -94 -100.5 -94 q-22 0 -22 33 q0 22 62 136 q62 114 149.5 347.5 q87.5 233.5 87.5 321.5 l-5 32 q0 37 33 37 q8 0 43 -16 q101 -43 101 -94 q0 -58 -123 -314 l493 29 q39 0 70 -22.5 q31 -22.5 31 -59.5 l-7 -47 q-16 -551 -73 -1016 q-35 -280 -156 -280 ZM360 -111 q-51 0 -82.5 27 q-31.5 27 -31.5 59 l14 103 l-18 956 q0 56 -23 92 q-16 33 -16 48 q0 22 43 22 q33 0 129 -37 l8 0 q154 287 154 361 l-5 30 q0 37 37 37 q49 0 90 -31.5 q41 -31.5 41 -62.5 q0 -29 -75 -168 q-66 -115 -95 -158 q265 15 289 15 q68 0 90 -56 l6 -20 l-10 -43 l-33 -905 q50 -64 50 -88 q0 -33 -25 -39 q-25 -6 -491 -23 l2 -55 q0 -64 -48 -64 ZM393 672 l352 18 l11 354 l-369 -20 l6 -352 ZM1436 369 q-21 0 -52 41 q-63 100 -141 194 q-78 94 -112.5 127 q-34.5 33 -34.5 57.5 q0 24.5 26.5 49 q26.5 24.5 48.5 24.5 q21 0 73 -50 q52 -50 171 -185 q119 -135 119 -164 q0 -49 -59 -80 q-23 -14 -39 -14 ZM403 147 l326 13 l12 395 l-346 -16 l8 -392 Z" /><glyph glyph-name="uni7A0B" unicode="&#x7a0b;" d="M545 -201 q-21 0 -49 15 q-60 26 -60 75 q0 15 6.5 47.5 q6.5 32.5 6.5 157.5 q2 373 6 516 q-17 -30 -111 -168 q-113 -166 -178.5 -228 q-65.5 -62 -85.5 -62 q-25 0 -25 28 q0 21 23 56 q215 319 348 671 l-217 -16 q-23 0 -57.5 13.5 q-34.5 13.5 -63.5 86.5 l-2 21 q0 22 25 22 l86 -8 q22 0 258 18 l2 240 q-224 -70 -271 -70 q-59 0 -59 29 q0 29 67.5 54.5 q67.5 25.5 204 89 q136.5 63.5 252.5 141.5 q31 18 45.5 49 q14.5 31 38.5 31 q21 0 46.5 -28 q25.5 -28 44 -60.5 q18.5 -32.5 18.5 -44.5 q0 -15 -6 -23 q-19 -33 -246 -121 l0 -278 q153 10 176 18 q23 8 41 8 q18 0 63.5 -31.5 q45.5 -31.5 45.5 -62.5 q0 -37 -50 -43 l-276 -22 l0 -89 l18 0 q33 0 144 -110 q118 -111 118 -146 q0 -36 -31.5 -61 q-31.5 -25 -52.5 -25 q-22 0 -51 35 q-69 101 -145 172 l2 -835 q0 -62 -49 -62 ZM1083 866 q-28 0 -63 21.5 q-35 21.5 -35 68.5 q4 45 4 86 q0 19 -31 320 q-2 39 -21 85 q-19 46 -19 58 q0 23 36 23 q25 0 136 -41 l552 33 q56 0 89.5 -30 q33.5 -30 33.5 -52 q0 -21 -6 -31 q-6 -10 -47 -315 q51 -60 51 -86 q0 -33 -27.5 -37 q-27.5 -4 -590.5 -37 l0 -6 q0 -60 -62 -60 ZM1130 1071 l437 23 l26 288 l-487 -28 l24 -283 ZM891 -111 q-78 0 -112 17.5 q-34 17.5 -54 105.5 q0 37 23 37 q10 0 33.5 -7 q23.5 -7 78.5 -7 l418 10 l2 258 l-221 -10 q-86 0 -117 76 q-12 28 -12 45 q0 26 22 26 q13 0 33.5 -5 q20.5 -5 58.5 -5 l238 10 l2 203 l-293 -16 q-59 0 -84 28 q-45 56 -45 99 q0 22 23 22 q12 0 32.5 -5 q20.5 -5 81.5 -5 q680 35 711 43 q19 6 33 6 q16 0 45 -18 q74 -47 74 -90 q0 -35 -66 -39 l-360 -19 l-2 -205 q200 11 231 19 q18 6 32.5 6 q14.5 0 41.5 -18 q76 -48 76 -86 q0 -37 -64 -41 l-319 -15 l-2 -260 l354 8 l100 15 q21 0 49 -19 q74 -45 74 -90 q0 -41 -65 -45 l-1051 -29 Z" /><glyph glyph-name="uniFF0C" unicode="&#xff0c;" d="M233 -225 q-38 0 -38 41 q0 26 25.5 43.5 q25.5 17.5 59 57.5 q33.5 40 39.5 60 q-92 37 -92 125 q0 58 40 88.5 q40 30.5 91.5 30.5 q51.5 0 86 -43 q34.5 -43 40.5 -100 q0 -111 -92 -207 q-92 -96 -160 -96 Z" /></font>
</defs>
</svg>
