<?xml version="1.0" standalone="no"?><!DOCTYPE svg PUBLIC "-//W3C//DTD SVG 1.1//EN" "http://www.w3.org/Graphics/SVG/1.1/DTD/svg11.dtd" ><svg xmlns="http://www.w3.org/2000/svg"><metadata></metadata><defs><font id="LXGW WenKai Screen:Version 1.245" horiz-adv-x="2048"><font-face font-family="LXGW WenKai Screen" font-weight="400" font-stretch="normal" units-per-em="2048" panose-1="2 2 8 0 0 0 0 0 0 0" ascent="1900" descent="-500" x-height="0" bbox="49 -258 2044 1815" underline-thickness="100" underline-position="-408" unicode-range="U+4e8b-9879" /><missing-glyph horiz-adv-x="2048" d="M1638 -131 l-614 797 l-614 -797 l1228 0 ZM1729 -29 l0 1610 l-619 -805 l619 -805 ZM319 -29 l619 805 l-619 805 l0 -1610 ZM1024 887 l616 801 l-1232 0 l616 -801 ZM1855 -258 l-1662 0 l0 2073 l1662 0 l0 -2073 Z" /><glyph glyph-name="uni4E8B" unicode="&#x4e8b;" d="M958 -227 q-34 0 -97.5 31.5 q-63.5 31.5 -163 111.5 q-99.5 80 -99.5 109 q0 32 35 32 q22 0 112.5 -41 q90.5 -41 182.5 -61 l0 270 l-432 -18 q-80 0 -115 92 q-8 14 -8 25 q0 20 20 20 q8 0 25.5 -6 q17.5 -6 64.5 -6 l445 16 l0 105 l-682 -31 q-43 0 -85 12 q-42 12 -65 86 q-2 6 -2 17 q0 20 23 20 q10 0 34.5 -6 q24.5 -6 51.5 -6 l725 30 l0 89 l-396 -21 q-88 0 -118 27 q-47 41 -47 82 q0 22 22 22 l86 -12 l451 26 l0 95 l-334 -17 l0 -4 q0 -47 -47 -47 l-27 4 q-80 8 -80 66 q0 82 -8 145 q-12 113 -33.5 143.5 q-21.5 30.5 -21.5 47.5 q0 24 43 24 q33 0 135 -37 l373 23 l0 94 l-619 -35 q-90 0 -119 84 l-10 31 q0 25 23 25 q12 0 35.5 -6.5 q23.5 -6.5 64.5 -6.5 q18 0 625 37 l0 90 q0 62 -29 96 q-8 13 -8 21 q0 25 35 25 q24 0 71 -13.5 q47 -13.5 62.5 -35 q15.5 -21.5 15.5 -54.5 l0 -121 l510 31 q33 2 64.5 13.5 q31.5 11.5 48.5 11.5 q18 0 67 -36 q49 -36 49 -73 q0 -31 -55 -39 l-684 -39 l0 -94 l440 27 q29 0 64 -18.5 q35 -18.5 35 -45.5 q0 -24 -10.5 -37.5 q-10.5 -13.5 -40.5 -140.5 q49 -47 49 -72 q0 -28 -30 -33.5 q-30 -5.5 -505 -27.5 l0 -94 l465 28 q25 0 63.5 -21.5 q38.5 -21.5 38.5 -68.5 q0 -18 -7 -30.5 q-7 -12.5 -23 -98.5 q164 6 188 14 q60 21 76 21 q14 0 43 -18 q74 -46 74 -84 q0 -37 -68 -41 l-334 -15 l-20 -116 q49 -52 49 -74 q0 -29 -24.5 -35 q-24.5 -6 -518.5 -27 q0 -206 4 -301 q0 -73 -43 -114 q-43 -41 -80 -41 ZM1075 1006 l342 18 l21 121 l-363 -23 l0 -116 ZM578 981 l348 18 l0 117 l-361 -22 l13 -113 ZM1075 582 l387 16 l13 94 l-400 -22 l0 -88 ZM1077 352 l355 15 l14 108 l-371 -18 l2 -105 Z" /><glyph glyph-name="uni4EF6" unicode="&#x4ef6;" d="M1323 -223 q-37 0 -78 28.5 q-41 28.5 -41 67.5 q0 10 8.5 47 q8.5 37 8.5 94 l0 518 l-471 -20 q-66 0 -91 47 q-43 64 -43 88 q0 31 21 31 q8 0 34.5 -10.5 q26.5 -10.5 71.5 -10.5 l478 23 l0 358 l-263 -16 q-73 -129 -127.5 -192.5 q-54.5 -63.5 -85 -81 q-30.5 -17.5 -40.5 -17.5 q-19 0 -19 29 q0 18 44 90 q44 72 116 252 q72 180 72 291 l-7 34 q0 35 31 35 q23 0 59 -22 q99 -54 99 -101 q0 -18 -33 -90.5 q-33 -72.5 -39 -83.5 l193 13 l0 360 q0 47 -18.5 73.5 q-18.5 26.5 -18.5 39.5 q0 26 37 26 l24 -2 q131 -24 131 -86 l0 -403 q256 16 274.5 24.5 q18.5 8.5 37.5 8.5 q20 0 69 -37 q49 -37 49 -64 q0 -31 -20.5 -40 q-20.5 -9 -409.5 -31 l0 -361 l396 21 q22 2 45.5 3 q23.5 1 40 6 q16.5 5 31 5 q14.5 0 43 -18.5 q28.5 -18.5 52 -46 q23.5 -27.5 23.5 -50.5 q0 -39 -61 -43 l-570 -24 l0 -695 q0 -67 -53 -67 ZM500 -199 q-47 0 -83 36 q-36 36 -36 59 q0 20 7 53 q7 33 15 911 q-106 -135 -235 -244 q-59 -45 -80 -45 q-31 0 -31 29 q0 18 29 55 q217 265 379 564 q70 127 106.5 216 q36.5 89 36.5 111.5 q0 22.5 -6 52.5 q0 35 33 35 q14 0 49 -12 q102 -41 102 -94 q0 -53 -149 -320 q-41 -75 -86 -145 l0 -1208 q0 -54 -51 -54 Z" /><glyph glyph-name="uni4F2A" unicode="&#x4f2a;" d="M623 -188 q-17 0 -17 30 q0 23 47 64 q191 205 281 393 q164 338 215 645 l-324 -18 q-39 0 -61 14 q-27 25 -46.5 63.5 q-19.5 38.5 -19.5 55.5 q0 24 15 24 q12 0 37.5 -5 q25.5 -5 74.5 -5 q25 0 346 19 q19 190 19 319 q0 129 -3 150.5 q-3 21.5 -12.5 44 q-9.5 22.5 -9.5 32.5 q0 31 37 31 q27 0 70 -14.5 q43 -14.5 68.5 -36 q25.5 -21.5 25.5 -59.5 q0 -220 -27 -459 l408 22 q129 0 129 -82 l-10 -53 q-19 -553 -101 -944 q-36 -219 -153 -219 q-29 0 -110 39 q-81 39 -227.5 143.5 q-146.5 104.5 -146.5 143.5 q0 30 31 30 q19 0 105 -42 q86 -42 180 -78.5 q94 -36.5 121 -36.5 q18 0 18 6 q74 256 105 633 q14 176 14 313 l-387 -21 q-53 -346 -203.5 -625.5 q-150.5 -279.5 -290.5 -396.5 q-149 -120 -198 -120 ZM1522 315 q-25 0 -37 16.5 q-12 16.5 -54 110 q-42 93.5 -135 220.5 q-14 20 -14 38 q0 27 27.5 48.5 q27.5 21.5 52.5 21.5 q55 0 199 -256 q57 -102 57 -123 q0 -24 -37 -50 q-37 -26 -59 -26 ZM1024 1176 q-37 0 -61 55 q-45 137 -111 227 q-18 27 -18 39 q0 31 37.5 48.5 q37.5 17.5 54.5 17.5 q18 0 51 -37 q33 -37 66.5 -88.5 q33.5 -51.5 57 -108.5 q23.5 -57 23.5 -82 q0 -30 -40 -50.5 q-40 -20.5 -60 -20.5 ZM512 -211 q-35 0 -79 29.5 q-44 29.5 -44 75.5 q0 12 7 44.5 q7 32.5 12 944.5 q-56 -78 -172.5 -193 q-116.5 -115 -155.5 -115 q-25 0 -25 27 q0 19 31 62 q195 239 371 565 q147 274 147 342 q0 22 -4 39 q0 43 37 43 q25 0 57 -17 q90 -37 90 -84 q0 -10 -32 -79 q-80 -191 -197 -377 l6 -1252 q0 -55 -49 -55 Z" /><glyph glyph-name="uni50CF" unicode="&#x50cf;" d="M1323 -195 q-82 0 -242.5 92.5 q-160.5 92.5 -160.5 139.5 q0 24 32 24 q23 0 108 -34.5 q85 -34.5 208 -55.5 q30 0 30 168 q0 74 -8 144 q-133 -101 -316 -190 q-183 -89 -358 -136 q-26 -6 -47 -6 q-32 0 -32 22 q0 25 57 54 q172 88 344 179 q172 91 326 228 q-13 47 -27 82 q-264 -184 -565 -260 q-23 -6 -45 -6 q-33 0 -33 24 q0 27 51 50 q350 168 529 307 q-29 43 -62 82 q-190 -135 -379 -187 q-67 -18 -90 -18 q-33 0 -33 22 q0 25 92 72 q234 125 363 227 l-137 -6 q0 -53 -41 -53 q-37 0 -72 21.5 q-35 21.5 -35 54.5 l2 55 q0 21 -15 117 q-15 96 -16 105.5 q-1 9.5 -1 11.5 q-97 -58 -125 -58 q-39 0 -39 24.5 q0 24.5 49 61.5 q299 213 459 426 q18 25 18 63 q0 38 29 38 q18 0 70.5 -38 q52.5 -38 52.5 -69 q0 -31 -72 -102 l336 18 q33 0 64.5 -25.5 q31.5 -25.5 31.5 -48.5 q0 -24 -17.5 -36.5 q-17.5 -12.5 -59.5 -59.5 q-42 -47 -83 -82 l256 15 q35 0 69 -24 q34 -24 34 -46 q0 -21 -8.5 -35 q-8.5 -14 -49.5 -201 q39 -45 39 -69 q0 -23 -53 -29 l-473 -20 l-64 -52 q97 -98 150 -219 q164 82 264 183 q17 20 26 49.5 q9 29.5 32 29.5 q10 0 52 -42 q42 -42 42 -76 q0 -37 -23 -52 q-141 -108 -332 -196 q256 -219 566 -361 q37 -14 37 -41 q0 -12 -19 -36 q-51 -56 -92 -56 q-14 0 -92 45 q-219 117 -385 273 q10 -56 10 -158 q-8 -231 -57 -293 q-27 -31 -70 -31 ZM469 -188 l-25 6 q-84 20 -84 96 q0 12 6.5 43 q6.5 31 14.5 936 q-123 -164 -229 -262 q-46 -41 -66 -41 q-31 0 -31 31 q0 22 29 61 q209 287 344 565 q57 117 86 198 q29 81 29 101 q0 19 -6 49 q0 35 34 35 q23 0 56 -12 q90 -39 90 -82 q0 -37 -72 -189.5 q-72 -152.5 -127 -246.5 l2 -1237 q0 -51 -51 -51 ZM881 1217 l399 20 q84 78 125 131 l-344 -16 q-86 -76 -180 -135 ZM1346 958 l280 13 l25 164 l-301 -17 l-4 -160 ZM915 940 l299 14 l-2 160 l-313 -16 l16 -158 Z" /><glyph glyph-name="uni51C6" unicode="&#x51c6;" d="M911 -217 q-118 35 -118 96 q0 29 8 70 q8 41 20 1032 q-78 -84 -159.5 -154.5 q-81.5 -70.5 -104.5 -70.5 q-33 0 -33 28 q0 19 27 54 q182 219 283 379 q176 286 176 358 q0 20 -2 29 q0 41 45 41 q37 0 89 -35 q52 -35 52 -56 q0 -38 -82 -170.5 q-82 -132.5 -127 -193.5 l320 18 q110 215 110 297 l-6 33 q0 31 37 31 q24 0 57 -13 q86 -30 86 -77 q0 -58 -139 -262 q270 14 294.5 23 q24.5 9 37.5 9 q14 0 43 -18 q71 -47 71 -88 q0 -31 -57 -39 l-401 -21 l-2 -213 q225 13 245.5 20 q20.5 7 34.5 7 q17 0 43.5 -19.5 q26.5 -19.5 47 -44 q20.5 -24.5 20.5 -42.5 q0 -31 -58 -37 l-333 -17 l-2 -200 q235 12 262 22 q18 6 30.5 6 q12.5 0 38.5 -18 q74 -49 74 -90 q0 -33 -57 -39 l-348 -17 l-2 -262 l346 13 q45 4 69.5 11 q24.5 7 34.5 7 q12 0 41 -18 q76 -50 76 -93 q0 -32 -60 -41 l-974 -34 l0 -134 q0 -67 -54 -67 ZM524 985 q-26 0 -62 47 q-36 47 -104.5 121 q-68.5 74 -130.5 121 q-28 26 -28 49 q0 20 28.5 52 q28.5 32 51.5 32 q53 0 237 -190 q102 -107 102 -136 q0 -32 -34.5 -64 q-34.5 -32 -59.5 -32 ZM965 848 l321 16 l2 211 l-323 -18 l0 -209 ZM238 84 q-72 16 -121 72 q-15 20 -15 34 q0 19 42 33.5 q42 14.5 175.5 154.5 q133.5 140 284.5 327 q49 57 76 57 q31 0 31 -33 q0 -49 -139.5 -260 q-139.5 -211 -280.5 -360 q-25 -25 -53 -25 ZM965 514 l317 16 l2 201 l-319 -18 l0 -199 ZM965 123 l313 12 l4 260 l-317 -16 l0 -256 Z" /><glyph glyph-name="uni53C2" unicode="&#x53c2;" d="M150 348 q-41 0 -41 25 q0 28 53 61 q381 244 545 412 l-383 -19 q-88 0 -123 109 l-2 10 q0 25 20 25 q8 0 39 -6.5 q31 -6.5 76 -6.5 q22 0 493 25 q97 123 109 166 q-225 -37 -350 -37 q-84 0 -127 129 q0 27 33 27 q53 -13 137 -13 q164 187 215 267 q51 80 55 129 q4 30 37 30 q27 0 76 -41 q43 -43 43 -63 q0 -23 -37 -76 q-88 -133 -201 -231 q105 8 453 57 q-10 12 -40 37 q-30 25 -57.5 49.5 q-27.5 24.5 -27.5 44.5 q0 19 29.5 45.5 q29.5 26.5 54 26.5 q24.5 0 43.5 -14 q321 -256 321 -312 q0 -35 -32.5 -67.5 q-32.5 -32.5 -47.5 -32.5 q-16 0 -28 7 q-12 7 -36 33.5 q-24 26.5 -71 76.5 l-295 -52 q15 -16 15 -36 q0 -19 -7.5 -36.5 q-7.5 -17.5 -68.5 -103.5 l592 31 q63 4 90 13.5 q27 9.5 47.5 9.5 q20.5 0 46 -21.5 q25.5 -21.5 40.5 -46.5 q15 -25 15 -39 q0 -35 -55 -41 l-459 -22 q193 -160 383 -248 q111 -51 250 -94 q33 -9 33 -35 q0 -23 -47 -65 q-47 -42 -82 -42 l-66 25 q-346 139 -657 450 l-242 -12 q-213 -238 -561 -418 q-172 -90 -200 -90 ZM545 342 q-39 0 -39 29 q0 32 57 59 q252 129 387 246 q74 61 94 108 q13 25 37 25 q19 0 42.5 -20.5 q23.5 -20.5 39 -49 q15.5 -28.5 15.5 -55.5 q0 -29 -23 -43 q-248 -178 -491 -266 q-93 -33 -119 -33 ZM567 104 q-35 0 -35 31 q0 33 60 58 q395 161 557 311 q65 59 71.5 85.5 q6.5 26.5 28.5 26.5 q43 0 84 -79 q19 -31 19 -54 q0 -26 -25 -45 q-340 -252 -672 -319 q-63 -15 -88 -15 ZM457 -203 q-54 0 -54 31 q0 33 62 49 q606 193 913 449 q29 22 43 71 q11 25 35 25 q23 0 47 -29 q53 -61 53 -114 q0 -25 -24 -41 q-399 -299 -850 -402 q-98 -22 -225 -39 Z" /><glyph glyph-name="uni542F" unicode="&#x542f;" d="M881 59 l706 13 l41 372 l-774 -30 l27 -355 ZM842 -203 q-51 0 -84 35 q-33 35 -33 66 q6 43 6 90 q0 18 -31 434 q-4 67 -21 102 q-17 35 -17 45 q0 27 40 27 q29 0 142 -43 l852 35 q80 0 106 -62 q6 -20 6 -30 q0 -15 -7 -24 q-7 -9 -62 -409 q45 -63 45 -88 q0 -32 -21.5 -37.5 q-21.5 -5.5 -871.5 -17.5 l4 -55 q0 -68 -53 -68 ZM127 -174 q-25 0 -25 33 q0 24 41 80 q123 176 185 348 q104 286 104 764 l-2 102 q0 94 -12 122 q-12 28 -12 42 q0 24 36 24 q27 0 150 -51 q987 64 1003 64 q70 0 97 -60 q12 -24 12 -37 q0 -16 -7 -28 q-7 -12 -55 -307 q60 -66 60 -91 q0 -30 -26.5 -36.5 q-26.5 -6.5 -1093.5 -55.5 q-39 -297 -86 -432 q-88 -244 -215 -375 q-105 -106 -154 -106 ZM592 891 l899 45 l37 266 l-932 -61 q0 -191 -4 -250 ZM1161 1352 q-31 0 -65 28 q-140 123 -232 181 q-39 24 -39 53 q0 12 9 31 q24 49 63 49 q27 0 139.5 -74 q112.5 -74 160.5 -110.5 q48 -36.5 48 -65.5 q0 -29 -43 -74 q-18 -18 -41 -18 Z" /><glyph glyph-name="uni548C" unicode="&#x548c;" d="M672 -193 q-37 0 -78 32 q-41 32 -41 71 q0 18 6 53 q6 35 6 148 q4 520 8 559 l2 35 q0 4 -2 4 l-4 -33 q-55 -135 -299 -404 q-135 -151 -176 -151 q-28 0 -28 33 q0 24 22 55 q303 420 422 696 q-207 -18 -242 -18 q-92 0 -129 104 q-2 6 -2 19 q0 22 29 22 q41 -8 90 -8 q27 0 313 25 l2 256 q-305 -101 -352 -101 q-57 0 -57 31 q0 31 47 49 q278 111 606 303 q29 17 44 49.5 q15 32.5 34 32.5 q37 0 92 -88 q23 -35 23 -61 q0 -31 -19 -39 q-184 -95 -272 -125 l0 -295 q196 16 222 24.5 q26 8.5 44 8.5 q21 0 47 -19 q70 -47 70 -86 q0 -33 -56 -39 l-327 -28 l0 -66 q0 -2 12 -2 q43 0 256 -211 q115 -117 115 -158 q0 -20 -35 -55 q-35 -35 -59 -35 q-29 0 -62 41 q-139 182 -227 260 l0 -823 q0 -66 -45 -66 ZM1288 174 q-20 0 -53 12 q-70 29 -70 93 q4 34 4 63 q0 55 -16 702 q-4 46 -23.5 86.5 q-19.5 40.5 -19.5 49.5 q0 24 37 24 q24 0 139 -39 l514 29 q29 0 66 -29.5 q37 -29.5 37 -54.5 q0 -23 -6.5 -32 q-6.5 -9 -57.5 -640 q59 -59 59 -84 q0 -32 -29.5 -37.5 q-29.5 -5.5 -543.5 -23.5 l2 -64 q0 -55 -39 -55 ZM1321 438 l369 13 l39 596 l-424 -21 l16 -588 Z" /><glyph glyph-name="uni5907" unicode="&#x5907;" d="M1038 1092 q152 112 254 223 l-518 -29 q123 -106 264 -194 ZM645 37 l322 10 l2 178 l-336 -16 l12 -172 ZM1110 51 l330 10 l16 185 l-344 -17 l-2 -178 ZM625 338 l344 16 l2 152 l-357 -19 l11 -149 ZM1112 358 l358 17 l15 155 l-371 -20 l-2 -152 ZM608 -217 q-39 0 -74.5 27.5 q-35.5 27.5 -35.5 70.5 l4 62 q0 80 -2 92 l-31 450 q-4 72 -35 133 q-4 7 -6 11 q-102 -31 -209 -51 q-86 -19 -110 -19 q-35 0 -35 29 q0 35 86 63 q442 144 755 355 q-100 67 -241 192 q-144 -117 -244 -168 q-100 -51 -121 -51 q-33 0 -33 22 q0 27 52 66 q303 229 444 426 q64 86 66 133 q2 47 36 47 q9 0 44 -16 q98 -49 98 -96 q0 -23 -105 -138 l519 33 q40 0 76 -28.5 q36 -28.5 36 -59.5 q0 -31 -20.5 -46 q-20.5 -15 -65.5 -60 q-131 -140 -280 -250 q352 -189 755 -267 q56 -10 56 -36 q0 -21 -24 -48.5 q-24 -27.5 -51.5 -46 q-27.5 -18.5 -39.5 -18.5 q-10 0 -82 18 q-404 97 -743 306 q-250 -170 -543 -267 q33 -10 88 -32 l940 45 q76 0 98.5 -37 q22.5 -37 22.5 -49.5 q0 -12.5 -5.5 -23.5 q-5.5 -11 -64.5 -497 q47 -69 47 -90 q0 -26 -23.5 -34.5 q-23.5 -8.5 -955.5 -30.5 l4 -60 q0 -61 -47 -61 Z" /><glyph glyph-name="uni5934" unicode="&#x5934;" d="M715 752 q-23 0 -127.5 88 q-104.5 88 -261.5 188 q-31 21 -31 47 q0 21 14 41 q31 43 58 43 q20 0 123.5 -62.5 q103.5 -62.5 265.5 -187.5 q45 -32 45 -65 q-4 -35 -36 -63.5 q-32 -28.5 -50 -28.5 ZM188 -188 q-30 0 -30 28 q0 33 67 62 q371 161 537 334 q104 104 166 241 l-627 -28 q-27 0 -70 16 q-43 16 -71 100 q-4 15 -4 23 q0 18 20 18 q10 0 32.5 -8 q22.5 -8 78.5 -8 l698 31 l29 98 q35 160 45 440 q0 365 -6 394.5 q-6 29.5 -20.5 52 q-14.5 22.5 -14.5 39.5 q0 24 35 24 q24 0 69 -15.5 q45 -15.5 72 -33.5 q27 -18 28 -61 q1 -43 1 -193 q0 -485 -72 -739 l514 24 q45 4 67.5 13.5 q22.5 9.5 35 9.5 q12.5 0 40.5 -19 q84 -51 84 -98 q0 -39 -59 -43 l-725 -31 q-84 -227 -301 -399 q-176 -133 -367.5 -202.5 q-191.5 -69.5 -251.5 -69.5 ZM1747 -186 q-31 0 -53 28 q-146 135 -272 243 q-126 108 -273 191 q-21 21 -21 37 q0 19 13 37 q26 51 65 51 q23 0 113 -53 q207 -123 496 -391 q26 -25 26 -51 q0 -31 -32.5 -61.5 q-32.5 -30.5 -61.5 -30.5 ZM885 1112 q-23 0 -129.5 89 q-106.5 89 -259.5 188 q-31 22 -31 49 q0 20 14 41 q31 41 58 41 q20 0 121.5 -60.5 q101.5 -60.5 267.5 -189.5 q43 -33 43 -66 q0 -33 -33 -62.5 q-33 -29.5 -51 -29.5 Z" /><glyph glyph-name="uni5F00" unicode="&#x5f00;" d="M1343 -217 q-12 0 -41.5 11 q-29.5 11 -56 36 q-26.5 25 -26.5 72 q0 12 8 47 q8 35 8 90 l0 700 l-412 -20 q-10 -80 -35 -209 q-71 -289 -253 -471 q-134 -133 -273 -195 q-51 -20 -59 -20 q-27 0 -27 26 q0 21 51 64 q310 244 402 594 q28 129 39 205 q-201 -13 -416 -21 q-49 0 -74 17 q-67 61 -67 125 q0 22 24 22 q6 0 27.5 -7 q21.5 -7 73.5 -7 q24 0 440 20 q6 129 8 273 q0 182 -4 200 l-234 -12 q-61 0 -88 18 q-2 5 -16 19 q-49 45 -49 98 q0 25 24 25 q7 0 28.5 -7.5 q21.5 -7.5 96.5 -7.5 q1141 60 1161.5 68 q20.5 8 38.5 8 q21 0 51.5 -22.5 q30.5 -22.5 54.5 -49 q24 -26.5 24 -42.5 q0 -37 -66 -41 l-313 -17 l0 -477 q354 18 374.5 26.5 q20.5 8.5 38.5 8.5 q21 0 51.5 -20.5 q30.5 -20.5 54 -48 q23.5 -27.5 23.5 -46.5 q0 -41 -65 -45 l-477 -22 l2 -900 q0 -65 -52 -65 ZM836 868 l399 21 l0 475 l-393 -21 q2 -24 2 -200 q-4 -189 -8 -275 Z" /><glyph glyph-name="uni610F" unicode="&#x610f;" d="M254 971 q-80 0 -107 80 q-12 36 -12 45 q0 18 27 18 q41 -8 80 -8 q22 0 516 24 q-13 21 -37.5 56 q-24.5 35 -49 60.5 q-24.5 25.5 -24.5 47.5 q0 25 10 33 l-129 -8 q-84 0 -102 18 q-51 52 -51 93 q0 24 22 24 l80 -10 l463 29 q-2 38 -4 88.5 q-2 50.5 -14.5 65.5 q-12.5 15 -12.5 34 q0 27 29 27 q14 0 47 -5 q105 -14 105 -77 l-5 -127 q418 26 445 34 q16 7 33 7 q18 0 45 -17 q63 -39 63 -73 q0 -44 -57 -46 l-275 -16 l-6 2 q-2 0 -2 -2 q0 -4 27.5 -25.5 q27.5 -21.5 27.5 -39.5 q0 -17 -35.5 -63 q-35.5 -46 -70.5 -79 l449 23 q12 0 83 14 q37 0 76 -36 q39 -36 39 -64 q0 -33 -55 -39 l-1618 -88 ZM907 1141 l207 10 q51 59 79 116.5 q28 57.5 30 80.5 q0 16 -4 16 q-2 0 -7 -4 l-387 -23 l-18 2 q-16 0 -16 -8 q0 -12 37.5 -53 q37.5 -41 57 -71.5 q19.5 -30.5 19.5 -48 q0 -17.5 2 -17.5 ZM672 299 q-45 0 -79 29.5 q-34 29.5 -34 60.5 l6 45 q0 37 -26 354 q-4 43 -21.5 84 q-17.5 41 -17.5 50 q0 24 37 24 q24 0 135 -35 l741 39 q84 0 111 -55 q10 -21 10 -29 q0 -10 -6 -22.5 q-6 -12.5 -55 -331.5 q45 -51 45 -74 q0 -28 -24 -33.5 q-24 -5.5 -773 -31.5 l0 -13 q0 -61 -49 -61 ZM692 707 l666 30 l6 82 l-680 -33 l8 -79 ZM709 498 l626 24 l8 92 l-641 -28 l7 -88 ZM1137 63 q-25 0 -62 43 q-71 91 -164 156 q-26 21 -26 41 q0 16 21.5 45 q21.5 29 51.5 29 q27 0 144 -91 q117 -91 117 -126 q0 -35 -31 -66 q-31 -31 -51 -31 ZM1855 -37 q-22 0 -63 50 q-41 50 -111.5 123 q-70.5 73 -113.5 106.5 q-43 33.5 -43 54.5 q0 16 23.5 47 q23.5 31 45.5 31 q19 0 79.5 -41 q60.5 -41 166 -138.5 q105.5 -97.5 105.5 -134.5 q0 -38 -35 -68 q-35 -30 -54 -30 ZM236 -117 q-25 0 -59 23.5 q-34 23.5 -34 52.5 q0 25 19 51 q119 140 192 301 q19 41 45 41 q13 0 51.5 -17.5 q38.5 -17.5 38.5 -39.5 q0 -19 -19 -62 q-19 -43 -49 -100 q-30 -57 -62.5 -113.5 q-32.5 -56.5 -64.5 -96.5 q-32 -40 -58 -40 ZM1319 -154 q-170 0 -284.5 13.5 q-114.5 13.5 -205 56.5 q-90.5 43 -157 122 q-66.5 79 -99.5 169 q-4 14 -4 29 q0 61 80 61 q35 0 58 -49 q47 -139 179 -196.5 q132 -57.5 357 -57.5 q51 0 119 4 l51 4 q17 0 17 -4 q0 6 -44 92 q-51 98 -51 152 q0 32 24.5 32 q24.5 0 73 -65.5 q48.5 -65.5 160.5 -179.5 q43 -43 43 -72 q0 -111 -317 -111 Z" /><glyph glyph-name="uni6444" unicode="&#x6444;" d="M1073 971 l373 41 l2 96 l-377 -23 l2 -114 ZM399 -152 q-63 0 -180 125 q-110 119 -110 160 q0 27 22.5 27 q22.5 0 88 -45 q65.5 -45 149.5 -80 l2 436 q-2 0 -75 -45 q-73 -45 -85 -48 q-12 -3 -23 -3 q-36 0 -82 31 q-57 38 -57 71 q0 23 33 27 q72 10 289 133 l4 422 q-170 -15 -189 -15 q-30 0 -53 27 q-53 55 -53 96 q0 23 24 23 q52 -10 78 -10 l193 14 l2 313 q0 56 -31 109 q-8 12 -8 22 q0 25 27 25 q16 0 49 -8 q106 -21 106 -90 l-2 -361 q86 6 109.5 17.5 q23.5 11.5 34 11.5 q10.5 0 38.5 -14 q80 -41 80 -89 q0 -34 -57 -43 l-207 -18 l-2 -352 l168 100 q20 14 39 17 q-23 20 -41 84 q0 22 20 24 l62 -4 q20 0 178 16 l-4 502 l-107 -6 q-24 0 -59 12.5 q-35 12.5 -57 81.5 q-4 4 -4 17 q0 18 24 18 q41 -10 76 -10 q850 49 870.5 56 q20.5 7 36.5 7 q19 0 42.5 -16.5 q23.5 -16.5 41 -38 q17.5 -21.5 17.5 -37.5 q0 -29 -41 -35 l-193 -12 l-2 -463 q172 19 193.5 27 q21.5 8 36 8 q14.5 0 58.5 -26.5 q44 -26.5 44 -63.5 q0 -25 -45 -37 l-287 -31 l0 -123 q0 -43 -43 -43 q-37 0 -69.5 23.5 q-32.5 23.5 -32.5 46.5 q0 16 2 22.5 q2 6.5 6 57.5 l-662 -74 q-10 0 -22 2 q2 -4 2 -8 q0 -37 -113 -129 l-135 -100 l-4 -529 l2 -73 q0 -72 -40 -102 q-40 -30 -73 -30 ZM604 -123 q-26 0 -26 27 q0 20 69 78 q127 98 271 284 q-87 88 -181 160 q-20 23 -20 37 q0 12 24.5 43 q24.5 31 46.5 31 q39 0 209 -162 q66 106 97 200 l-291 -18 q-51 0 -79 25.5 q-28 25.5 -38 52.5 q-10 27 -10 37 q0 18 31 18 q41 -4 79 -4 q21 0 379 25 q39 0 73 -27 q34 -27 34 -49 q0 -21 -9.5 -32 q-9.5 -11 -11.5 -17 q-69 -189 -153 -303 q137 -131 153.5 -155 q16.5 -24 16.5 -40 q0 -16 -25.5 -49 q-25.5 -33 -56.5 -33 q-31 0 -57.5 33 q-26.5 33 -58.5 68.5 q-32 35.5 -56 62.5 q-146 -174 -326 -260 q-67 -33 -84 -33 ZM1069 1194 l379 23 l0 79 l-379 -22 l0 -80 ZM1067 1382 l383 23 l0 82 l-385 -25 l2 -80 ZM1118 -184 q-28 0 -28 24.5 q0 24.5 53 57.5 q182 118 330 319 q-107 141 -173 266 q-2 9 -6 15 q-4 6 -4 24 q0 21 31 37 q31 16 57 16 q29 0 43 -28 q72 -127 140 -213 q96 155 125 276 l-287 -18 q-94 0 -127 102 q-2 6 -2 15 q0 18 26 18 q37 -4 82 -4 q60 0 375 22 q43 0 76 -26.5 q33 -26.5 33 -51 q0 -24.5 -10.5 -39 q-10.5 -14.5 -12.5 -22.5 q-72 -223 -186 -383 q188 -182 370 -282 q21 -9 21 -23 q0 -12 -21 -37 q-53 -63 -102 -63 q-47 0 -270 202 q-58 54 -95 93 q-100 -115 -196 -180.5 q-96 -65.5 -159.5 -91 q-63.5 -25.5 -82.5 -25.5 Z" /><glyph glyph-name="uni6587" unicode="&#x6587;" d="M1837 -193 q-12 0 -25 7 q-428 202 -780 548 q-229 -239 -545 -401 q-133 -70 -226 -103.5 q-93 -33.5 -122 -33.5 q-39 0 -39 26.5 q0 26.5 45 49.5 q525 282 781 573 q-189 219 -379 610 l-166 -10 q-39 -4 -72 -4 q-35 0 -61 12 q-39 19 -68 82 q-2 11 -6 18 q-4 7 -4 17 q0 27 31 27 q51 -11 104 -11 q27 0 631 37 l-2 244 q0 43 -16.5 66.5 q-16.5 23.5 -16.5 42.5 q0 26 51 26 q39 0 92.5 -18.5 q53.5 -18.5 53.5 -52.5 l-2 -299 q626 38 653 45.5 q27 7.5 47 7.5 q23 0 52.5 -21.5 q29.5 -21.5 51 -46 q21.5 -24.5 21.5 -41.5 q0 -39 -51 -45 l-367 -22 q-63 -168 -164.5 -347.5 q-101.5 -179.5 -203.5 -308.5 q364 -348 800 -522 q37 -14 37 -33 q0 -16 -22 -47 q-60 -72 -113 -72 ZM1026 592 q186 244 285 534 l-600 -32 q151 -316 315 -502 Z" /><glyph glyph-name="uni68C0" unicode="&#x68c0;" d="M729 758 q-31 0 -31 30 q0 21 37 58 q217 211 361.5 446.5 q144.5 235.5 144.5 302.5 l-2 27 q0 37 31 37 q14 0 50 -17.5 q36 -17.5 68.5 -43 q32.5 -25.5 32.5 -48 q0 -22.5 -35 -84.5 q179 -211 367 -364 q100 -82 217 -166 q27 -23 27 -39 q0 -14 -36 -58 q-36 -44 -68.5 -44 q-32.5 0 -208 161.5 q-175.5 161.5 -369.5 386.5 q-94 -149 -230 -305 q-118 -131 -294 -254 q-41 -26 -62 -26 ZM1114 813 q-31 0 -58.5 16.5 q-27.5 16.5 -49.5 92.5 q0 32 34 32 l11 0 q65 -8 82 -8 q346 23 358 30 q12 7 34.5 7 q22.5 0 49.5 -18 q61 -39 61 -82 q0 -39 -69 -43 l-453 -27 ZM1333 285 q-43 0 -53 49 q-51 203 -113 321 q-10 19 -10 31 q0 16 37 43 q20 14 43 14 l16 -2 q43 -14 140 -245 q39 -99 39 -140 q0 -34 -50 -57 q-28 -14 -49 -14 ZM1069 150 q-47 0 -65 49 q-52 155 -142 317 q-8 16 -8 29 q0 26 37 46.5 q37 20.5 55 20.5 q23 0 53 -47 q64 -92 109 -194 q53 -121 53 -145.5 q0 -24.5 -37 -50 q-37 -25.5 -55 -25.5 ZM498 -207 q-45 0 -78 37 q-33 37 -33 55 q0 17 10 54 q6 24 11 143 l2 532 q-27 -88 -162 -274 q-125 -170 -164 -170 q-27 0 -27 29 q0 20 56 118 q186 330 288 664 q-182 -14 -198 -14 q-39 0 -62.5 28.5 q-23.5 28.5 -34 56 q-10.5 27.5 -10.5 31.5 q0 25 29 25 q41 -8 68 -8 l223 16 l4 383 q0 37 -15.5 61.5 q-15.5 24.5 -15.5 36.5 q0 29 37 29 q25 0 69 -17.5 q44 -17.5 57 -31.5 q13 -14 13 -41 l-4 -412 q113 9 134.5 17 q21.5 8 38 8 q16.5 0 61.5 -32 q45 -32 45 -64 q0 -37 -54 -43 l-227 -19 l-2 -121 l21 0 q40 0 132.5 -122.5 q92.5 -122.5 92.5 -147.5 q0 -27 -32 -54.5 q-32 -27.5 -52 -27.5 q-25 0 -35 13.5 q-10 13.5 -20 29.5 q-62 113 -109 170 l-10 -878 q0 -60 -47 -60 ZM809 -94 q-33 0 -58.5 27.5 q-25.5 27.5 -41 58.5 q-15.5 31 -15.5 47 q0 24 25 24 q12 0 35.5 -6 q23.5 -6 62.5 -6 l582 19 q143 241 209 485 q6 18 6 37 l-10 57 q0 35 49 35 q43 0 98 -39 q35 -31 35 -49 q-72 -295 -258 -522 q254 10 277.5 17 q23.5 7 40 7 q16.5 0 44 -21.5 q27.5 -21.5 49 -48 q21.5 -26.5 21.5 -44.5 q0 -37 -59 -41 l-1029 -33 q-38 -4 -63 -4 Z" /><glyph glyph-name="uni6CE8" unicode="&#x6ce8;" d="M1445 1295.5 q-28 -33.5 -54.5 -33.5 q-26.5 0 -53.5 26 q-145 148 -321 266 q-31 23 -31 48 q0 22 28.5 50.5 q28.5 28.5 47 28.5 q18.5 0 91.5 -44 q73 -44 197 -145 q124 -101 124 -132 q0 -31 -28 -64.5 ZM586 1171 q-27 0 -70 48 q-117 122 -233 213 q-31 24 -31 51 q0 22 24.5 49 q24.5 27 45.5 27 q18 0 79.5 -42 q61.5 -42 164 -134.5 q102.5 -92.5 102.5 -116.5 q0 -23 -29 -59 q-29 -36 -53 -36 ZM700 -104 q-49 0 -76.5 31.5 q-27.5 31.5 -40 64.5 q-12.5 33 -12.5 39 q0 24 25 24 q14 0 37.5 -6 q23.5 -6 85.5 -6 l459 12 l-2 467 l-275 -14 q-43 0 -55 11 q-12 11 -44 43 q-32 32 -32 61 q0 36 23 36 q12 0 34.5 -5 q22.5 -5 65.5 -5 q27 0 283 15 l-2 405 l-347 -20 q-73 0 -94.5 18 q-21.5 18 -44 50 q-22.5 32 -22.5 57 q0 30 22 30 q12 0 34.5 -5 q22.5 -5 65.5 -5 q27 0 811 43 q48 4 71.5 12 q23.5 8 35.5 8 q14 0 45 -18 q84 -53 84 -96 q0 -33 -57 -39 l-447 -27 l2 -407 l201 10 q45 4 72.5 13 q27.5 9 38.5 9 q12 0 41 -20 q86 -53 86 -90 q0 -33 -58 -41 l-381 -21 l2 -473 q453 13 476.5 20 q23.5 7 42 7 q18.5 0 48 -22.5 q29.5 -22.5 52 -49 q22.5 -26.5 22.5 -43.5 q0 -45 -61 -45 l-1215 -28 ZM444 743 q-18 0 -51 29 q-114 107 -264 205 q-35 22 -35 47 q0 23 21.5 52.5 q21.5 29.5 48.5 29.5 q24 0 144 -82 q120 -82 168 -120 q48 -38 48 -58.5 q0 -20.5 -12 -43 q-12 -22.5 -29.5 -41 q-17.5 -18.5 -38.5 -18.5 ZM242 -80 q-58 6 -97 35 q-39 29 -39 45 q0 16 32 36.5 q32 20.5 63 63.5 q194 279 331 533 q39 67 68 67 q27 0 27 -34 q0 -142 -287 -650 q-25 -43 -43 -69.5 q-18 -26.5 -55 -26.5 Z" /><glyph glyph-name="uni6D4B" unicode="&#x6d4b;" d="M1411 1176 q0 41 -10 66.5 q-10 25.5 -14.5 30.5 q-4.5 5 -4.5 20.5 q0 15.5 28 15.5 q28 0 73 -17.5 q45 -17.5 56 -35 q11 -17.5 11 -48.5 l4 -884 q0 -68 -43 -68 q-43 0 -76.5 27.5 q-33.5 27.5 -33.5 49 q0 21.5 5 58.5 q5 37 5 115 l0 670 ZM1839 -18 l4 -72 q0 -60 -34.5 -91.5 q-34.5 -31.5 -63.5 -31.5 q-29 0 -70 25.5 q-41 25.5 -90 60.5 q-49 35 -91 75 q-42 40 -71.5 72.5 q-29.5 32.5 -29.5 52 q0 19.5 28.5 19.5 q28.5 0 110.5 -44 q82 -44 162 -73 l4 1545 q0 45 -31 90 q-10 14 -10 32.5 q0 18.5 31.5 18.5 q31.5 0 85 -20.5 q53.5 -20.5 61.5 -41 q8 -20.5 8 -51.5 l-4 -1566 ZM1284 146.5 q35 -50.5 58.5 -90.5 q23.5 -40 23.5 -69.5 q0 -29.5 -38 -50 q-38 -20.5 -54.5 -20.5 q-16.5 0 -25.5 11.5 q-9 11.5 -62 105.5 q-53 94 -104.5 163.5 q-51.5 69.5 -51.5 95 q0 25.5 30 44 q30 18.5 50 18.5 q20 0 44 -30.5 q24 -30.5 59.5 -78.5 q35.5 -48 70.5 -98.5 ZM666 410 q8 77 8 110 l0 49 l-15 754 q0 66 -15 96.5 q-15 30.5 -15 53 q0 22.5 26.5 22.5 q26.5 0 135.5 -37 l397 21 l22 2 q25 0 56.5 -20.5 q31.5 -20.5 31.5 -63.5 l-4 -37 l-22 -950 l0 -13 q-2 -51 -41 -51 q-45 8 -75 31.5 q-30 23.5 -28 56.5 l13 64 l12 848 l-362 -19 l10 -493 l0 -105 l2 -160 l2 -65 l2 -109 l0 -12 q0 -53 -37 -53 q-43 0 -73.5 24.5 q-30.5 24.5 -30.5 55.5 ZM518 -178 q-22 -10 -38.5 -10 q-16.5 0 -16.5 28.5 q0 28.5 31 53.5 q225 172 321 395 q51 125 77 290.5 q26 165.5 26 497.5 q0 29 -15.5 54.5 q-15.5 25.5 -15.5 37.5 q0 31 27.5 31 q27.5 0 71.5 -15.5 q44 -15.5 59.5 -28.5 q15.5 -13 15.5 -46 q-6 -322 -26.5 -501 q-20.5 -179 -76 -323.5 q-55.5 -144.5 -162 -258 q-106.5 -113.5 -278.5 -205.5 ZM213 -96 l-33 6 q-108 20 -108 72 q0 16 22 30 q45 25 84 88 q152 252 289 531 q33 69 65 69 q29 0 29 -37.5 q0 -37.5 -62.5 -212 q-62.5 -174.5 -148.5 -360.5 q-86 -186 -137 -186 ZM512 846 q0 -35 -28.5 -68 q-28.5 -33 -51 -33 q-22.5 0 -112 80 q-89.5 80 -199.5 152 q-35 22 -35 40.5 q0 18.5 18.5 52.5 q18.5 34 42 34 q23.5 0 113.5 -55.5 q90 -55.5 217 -155.5 q35 -29 35 -47 ZM495 1389 q44 -41 74.5 -76 q30.5 -35 30.5 -49.5 q0 -14.5 -13.5 -35 q-13.5 -20.5 -34 -37.5 q-20.5 -17 -44 -17 q-23.5 0 -51.5 32 q-84 105 -234 226 q-30 24 -30 42.5 q0 18.5 19 51.5 q19 33 44 33 q25 0 62.5 -26 q37.5 -26 85 -64.5 q47.5 -38.5 91.5 -79.5 Z" /><glyph glyph-name="uni8003" unicode="&#x8003;" d="M1382 1255 q-14 -10 -43 -12 l-270 -18 l-2 -195 l98 6 q113 101 217 219 ZM1380 -221 q-24 0 -104 33.5 q-80 33.5 -212 122 q-132 88.5 -132 126.5 q0 27 33 27 q20 0 67 -20.5 q47 -20.5 157.5 -62.5 q110.5 -42 145.5 -42 q29 0 35 10 q64 136 84 320 q-649 -25 -670.5 -30 q-21.5 -5 -35.5 -5 q-17 0 -55 18.5 q-38 18.5 -38 51.5 q0 26 17.5 73.5 q17.5 47.5 46.5 151.5 q-234 -137 -553 -274 q-33 -13 -57 -13 q-35 0 -35 29 q0 27 57 61 q434 238 623 365 l0 14 q0 37 -8.5 53.5 q-8.5 16.5 -8.5 24.5 q0 27 41 27 q29 0 96 -35 q68 47 113 84 l-715 -41 q-77 0 -104 33 q-43 47 -43 92 q0 24 25 24 q12 0 29.5 -5 q17.5 -5 58.5 -5 q24 0 680 37 l0 193 q-297 -21 -324 -21 q-66 0 -93.5 55.5 q-27.5 55.5 -27.5 67.5 q0 22 29 22 l86 -8 q24 0 327 21 l0 170 q0 49 -16 72.5 q-16 23.5 -16 35.5 q0 31 37 31 q24 0 57 -8 q94 -21 94 -80 l-2 -215 q152 12 179.5 20.5 q27.5 8.5 41.5 8.5 q17 0 43 -19 q66 -43 66 -86 q0 -8 -2 -14 q51 57 100 121 q25 28 31 70 q6 42 37 42 q18 0 49 -22 q72 -56 72 -103 q0 -18 -15 -32 q-160 -175 -295 -297 l398 20 q57 6 74.5 12 q17.5 6 31.5 6 q14 0 43 -16 q72 -45 72 -92 q0 -35 -64 -39 l-723 -41 q-116 -100 -252 -192 l488 30 q12 2 25.5 8.5 q13.5 6.5 41.5 6.5 q43 0 88 -66 q19 -24 19 -35 q0 -39 -72 -43 l-674 -39 l-41 -163 l658 28 q8 2 39 2 q31 0 65.5 -28.5 q34.5 -28.5 34.5 -53.5 q0 -22 -9 -35.5 q-9 -13.5 -11 -19.5 q-78 -520 -228 -520 Z" /><glyph glyph-name="uni88C5" unicode="&#x88c5;" d="M1163 836 l-49 0 q-76 0 -113 57 q-24 33 -24 57 q0 31 20 31 q9 0 36.5 -8 q27.5 -8 72.5 -8 l164 10 l0 196 l-250 -14 q-70 0 -98 25 q-52 45 -52 94 q0 22 23 22 q12 0 34.5 -5 q22.5 -5 61.5 -5 q23 0 283 17 l0 215 q0 47 -19.5 73.5 q-19.5 26.5 -19.5 42.5 q0 25 31 25 q20 0 53 -8 q102 -25 102 -78 l-2 -264 l209 14 q57 6 83 15.5 q26 9.5 40 9.5 q16 0 43 -19.5 q27 -19.5 48.5 -44 q21.5 -24.5 21.5 -43.5 q0 -37 -60 -41 l-385 -22 l-2 -199 l129 8 q37 4 63.5 12.5 q26.5 8.5 41 8.5 q14.5 0 41.5 -21 q69 -47 69 -86 q0 -33 -51 -41 l-545 -26 ZM788 713 q-47 0 -78.5 27.5 q-31.5 27.5 -31.5 52.5 q0 18 9 57 q9 39 9 90 l-2 102 q-315 -225 -405 -225 q-27 0 -57.5 22.5 q-30.5 22.5 -52 49 q-21.5 26.5 -21.5 47.5 q0 25 37 31 q145 16 497 198 l-6 332 q0 49 -15.5 74.5 q-15.5 25.5 -15.5 34.5 q0 26 33 26 q23 0 53 -6 q93 -22 93 -76 l6 -780 q0 -57 -52 -57 ZM553 1157 q-27 0 -68 47 q-92 111 -174 168 q-28 23 -28 47.5 q0 24.5 28.5 51 q28.5 26.5 46.5 26.5 q17 0 51.5 -20.5 q34.5 -20.5 200.5 -178.5 q29 -22 29 -51 q0 -26 -32 -58 q-32 -32 -54 -32 ZM551 -186 q-31 0 -47 14 q-49 39 -72 90 q-8 12 -8 23 q0 24 41 24 q47 0 97 11.5 q50 11.5 52 11.5 l9 241 q-168 -94 -307.5 -147 q-139.5 -53 -176.5 -53 q-49 0 -49 26 q0 31 78 66 q346 162 629 393 l-435 -20 q-61 0 -93.5 29.5 q-32.5 29.5 -57.5 90.5 q0 27 22 27 q5 0 29.5 -8 q24.5 -8 63.5 -8 l581 26 l-2 99 q0 28 -15.5 49.5 q-15.5 21.5 -15.5 38.5 q0 24 35 24 q25 0 56 -6 q88 -18 88 -72 l-4 -127 l542 27 q41 4 70 12.5 q29 8.5 45 8.5 q16 0 47 -23 q74 -51 74 -88 q0 -23 -22.5 -28 q-22.5 -5 -762.5 -40 q123 -125 218 -200 q194 116 231 198 q8 19 27 19 q14 0 38 -23 q58 -49 58 -96 q0 -39 -252 -174 q106 -76 267 -150.5 q161 -74.5 317 -117.5 q49 -17 49 -39 q0 -21 -18.5 -48.5 q-18.5 -27.5 -44 -49 q-25.5 -21.5 -36 -21.5 q-10.5 0 -69.5 20 q-197 74 -385 191 q-297 178 -504 420 q-53 -47 -168 -129 l-10 -297 q168 49 278.5 89 q110.5 40 137.5 40 q36 0 36 -31 q0 -29 -57 -64 q-274 -153 -512 -229 q-65 -20 -92 -20 Z" /><glyph glyph-name="uni9009" unicode="&#x9009;" d="M1903 -166 q-277 0 -605 55 q-514 84 -673.5 119 q-159.5 35 -251.5 35 q-94 0 -197 -37 q-20 -6 -35 -6 q-65 0 -65 100 q0 43 65.5 55.5 q65.5 12.5 112.5 18.5 q98 82 217 225 l2 7 q0 4 -45 40.5 q-45 36.5 -102.5 73.5 q-57.5 37 -57.5 84 q0 62 154 266 q-172 -20 -189.5 -22 q-17.5 -2 -33.5 -2 q-23 0 -41 12 q-68 70 -68 113 q0 24 29 24 q41 -8 71 -8 q23 0 175.5 17.5 q152.5 17.5 162.5 17.5 q45 0 79 -23.5 q34 -23.5 34 -52.5 q0 -26 -13.5 -40.5 q-13.5 -14.5 -23.5 -24.5 q-188 -240 -188 -248 q0 -8 4 -10 q158 -93 196 -158 q17 -33 17 -59 q0 -27 -17 -60 q-28 -55 -159 -168 q63 -2 424 -72 q624 -116 1073 -116 q63 0 63 -33 q-41 -123 -114 -123 ZM1632 145 q-123 0 -194.5 22.5 q-71.5 22.5 -98 79 q-26.5 56.5 -26.5 146.5 l6 406 l-117 -8 q-53 -218 -170 -370.5 q-117 -152.5 -252 -230.5 q-51 -30 -69 -30 q-29 0 -29 28 q0 21 37 58 q227 229 313 506 l6 32 l-184 -12 q-35 -4 -63 -4 q-31 0 -71 17.5 q-40 17.5 -69 97.5 q-2 6 -2 18 q0 21 23 21 q10 0 38.5 -7.5 q28.5 -7.5 69.5 -7.5 l430 25 l2 250 l-213 -15 q-84 -127 -146 -182 q-62 -55 -83 -55 q-29 0 -29 28 q0 21 43 84.5 q43 63.5 110 217 q67 153.5 67 231.5 q0 29 -3 41 q0 39 31 39 q19 0 53.5 -17.5 q34.5 -17.5 64.5 -43 q30 -25.5 30 -44.5 q0 -51 -60 -157 l135 8 l2 229 q0 51 -28 82 q-12 12 -12 27 q0 22 30 22 q21 0 56 -6 q110 -22 110 -78 l-2 -268 q180 12 212 21.5 q32 9.5 44 9.5 q14 0 45 -19 q80 -49 80 -90 q0 -30 -55 -39 l-326 -18 l-2 -250 q420 25 441.5 34 q21.5 9 37.5 9 q17 0 47 -22 q72 -54 72 -91 q0 -34 -59 -39 l-426 -24 l-4 -373 q0 -72 12 -100 q16 -49 141 -49 q66 0 103.5 15 q37.5 15 57 67.5 q19.5 52.5 34 160 q14.5 107.5 57.5 107.5 q45 0 50 -68.5 q5 -68.5 5 -228.5 q-2 -47 -24 -86 q-47 -107 -279 -107 ZM543 1116 q-29 0 -74 60 q-113 145 -238 258 q-28 24 -28 51 q0 24 34.5 46.5 q34.5 22.5 51.5 22.5 q14 0 54 -30.5 q40 -30.5 88 -75.5 q48 -45 95 -93 q47 -48 79 -88 q32 -40 32 -61 q0 -22 -34 -56 q-34 -34 -60 -34 Z" /><glyph glyph-name="uni9879" unicode="&#x9879;" d="M795 -213 q-21 0 -21 37 q0 33 43 55 q260 148 365 328 q59 100 85.5 238.5 q26.5 138.5 26.5 428.5 q0 19 -18.5 40.5 q-18.5 21.5 -18.5 37.5 q0 35 39 35 q29 0 74 -13 q45 -13 62.5 -25.5 q17.5 -12.5 17.5 -45.5 q-6 -291 -28.5 -443.5 q-22.5 -152.5 -90.5 -275.5 q-129 -243 -506 -389 q-20 -8 -30 -8 ZM207 231 q-41 0 -90 62.5 q-49 62.5 -49 83.5 q0 26 26 26 q109 0 338 103 l0 610 l-137 -10 q-76 0 -94 24 q-64 64 -64 109 q0 21 21 21 q10 0 30.5 -6.5 q20.5 -6.5 59.5 -6.5 l401 29 q49 6 69.5 14 q20.5 8 35.5 8 q16 0 44.5 -16 q28.5 -16 51 -42 q22.5 -26 22.5 -46 q0 -43 -59 -47 l-229 -19 l-4 -559 q176 82 231 111 q55 29 74 29 q28 0 28 -23 q0 -55 -329 -260 q-316 -195 -377 -195 ZM1067 205 q-39 0 -77 28.5 q-38 28.5 -38 55.5 q0 20 4.5 43.5 q4.5 23.5 4.5 77.5 l-11 632 q0 54 -19.5 93 q-19.5 39 -19.5 53 q0 24 41 24 q29 0 133 -30 l70 4 q115 172 115 215 l-367 -23 q-39 0 -65.5 23.5 q-26.5 23.5 -41 56.5 q-14.5 33 -14.5 43 q0 19 25 19 q12 0 32.5 -5.5 q20.5 -5.5 63.5 -5.5 q25 0 791 47 q59 5 80.5 14 q21.5 9 42 9 q20.5 0 49.5 -20 q63 -50 63 -84 q0 -31 -45 -37 l-471 -29 q17 -12 17 -34.5 q0 -22.5 -49.5 -91.5 q-49.5 -69 -65.5 -87 l387 25 q43 0 73.5 -28 q30.5 -28 30.5 -58 l-10 -43 l-20 -664 l2 -121 q0 -57 -45 -57 q-39 0 -77 28.5 q-38 28.5 -38 55.5 q0 18 3 38.5 q3 20.5 24 714.5 l-549 -34 l16 -791 q0 -57 -45 -57 ZM1874 -186 q-23 0 -80 57 q-137 143 -344 291 q-37 24 -37 47 q0 20 28.5 53 q28.5 33 53.5 33 q21 0 92 -53 q180 -125 334 -271 q33 -26 33 -46.5 q0 -20.5 -15 -45.5 q-30 -65 -65 -65 Z" /></font>
</defs>
</svg>
