<?xml version="1.0" standalone="no"?><!DOCTYPE svg PUBLIC "-//W3C//DTD SVG 1.1//EN" "http://www.w3.org/Graphics/SVG/1.1/DTD/svg11.dtd" ><svg xmlns="http://www.w3.org/2000/svg"><metadata></metadata><defs><font id="BabelStone Han:Version 15.0.5" horiz-adv-x="1024"><font-face font-family="BabelStone Han" font-weight="400" font-stretch="normal" units-per-em="1024" panose-1="2 2 6 4 1 1 1 1 1 1" ascent="1020" descent="-244" x-height="1" bbox="25 -105 998 881" underline-thickness="48" underline-position="-148" unicode-range="U+3002-ff1b" /><missing-glyph horiz-adv-x="1024" d="M937 813 l0 -850 l-850 0 l0 850 l850 0 ZM138 13 l750 0 l0 750 l-750 0 l0 -750 ZM511 704 q90 0 142 -46 q50 -41 50 -96 q-2 -67 -96 -139 q-83 -62 -90 -185 l-19 0 q-3 131 81 212 q64 66 64 112 q-1 54 -38 87 q-42 34 -94 34 q-60 0 -93 -30 q-34 -32 -21 -54 q15 -22 16 -41 q-1 -19 -14 -31 q-13 -11 -28 -11 q-19 1 -32 14 q-15 19 -15 41 q0 46 37 80 q59 53 150 53 ZM509 163 q21 0 34 -12 q13 -13 14 -35 q-1 -22 -14 -35 q-13 -13 -34 -13 q-25 2 -35 15 q-13 14 -12 33 q-1 22 12 34 q13 13 35 13 Z" /><glyph glyph-name="uni3002" unicode="&#x3002;" d="M153 103 q1 46 32 77 q28 26 71 26 q42 0 73 -30 q30 -28 30 -73 q0 -43 -30 -71 q-33 -32 -73 -32 q-43 0 -71 25 q-32 27 -32 78 ZM186 103 q0 -35 21 -52 q18 -18 49 -18 q27 0 49 22 q21 20 21 48 q0 32 -20 49 q-21 21 -50 21 q-31 0 -49 -18 q-21 -21 -21 -52 Z" /><glyph glyph-name="uni4E00" unicode="&#x4e00;" d="M834 427 q14 1 30 19 l26 37 q7 9 16 0 q71 -63 70 -78 q-2 -8 -15 -9 l-804 0 q-42 -1 -73 -7 q-9 -3 -10 6 q-5 18 -20 31 q-8 7 -4 11 q4 3 11 -1 q38 -9 84 -9 l689 0 Z" /><glyph glyph-name="uni4E0A" unicode="&#x4e0a;" d="M736 537 l12 12 l30 42 q7 9 16 0 q71 -63 70 -78 q-2 -8 -15 -9 l-359 0 l0 -501 l340 0 q14 1 30 19 l26 37 q7 9 16 0 q71 -63 70 -78 q-2 -8 -15 -9 l-796 0 q-42 -1 -73 -7 q-9 -3 -10 6 q-5 18 -20 31 q-8 7 -4 11 q4 3 11 -1 q38 -9 84 -9 l293 0 l0 755 q-1 39 -4 70 q-1 16 9 13 q53 -17 71 -26 q14 -9 -2 -16 q-15 -8 -19 -18 q-7 -13 -7 -23 l0 -223 l232 0 l14 2 Z" /><glyph glyph-name="uni4E0B" unicode="&#x4e0b;" d="M516 524 q234 -85 297 -163 q22 -26 21 -51 q-1 -24 -7 -36 q-5 -11 -12 -12 q-7 -1 -14 12 q-68 112 -285 227 l0 -346 q0 -118 4 -197 q-1 -9 -46 -39 q-14 -9 -13 12 q7 133 7 224 l0 589 l-301 0 q-42 -1 -73 -7 q-9 -3 -10 6 q-5 18 -20 31 q-8 7 -4 11 q4 3 11 -1 q38 -9 84 -9 l669 0 q14 1 30 19 l26 37 q7 9 16 0 q71 -63 70 -78 q-2 -8 -15 -9 l-435 0 l0 -220 Z" /><glyph glyph-name="uni4E0D" unicode="&#x4e0d;" d="M631 493 q-7 5 -3 14 q6 7 18 0 q251 -139 305 -236 q18 -28 12 -53 q-4 -25 -11 -35 q-7 -10 -14 -10 q-7 1 -13 14 q-63 141 -294 306 ZM477 531 q5 13 9 23 q2 5 -2 6 q-6 3 -7 -1 q-4 -4 -5 -10 q-134 -200 -404 -405 q-13 -9 -20 -2 q-8 11 2 20 q178 143 272 258 q137 167 209 336 l-364 0 q-42 -1 -73 -7 q-9 -3 -10 6 q-5 18 -20 31 q-8 7 -4 11 q4 3 11 -1 q38 -9 84 -9 l685 0 q14 1 30 19 l26 37 q7 9 16 0 q71 -63 70 -78 q-2 -8 -15 -9 l-377 0 q-42 -89 -91 -170 q42 -13 58 -22 q14 -7 -2 -16 q-16 -8 -20 -18 q-7 -19 -7 -80 l0 -299 q0 -117 4 -196 q1 -8 -5 -12 l-42 -27 q-13 -10 -12 11 q6 133 7 224 l0 299 q-2 47 -3 81 Z" /><glyph glyph-name="uni4E2A" unicode="&#x4e2a;" d="M476 534 q-2 17 10 13 q54 -17 72 -27 q14 -7 -2 -16 q-16 -8 -20 -18 q-7 -19 -7 -80 l0 -247 q0 -117 4 -196 q1 -8 -5 -12 l-42 -27 q-13 -10 -12 11 q6 133 7 224 l0 247 q-1 80 -5 128 ZM544 792 q23 -44 51 -83 q152 -214 374 -262 q7 -1 6 -8 q-1 -8 -14 -7 q-16 1 -35 -6 q-22 -9 -35 -31 q-4 -6 -16 3 q-257 173 -350 387 q-12 -9 -37 -43 q-206 -251 -420 -365 q-12 -6 -16 1 q-4 8 5 14 q152 97 258 211 q93 103 168 245 q5 10 12 6 q39 -24 67 -46 q8 -7 5 -11 q-3 -6 -18 -5 q-4 1 -5 0 Z" /><glyph glyph-name="uni4E2D" unicode="&#x4e2d;" d="M467 722 q-1 80 -5 128 q-2 17 10 13 q54 -17 72 -27 q14 -7 -2 -16 q-16 -8 -20 -18 q-7 -19 -7 -80 l0 -67 l273 0 q12 0 19 7 l25 26 q5 7 14 1 q31 -23 53 -42 q7 -8 -2 -9 q-17 -3 -26 -12 q-8 -9 -8 -19 l0 -152 q1 -68 8 -167 q0 -13 -10 -19 q-45 -26 -49 -25 q-4 2 -3 18 q2 29 3 66 l-297 0 l0 -177 q0 -117 4 -196 q1 -8 -5 -12 l-42 -27 q-13 -10 -12 11 q6 133 7 224 l0 177 l-293 0 q0 -27 1 -49 q-1 -15 -38 -40 q-8 -4 -12 -4 q-6 1 -5 20 q4 100 7 206 l0 136 q-1 32 -7 78 q-2 10 1 11 q1 0 40 -31 l306 0 l0 67 ZM467 624 l-292 0 l0 -163 q-1 -56 -1 -102 l293 0 l0 265 ZM515 359 l298 0 q1 31 2 67 l0 198 l-300 0 l0 -265 Z" /><glyph glyph-name="uni4E34" unicode="&#x4e34;" d="M69 682 q-2 17 10 13 q54 -17 72 -27 q14 -7 -2 -16 q-16 -8 -20 -18 q-7 -19 -7 -80 l0 -227 q0 -117 4 -196 q1 -8 -5 -12 l-42 -27 q-13 -10 -12 11 q6 133 7 224 l0 227 q-1 80 -5 128 ZM253 830 q-2 17 10 13 q54 -17 72 -27 q14 -7 -2 -16 q-16 -8 -20 -18 q-7 -19 -7 -80 l0 -543 q0 -117 4 -196 q1 -8 -5 -12 l-42 -27 q-13 -10 -12 11 q6 133 7 224 l0 543 q-1 80 -5 128 ZM828 705 l12 12 l30 42 q7 9 16 0 q71 -63 70 -78 q-2 -8 -15 -9 l-430 0 q-54 -121 -135 -232 q-9 -11 -16 -5 q-7 7 0 17 q64 94 110 227 q45 132 45 175 q0 17 18 8 q39 -21 55 -31 q12 -6 11 -12 q0 -6 -9 -5 q-9 0 -19 -10 q-15 -14 -45 -101 l288 0 l14 2 ZM597 595 q-5 7 -1 13 q4 5 16 -2 q124 -74 127 -122 q3 -21 -12 -49 q-13 -23 -23 -23 q-10 1 -13 20 q-18 81 -94 163 ZM485 12 q0 -27 1 -49 q-1 -15 -38 -40 q-8 -4 -12 -4 q-6 1 -5 20 q4 100 7 206 l0 180 q-1 32 -7 78 q-2 10 1 11 q1 0 40 -31 l359 0 q12 0 19 7 l25 26 q5 7 14 1 q31 -23 53 -42 q7 -8 -2 -9 q-17 -3 -26 -12 q-8 -9 -8 -19 l0 -200 q1 -68 8 -167 q0 -13 -10 -19 q-45 -26 -49 -25 q-4 2 -3 18 q3 30 4 70 l-371 0 ZM486 145 q-1 -56 -1 -102 l157 0 l0 309 l-156 0 l0 -207 ZM690 43 l166 0 q1 30 2 63 l0 246 l-168 0 l0 -309 Z" /><glyph glyph-name="uni4E3A" unicode="&#x4e3a;" d="M490 551 q6 59 6 120 l0 80 q-1 36 -8 90 q-2 13 2 16 q3 3 12 -1 q43 -18 74 -34 q7 -5 7 -9 q0 -7 -6 -8 q-15 -5 -22 -18 q-8 -15 -11 -36 l0 -80 q-1 -62 -5 -120 l293 0 q11 1 15 5 l23 32 q6 10 15 0 q37 -30 59 -54 q6 -7 -3 -10 q-32 -11 -33 -35 q-24 -376 -33 -433 q-20 -99 -111 -138 q-8 -4 -9 2 q-6 23 -19 35 q-16 13 -80 22 q-15 2 -14 12 q2 10 14 7 q125 -11 141 7 q17 17 27 48 q15 54 22 199 q9 173 16 270 l-327 0 q-20 -190 -98 -326 q-100 -160 -340 -274 q-15 -6 -18 1 q-5 11 5 15 q83 44 147 90 q210 158 255 494 l-299 0 q-42 -1 -73 -7 q-9 -3 -10 6 q-5 18 -20 31 q-8 7 -4 11 q4 3 11 -1 q38 -9 84 -9 l315 0 ZM234 807 q-4 7 0 13 q6 5 16 -2 q122 -78 125 -126 q2 -21 -14 -49 q-12 -23 -24 -22 q-11 1 -12 20 q-19 88 -91 166 ZM582 371 q-4 7 0 13 q4 5 16 -2 q133 -84 136 -138 q3 -21 -13 -49 q-12 -23 -24 -23 q-11 1 -12 20 q-21 94 -103 179 Z" /><glyph glyph-name="uni4E3B" unicode="&#x4e3b;" d="M410 859 q-4 7 0 13 q6 6 16 -3 q122 -79 125 -130 q2 -20 -14 -48 q-14 -23 -24 -22 q-11 1 -12 20 q-16 86 -91 170 ZM852 -17 q14 1 30 19 l26 37 q7 9 16 0 q71 -63 70 -78 q-2 -8 -15 -9 l-840 0 q-42 -1 -73 -7 q-9 -3 -10 6 q-5 18 -20 31 q-8 7 -4 11 q4 3 11 -1 q38 -9 84 -9 l353 0 l0 313 l-225 0 q-42 -1 -73 -7 q-9 -3 -10 6 q-5 18 -20 31 q-8 7 -4 11 q4 3 11 -1 q38 -9 84 -9 l237 0 l0 277 l-285 0 q-42 -1 -73 -7 q-9 -3 -10 6 q-5 18 -20 31 q-8 7 -4 11 q4 3 11 -1 q38 -9 84 -9 l617 0 q14 1 30 19 l26 37 q7 9 16 0 q71 -63 70 -78 q-2 -8 -15 -9 l-399 0 l0 -277 l204 0 q14 1 30 19 l26 37 q7 9 16 0 q71 -63 70 -78 q-2 -8 -15 -9 l-331 0 l0 -313 l324 0 Z" /><glyph glyph-name="uni4E49" unicode="&#x4e49;" d="M513 186 q-121 -136 -451 -269 q-15 -4 -18 6 q-3 11 9 15 q198 78 339 192 q7 6 91 90 q-144 167 -258 506 q-2 9 5 13 q9 2 13 -8 q138 -340 265 -479 q61 87 113 232 q57 154 70 278 q1 9 4 10 q5 3 15 -3 q35 -19 65 -38 q6 -5 6 -9 q-2 -6 -15 -10 q-24 -8 -31 -39 q-89 -328 -194 -455 q102 -98 214 -155 q62 -32 221 -77 q6 -1 6 -8 q-2 -8 -9 -8 q-17 -1 -33 -11 q-18 -11 -25 -30 q-4 -7 -13 -1 q-265 123 -389 258 ZM381 824 q-6 8 1 15 q7 5 17 -5 q127 -110 145 -170 q9 -34 -1 -56 q-11 -21 -21 -30 q-9 -7 -16 -6 q-7 3 -8 16 q-12 94 -117 236 Z" /><glyph glyph-name="uni4E4B" unicode="&#x4e4b;" d="M414 855 q-5 7 -1 13 q4 5 16 -2 q124 -74 127 -122 q3 -21 -12 -49 q-13 -23 -23 -23 q-10 1 -13 20 q-18 81 -94 163 ZM704 651 q12 1 18 5 l32 33 q5 7 9 7 q13 -1 55 -61 q3 -4 2 -8 q-3 -3 -9 -3 q-33 -3 -91 -73 q-256 -286 -469 -425 q22 -6 61 -28 q42 -24 73 -39 q113 -50 584 -25 q9 1 9 -6 q0 -9 -13 -10 q-54 -6 -76 -51 q-5 -9 -12 -8 q-59 3 -135 2 q-136 1 -218 10 q-103 14 -199 86 q-25 19 -41 29 q-51 33 -78 11 q-58 -37 -88 -115 q-4 -12 -8 -12 q-6 0 -10 10 q-18 31 -45 50 q-10 9 0 13 q56 32 123 66 q0 2 4 1 q0 1 1 1 q-1 1 2 1 q147 96 322 282 q177 207 177 225 q-1 2 -4 1 l-502 0 q-42 -1 -73 -7 q-9 -3 -10 6 q-5 18 -20 31 q-8 7 -4 11 q4 3 11 -1 q38 -9 84 -9 l538 0 Z" /><glyph glyph-name="uni4E5F" unicode="&#x4e5f;" d="M809 231 q-20 -31 -66 -50 q-15 -8 -15 10 q-14 27 -99 46 q-12 3 -11 13 q2 8 14 7 q110 -13 126 5 q22 16 29 67 q10 84 10 274 l-255 -86 l0 -198 q0 -117 4 -196 q1 -8 -5 -12 l-42 -27 q-13 -10 -12 11 q6 133 7 224 l0 180 l-232 -79 l0 -416 q1 -18 17 -21 q14 -3 75 -3 l434 0 q64 1 82 14 q25 14 47 155 q1 18 13 17 q13 -2 12 -18 q-2 -94 5 -118 q6 -18 22 -31 q10 -7 1 -16 q-40 -51 -152 -51 l-458 0 q-99 1 -123 16 q-23 15 -23 54 l0 402 l-21 -7 q-77 -18 -105 -46 q-6 -6 -9 0 q-13 21 -29 28 q-6 2 -5 6 q2 6 9 5 q47 4 126 38 l34 11 l0 143 q0 79 -4 128 q0 16 10 12 q53 -17 71 -27 q14 -8 -2 -17 q-16 -8 -20 -17 q-7 -18 -7 -79 l0 -127 l232 79 l0 176 q-1 80 -5 128 q-2 17 10 13 q54 -17 72 -27 q14 -7 -2 -16 q-16 -8 -20 -18 q-7 -19 -7 -80 l0 -160 l232 79 q11 4 14 11 l18 37 q2 5 6 5 q11 1 72 -47 q6 -5 5 -9 q-2 -5 -15 -9 q-7 -1 -10 -4 q-25 -8 -24 -78 q-1 -256 -31 -304 Z" /><glyph glyph-name="uni4E86" unicode="&#x4e86;" d="M778 807 q7 0 11 7 l32 28 q4 4 8 4 q13 -1 80 -71 q8 -7 5 -14 q-4 -5 -19 -4 q-15 1 -27 0 q-60 -5 -297 -164 q3 -2 6 -3 q12 -8 -3 -15 q-18 -8 -22 -17 q-6 -19 -6 -80 l0 -450 q-2 -37 -18 -62 q-25 -37 -50 -50 q-8 -8 -12 -8 q-4 0 -11 22 q-9 32 -21 42 q-12 13 -73 19 q-16 2 -15 15 q1 14 17 13 q96 -21 120 -9 q14 6 15 28 l0 440 q-1 80 -4 129 q-3 16 7 13 q28 -10 46 -17 q127 86 221 173 l-551 0 q-42 -1 -73 -7 q-9 -3 -10 6 q-5 18 -20 31 q-8 7 -4 11 q4 3 11 -1 q38 -9 84 -9 l573 0 Z" /><glyph glyph-name="uni4E8E" unicode="&#x4e8e;" d="M546 20 q-1 -42 -17 -61 q-19 -21 -58 -31 q-11 -6 -12 4 q-3 31 -15 37 q-21 13 -85 26 q-12 2 -11 12 q1 11 43 8 q86 -5 93 4 q13 14 14 39 l0 398 l-345 0 q-42 -1 -73 -7 q-9 -3 -10 6 q-5 18 -20 31 q-8 7 -4 11 q4 3 11 -1 q38 -9 84 -9 l357 0 l0 237 l-257 0 q-42 -1 -73 -7 q-9 -3 -10 6 q-5 18 -20 31 q-8 7 -4 11 q4 3 11 -1 q38 -9 84 -9 l525 0 q14 1 30 19 l26 37 q7 9 16 0 q71 -63 70 -78 q-2 -8 -15 -9 l-335 0 l0 -237 l292 0 q14 1 30 19 l26 37 q7 9 16 0 q71 -63 70 -78 q-2 -8 -15 -9 l-419 0 l0 -436 Z" /><glyph glyph-name="uni4E92" unicode="&#x4e92;" d="M830 11 q14 1 30 19 l26 37 q7 9 16 0 q71 -63 70 -78 q-2 -8 -15 -9 l-796 0 q-42 -1 -73 -7 q-9 -3 -10 6 q-5 18 -20 31 q-8 7 -4 11 q4 3 11 -1 q38 -9 84 -9 l474 0 l16 221 l-307 0 l-18 -28 q-8 -10 -17 2 q-16 16 -38 32 q-11 8 2 15 q27 17 36 68 l60 411 l-172 0 q-42 -1 -73 -7 q-9 -3 -10 6 q-5 18 -20 31 q-8 7 -4 11 q4 3 11 -1 q38 -9 84 -9 l601 0 q14 1 30 19 l26 37 q7 9 16 0 q71 -63 70 -78 q-2 -8 -15 -9 l-500 0 l-27 -177 l269 0 q6 0 9 3 l24 27 q6 10 16 0 q32 -21 57 -43 q5 -8 4 -12 q-2 -5 -14 -5 q-11 1 -18 -8 q-10 -12 -11 -30 l-34 -476 l154 0 ZM641 263 l18 261 l-289 0 l-38 -261 l309 0 Z" /><glyph glyph-name="uni4EA4" unicode="&#x4ea4;" d="M824 703 q14 1 30 19 l26 37 q7 9 16 0 q71 -63 70 -78 q-2 -8 -15 -9 l-788 0 q-42 -1 -73 -7 q-9 -3 -10 6 q-5 18 -20 31 q-8 7 -4 11 q4 3 11 -1 q38 -9 84 -9 l351 0 l-1 2 q0 71 -63 150 q-4 7 0 13 q6 4 16 -3 q96 -60 99 -102 q2 -33 -25 -60 l296 0 ZM331 635 q6 10 13 6 q28 -13 68 -41 q8 -7 7 -11 q-3 -6 -19 -5 q-25 4 -47 -24 q-125 -135 -260 -213 q-13 -7 -17 2 q-5 9 4 15 q155 103 251 271 ZM619 613 q-7 5 -3 14 q5 8 17 1 q197 -99 239 -165 q19 -28 15 -53 q-4 -25 -11 -35 q-6 -10 -13 -11 q-7 1 -13 14 q-48 109 -231 235 ZM476 165 q-74 103 -141 304 q-6 14 6 18 q12 5 16 -11 q56 -161 144 -275 q98 169 128 298 q1 9 5 10 q11 4 74 -50 q6 -6 5 -10 q-1 -5 -17 -8 q-22 -7 -34 -35 q-65 -155 -126 -245 q20 -19 41 -37 q171 -136 387 -136 q7 -1 6 -8 q0 -8 -15 -9 q-46 -4 -70 -44 q-6 -8 -16 -2 q-248 76 -360 199 q-49 -60 -125 -105 q-104 -59 -291 -108 q-17 -4 -18 8 q-2 11 11 14 q272 76 390 232 Z" /><glyph glyph-name="uni4EA7" unicode="&#x4ea7;" d="M807 735 q14 1 30 19 l26 37 q7 9 16 0 q71 -63 70 -78 q-2 -8 -15 -9 l-700 0 q-42 -1 -73 -7 q-9 -3 -10 6 q-5 18 -20 31 q-8 7 -4 11 q4 3 11 -1 q38 -9 84 -9 l311 0 q-1 3 -1 6 q-5 53 -47 110 q-4 7 0 13 q6 6 16 -3 q78 -40 81 -70 q2 -20 -14 -48 q-4 -4 -5 -8 l244 0 ZM247 402 q0 -110 -13 -192 q-28 -178 -145 -280 q-9 -7 -16 0 q-3 4 -3 5 q0 4 40 58 q89 135 89 409 l0 79 q0 42 -4 69 q-3 13 3 14 q5 2 12 -8 q16 -22 38 -41 l176 0 q-1 65 -67 152 q-4 7 0 13 q6 4 16 -3 q100 -65 103 -110 q2 -31 -19 -52 l163 0 q1 4 4 8 q36 77 48 158 q1 8 4 9 q6 2 75 -34 q12 -7 11 -13 q-2 -5 -8 -5 q-31 0 -46 -36 q-19 -35 -58 -87 l161 0 l14 2 l12 12 l30 42 q7 9 16 0 q71 -63 70 -78 q-2 -8 -15 -9 l-691 0 l0 -82 Z" /><glyph glyph-name="uni4EE3" unicode="&#x4ee3;" d="M255 615 q28 -8 43 -18 q21 -13 -4 -20 q-14 -5 -17 -12 q-7 -18 -7 -79 l0 -339 q0 -118 4 -199 q-2 -10 -48 -37 q-13 -7 -12 12 q7 133 8 224 l0 339 q-2 37 -3 65 q-81 -131 -154 -224 q-10 -10 -17 -4 q-8 7 1 17 q91 113 166 281 q73 165 77 220 q2 17 18 7 q64 -39 64 -48 q-1 -6 -10 -5 q-10 2 -20 -7 q-13 -12 -41 -78 q-23 -46 -48 -95 ZM899 -4 q13 4 22 37 q16 50 29 120 q1 9 10 8 q10 -1 9 -11 q-18 -146 1 -182 q14 -23 2 -36 q-11 -13 -56 0 q-93 23 -166 87 q-99 92 -148 243 q-27 90 -39 255 l-135 -7 q-38 -3 -63 -13 q-7 -5 -11 7 q-7 16 -19 26 q-9 8 -8 12 q3 5 10 2 q28 -3 71 1 l153 7 q-4 53 -5 113 q-2 119 -14 183 q-1 8 2 9 q2 2 14 -1 q38 -12 72 -25 q9 -4 9 -8 q-1 -8 -11 -9 q-21 -5 -27 -12 q-13 -23 0 -248 l222 12 q13 0 17 6 l34 47 q10 16 20 3 q29 -29 57 -60 q7 -8 4 -15 q-2 -8 -21 -9 l-330 -19 q10 -127 32 -212 q61 -242 223 -306 q27 -9 40 -5 ZM702 812 q-7 5 -3 12 q3 6 16 2 q128 -39 146 -88 q7 -19 -2 -50 q-6 -27 -18 -28 q-10 -2 -16 17 q-36 77 -123 135 Z" /><glyph glyph-name="uni4EE4" unicode="&#x4ee4;" d="M557 814 q2 -5 5 -11 q138 -282 418 -366 q6 -1 5 -8 q-2 -7 -14 -6 q-17 2 -36 -5 q-21 -8 -36 -29 q-5 -6 -15 3 q-145 106 -229 209 q-72 89 -118 209 q-1 0 -1 -1 q-11 -8 -42 -54 q-117 -162 -207 -249 q-91 -93 -230 -180 q-12 -7 -16 0 q-3 8 4 14 q161 115 272 247 q96 117 169 279 q3 10 12 6 q41 -23 69 -42 q9 -7 6 -11 q-3 -5 -16 -5 ZM425 587 q-6 7 -2 13 q5 6 17 -1 q138 -72 148 -126 q4 -20 -9 -50 q-10 -24 -22 -25 q-10 0 -13 19 q-28 91 -119 170 ZM706 355 q7 0 11 7 l32 28 q4 4 8 4 q13 -1 80 -71 q8 -7 5 -14 q-4 -5 -19 -4 q-35 1 -65 -8 q-55 -41 -211 -219 q74 -38 101 -69 q24 -26 23 -51 q0 -24 -4 -36 q-5 -11 -12 -12 q-8 -2 -15 11 q-83 119 -333 233 q-9 4 -5 13 q4 8 17 4 q125 -40 207 -83 q97 118 170 236 l-395 0 q-42 -1 -73 -7 q-9 -3 -10 6 q-5 18 -20 31 q-8 7 -4 11 q4 3 11 -1 q38 -9 84 -9 l417 0 Z" /><glyph glyph-name="uni4EE5" unicode="&#x4ee5;" d="M358 735 q-6 7 0 13 q6 5 16 -4 q144 -112 144 -178 q1 -19 -17 -47 q-14 -22 -26 -21 q-10 2 -10 21 q-17 108 -107 216 ZM719 227 q155 -111 189 -183 q12 -31 5 -55 q-8 -23 -17 -33 q-8 -8 -15 -7 q-7 2 -10 15 q-25 100 -163 244 q-99 -174 -484 -274 q-15 -4 -16 6 q-2 9 10 12 q310 95 415 224 q55 66 80 166 q15 92 15 207 l0 125 q0 79 -4 128 q0 16 10 13 q53 -18 72 -27 q13 -10 -3 -17 q-16 -8 -20 -18 q-7 -18 -7 -79 l0 -125 q-2 -204 -57 -322 ZM188 142 q165 105 319 172 q15 7 19 -3 q2 -11 -11 -17 q-179 -90 -365 -258 q-8 -9 -12 3 q-8 22 -27 40 q-8 8 -1 12 q30 26 30 48 l0 575 q-1 39 -4 70 q-1 16 9 13 q53 -17 71 -26 q14 -9 -2 -16 q-15 -8 -19 -18 q-7 -13 -7 -23 l0 -572 Z" /><glyph glyph-name="uni4EF6" unicode="&#x4ef6;" d="M220 595 q44 -14 60 -23 q14 -7 -2 -16 q-16 -8 -20 -18 q-7 -19 -7 -80 l0 -307 q0 -117 4 -196 q1 -8 -5 -12 l-42 -27 q-13 -10 -12 11 q6 133 7 224 l0 307 q-2 57 -3 97 q-75 -139 -138 -227 q-10 -11 -17 -5 q-7 7 0 17 q86 119 150 290 q64 169 65 224 q0 18 18 8 q39 -21 54 -31 q13 -7 12 -13 q-2 -6 -9 -5 q-9 1 -19 -9 q-13 -13 -38 -80 q-25 -62 -58 -129 ZM635 572 l-183 0 q-42 -105 -99 -195 q-9 -12 -16 -6 q-8 5 -1 17 q47 83 77 200 q30 115 26 151 q0 16 18 9 q40 -17 56 -27 q13 -5 13 -11 q0 -7 -9 -6 q-9 -1 -18 -11 q-2 0 -35 -90 l171 0 l0 115 q-1 80 -5 128 q-2 17 10 13 q54 -17 72 -27 q14 -7 -2 -16 q-16 -8 -20 -18 q-7 -19 -7 -80 l0 -115 l120 0 l14 2 l12 12 l30 42 q7 9 16 0 q71 -63 70 -78 q-2 -8 -15 -9 l-247 0 l0 -237 l160 0 q14 1 30 19 l26 37 q7 9 16 0 q71 -63 70 -78 q-2 -8 -15 -9 l-287 0 l0 -153 q0 -117 4 -196 q1 -8 -5 -12 l-42 -27 q-13 -10 -12 11 q6 133 7 224 l0 153 l-237 0 q-42 -1 -73 -7 q-9 -3 -10 6 q-5 18 -20 31 q-8 7 -4 11 q4 3 11 -1 q38 -9 84 -9 l249 0 l0 237 Z" /><glyph glyph-name="uni4EFB" unicode="&#x4efb;" d="M239 597 q51 -15 67 -25 q14 -7 -2 -16 q-16 -8 -20 -18 q-7 -19 -7 -80 l0 -307 q0 -117 4 -196 q1 -8 -5 -12 l-42 -27 q-13 -10 -12 11 q6 133 7 224 l0 307 q-1 70 -4 113 q-84 -134 -165 -236 q-10 -11 -17 -4 q-7 7 2 17 q94 114 170 283 q76 167 80 222 q2 17 18 7 q39 -23 52 -35 q12 -9 11 -13 q-2 -6 -9 -5 q-10 1 -20 -8 q-13 -11 -43 -78 q-29 -60 -65 -124 ZM817 19 q14 1 30 19 l26 37 q7 9 16 0 q71 -63 70 -78 q-2 -8 -15 -9 l-484 0 q-42 -1 -73 -7 q-9 -3 -10 6 q-5 18 -20 31 q-8 7 -4 11 q4 3 11 -1 q38 -9 84 -9 l185 0 l0 353 l-209 0 q-42 -1 -73 -7 q-9 -3 -10 6 q-5 18 -20 31 q-8 7 -4 11 q4 3 11 -1 q38 -9 84 -9 l221 0 l0 305 q-123 -18 -232 -22 q-17 -1 -17 9 q-1 10 12 11 q303 38 453 104 q12 6 16 -1 q16 -33 43 -60 q7 -10 4 -14 q-3 -4 -16 0 q-38 9 -75 2 q-106 -7 -140 -22 l0 -312 l164 0 q14 1 30 19 l26 37 q7 9 16 0 q71 -63 70 -78 q-2 -8 -15 -9 l-291 0 l0 -353 l136 0 Z" /><glyph glyph-name="uni4F1A" unicode="&#x4f1a;" d="M521 805 q46 -76 118 -148 q172 -164 338 -179 q6 -1 5 -8 q0 -8 -13 -8 q-16 1 -35 -8 q-20 -10 -33 -32 q-3 -6 -15 1 q-275 162 -384 373 q-10 -10 -26 -32 q-97 -116 -179 -192 q-105 -94 -234 -172 q-13 -8 -17 1 q-5 9 4 15 q253 163 415 437 q6 11 13 7 q28 -14 68 -39 q9 -7 8 -11 q-3 -6 -19 -5 q-10 1 -14 0 ZM710 42 q-43 63 -101 117 q-5 7 -1 13 q4 5 16 -2 q172 -109 179 -182 q3 -19 -12 -49 q-11 -24 -23 -23 q-10 0 -13 19 q-13 50 -34 87 q-343 -46 -484 -91 q-13 -3 -14 4 l-24 59 q0 4 25 11 q100 50 220 287 l-223 0 q-42 -1 -73 -7 q-9 -3 -10 6 q-5 18 -20 31 q-8 7 -4 11 q4 3 11 -1 q38 -9 84 -9 l529 0 q14 1 30 19 l26 37 q7 9 16 0 q71 -63 70 -78 q-2 -8 -15 -9 l-401 0 q33 -23 64 -48 q7 -5 6 -11 q-2 -5 -11 -4 q-38 8 -71 -40 q-65 -87 -153 -169 q-9 -9 -8 -12 q1 -5 25 -1 q216 34 394 35 ZM558 491 q14 1 30 19 l26 37 q7 9 16 0 q71 -63 70 -78 q-2 -8 -15 -9 l-288 0 q-42 -1 -75 -5 q-8 -3 -9 6 q-5 16 -18 28 q-7 6 -4 10 q3 3 10 -1 q38 -7 84 -7 l173 0 Z" /><glyph glyph-name="uni4F46" unicode="&#x4f46;" d="M216 607 q36 -12 49 -19 q14 -7 -2 -16 q-16 -8 -20 -18 q-7 -19 -7 -80 l0 -323 q0 -117 4 -196 q1 -8 -5 -12 l-42 -27 q-13 -10 -12 11 q6 133 7 224 l0 323 q-1 44 -2 75 q-44 -85 -123 -193 q-10 -11 -17 -5 q-7 7 0 17 q83 112 144 274 q62 161 63 213 q2 17 18 7 q39 -21 54 -31 q13 -7 12 -13 q-1 -6 -10 -5 q-9 1 -19 -9 q-2 -1 -92 -197 ZM459 212 q0 -38 1 -69 q-1 -15 -38 -40 q-8 -4 -12 -4 q-6 1 -5 20 q4 100 7 206 l0 380 q-1 32 -7 78 q-2 10 1 11 q4 2 14 -8 q10 -11 28 -24 l0 1 l317 0 q12 0 19 7 l25 26 q5 7 14 1 q31 -23 53 -42 q7 -8 -2 -9 q-17 -3 -26 -12 q-8 -9 -8 -19 l0 -396 q1 -68 8 -167 q0 -13 -10 -19 q-45 -26 -49 -25 q-4 2 -3 18 q3 35 4 86 l-331 0 ZM460 325 q-1 -43 -1 -82 l332 0 q0 23 1 47 l0 178 l-332 0 l0 -143 ZM460 499 l332 0 l0 233 l-332 0 l0 -233 ZM868 -5 q6 0 12 7 l36 41 q7 7 14 0 q26 -26 44 -48 q11 -14 4 -24 q-5 -6 -18 -7 l-569 0 q-42 -1 -73 -7 q-8 -3 -11 6 q-4 18 -19 30 q-7 7 -4 11 q4 3 11 -1 q38 -8 84 -8 l489 0 Z" /><glyph glyph-name="uni4F4D" unicode="&#x4f4d;" d="M228 589 q39 -12 54 -21 q14 -7 -2 -16 q-16 -8 -20 -18 q-7 -19 -7 -80 l0 -303 q0 -117 4 -196 q1 -8 -5 -12 l-42 -27 q-13 -10 -12 11 q6 133 7 224 l0 303 q-2 50 -3 86 q-66 -118 -142 -220 q-10 -11 -17 -5 q-8 7 1 17 q89 120 159 292 q70 172 71 227 q2 17 18 8 q39 -21 54 -33 q12 -7 12 -13 q-1 -5 -10 -4 q-9 0 -19 -9 q-13 -12 -40 -81 q-28 -63 -61 -130 ZM551 851 q-4 7 0 13 q6 4 16 -3 q116 -81 119 -130 q0 -20 -16 -48 q-13 -22 -25 -21 q-10 1 -11 20 q-13 84 -83 169 ZM813 647 q14 1 30 19 l26 37 q7 9 16 0 q71 -63 70 -78 q-2 -8 -15 -9 l-500 0 q-42 -1 -73 -7 q-9 -3 -10 6 q-5 18 -20 31 q-8 7 -4 11 q4 3 11 -1 q38 -9 84 -9 l385 0 ZM421 533 q-4 9 6 13 q8 4 14 -9 q132 -255 126 -363 q0 -34 -18 -52 q-17 -17 -29 -23 q-10 -4 -17 0 q-6 5 -3 18 q24 149 -79 416 ZM845 3 q14 1 30 19 l26 37 q7 9 16 0 q71 -63 70 -78 q-2 -8 -15 -9 l-580 0 q-42 -1 -73 -7 q-9 -3 -10 6 q-5 18 -20 31 q-8 7 -4 11 q4 3 11 -1 q38 -9 84 -9 l271 0 q2 3 3 6 q100 277 112 530 q1 15 5 18 q5 3 21 -6 q26 -14 47 -29 q15 -10 15 -17 q-1 -5 -8 -8 q-28 -12 -47 -106 q-50 -204 -123 -388 l169 0 Z" /><glyph glyph-name="uni4F5C" unicode="&#x4f5c;" d="M232 616 q30 -9 46 -19 q21 -13 -4 -20 q-14 -5 -17 -12 q-7 -18 -7 -79 l0 -339 q0 -118 4 -199 q-2 -10 -48 -37 q-13 -7 -12 12 q7 133 8 224 l0 339 q-2 41 -3 69 q-10 -14 -17 -30 q-49 -83 -125 -182 q-10 -10 -17 -4 q-8 7 1 17 q91 116 161 285 q70 168 73 223 q3 17 19 7 q38 -23 53 -33 q12 -7 11 -13 q-1 -6 -10 -5 q-9 1 -19 -8 q-13 -12 -40 -79 q-26 -56 -57 -117 ZM842 207 q13 0 23 12 l35 41 q9 8 16 1 q26 -28 45 -53 q11 -15 8 -24 q-3 -7 -18 -8 l-325 0 l0 -25 q0 -118 4 -197 q-1 -9 -46 -39 q-14 -9 -13 12 q7 133 7 224 l0 497 l-70 0 q-28 -45 -59 -93 q-49 -73 -124 -157 q-10 -10 -17 -3 q-7 7 2 17 q88 101 161 249 q71 148 77 197 q3 17 19 7 q36 -24 51 -37 q11 -8 10 -14 q-1 -5 -10 -4 q-9 2 -19 -7 q-4 -1 -73 -124 l336 0 q13 0 23 12 l35 41 q9 8 16 1 q26 -28 45 -53 q11 -15 8 -24 q-3 -7 -18 -8 l-345 0 l0 -205 l160 0 q13 0 23 12 l35 41 q9 8 16 1 q26 -28 45 -53 q11 -15 8 -24 q-3 -7 -18 -8 l-269 0 l0 -205 l216 0 Z" /><glyph glyph-name="uni4F60" unicode="&#x4f60;" d="M244 589 q39 -12 54 -21 q14 -7 -2 -16 q-16 -8 -20 -18 q-7 -19 -7 -80 l0 -307 q0 -117 4 -196 q1 -8 -5 -12 l-42 -27 q-13 -10 -12 11 q6 133 7 224 l0 307 q-2 53 -3 90 q-89 -138 -150 -213 q-10 -11 -17 -4 q-8 7 2 17 q92 113 167 281 q75 165 79 220 q2 17 18 7 q64 -39 64 -48 q-3 -6 -10 -5 q-10 1 -20 -8 q-4 -1 -107 -202 ZM850 631 q9 1 13 5 l31 31 q3 4 6 4 q15 -1 75 -64 q5 -8 -8 -9 q-61 -7 -124 -112 q-8 -12 -17 -8 q-8 5 -1 18 q28 59 43 104 l-357 0 q-67 -113 -151 -213 q-10 -11 -17 -4 q-7 7 2 17 q81 100 148 247 q66 146 70 194 q2 17 18 7 q39 -23 52 -35 q12 -9 11 -13 q-1 -6 -10 -5 q-9 1 -19 -8 q-2 0 -86 -156 l321 0 ZM685 32 q-2 -37 -18 -62 q-25 -37 -50 -50 q-8 -7 -12 -7 q-3 1 -9 20 q-10 29 -20 39 q-10 13 -68 19 q-16 2 -15 15 q1 14 17 13 q91 -15 112 -5 q14 6 15 28 l0 364 q-1 80 -4 129 q-3 16 7 13 q57 -20 76 -30 q12 -8 -3 -15 q-18 -8 -22 -17 q-6 -19 -6 -80 l0 -374 ZM483 405 q2 17 18 7 q64 -39 64 -48 q-1 -6 -10 -5 q-22 3 -49 -61 q-73 -146 -170 -263 q-10 -11 -17 -4 q-8 7 1 17 q63 82 112 200 q50 118 51 157 ZM768 373 q-5 7 2 14 q8 5 15 -5 q159 -155 180 -239 q7 -30 -3 -51 q-10 -21 -19 -28 q-8 -7 -15 -6 q-7 3 -8 16 q-11 116 -152 299 Z" /><glyph glyph-name="uni4F7F" unicode="&#x4f7f;" d="M221 605 q50 -15 66 -25 q14 -7 -2 -16 q-16 -8 -20 -18 q-7 -19 -7 -80 l0 -311 q0 -117 4 -196 q1 -8 -5 -12 l-42 -27 q-13 -10 -12 11 q6 133 7 224 l0 311 q-1 69 -4 112 q-70 -114 -149 -211 q-10 -11 -17 -4 q-7 7 2 17 q86 106 156 263 q70 154 74 206 q2 17 18 7 q39 -23 52 -35 q12 -9 11 -13 q-2 -6 -9 -5 q-10 1 -20 -8 q-12 -11 -40 -72 q-29 -57 -63 -118 ZM564 131 q-44 65 -78 156 q-5 15 5 19 q10 4 14 -11 q32 -78 75 -133 q33 76 45 190 l-167 0 l0 -43 q-1 -8 -5 -9 q-10 -4 -32 -13 q-15 -6 -14 4 q2 26 3 51 l0 210 q-1 26 -2 45 q0 9 4 10 q4 3 13 -6 q13 -13 31 -26 l178 0 l0 109 l-197 0 q-42 -1 -73 -7 q-8 -3 -11 6 q-4 18 -19 30 q-7 7 -4 11 q4 3 11 -1 q38 -8 84 -8 l208 0 q0 65 -4 123 q-2 14 1 17 q3 3 10 0 q41 -16 74 -29 q9 -5 9 -9 q-1 -5 -11 -9 q-26 -11 -27 -21 q-3 -17 -3 -72 l180 0 q6 0 12 7 l36 41 q7 7 14 0 q26 -26 44 -48 q11 -14 4 -24 q-5 -6 -18 -7 l-272 0 l0 -109 l144 0 q6 0 9 4 l18 28 q7 8 14 1 q29 -19 57 -41 q6 -6 5 -12 q-3 -6 -13 -7 q-12 -2 -18 -12 q-4 -9 -4 -22 l0 -100 q0 -32 6 -87 q2 -12 -7 -16 q-35 -20 -42 -20 q-5 1 -5 11 l0 50 l-175 0 q-17 -128 -60 -224 q36 -37 85 -65 q153 -83 288 -83 q6 -2 6 -9 q-1 -7 -14 -8 q-43 0 -68 -37 q-4 -6 -20 1 q-220 72 -295 168 q-87 -136 -279 -182 q-17 -5 -20 8 q-3 14 10 18 q178 54 260 192 ZM634 544 l-176 0 l0 -161 l170 0 q6 69 6 153 l0 8 ZM682 536 q-1 -83 -8 -153 l172 0 l0 161 l-164 0 l0 -8 Z" /><glyph glyph-name="uni4FBF" unicode="&#x4fbf;" d="M549 85 q-47 48 -95 130 q-7 10 3 17 q10 6 17 -6 q46 -68 94 -114 q50 93 51 172 l0 28 l-181 0 q0 -16 1 -29 q-1 -15 -38 -40 q-8 -4 -12 -4 q-6 1 -5 20 q4 100 7 206 l0 128 q-1 32 -7 78 q-2 10 1 11 q1 0 40 -31 l194 0 l0 109 l-193 0 q-42 -1 -73 -7 q-8 -3 -11 6 q-4 18 -19 30 q-7 7 -4 11 q4 3 11 -1 q38 -8 84 -8 l445 0 q6 0 12 7 l36 41 q7 7 14 0 q26 -26 44 -48 q11 -14 4 -24 q-5 -6 -18 -7 l-284 0 l0 -109 l141 0 q12 0 19 7 l25 26 q5 7 14 1 q31 -23 53 -42 q7 -8 -2 -9 q-17 -3 -26 -12 q-8 -9 -8 -19 l0 -152 q1 -68 8 -167 q0 -13 -10 -19 q-45 -26 -49 -25 q-4 2 -3 18 q2 24 3 54 l-165 0 l0 -28 q0 -109 -66 -199 q2 -1 5 -4 q139 -93 346 -93 q14 1 26 0 q7 0 8 -7 q0 -7 -6 -7 q-57 -8 -67 -59 q-3 -10 -13 -7 q-224 59 -321 150 q-93 -102 -267 -151 q-20 -3 -21 10 q1 19 35 25 q154 59 223 143 ZM619 472 l-180 0 l0 -7 q-1 -67 -1 -122 l181 0 l0 129 ZM667 343 l166 0 q1 36 2 79 l0 50 l-168 0 l0 -129 ZM619 620 l-180 0 l0 -117 l180 0 l0 117 ZM667 503 l168 0 l0 117 l-168 0 l0 -117 ZM214 597 q39 -12 54 -21 q14 -7 -2 -16 q-16 -8 -20 -18 q-7 -19 -7 -80 l0 -311 q0 -117 4 -196 q1 -8 -5 -12 l-42 -27 q-13 -10 -12 11 q6 133 7 224 l0 311 q-2 51 -3 87 l-8 -14 q-46 -79 -118 -172 q-10 -10 -17 -4 q-8 7 1 17 q84 110 151 270 q66 158 67 210 q3 17 19 7 q38 -21 53 -33 q12 -7 11 -13 q-1 -6 -10 -5 q-9 1 -19 -8 q-13 -11 -38 -74 q-30 -63 -66 -133 Z" /><glyph glyph-name="uni4FDD" unicode="&#x4fdd;" d="M212 598 q27 -7 42 -17 q21 -13 -4 -20 q-14 -5 -17 -12 q-7 -18 -7 -79 l0 -323 q0 -118 4 -199 q-2 -10 -48 -37 q-13 -7 -12 12 q7 133 8 224 l0 323 q-1 37 -2 62 q-1 -1 -1 -2 q-46 -80 -118 -174 q-10 -11 -17 -5 q-8 7 1 17 q84 111 151 274 q66 161 67 213 q1 18 19 8 q38 -21 53 -33 q12 -7 11 -13 q0 -6 -9 -5 q-9 1 -19 -8 q-13 -11 -38 -75 q-28 -64 -64 -131 ZM614 290 q6 19 10 32 q2 5 -2 6 q-6 2 -7 -2 q-76 -181 -325 -359 q-14 -8 -20 -1 q-8 13 2 20 q204 156 291 342 l-190 0 q-42 -1 -73 -7 q-9 -3 -10 6 q-5 18 -20 31 q-8 7 -4 11 q4 3 11 -1 q38 -9 84 -9 l253 0 l0 161 l-136 0 q-1 -32 -5 -38 q-35 -27 -41 -28 q-8 1 -7 20 q4 61 5 203 l0 80 q-1 36 -5 82 q-2 12 2 13 q3 1 10 -6 q12 -13 36 -31 l306 0 q12 0 19 7 l25 26 q5 7 14 1 q31 -23 53 -42 q7 -8 -2 -9 q-17 -3 -26 -12 q-8 -9 -8 -19 l0 -100 q1 -68 8 -167 q0 -13 -10 -19 q-45 -26 -49 -25 q-4 2 -3 18 q1 21 2 46 l-140 0 l0 -161 l172 0 q14 1 30 19 l26 37 q7 9 16 0 q71 -63 70 -78 q-2 -8 -15 -9 l-252 0 q57 -126 115 -189 q88 -93 161 -108 q7 -2 4 -9 q-3 -7 -16 -6 q-17 1 -35 -9 q-16 -11 -22 -27 q-4 -6 -11 1 q-90 80 -133 152 q-43 68 -83 191 q-1 3 -2 4 l-25 0 l0 -177 q0 -118 4 -197 q-1 -9 -46 -39 q-14 -9 -13 12 q7 133 7 224 l0 139 ZM478 551 l326 0 q1 39 2 87 l0 146 l-328 0 l0 -233 Z" /><glyph glyph-name="uni5019" unicode="&#x5019;" d="M210 619 q28 -8 43 -18 q21 -13 -4 -20 q-14 -5 -17 -12 q-7 -18 -7 -79 l0 -343 q0 -118 4 -199 q-2 -10 -48 -37 q-13 -7 -12 12 q7 133 8 224 l0 343 q-1 35 -2 60 q-4 -7 -7 -14 q-41 -79 -108 -172 q-10 -11 -17 -5 q-7 7 0 17 q79 110 137 270 q57 157 58 208 q0 17 18 8 q39 -21 54 -31 q13 -8 12 -12 q0 -7 -9 -6 q-9 1 -19 -9 q-11 -12 -35 -73 q-22 -54 -49 -112 ZM682 252 q-1 5 -5 4 q-5 -1 -5 -5 q-1 -93 -68 -177 q-95 -108 -314 -159 q-13 -3 -14 7 q-2 12 10 13 q94 26 158 62 q29 17 56 36 q100 80 122 219 l-106 0 q-42 -1 -73 -7 q-9 -3 -10 6 q-5 18 -20 31 q-8 7 -4 11 q4 3 11 -1 q38 -9 84 -9 l123 0 q9 69 9 157 l-102 0 q-44 -74 -86 -125 q-10 -10 -17 -4 q-7 7 21 50 q77 148 74 215 q1 17 19 7 q38 -21 53 -33 q12 -7 11 -13 q-2 -6 -9 -5 q-10 1 -20 -8 q-11 -7 -29 -53 l218 0 l14 2 l12 12 l30 42 q7 9 16 0 q71 -63 70 -78 q-2 -8 -15 -9 l-202 0 q-5 -90 -14 -157 l153 0 q14 1 30 19 l26 37 q7 9 16 0 q71 -63 70 -78 q-2 -8 -15 -9 l-256 0 q42 -105 82 -159 q61 -77 196 -116 q6 -2 5 -9 q-2 -8 -9 -7 q-45 -4 -61 -38 q-3 -7 -12 -1 q-46 29 -76 53 q-105 83 -144 275 q0 2 -3 2 ZM744 807 q7 1 11 5 l14 21 q6 9 15 2 q25 -19 47 -41 q8 -7 4 -13 q-3 -5 -13 -6 q-14 -2 -18 -6 q-5 -5 -6 -11 l-13 -127 l48 0 q14 1 30 19 l26 37 q7 9 16 0 q71 -63 70 -78 q-2 -8 -15 -9 l-432 0 q-42 -1 -73 -7 q-9 -3 -10 6 q-5 18 -20 31 q-8 7 -4 11 q4 3 11 -1 q38 -9 84 -9 l218 0 l16 145 l-206 0 q-42 -1 -73 -7 q-9 -3 -10 6 q-5 18 -20 31 q-8 7 -4 11 q4 3 11 -1 q38 -9 84 -9 l212 0 ZM320 670 q-2 17 10 13 q54 -17 72 -27 q14 -7 -2 -16 q-16 -8 -20 -18 q-7 -19 -7 -80 l0 -219 q0 -117 4 -196 q1 -8 -5 -12 l-42 -27 q-13 -10 -12 11 q6 133 7 224 l0 219 q-1 80 -5 128 Z" /><glyph glyph-name="uni503C" unicode="&#x503c;" d="M215 605 q26 -7 39 -16 q21 -13 -4 -20 q-14 -5 -17 -12 q-7 -18 -7 -79 l0 -331 q0 -118 4 -199 q-2 -10 -48 -37 q-13 -7 -12 12 q7 133 8 224 l0 331 q-1 36 -2 61 q-48 -77 -123 -168 q-10 -11 -17 -4 q-7 7 2 17 q87 108 159 267 q71 158 75 210 q2 17 18 7 q39 -23 52 -35 q12 -9 11 -13 q-2 -6 -9 -5 q-10 1 -20 -8 q-12 -10 -40 -73 q-30 -62 -69 -129 ZM878 -17 q6 0 12 7 l36 41 q7 7 14 0 q26 -26 44 -48 q11 -14 4 -24 q-5 -6 -18 -7 l-617 0 q-42 -1 -73 -7 q-8 -3 -11 6 q-4 18 -19 30 q-7 7 -4 11 q4 3 11 -1 q38 -8 84 -8 l77 0 l0 529 q0 55 -7 101 q-1 12 3 13 q5 2 12 -7 q10 -13 34 -32 l109 0 q5 62 8 117 l-168 0 q-42 -1 -73 -7 q-8 -3 -11 6 q-4 18 -19 30 q-7 7 -4 11 q4 3 11 -1 q38 -8 84 -8 l180 0 q2 66 -1 124 q-1 9 2 12 q10 4 71 -27 q9 -4 8 -10 q-1 -6 -7 -7 q-10 -2 -17 -14 q-6 -11 -12 -78 l217 0 q6 0 12 7 l36 41 q7 7 14 0 q26 -26 44 -48 q11 -14 4 -24 q-5 -6 -18 -7 l-311 0 q-3 -54 -4 -117 l148 0 q6 1 10 5 l23 26 q6 8 13 2 q33 -24 61 -49 q9 -8 -1 -11 q-17 -3 -24 -13 q-7 -10 -7 -29 l0 -535 l40 0 ZM466 -17 l324 0 l0 117 l-324 0 l0 -117 ZM466 131 l324 0 l0 133 l-324 0 l0 -133 ZM466 295 l324 0 l0 117 l-324 0 l0 -117 ZM466 443 l324 0 l0 113 l-324 0 l0 -113 Z" /><glyph glyph-name="uni513F" unicode="&#x513f;" d="M829 8 q29 0 45 16 q23 19 33 100 q3 28 7 59 q2 14 12 13 q11 -1 10 -14 q-4 -92 6 -117 q10 -21 20 -25 q8 -5 -1 -14 q-58 -66 -148 -66 l-123 0 q-53 0 -74 24 q-24 25 -24 68 l0 634 q0 78 -4 126 q-1 16 9 13 q53 -18 72 -25 q13 -8 -3 -17 q-15 -9 -19 -18 q-7 -18 -7 -79 l0 -623 q1 -28 14 -41 q13 -14 37 -14 l138 0 ZM324 821 q-3 12 1 15 q3 3 12 -1 q40 -18 68 -33 q7 -4 7 -8 q0 -6 -6 -7 q-13 -4 -20 -17 q-10 -17 -11 -39 l0 -80 q-1 -362 -118 -534 q-62 -91 -182 -170 q-13 -9 -17 -2 q-5 9 4 15 q65 50 113 104 q155 199 155 587 l0 80 q0 35 -6 90 Z" /><glyph glyph-name="uni5148" unicode="&#x5148;" d="M864 -15 q17 2 24 6 q32 18 47 156 q1 14 14 13 q13 -2 12 -17 q-19 -124 14 -148 q6 -4 2 -10 q-23 -39 -92 -42 l-246 0 q-43 0 -52 12 q-10 12 -10 37 l0 400 l-155 0 q-8 -120 -21 -195 q-15 -77 -60 -132 q-84 -94 -283 -142 q-13 -3 -14 7 q-2 12 10 13 q158 45 236 132 q38 47 56 116 q18 77 18 201 l-200 0 q-42 -1 -73 -7 q-9 -3 -10 6 q-5 18 -20 31 q-8 7 -4 11 q4 3 11 -1 q38 -9 84 -9 l345 0 l0 193 l-239 0 q-53 -96 -98 -160 q-10 -11 -17 -5 q-7 7 0 17 q52 80 91 194 q37 112 36 148 q0 17 18 8 q39 -21 55 -31 q12 -6 11 -12 q0 -6 -9 -5 q-9 0 -19 -10 q-4 -4 -53 -113 l224 0 l0 123 q-1 39 -4 70 q-1 16 9 13 q53 -17 71 -26 q14 -9 -2 -16 q-15 -8 -19 -18 q-7 -13 -7 -23 l0 -123 l184 0 l14 2 l12 12 l30 42 q7 9 16 0 q71 -63 70 -78 q-2 -8 -15 -9 l-311 0 l0 -193 l276 0 q14 1 30 19 l26 37 q7 9 16 0 q71 -63 70 -78 q-2 -8 -15 -9 l-323 0 l0 -387 q1 -12 2 -16 q2 -4 17 -4 l220 0 Z" /><glyph glyph-name="uni5149" unicode="&#x5149;" d="M180 751 q-4 7 0 13 q6 5 16 -2 q166 -116 169 -191 q2 -20 -14 -48 q-14 -23 -24 -22 q-11 1 -12 20 q-29 124 -135 230 ZM861 -3 q17 2 24 6 q32 19 47 160 q1 14 14 13 q13 -2 12 -17 q-12 -88 -8 -118 q6 -23 22 -33 q6 -5 2 -11 q-23 -39 -92 -42 l-246 0 q-43 0 -52 12 q-10 12 -10 37 l0 432 l-171 0 q-7 -130 -20 -212 q-13 -82 -55 -142 q-79 -103 -265 -154 q-11 -4 -14 6 q-3 11 9 14 q78 25 130 59 q52 33 89 84 q68 102 68 345 l-188 0 q-42 -1 -73 -7 q-9 -3 -10 6 q-5 18 -20 31 q-8 7 -4 11 q4 3 11 -1 q38 -9 84 -9 l337 0 l0 303 q-1 39 -4 70 q-1 16 9 13 q53 -17 71 -26 q14 -9 -2 -16 q-15 -8 -19 -18 q-7 -13 -7 -23 l0 -303 l61 0 q2 4 6 8 q98 129 152 286 q1 7 5 8 q8 2 71 -41 q13 -9 10 -13 q-2 -6 -9 -5 q-32 2 -65 -56 q-45 -78 -136 -187 l189 0 q14 1 30 19 l26 37 q7 9 16 0 q71 -63 70 -78 q-2 -8 -15 -9 l-319 0 l0 -419 q1 -12 2 -16 q2 -4 17 -4 l220 0 Z" /><glyph glyph-name="uni5165" unicode="&#x5165;" d="M509 593 q-17 -76 -110 -248 q-131 -227 -332 -368 q-18 -13 -25 3 q-7 13 6 22 q282 200 434 678 q-29 67 -58 80 q-64 27 -136 6 q-9 -4 -12 -1 q-3 4 0 11 q7 30 8 46 q0 10 7 9 q26 -7 65 -11 q31 -3 65 -10 q72 -17 108 -143 q61 -194 127 -311 q142 -261 325 -321 q7 -2 6 -9 q-3 -8 -13 -7 q-20 4 -42 -6 q-25 -10 -29 -19 q-7 -8 -16 -1 q-142 125 -235 267 q-83 134 -143 333 Z" /><glyph glyph-name="uni5168" unicode="&#x5168;" d="M795 -25 q14 1 30 19 l26 37 q7 9 16 0 q71 -63 70 -78 q-2 -8 -15 -9 l-736 0 q-42 -1 -73 -7 q-9 -3 -10 6 q-5 18 -20 31 q-8 7 -4 11 q4 3 11 -1 q38 -9 84 -9 l317 0 l0 229 l-177 0 q-42 -1 -73 -7 q-9 -3 -10 6 q-5 18 -20 31 q-8 7 -4 11 q4 3 11 -1 q38 -9 84 -9 l189 0 l0 205 l-125 0 q-42 -1 -73 -7 q-9 -3 -10 6 q-5 18 -20 31 q-8 7 -4 11 q4 3 11 -1 q38 -9 84 -9 l273 0 q14 1 30 19 l26 37 q7 9 16 0 q71 -63 70 -78 q-2 -8 -15 -9 l-215 0 l0 -205 l148 0 q14 1 30 19 l26 37 q7 9 16 0 q71 -63 70 -78 q-2 -8 -15 -9 l-275 0 l0 -229 l256 0 ZM531 792 q-12 -12 -34 -43 q-120 -156 -211 -238 q-93 -88 -232 -170 q-12 -6 -16 1 q-4 8 5 14 q162 108 274 234 q99 113 175 269 q5 10 12 6 q40 -23 68 -44 q9 -7 6 -11 q-5 -6 -18 -5 q-8 0 -12 -1 q57 -108 133 -178 q166 -157 302 -170 q7 -2 6 -9 q-2 -7 -14 -6 q-46 4 -70 -38 q-3 -5 -15 2 q-263 173 -359 387 Z" /><glyph glyph-name="uni5173" unicode="&#x5173;" d="M286 847 q-4 7 0 13 q6 4 16 -3 q123 -88 123 -142 q2 -20 -16 -48 q-15 -22 -25 -21 q-10 2 -11 21 q-14 92 -87 180 ZM549 352 q18 -58 42 -104 q92 -184 369 -263 q7 -3 6 -10 q-1 -6 -8 -5 q-53 8 -80 -37 q-5 -9 -15 -3 q-24 15 -45 28 q-186 120 -246 258 q-46 102 -46 136 l-18 0 q-23 -145 -80 -227 q-109 -141 -355 -205 q-13 -4 -14 6 q-1 11 9 14 q108 34 183 80 q48 30 87 70 q87 94 117 262 l-288 0 q-42 -1 -73 -7 q-9 -3 -10 6 q-5 18 -20 31 q-8 7 -4 11 q4 3 11 -1 q38 -9 84 -9 l305 0 q11 92 11 213 l-228 0 q-42 -1 -73 -7 q-9 -3 -10 6 q-5 18 -20 31 q-8 7 -4 11 q4 3 11 -1 q38 -9 84 -9 l321 0 q2 4 5 8 q63 100 93 224 q1 7 4 8 q7 3 74 -36 q13 -8 10 -14 q-2 -5 -8 -4 q-33 -1 -54 -47 q-31 -57 -92 -139 l148 0 q14 1 30 19 l26 37 q7 9 16 0 q71 -63 70 -78 q-2 -8 -15 -9 l-330 0 q-7 -122 -17 -213 l296 0 q14 1 30 19 l26 37 q7 9 16 0 q71 -63 70 -78 q-2 -8 -15 -9 l-386 0 Z" /><glyph glyph-name="uni5185" unicode="&#x5185;" d="M503 457 q194 -140 225 -221 q14 -31 5 -55 q-7 -23 -16 -33 q-6 -9 -15 -8 q-7 1 -10 16 q-33 121 -195 277 q-1 -6 -2 -10 q-31 -104 -83 -167 q-59 -73 -174 -134 q-14 -8 -18 -1 q-6 11 4 15 q50 33 90 66 q149 142 161 422 l-306 0 l0 -487 q-1 -107 0 -182 q-1 -15 -38 -40 q-8 -4 -12 -4 q-6 1 -5 20 q4 100 7 206 l0 460 q-1 32 -7 78 q-2 10 1 11 q1 0 40 -31 l321 0 q1 30 1 60 l0 40 q-1 36 -8 90 q-2 13 2 16 q3 3 12 -1 q43 -18 74 -34 q7 -5 7 -9 q0 -7 -6 -8 q-15 -5 -22 -18 q-8 -15 -11 -36 l0 -40 q0 -30 -1 -60 l276 0 q9 0 10 1 l25 33 q2 4 6 4 q4 0 8 -4 q31 -25 55 -50 q7 -8 -9 -14 q-24 -10 -27 -14 q-3 -6 -3 -13 l0 -592 q0 -34 -18 -59 q-18 -25 -45 -35 q-9 -4 -12 5 q-8 21 -30 36 q-23 17 -69 21 q-12 2 -11 12 q1 9 14 8 q110 -5 116 -2 q7 4 7 25 l0 607 l-294 0 q-4 -89 -20 -167 Z" /><glyph glyph-name="uni518D" unicode="&#x518d;" d="M487 768 l-301 0 q-42 -1 -73 -7 q-9 -3 -10 6 q-5 18 -20 31 q-8 7 -4 11 q4 3 11 -1 q38 -9 84 -9 l645 0 q14 1 30 19 l26 37 q7 9 16 0 q71 -63 70 -78 q-2 -8 -15 -9 l-411 0 l0 -133 l211 0 q9 0 10 1 l25 33 q2 4 6 4 q4 0 8 -4 q31 -25 55 -50 q7 -8 -9 -14 q-24 -10 -27 -14 q-3 -6 -3 -13 l0 -323 l52 0 q6 0 12 7 l36 41 q7 7 14 0 q26 -26 44 -48 q11 -14 4 -24 q-5 -6 -18 -7 l-144 0 l0 -214 q0 -34 -18 -59 q-18 -25 -45 -35 q-9 -4 -12 5 q-8 21 -30 36 q-23 17 -69 21 q-12 2 -11 12 q1 9 14 8 q110 -5 116 -2 q7 4 7 25 l0 203 l-492 0 l0 -83 q-1 -107 0 -182 q-1 -15 -38 -40 q-8 -4 -12 -4 q-6 1 -5 20 q4 100 7 206 l0 83 l-69 0 q-42 -1 -73 -7 q-8 -3 -11 6 q-4 18 -19 30 q-7 7 -4 11 q4 3 11 -1 q38 -8 84 -8 l81 0 l0 322 q-1 32 -7 78 q-2 10 1 11 q1 0 40 -31 l230 0 l0 133 ZM487 416 l-216 0 l0 -161 l216 0 l0 161 ZM535 255 l228 0 l0 161 l-228 0 l0 -161 ZM487 604 l-216 0 l0 -157 l216 0 l0 157 ZM535 447 l228 0 l0 157 l-228 0 l0 -157 Z" /><glyph glyph-name="uni5199" unicode="&#x5199;" d="M832 787 q9 1 13 5 l31 31 q3 4 6 4 q15 -1 75 -64 q5 -8 -8 -9 q-52 -5 -136 -110 q-8 -10 -17 -6 q-7 5 0 18 q35 57 54 100 l-670 0 q-6 -90 -46 -132 q-15 -14 -30 -13 q-14 2 -21 11 q-22 24 11 49 q53 42 68 141 q1 10 8 9 q8 0 9 -10 q0 -12 1 -24 l652 0 ZM515 191 q14 1 30 19 l26 37 q7 9 16 0 q71 -63 70 -78 q-2 -8 -15 -9 l-456 0 q-42 -1 -73 -7 q-9 -3 -10 6 q-5 18 -20 31 q-8 7 -4 11 q4 3 11 -1 q38 -9 84 -9 l341 0 ZM749 -30 q-32 -35 -75 -51 q-8 -5 -9 2 q-5 23 -20 35 q-18 14 -82 21 q-15 2 -14 12 q2 10 14 7 q130 -10 146 8 q6 6 10 12 q16 24 58 324 l-532 0 q-11 -13 -15 -17 q-5 -7 -9 0 q-12 20 -40 36 q-6 6 1 10 q5 4 26 17 q92 229 95 322 q1 11 8 8 q31 -16 65 -40 q9 -6 8 -12 q0 -5 -12 -8 q-31 -9 -55 -105 l410 0 l14 2 l12 12 l30 42 q7 9 16 0 q71 -63 70 -78 q-2 -8 -15 -9 l-547 0 q-19 -59 -32 -95 q-12 -29 -19 -54 l491 0 q11 1 15 5 l23 32 q6 10 15 0 q37 -33 59 -58 q5 -7 -4 -10 q-33 -8 -34 -26 q-41 -314 -72 -344 Z" /><glyph glyph-name="uni51B2" unicode="&#x51b2;" d="M632 710 q-1 80 -5 128 q-2 17 10 13 q54 -17 72 -27 q14 -7 -2 -16 q-16 -8 -20 -18 q-7 -19 -7 -80 l0 -71 l157 0 q12 0 19 7 l25 26 q5 7 14 1 q31 -23 53 -42 q7 -8 -2 -9 q-17 -3 -26 -12 q-8 -9 -8 -19 l0 -168 q1 -68 8 -167 q0 -13 -10 -19 q-45 -26 -49 -25 q-4 2 -3 18 q2 28 3 62 l-181 0 l0 -141 q0 -117 4 -196 q1 -8 -5 -12 l-42 -27 q-13 -10 -12 11 q6 133 7 224 l0 141 l-192 0 q-1 -60 -5 -66 q-35 -27 -41 -28 q-8 1 -7 20 q4 61 5 203 l0 160 q-1 36 -5 82 q-2 12 2 13 q3 1 10 -6 q12 -13 36 -31 l197 0 l0 71 ZM632 608 l-192 0 l0 -285 l192 0 l0 285 ZM680 323 l182 0 q1 34 2 71 l0 214 l-184 0 l0 -285 ZM90 795 q-4 7 0 13 q6 6 16 -3 q118 -75 121 -126 q2 -20 -14 -48 q-14 -23 -24 -22 q-11 1 -12 20 q-17 90 -87 166 ZM329 713 q5 12 15 8 q9 -4 5 -16 q-45 -122 -114 -306 q-28 -82 -37 -139 q-7 -122 9 -215 q4 -31 -6 -44 q-10 -10 -29 -6 q-24 4 -37 23 q-14 21 -5 49 q16 66 16 138 q-5 75 -63 76 q-13 -1 -14 15 q0 15 16 15 q51 -4 63 3 q13 5 37 65 q48 120 144 334 Z" /><glyph glyph-name="uni51C6" unicode="&#x51c6;" d="M63 795 q-5 7 -1 13 q4 6 16 -1 q140 -84 146 -139 q4 -19 -11 -49 q-11 -24 -23 -23 q-10 0 -13 19 q-21 90 -114 180 ZM301 669 q5 12 15 8 q9 -6 5 -16 q-44 -110 -110 -273 q-28 -73 -37 -125 q-6 -113 9 -198 q4 -31 -6 -44 q-10 -10 -29 -6 q-24 4 -37 23 q-14 21 -5 49 q14 55 14 124 q-4 78 -67 85 q-11 0 -11 16 q1 15 17 14 q53 -13 66 -7 q14 4 36 56 q47 107 140 294 ZM630 855 q-4 7 0 13 q6 4 16 -3 q104 -69 107 -114 q0 -20 -16 -48 q-13 -22 -25 -21 q-10 1 -11 20 q-11 81 -71 153 ZM852 39 q13 0 23 12 l35 41 q9 8 16 1 q26 -28 45 -53 q11 -15 8 -24 q-3 -7 -18 -8 l-484 0 q2 -34 3 -62 q-1 -9 -46 -39 q-14 -9 -13 12 q7 133 7 224 l0 439 q-74 -126 -161 -231 q-10 -11 -17 -4 q-7 7 2 17 q91 111 164 274 q74 161 78 215 q2 17 18 7 q39 -23 52 -35 q12 -9 11 -13 q-1 -6 -10 -5 q-9 0 -19 -7 q-14 -9 -69 -129 l347 0 q13 0 23 12 l35 41 q9 8 16 1 q26 -28 45 -53 q11 -15 8 -24 q-3 -7 -18 -8 l-213 0 l0 -165 l76 0 q13 0 23 12 l35 41 q9 8 16 1 q26 -28 45 -53 q11 -15 8 -24 q-3 -7 -18 -8 l-185 0 l0 -181 l80 0 q13 0 23 12 l35 41 q9 8 16 1 q26 -28 45 -53 q11 -15 8 -24 q-3 -7 -18 -8 l-189 0 l0 -193 l132 0 ZM476 39 l196 0 l0 193 l-196 0 l0 -193 ZM672 263 l0 181 l-196 0 l0 -181 l196 0 ZM672 475 l0 165 l-196 0 l0 -165 l196 0 Z" /><glyph glyph-name="uni51E0" unicode="&#x51e0;" d="M862 5 q17 2 24 6 q32 18 47 156 q1 14 14 13 q13 -2 12 -17 q-19 -124 14 -148 q6 -4 2 -10 q-23 -39 -92 -42 l-210 0 q-43 0 -52 12 q-10 12 -10 37 l0 728 l-243 0 l0 -205 q0 -182 -21 -306 q-18 -104 -79 -170 q-70 -76 -200 -137 q-16 -8 -20 4 q-4 12 6 16 q108 59 162 114 q61 64 83 167 q21 99 21 267 l0 225 q-1 38 -10 78 q-1 8 3 11 q5 1 12 -6 q14 -14 36 -27 l223 0 q6 1 10 5 l23 26 q6 8 13 2 q33 -24 61 -49 q9 -8 -1 -11 q-17 -3 -24 -13 q-7 -10 -7 -29 l0 -677 q1 -12 2 -16 q2 -4 17 -4 l184 0 Z" /><glyph glyph-name="uni51FA" unicode="&#x51fa;" d="M805 23 q3 85 4 148 l0 23 q-1 80 -5 128 q-2 17 10 13 q54 -17 72 -27 q14 -7 -2 -16 q-16 -8 -20 -18 q-7 -19 -7 -80 l0 -23 q0 -117 4 -196 q1 -8 -5 -12 l-42 -27 q-13 -10 -12 11 q0 24 1 45 l-590 0 q-21 -16 -28 -34 q-3 -8 -10 -4 q-25 23 -41 30 q-10 5 -1 14 q17 19 20 46 l0 146 q-1 79 -5 127 q-1 17 11 13 q53 -19 72 -29 q14 -8 1 -14 q-19 -8 -25 -20 q-6 -19 -6 -77 l0 -167 l288 0 l0 401 l-240 0 q-21 -16 -28 -34 q-3 -8 -10 -4 q-25 23 -41 30 q-10 5 -1 14 q17 19 20 46 l0 130 q-1 79 -5 127 q-1 17 11 13 q53 -19 72 -29 q14 -8 1 -14 q-19 -8 -25 -20 q-6 -19 -6 -77 l0 -151 l252 0 l0 315 q-1 39 -4 70 q-1 16 9 13 q53 -17 71 -26 q14 -9 -2 -16 q-15 -8 -19 -18 q-7 -13 -7 -23 l0 -315 l239 0 q4 40 5 116 l0 65 q-1 50 -5 98 q-2 17 10 13 q54 -17 72 -27 q14 -7 -2 -16 q-16 -8 -20 -18 q-7 -19 -7 -50 l0 -65 q0 -77 4 -156 q1 -8 -5 -12 l-42 -27 q-13 -10 -12 11 q0 21 1 37 l-238 0 l0 -401 l268 0 Z" /><glyph glyph-name="uni51FD" unicode="&#x51fd;" d="M265 559 q-4 7 0 13 q6 5 16 -2 q118 -72 121 -123 q2 -20 -14 -48 q-12 -23 -24 -22 q-11 1 -12 20 q-15 81 -87 162 ZM195 -16 q-21 -16 -28 -34 q-3 -8 -10 -4 q-25 23 -41 30 q-10 5 -1 14 q17 19 20 46 l0 406 q-1 79 -5 127 q-1 17 11 13 q53 -19 72 -29 q14 -8 1 -14 q-19 -8 -25 -20 q-6 -19 -6 -77 l0 -427 l640 0 q3 83 4 144 l0 279 q-1 80 -5 128 q-2 17 10 13 q54 -17 72 -27 q14 -7 -2 -16 q-16 -8 -20 -18 q-7 -19 -7 -80 l0 -279 q0 -117 4 -196 q1 -8 -5 -12 l-42 -27 q-13 -10 -12 11 q1 27 2 49 l-627 0 ZM759 795 q7 0 11 7 l32 28 q4 4 8 4 q13 -1 80 -71 q8 -7 5 -14 q-4 -5 -19 -4 q-57 2 -66 -7 q-53 -15 -251 -123 q2 0 3 -1 q12 -8 -3 -15 q-18 -8 -22 -17 q-6 -19 -6 -80 l0 -108 q2 -2 5 -3 q0 1 1 1 q77 59 174 171 q6 8 10 8 q6 1 39 -47 q1 -3 0 -6 q-4 -3 -8 -3 q-15 -1 -30 -14 q-106 -80 -166 -120 q153 -75 192 -138 q18 -28 14 -53 q-4 -25 -11 -35 q-6 -10 -13 -10 q-9 0 -13 13 q-38 92 -194 210 l0 -208 q-2 -37 -18 -62 q-38 -56 -62 -56 q-4 1 -8 20 q-6 29 -16 39 q-10 12 -65 22 q-16 2 -15 15 q2 13 17 12 q88 -15 104 -8 q14 6 15 28 l0 194 q-98 -78 -162 -124 q-38 -22 -45 -44 q-3 -11 -7 -12 q-4 -1 -10 6 q-18 21 -43 33 q-14 7 -14 10 q0 4 10 7 q84 36 271 150 l0 112 q-1 80 -4 129 q-3 16 7 13 q28 -10 47 -17 q125 70 216 137 l-507 0 q-42 -1 -73 -7 q-9 -3 -10 6 q-5 18 -20 31 q-8 7 -4 11 q4 3 11 -1 q38 -9 84 -9 l529 0 Z" /><glyph glyph-name="uni5206" unicode="&#x5206;" d="M364 807 q3 11 12 7 q41 -19 72 -38 q8 -6 7 -10 q-3 -6 -18 -6 q-22 -3 -50 -51 q-43 -66 -80 -118 q-111 -144 -246 -240 q-10 -8 -16 -1 q-5 8 4 14 q227 194 315 443 ZM584 827 q-4 18 0 21 q6 2 13 -4 q28 -22 56 -29 q9 -2 8 -8 q0 -6 -10 -7 q-22 -5 -26 -18 q-6 -12 10 -51 q102 -206 343 -311 q6 -2 5 -8 q-3 -6 -16 -2 q-15 5 -34 -2 q-22 -7 -32 -29 q-4 -6 -14 3 q-264 195 -303 445 ZM654 447 q11 1 15 5 l23 32 q6 10 15 0 q69 -60 56 -64 q-29 -12 -32 -24 q-15 -176 -28 -353 q-18 -85 -105 -121 q-8 -4 -9 2 q-6 23 -19 35 q-16 13 -80 22 q-15 2 -14 12 q2 10 14 7 q125 -11 141 7 q15 13 22 38 q11 42 18 157 q7 138 13 214 l-234 0 q-14 -159 -48 -249 q-71 -177 -314 -252 q-19 -5 -22 11 q-2 12 14 16 q89 30 165 90 q73 57 104 127 q39 91 42 257 l-82 0 q-42 -1 -73 -7 q-9 -3 -10 6 q-5 18 -20 31 q-8 7 -4 11 q4 3 11 -1 q38 -9 84 -9 l357 0 Z" /><glyph glyph-name="uni5207" unicode="&#x5207;" d="M269 129 q111 95 219 159 q14 9 18 -1 q5 -11 -8 -18 q-133 -94 -259 -250 q-9 -11 -13 2 q-11 23 -33 41 q-9 9 -2 13 q30 26 30 48 l0 375 l-87 -16 q-28 -8 -44 -18 q-5 -4 -12 6 q-9 16 -22 23 q-10 7 -9 11 q3 4 10 3 q19 0 52 6 l112 21 l0 232 q-1 39 -4 70 q-1 16 9 13 q53 -17 71 -26 q14 -9 -2 -16 q-15 -8 -19 -18 q-7 -13 -7 -23 l0 -223 l128 25 q13 2 17 8 l27 52 q7 17 19 5 q34 -23 65 -51 q7 -8 6 -15 q-2 -8 -20 -12 l-242 -47 l0 -379 ZM861 727 q11 1 15 5 l23 32 q6 10 15 0 q37 -30 59 -52 q5 -6 -2 -10 q-21 -8 -28 -17 q-5 -7 -5 -25 q-9 -462 -18 -571 q-19 -125 -118 -167 q-8 -4 -9 2 q-5 24 -18 34 q-17 13 -78 23 q-15 2 -14 12 q2 10 14 7 q121 -10 136 6 q22 22 34 65 q15 71 18 266 q2 229 6 359 l-188 0 q0 -210 -25 -343 q-18 -110 -66 -203 q-93 -161 -301 -236 q-12 -5 -15 4 q-3 11 7 15 q90 38 153 93 q40 36 73 81 q105 149 117 432 q3 74 0 157 l-106 0 q-42 -1 -73 -7 q-9 -3 -10 6 q-5 18 -20 31 q-8 7 -4 11 q4 3 11 -1 q38 -9 84 -9 l333 0 Z" /><glyph glyph-name="uni5217" unicode="&#x5217;" d="M242 456 q113 -89 110 -138 q1 -20 -18 -47 q-16 -21 -26 -20 q-10 2 -10 21 q-8 86 -68 168 q-59 -77 -141 -165 q-13 -11 -20 -5 q-11 11 -1 21 q199 225 253 453 l-133 0 q-42 -1 -73 -7 q-8 -3 -11 6 q-4 18 -19 30 q-7 7 -4 11 q4 3 11 -1 q38 -8 84 -8 l333 0 q6 0 12 7 l36 41 q7 7 14 0 q26 -26 44 -48 q11 -14 4 -24 q-5 -6 -18 -7 l-222 0 q-25 -85 -62 -161 l138 0 q13 0 17 3 l27 34 q4 8 10 8 q6 0 66 -63 q5 -8 -8 -12 q-11 -2 -18 -6 q-18 -9 -39 -76 q-36 -139 -93 -236 q-113 -188 -338 -288 q-20 -8 -24 7 q-3 15 15 21 q84 40 199 143 q147 143 207 434 l-174 0 q-11 -17 -60 -96 ZM676 694 q-2 17 10 13 q54 -17 72 -27 q14 -7 -2 -16 q-16 -8 -20 -18 q-7 -19 -7 -80 l0 -167 q0 -117 4 -196 q1 -8 -5 -12 l-42 -27 q-13 -10 -12 11 q6 133 7 224 l0 167 q-1 80 -5 128 ZM929 32 q-2 -37 -18 -62 q-25 -37 -50 -50 q-8 -7 -12 -7 q-3 1 -9 20 q-10 29 -20 39 q-10 13 -68 19 q-16 2 -15 15 q1 14 17 13 q91 -15 112 -5 q14 6 15 28 l0 660 q-1 80 -4 129 q-3 16 7 13 q57 -20 76 -30 q12 -8 -3 -15 q-18 -8 -22 -17 q-6 -19 -6 -80 l0 -670 Z" /><glyph glyph-name="uni521B" unicode="&#x521b;" d="M465 -3 q62 1 78 8 q25 12 50 153 q3 12 13 11 q11 -1 10 -14 q-15 -100 -2 -121 q11 -17 21 -24 q8 -8 -5 -18 q-36 -34 -112 -37 l-266 0 q-43 1 -52 13 q-9 13 -9 46 l0 460 q0 30 -4 58 q-51 -53 -121 -105 q-10 -8 -16 -1 q-4 8 3 14 q105 95 174 198 q59 91 98 212 q4 11 11 7 q42 -18 73 -36 q8 -6 7 -10 q-2 -6 -17 -7 q-10 0 -17 -4 q175 -102 214 -172 q17 -30 11 -54 q-6 -25 -13 -35 q-7 -10 -14 -9 q-8 1 -12 14 q-39 106 -201 238 q-7 -9 -14 -25 q-64 -102 -149 -207 q11 -9 24 -19 l207 0 q11 1 15 5 l23 32 q6 10 15 0 q37 -31 59 -53 q5 -6 -2 -10 q-22 -9 -29 -16 q-2 -4 -2 -11 q-9 -196 -13 -235 q-11 -67 -93 -101 q-8 -3 -8 3 q-1 19 -11 31 q-11 13 -63 29 q-13 2 -12 12 q1 10 13 7 q99 -10 112 2 q2 4 5 5 q15 26 21 269 l-226 0 l0 -474 q1 -19 5 -23 q5 -6 23 -6 l198 0 ZM682 674 q-2 17 10 13 q54 -17 72 -27 q14 -7 -2 -16 q-16 -8 -20 -18 q-7 -19 -7 -80 l0 -147 q0 -117 4 -196 q1 -8 -5 -12 l-42 -27 q-13 -10 -12 11 q6 133 7 224 l0 147 q-1 80 -5 128 ZM935 32 q-2 -37 -18 -62 q-25 -37 -50 -50 q-8 -7 -11 -7 q-5 1 -9 20 q-9 29 -19 39 q-9 12 -66 19 q-16 2 -15 15 q1 14 17 13 q87 -14 108 -5 q14 6 15 28 l0 676 q-1 80 -4 129 q-3 16 7 13 q57 -20 76 -30 q12 -8 -3 -15 q-18 -8 -22 -17 q-6 -19 -6 -80 l0 -686 Z" /><glyph glyph-name="uni521D" unicode="&#x521d;" d="M235 844 q-7 8 0 15 q8 7 18 -3 q81 -67 78 -94 q-4 -25 -20 -35 q-17 -12 -24 -11 q-6 1 -10 23 q-11 65 -42 105 ZM332 663 q13 0 16 3 l27 30 q6 8 13 1 q26 -20 45 -39 q9 -9 -1 -10 q-4 0 -7 -1 q-24 -7 -136 -154 l0 -103 q31 -12 55 -24 q49 66 85 144 q17 -19 36 -29 q20 -9 24 -16 q3 -6 -1 -7 q-51 -9 -126 -102 q101 -51 107 -87 q4 -22 -6 -37 q-11 -16 -17 -17 q-6 -1 -16 17 q-63 93 -141 136 l0 -217 q0 -118 4 -197 q-1 -9 -46 -39 q-14 -9 -13 12 q7 133 7 224 l0 286 q-79 -86 -167 -158 q-14 -13 -20 -6 q-5 7 5 17 q168 150 277 342 l-184 0 q-42 -1 -73 -7 q-9 -3 -10 6 q-5 18 -20 31 q-8 7 -4 11 q4 3 11 -1 q38 -9 84 -9 l192 0 ZM865 703 q11 1 15 5 l23 32 q6 10 15 0 q37 -31 59 -53 q5 -6 -2 -10 q-22 -9 -29 -16 q-5 -7 -5 -25 q-16 -440 -29 -551 q-19 -121 -118 -163 q-8 -4 -9 2 q-4 23 -17 33 q-15 14 -75 24 q-15 2 -14 12 q2 10 14 7 q117 -10 132 6 q22 22 34 62 q17 70 23 257 q7 223 13 347 l-222 0 l0 -148 q-1 -135 -35 -247 q-78 -253 -294 -358 q-19 -9 -23 4 q-1 6 0 9 q1 3 80 61 q220 171 224 531 l0 148 l-45 0 q-42 -1 -73 -7 q-9 -3 -10 6 q-5 18 -20 31 q-8 7 -4 11 q4 3 11 -1 q38 -9 84 -9 l297 0 Z" /><glyph glyph-name="uni5220" unicode="&#x5220;" d="M730 734 q-2 17 10 13 q54 -17 72 -27 q14 -7 -2 -16 q-16 -8 -20 -18 q-7 -19 -7 -80 l0 -207 q0 -117 4 -196 q1 -8 -5 -12 l-42 -27 q-13 -10 -12 11 q6 133 7 224 l0 207 q-1 80 -5 128 ZM935 28 q-2 -37 -18 -62 q-25 -37 -50 -50 q-8 -7 -12 -7 q-5 0 -9 21 q-9 30 -19 40 q-11 14 -69 21 q-16 2 -15 15 q1 13 17 12 q94 -14 112 -8 q14 6 15 28 l0 684 q-1 80 -4 129 q-3 16 7 13 q57 -20 76 -30 q12 -8 -3 -15 q-18 -8 -22 -17 q-6 -19 -6 -80 l0 -694 ZM327 74 q0 -34 -18 -59 q-18 -25 -45 -35 q-8 -2 -9 5 q-8 41 -71 56 q-11 3 -10 13 q2 10 15 7 q77 -4 83 -1 q7 4 7 25 l0 355 l-86 0 q-2 -88 -6 -160 q-14 -220 -119 -353 q-13 -12 -20 -2 q-3 4 -3 5 q0 1 33 67 q65 135 68 442 q-34 0 -61 -6 q-8 -3 -11 6 q-4 18 -19 30 q-7 7 -4 11 q4 3 11 -1 q37 -8 85 -8 q1 54 1 115 l0 149 q-1 38 -10 78 q-1 8 3 11 q5 1 12 -6 q11 -11 29 -23 l80 0 q9 0 10 1 l25 33 q2 4 6 4 q4 0 8 -4 q31 -25 55 -50 q7 -8 -9 -14 q-24 -10 -27 -14 q-3 -6 -3 -13 l0 -267 l81 0 l0 264 q-1 38 -10 78 q-1 8 3 11 q5 1 12 -6 q11 -11 29 -23 l88 0 q9 0 10 1 l25 33 q2 4 6 4 q4 0 8 -4 q31 -25 55 -50 q7 -8 -9 -14 q-24 -10 -27 -14 q-3 -6 -3 -13 l0 -267 l4 0 q6 0 12 7 l36 41 q7 7 14 0 q26 -26 44 -48 q11 -14 4 -24 q-5 -6 -18 -7 l-96 0 l0 -434 q0 -34 -18 -59 q-18 -25 -45 -35 q-9 -3 -10 6 q-12 46 -78 59 q-11 3 -10 13 q2 10 15 7 q90 -5 91 -5 q7 4 7 25 l0 423 l-92 0 q-2 -131 -9 -225 q-15 -187 -130 -301 q-13 -11 -20 -1 q-7 11 2 18 q30 39 49 75 q60 113 60 434 l-80 0 l0 -366 ZM279 471 l0 293 l-83 0 l0 -133 q-1 -85 -2 -160 l85 0 ZM456 515 q0 -22 -1 -44 l92 0 l0 293 l-91 0 l0 -249 Z" /><glyph glyph-name="uni5230" unicode="&#x5230;" d="M669 742 q-2 17 10 13 q54 -17 72 -27 q14 -7 -2 -16 q-16 -8 -20 -18 q-7 -19 -7 -80 l0 -227 q0 -117 4 -196 q1 -8 -5 -12 l-42 -27 q-13 -10 -12 11 q6 133 7 224 l0 227 q-1 80 -5 128 ZM926 28 q-2 -37 -18 -62 q-25 -37 -50 -50 q-8 -7 -12 -7 q-5 0 -9 21 q-9 30 -19 40 q-11 14 -69 21 q-16 2 -15 15 q1 13 17 12 q94 -14 112 -8 q14 6 15 28 l0 680 q-1 80 -4 129 q-3 16 7 13 q57 -20 76 -30 q12 -8 -3 -15 q-18 -8 -22 -17 q-6 -19 -6 -80 l0 -690 ZM173 521 q1 -3 19 -2 q163 16 298 9 q-18 46 -78 115 q-4 7 0 13 q6 4 16 -3 q139 -102 139 -162 q0 -20 -16 -48 q-13 -22 -25 -21 q-10 1 -11 20 q-6 35 -16 63 q-69 -4 -153 -17 l0 -177 l116 0 q6 0 12 7 l36 41 q7 7 14 0 q26 -26 44 -48 q11 -14 4 -24 q-5 -6 -18 -7 l-208 0 l0 -204 q97 22 247 53 q16 4 17 -5 q3 -12 -12 -16 q-431 -125 -473 -146 q-12 -7 -15 3 q-13 34 -35 58 q-12 12 6 12 q43 1 217 31 l0 214 l-101 0 q-42 -1 -73 -7 q-8 -3 -11 6 q-4 18 -19 30 q-7 7 -4 11 q4 3 11 -1 q38 -8 84 -8 l113 0 l0 171 q-60 -1 -183 -35 q-12 -3 -13 4 q-6 15 -10 28 q-14 36 -2 36 q87 28 201 245 l-126 0 q-42 -1 -73 -7 q-8 -3 -11 6 q-4 18 -19 30 q-7 7 -4 11 q4 3 11 -1 q38 -8 84 -8 l357 0 q6 0 12 7 l36 41 q7 7 14 0 q26 -26 44 -48 q11 -14 4 -24 q-5 -6 -18 -7 l-280 0 q26 -19 51 -38 q8 -6 5 -10 q-1 -5 -10 -4 q-35 10 -62 -35 q-54 -72 -127 -142 q-7 -7 -6 -10 Z" /><glyph glyph-name="uni5236" unicode="&#x5236;" d="M354 456 l-197 0 q-42 -1 -73 -7 q-8 -3 -11 6 q-4 18 -19 30 q-7 7 -4 11 q4 3 11 -1 q38 -8 84 -8 l209 0 l0 141 l-164 0 q-32 -60 -66 -108 q-9 -11 -16 -5 q-6 6 15 48 q55 124 52 202 q1 17 17 8 q40 -19 56 -29 q12 -6 12 -12 q0 -6 -9 -6 q-9 1 -19 -9 q-12 -12 -27 -58 l149 0 l0 47 q-1 80 -5 128 q-2 17 10 13 q54 -17 72 -27 q14 -7 -2 -16 q-16 -8 -20 -18 q-7 -19 -7 -80 l0 -47 l108 0 q13 0 23 12 l35 41 q9 8 16 1 q26 -28 45 -53 q11 -15 8 -24 q-3 -7 -18 -8 l-217 0 l0 -141 l148 0 q6 0 12 7 l36 41 q7 7 14 0 q26 -26 44 -48 q11 -14 4 -24 q-5 -6 -18 -7 l-240 0 l0 -113 l151 0 q9 0 10 1 l25 33 q2 4 6 4 q4 0 8 -4 q31 -25 55 -50 q7 -8 -9 -14 q-24 -10 -27 -14 q-3 -6 -3 -13 l0 -192 q0 -34 -18 -59 q-18 -25 -45 -35 q-9 -4 -12 5 q-20 51 -95 57 q-12 2 -11 12 q1 9 14 8 q106 -5 112 -2 q7 4 7 25 l0 207 l-168 0 l0 -161 q0 -117 4 -196 q1 -8 -5 -12 l-42 -27 q-13 -10 -12 11 q6 133 7 224 l0 161 l-164 0 l0 -307 q-1 -8 -5 -9 q-10 -4 -32 -13 q-15 -6 -14 4 q2 26 3 51 l0 282 q-1 26 -2 45 q0 9 4 10 q4 3 13 -6 q13 -13 31 -26 l166 0 l0 113 ZM705 686 q-2 17 10 13 q54 -17 72 -27 q14 -7 -2 -16 q-16 -8 -20 -18 q-7 -19 -7 -80 l0 -171 q0 -117 4 -196 q1 -8 -5 -12 l-42 -27 q-13 -10 -12 11 q6 133 7 224 l0 171 q-1 80 -5 128 ZM934 32 q-2 -37 -18 -62 q-25 -37 -50 -50 q-8 -7 -12 -7 q-3 1 -9 20 q-10 29 -20 39 q-10 13 -68 19 q-16 2 -15 15 q1 14 17 13 q91 -15 112 -5 q14 6 15 28 l0 652 q-1 80 -4 129 q-3 16 7 13 q57 -20 76 -30 q12 -8 -3 -15 q-18 -8 -22 -17 q-6 -19 -6 -80 l0 -662 Z" /><glyph glyph-name="uni524D" unicode="&#x524d;" d="M820 707 q14 1 30 19 l26 37 q7 9 16 0 q71 -63 70 -78 q-2 -8 -15 -9 l-776 0 q-42 -1 -73 -7 q-9 -3 -10 6 q-5 18 -20 31 q-8 7 -4 11 q4 3 11 -1 q38 -9 84 -9 l218 0 q0 68 -63 144 q-4 7 0 13 q6 4 16 -3 q95 -59 98 -98 q1 -20 -15 -48 q-4 -4 -5 -8 l177 0 q1 4 5 8 q41 74 56 149 q2 7 5 8 q6 1 72 -39 q13 -9 10 -13 q-2 -6 -8 -5 q-29 2 -48 -32 q-20 -31 -59 -76 l202 0 ZM599 506 q-2 17 10 13 q54 -17 72 -27 q14 -7 -2 -16 q-16 -8 -20 -18 q-7 -19 -7 -80 l0 -63 q0 -117 4 -196 q1 -8 -5 -12 l-42 -27 q-13 -10 -12 11 q6 133 7 224 l0 63 q-1 80 -5 128 ZM852 32 q-2 -37 -18 -62 q-25 -37 -50 -50 q-8 -7 -12 -7 q-5 0 -9 21 q-9 30 -19 40 q-11 14 -69 21 q-16 2 -15 15 q1 13 17 12 q94 -14 112 -8 q14 6 15 28 l0 400 q-1 80 -4 129 q-3 16 7 13 q57 -20 76 -30 q12 -8 -3 -15 q-18 -8 -22 -17 q-6 -19 -6 -80 l0 -410 ZM464 6 q0 -34 -18 -59 q-18 -25 -45 -35 q-9 -4 -12 5 q-8 21 -30 36 q-23 17 -69 21 q-12 2 -11 12 q1 9 14 8 q110 -5 116 -2 q7 4 7 25 l0 159 l-208 0 l0 -39 q-1 -107 0 -182 q-1 -15 -38 -40 q-8 -4 -12 -4 q-6 1 -5 20 q4 100 7 206 l0 352 q-1 32 -7 78 q-2 10 1 11 q1 0 40 -31 l205 0 q9 0 10 1 l25 33 q2 4 6 4 q4 0 8 -4 q31 -25 55 -50 q7 -8 -9 -14 q-24 -10 -27 -14 q-3 -6 -3 -13 l0 -484 ZM416 207 l0 137 l-208 0 l0 -137 l208 0 ZM416 375 l0 141 l-208 0 l0 -141 l208 0 Z" /><glyph glyph-name="uni526A" unicode="&#x526a;" d="M828 727 q14 1 30 19 l26 37 q7 9 16 0 q71 -63 70 -78 q-2 -8 -15 -9 l-792 0 q-42 -1 -73 -7 q-9 -3 -10 6 q-5 18 -20 31 q-8 7 -4 11 q4 3 11 -1 q38 -9 84 -9 l248 0 q-24 71 -78 117 q-8 7 -4 16 q6 9 19 0 q103 -57 107 -90 q0 -24 -18 -43 l161 0 q0 1 1 1 q42 63 67 136 q17 -17 38 -26 q19 -9 25 -16 q4 -5 0 -6 q-42 -8 -106 -89 l217 0 ZM612 596 q-4 14 0 18 q5 3 15 -1 q38 -16 62 -28 q5 -3 5 -7 q-2 -5 -6 -6 q-15 -3 -19 -10 q-4 -8 -5 -21 l0 -136 q1 -18 2 -45 q1 -9 -6 -13 q-44 -21 -47 -20 q-4 3 -1 13 q3 25 4 65 l0 136 q-1 30 -4 55 ZM860 348 q-2 -37 -18 -62 q-38 -56 -62 -56 q-4 1 -8 20 q-6 29 -16 39 q-10 12 -65 22 q-16 2 -15 15 q2 13 17 12 q88 -15 104 -8 q14 6 15 28 l0 148 q-1 80 -4 129 q-3 16 7 13 q57 -20 76 -30 q12 -8 -3 -15 q-18 -8 -22 -17 q-6 -19 -6 -80 l0 -158 ZM480 307 q0 -29 -16 -48 q-15 -19 -54 -31 q-11 -5 -12 2 q-4 20 -14 30 q-10 12 -62 19 q-11 1 -10 13 q1 11 13 10 q92 -5 98 -2 q9 6 9 21 l0 59 l-216 0 q-1 -120 -5 -126 q-35 -27 -41 -28 q-8 1 -7 20 q4 61 5 203 l0 116 q-1 36 -5 82 q-2 12 2 13 q3 1 10 -6 q12 -13 36 -31 l191 0 q8 0 12 4 l26 35 q8 8 15 1 q32 -27 47 -52 q7 -10 0 -11 q-10 -2 -16 -9 q-6 -7 -6 -23 l0 -261 ZM432 411 l0 69 l-216 0 l0 -69 l216 0 ZM432 511 l0 81 l-216 0 l0 -81 l216 0 ZM780 199 q11 1 15 5 l23 32 q6 10 15 0 q36 -37 57 -65 q5 -9 -4 -10 q-15 -1 -22 -5 q-11 -3 -35 -90 q-10 -33 -17 -57 q-33 -75 -102 -96 q-8 -5 -9 1 q-7 25 -20 35 q-17 13 -81 20 q-15 2 -14 12 q2 10 14 7 q133 -8 149 10 q16 11 35 80 q16 59 26 90 l-315 0 q-34 -69 -77 -117 q-106 -106 -334 -139 q-24 -3 -24 12 q0 11 31 17 q266 56 347 227 l-203 0 q-42 -1 -73 -7 q-9 -3 -10 6 q-5 18 -20 31 q-8 7 -4 11 q4 3 11 -1 q38 -9 84 -9 l557 0 Z" /><glyph glyph-name="uni529F" unicode="&#x529f;" d="M317 214 q128 39 234 72 q14 4 17 -5 q2 -12 -13 -16 q-236 -93 -390 -142 q-42 -11 -55 -30 q-6 -8 -10 -9 q-4 -1 -8 8 q-10 24 -32 43 q-12 11 -11 14 q2 3 12 4 q95 16 204 47 q1 1 4 1 l0 467 l-93 0 q-42 -1 -73 -7 q-8 -3 -11 6 q-4 18 -19 30 q-7 7 -4 11 q4 3 11 -1 q38 -8 84 -8 l265 0 q6 0 12 7 l36 41 q7 7 14 0 q26 -26 44 -48 q11 -14 4 -24 q-5 -6 -18 -7 l-204 0 l0 -454 ZM644 579 q1 9 1 18 l0 125 q0 79 -4 128 q0 16 10 13 q53 -18 72 -27 q13 -10 -3 -17 q-16 -8 -20 -18 q-7 -18 -7 -79 l0 -125 q0 -9 -1 -18 l165 0 q11 1 15 5 l23 32 q6 10 15 0 q37 -30 59 -54 q6 -6 -3 -10 q-21 -7 -28 -16 q-4 -5 -5 -20 q-25 -409 -31 -455 q-20 -104 -113 -143 q-8 -4 -9 2 q-6 23 -19 35 q-16 13 -80 22 q-15 2 -14 12 q2 10 14 7 q125 -11 141 7 q40 36 50 261 q8 181 15 284 l-195 0 q-3 -118 -16 -205 q-10 -60 -26 -109 q-75 -203 -352 -317 q-13 -6 -17 3 q-3 10 7 14 q122 59 189 120 q28 25 53 53 q111 141 114 441 l-112 0 q-42 -1 -73 -7 q-9 -3 -10 6 q-5 18 -20 31 q-8 7 -4 11 q4 3 11 -1 q38 -9 84 -9 l124 0 Z" /><glyph glyph-name="uni52A0" unicode="&#x52a0;" d="M667 56 q0 -51 1 -93 q-1 -15 -38 -40 q-8 -4 -12 -4 q-6 1 -5 20 q4 100 7 206 l0 460 q-1 32 -7 78 q-2 10 1 11 q1 0 40 -31 l195 0 q12 0 19 7 l25 26 q5 7 14 1 q31 -23 53 -42 q7 -8 -2 -9 q-17 -3 -26 -12 q-8 -9 -8 -19 l0 -452 q1 -68 8 -167 q0 -13 -10 -19 q-45 -26 -49 -25 q-4 2 -3 18 q3 35 4 86 l-207 0 ZM668 145 q-1 -30 -1 -58 l208 0 q0 23 1 47 l0 498 l-208 0 l0 -487 ZM243 643 q3 112 -4 202 q-2 16 10 13 q54 -17 72 -27 q14 -8 1 -14 q-10 -4 -14 -10 q-14 -8 -17 -164 l125 0 q11 1 15 5 l23 32 q6 10 15 0 q37 -30 59 -52 q5 -6 -2 -10 q-21 -8 -28 -17 q-4 -6 -5 -21 q-8 -389 -17 -470 q-17 -109 -111 -148 q-8 -4 -9 2 q-4 23 -17 33 q-15 14 -75 24 q-15 2 -14 12 q2 10 14 7 q117 -10 132 6 q18 19 28 53 q13 59 16 218 q2 189 6 295 l-155 0 q-4 -226 -29 -368 q-39 -171 -175 -315 q-16 -14 -23 -5 q-7 10 3 19 q77 93 117 192 q53 129 59 477 l-76 0 q-42 -1 -73 -7 q-9 -3 -10 6 q-5 18 -20 31 q-8 7 -4 11 q4 3 11 -1 q38 -9 84 -9 l88 0 Z" /><glyph glyph-name="uni52A8" unicode="&#x52a8;" d="M345 747 q6 0 12 7 l36 41 q7 7 14 0 q26 -26 44 -48 q11 -14 4 -24 q-5 -6 -18 -7 l-217 0 q-42 -1 -73 -7 q-8 -3 -11 6 q-4 18 -19 30 q-7 7 -4 11 q4 3 11 -1 q38 -8 84 -8 l137 0 ZM401 523 q6 0 12 7 l36 41 q7 7 14 0 q26 -26 44 -48 q11 -14 4 -24 q-5 -6 -18 -7 l-239 0 q31 -18 55 -34 q10 -6 9 -10 q-1 -5 -11 -6 q-26 -2 -62 -98 q-41 -107 -83 -186 q-4 -8 -3 -9 q3 -3 19 0 q219 49 247 53 q-40 81 -73 114 q-8 8 -1 15 q6 7 18 -3 q80 -71 117 -131 q28 -42 24 -63 q-3 -25 -19 -35 q-17 -12 -23 -11 q-7 1 -11 23 q-11 39 -23 70 q-133 -34 -260 -88 q-28 -10 -35 -19 q-7 -9 -11 1 q-12 26 -31 47 q-8 10 2 11 q14 2 18 6 q5 6 20 40 q1 7 4 11 q80 203 87 302 l-76 0 q-42 -1 -73 -7 q-8 -3 -11 6 q-4 18 -19 30 q-7 7 -4 11 q4 3 11 -1 q38 -8 84 -8 l261 0 ZM667 595 q3 172 -3 250 q-2 16 10 13 q54 -17 72 -27 q14 -8 1 -14 q-19 -11 -23 -20 q-5 -10 -9 -202 l150 0 q11 1 15 5 l23 32 q6 10 15 0 q37 -29 59 -53 q5 -6 -2 -10 q-22 -9 -29 -16 q-4 -6 -4 -21 q-8 -343 -21 -461 q-21 -108 -111 -145 q-8 -4 -9 2 q-4 23 -17 33 q-15 14 -75 24 q-15 2 -14 12 q2 10 14 7 q117 -10 132 6 q18 18 28 52 q13 57 17 214 q5 185 9 288 l-181 0 q-5 -130 -15 -203 q-20 -131 -74 -221 q-63 -104 -229 -218 q-16 -11 -23 -1 q-5 11 5 18 q180 133 240 287 q41 119 48 338 l-26 0 q-42 -1 -73 -7 q-9 -3 -10 6 q-5 18 -20 31 q-8 7 -4 11 q4 3 11 -1 q38 -9 84 -9 l39 0 Z" /><glyph glyph-name="uni5305" unicode="&#x5305;" d="M807 157 q-32 -37 -75 -55 q-8 -4 -9 2 q-5 24 -18 34 q-17 13 -78 23 q-15 2 -14 12 q2 10 14 7 q121 -10 136 6 q9 10 16 23 q13 38 26 431 l-515 0 q-112 -168 -226 -280 q-7 -9 -14 -3 q-8 6 -1 13 q206 250 288 475 q3 10 7 11 q12 5 81 -52 q5 -5 4 -9 q-3 -6 -16 -3 q-21 4 -28 0 q-2 -1 -75 -121 l465 0 q11 1 15 5 l23 32 q6 10 15 0 q37 -30 59 -52 q5 -7 -2 -11 q-32 -12 -32 -33 q-8 -304 -17 -380 q-7 -50 -29 -75 ZM801 -27 q62 1 78 8 q25 11 58 161 q3 12 13 11 q12 -2 9 -14 q-20 -104 -8 -126 q11 -18 21 -27 q10 -8 -6 -18 q-36 -34 -112 -37 l-558 0 q-43 1 -52 13 q-9 13 -9 46 l0 440 q-1 36 -5 75 q-2 10 2 13 q5 2 12 -7 q16 -15 34 -28 l239 0 q8 -1 11 2 l18 22 q8 12 17 3 q21 -18 40 -39 q6 -7 5 -11 q-1 -5 -11 -6 q-8 -1 -11 -7 q-3 -7 -3 -11 l0 -164 q0 -11 4 -32 q1 -9 -3 -12 q-36 -19 -43 -19 q-7 0 -6 10 l0 49 l-252 0 l0 -266 q1 -19 5 -23 q5 -6 23 -6 l490 0 ZM283 452 l0 -153 l252 0 l0 153 l-252 0 Z" /><glyph glyph-name="uni5316" unicode="&#x5316;" d="M253 602 q28 -8 41 -17 q21 -13 -4 -20 q-14 -5 -17 -12 q-7 -18 -7 -79 l0 -323 q0 -118 4 -199 q-2 -10 -48 -37 q-13 -7 -12 12 q7 133 8 224 l0 323 q-1 36 -2 61 q-89 -142 -159 -232 q-10 -11 -17 -4 q-8 7 1 17 q98 121 177 298 q78 176 82 234 q2 17 18 7 q38 -22 53 -34 q12 -7 11 -13 q-1 -5 -10 -4 q-9 1 -19 -8 q-3 -2 -100 -194 ZM851 0 q29 0 45 16 q21 16 48 151 q2 14 12 13 q11 -1 10 -14 q-9 -86 1 -110 q7 -19 17 -25 q8 -6 -1 -13 q-58 -66 -148 -66 l-175 0 q-53 0 -74 24 q-24 25 -24 68 l0 282 q-93 -75 -225 -142 q-12 -5 -16 2 q-3 8 6 14 q132 78 235 168 l0 338 q0 78 -4 126 q-1 16 9 13 q53 -18 72 -25 q13 -8 -3 -17 q-15 -9 -19 -18 q-7 -18 -7 -79 l0 -294 q2 3 6 6 q107 107 192 260 q6 9 13 5 q37 -25 65 -49 q9 -7 5 -11 q-3 -4 -18 -3 q-21 2 -66 -52 q-112 -127 -197 -202 l0 -311 q1 -28 14 -41 q13 -14 37 -14 l190 0 Z" /><glyph glyph-name="uni533A" unicode="&#x533a;" d="M517 390 q-91 89 -215 182 q-6 8 -2 15 q6 8 18 -1 q129 -84 222 -160 q70 114 119 232 q4 13 7 14 q12 3 67 -37 q19 -13 18 -17 q-1 -4 -14 -7 q-6 -1 -10 -4 q-16 -6 -155 -208 q133 -112 169 -187 q17 -30 11 -55 q-7 -24 -14 -34 q-5 -9 -14 -9 q-7 2 -11 15 q-48 113 -169 234 q-99 -124 -235 -259 q-13 -11 -20 -2 q-6 10 4 20 q132 134 223 266 q0 2 1 2 ZM794 5 l12 12 l30 42 q7 9 16 0 q71 -63 70 -78 q-2 -8 -15 -9 l-712 0 q-27 -23 -37 -41 q-8 -10 -15 0 q-18 22 -34 35 q-8 7 1 13 q14 8 15 12 q3 4 3 14 l0 721 q0 51 -7 85 q-2 10 2 14 q5 3 18 -9 q18 -16 39 -29 l560 0 l14 2 l12 12 l30 42 q7 9 16 0 q71 -63 70 -78 q-2 -8 -15 -9 l-691 0 l0 -753 l604 0 l14 2 Z" /><glyph glyph-name="uni534A" unicode="&#x534a;" d="M472 460 l-257 0 q-42 -1 -73 -7 q-9 -3 -10 6 q-5 18 -20 31 q-8 7 -4 11 q4 3 11 -1 q38 -9 84 -9 l269 0 l0 235 q-1 80 -5 128 q-2 17 10 13 q54 -17 72 -27 q14 -7 -2 -16 q-16 -8 -20 -18 q-7 -19 -7 -80 l0 -235 l244 0 q14 1 30 19 l26 37 q7 9 16 0 q71 -63 70 -78 q-2 -8 -15 -9 l-371 0 l0 -185 l320 0 q14 1 30 19 l26 37 q7 9 16 0 q71 -63 70 -78 q-2 -8 -15 -9 l-447 0 l0 -93 q0 -117 4 -196 q1 -8 -5 -12 l-42 -27 q-13 -10 -12 11 q6 133 7 224 l0 93 l-321 0 q-42 -1 -73 -7 q-9 -3 -10 6 q-5 18 -20 31 q-8 7 -4 11 q4 3 11 -1 q38 -9 84 -9 l333 0 l0 185 ZM174 763 q-4 7 0 13 q6 6 16 -3 q155 -109 158 -178 q1 -20 -15 -48 q-13 -23 -25 -22 q-10 1 -11 20 q-23 112 -123 218 ZM768 791 q2 7 5 8 q9 4 69 -44 q13 -10 10 -14 q-3 -5 -9 -4 q-34 2 -64 -47 q-43 -68 -133 -162 q-11 -11 -21 -4 q-9 10 3 23 q91 112 140 244 Z" /><glyph glyph-name="uni5355" unicode="&#x5355;" d="M570 679 q2 4 5 8 q44 77 65 176 q1 7 4 8 q7 3 74 -36 q13 -8 10 -14 q-2 -5 -8 -4 q-28 0 -49 -39 q-23 -41 -69 -99 l141 0 q12 0 19 7 l25 26 q5 7 14 1 q31 -23 53 -42 q7 -8 -2 -9 q-17 -3 -26 -12 q-8 -9 -8 -19 l0 -160 q1 -68 8 -167 q0 -13 -10 -19 q-45 -26 -49 -25 q-4 2 -3 18 q1 20 2 42 l-232 0 l0 -129 l284 0 q14 1 30 19 l26 37 q7 9 16 0 q71 -63 70 -78 q-2 -8 -15 -9 l-411 0 l0 -5 q0 -118 4 -197 q-1 -9 -46 -39 q-14 -9 -13 12 q7 133 7 224 l0 5 l-313 0 q-42 -1 -73 -7 q-9 -3 -10 6 q-5 18 -20 31 q-8 7 -4 11 q4 3 11 -1 q38 -9 84 -9 l325 0 l0 129 l-232 0 q-1 -32 -5 -38 q-35 -27 -41 -28 q-8 1 -7 20 q4 61 5 203 l0 144 q-1 36 -5 82 q-2 12 2 13 q3 1 10 -6 q12 -13 36 -31 l138 0 l0 3 q-19 87 -91 165 q-4 7 0 13 q4 5 16 -2 q121 -73 124 -122 q3 -21 -13 -49 q-4 -4 -5 -8 l152 0 ZM486 488 l-232 0 l0 -137 l232 0 l0 137 ZM534 351 l234 0 q1 40 2 91 l0 46 l-236 0 l0 -137 ZM486 648 l-232 0 l0 -129 l232 0 l0 129 ZM534 519 l236 0 l0 129 l-236 0 l0 -129 Z" /><glyph glyph-name="uni5373" unicode="&#x5373;" d="M409 199 q-62 81 -101 120 q-4 7 0 13 q4 5 16 -2 q181 -124 184 -202 q3 -21 -13 -49 q-12 -23 -24 -23 q-11 1 -12 20 q-16 60 -40 106 q-186 -103 -273 -163 q-11 -7 -15 -1 q-17 24 -44 37 q-10 5 -10 9 q-1 5 8 6 q35 9 45 18 q12 12 12 28 l0 620 q0 55 -7 101 q-1 12 3 13 q5 2 12 -7 q10 -13 34 -32 l207 0 q12 0 19 7 l25 26 q5 7 14 1 q31 -23 53 -42 q7 -8 -2 -9 q-17 -3 -26 -12 q-8 -9 -8 -19 l0 -220 q1 -68 8 -167 q0 -13 -10 -19 q-45 -26 -49 -25 q-4 2 -3 18 q3 30 4 70 l-226 0 l0 -326 q86 38 219 105 ZM190 780 l0 -145 l228 0 l0 145 l-228 0 ZM190 604 l0 -153 l226 0 q1 30 2 63 l0 90 l-228 0 ZM662 141 q-1 -107 0 -182 q-1 -15 -38 -40 q-8 -4 -12 -4 q-6 1 -5 20 q4 100 7 206 l0 600 q-1 32 -7 78 q-2 10 1 11 q1 0 40 -31 l189 0 q9 0 10 1 l25 33 q2 4 6 4 q4 0 8 -4 q31 -25 55 -50 q7 -8 -9 -14 q-24 -10 -27 -14 q-3 -6 -3 -13 l0 -528 q0 -34 -18 -59 q-18 -25 -45 -35 q-9 -4 -12 5 q-8 21 -30 36 q-23 17 -69 21 q-12 2 -11 12 q1 9 14 8 q110 -5 116 -2 q7 4 7 25 l0 543 l-192 0 l0 -627 Z" /><glyph glyph-name="uni538B" unicode="&#x538b;" d="M693 259 q-5 7 -1 13 q4 6 16 -1 q124 -70 130 -119 q4 -19 -11 -49 q-11 -24 -23 -24 q-10 1 -13 20 q-20 85 -98 160 ZM215 687 q-1 -337 -22 -491 q-27 -147 -114 -261 q-13 -12 -20 -2 q-8 11 1 18 q37 64 59 124 q48 170 48 567 l0 97 q-1 38 -10 78 q-1 8 3 11 q5 1 12 -6 q14 -14 36 -27 l614 0 l14 2 l12 12 l30 42 q7 9 16 0 q71 -63 70 -78 q-2 -8 -15 -9 l-734 0 l0 -77 ZM830 7 q14 1 30 19 l26 37 q7 9 16 0 q71 -63 70 -78 q-2 -8 -15 -9 l-676 0 q-42 -1 -73 -7 q-9 -3 -10 6 q-5 18 -20 31 q-8 7 -4 11 q4 3 11 -1 q38 -9 84 -9 l273 0 l0 365 l-157 0 q-42 -1 -73 -7 q-9 -3 -10 6 q-5 18 -20 31 q-8 7 -4 11 q4 3 11 -1 q38 -9 84 -9 l169 0 l0 183 q-1 39 -4 70 q-1 16 9 13 q53 -17 71 -26 q14 -9 -2 -16 q-15 -8 -19 -18 q-7 -13 -7 -23 l0 -183 l176 0 q14 1 30 19 l26 37 q7 9 16 0 q71 -63 70 -78 q-2 -8 -15 -9 l-303 0 l0 -365 l240 0 Z" /><glyph glyph-name="uni53D1" unicode="&#x53d1;" d="M646 799 q-6 7 -2 13 q5 6 17 0 q108 -50 120 -95 q4 -19 -9 -50 q-10 -24 -22 -24 q-10 -1 -13 18 q-22 78 -91 138 ZM195 564 q-4 -7 -19 -22 q-6 -6 -10 1 q-11 20 -36 39 q-6 6 1 10 q30 16 37 28 q67 158 73 215 q1 11 8 7 q29 -18 62 -45 q8 -6 7 -12 q-1 -6 -13 -7 q-24 -7 -42 -52 q-28 -71 -44 -107 q-7 -12 -11 -24 l215 0 q49 158 53 257 q-1 11 2 12 q3 2 9 1 q29 -10 71 -25 q8 -3 8 -9 q-1 -6 -13 -6 q-14 -1 -24 -11 q-2 0 -59 -219 l317 0 l14 2 l12 12 l30 42 q7 9 16 0 q71 -63 70 -78 q-2 -8 -15 -9 l-453 0 q-24 -77 -49 -137 l271 0 q8 0 11 4 l37 40 q4 6 8 6 q12 -1 63 -65 q8 -11 -5 -12 q-36 -2 -61 -65 q-25 -57 -52 -103 q-14 -21 -78 -105 q6 -5 15 -11 q175 -125 325 -140 q8 -1 7 -11 q0 -10 -16 -9 q-44 -1 -65 -34 q-3 -6 -13 0 q-183 76 -286 175 q-166 -137 -413 -173 q-18 -2 -19 8 q-1 11 12 12 q78 16 169 52 q98 39 164 87 q28 23 55 45 q-91 91 -148 259 q-4 -7 -7 -14 q-81 -146 -282 -342 q-17 -17 -26 -8 q-9 11 1 21 q150 151 220 259 q66 104 115 261 l-219 0 ZM414 396 q53 -135 128 -211 l28 -28 q82 82 133 239 l-289 0 Z" /><glyph glyph-name="uni53D6" unicode="&#x53d6;" d="M602 656 q34 -244 103 -386 q73 164 107 386 l-210 0 ZM201 171 q63 21 192 66 l0 139 l-192 0 l0 -205 ZM201 407 l192 0 l0 177 l-192 0 l0 -177 ZM201 615 l192 0 l0 165 l-192 0 l0 -165 ZM802 687 q11 0 15 4 l27 34 q6 7 13 1 q31 -22 65 -55 q5 -5 4 -9 q-2 -4 -21 -10 q-12 -3 -19 -6 q-19 -6 -31 -60 q-48 -213 -121 -366 q102 -161 252 -219 q6 -4 3 -13 q-3 -8 -15 -5 q-16 4 -37 -3 q-23 -8 -36 -23 q-5 -3 -12 4 q-124 103 -185 206 q-88 -143 -218 -215 q-19 -11 -23 -2 q-5 12 6 19 q124 78 211 246 q-69 148 -105 441 q-32 -1 -60 -7 q-9 -3 -10 6 q-5 18 -20 31 q-8 7 -4 11 q4 3 11 -1 q38 -9 84 -9 l226 0 ZM443 -50 q-7 -6 -44 -31 q-14 -9 -13 12 q7 133 7 224 l0 46 q-141 -58 -244 -97 q-41 -14 -54 -33 q-6 -9 -10 -10 q-4 -1 -8 8 q-12 24 -34 42 q-12 10 -12 13 q1 2 122 32 l0 624 l-5 0 q-42 -1 -73 -7 q-9 -3 -10 6 q-5 18 -20 31 q-8 7 -4 11 q4 3 11 -1 q38 -9 84 -9 l337 0 q14 1 30 19 l26 37 q7 9 16 0 q71 -63 70 -78 q-2 -8 -15 -9 l-159 0 l0 -526 q63 24 118 43 q14 5 17 -4 q3 -11 -13 -17 q-65 -29 -122 -54 l0 -67 q0 -111 3 -190 l-1 -15 Z" /><glyph glyph-name="uni53E5" unicode="&#x53e5;" d="M862 -35 q-32 -37 -75 -55 q-8 -4 -9 2 q-5 24 -18 34 q-17 13 -78 23 q-15 2 -14 12 q2 10 14 7 q121 -10 136 6 q22 22 34 64 q16 71 19 261 q5 226 9 353 l-587 0 q-80 -118 -210 -251 q-13 -10 -20 -3 q-7 10 3 20 q180 201 255 414 q3 14 6 15 q12 4 69 -35 q19 -12 18 -16 q-1 -5 -14 -8 q-33 -9 -87 -105 l537 0 q11 1 15 5 l23 32 q6 10 15 0 q37 -30 59 -52 q5 -7 -2 -10 q-33 -12 -33 -42 q-7 -340 -16 -500 q-13 -128 -49 -171 ZM285 168 q0 -41 1 -77 q-1 -15 -38 -40 q-8 -4 -12 -4 q-6 1 -5 20 q4 100 7 206 l0 156 q-1 32 -7 78 q-2 10 1 11 q1 0 40 -31 l271 0 q12 0 19 7 l25 26 q5 7 14 1 q31 -23 53 -42 q7 -8 -2 -9 q-17 -3 -26 -12 q-8 -9 -8 -19 l0 -136 q1 -68 8 -167 q0 -13 -10 -19 q-45 -26 -49 -25 q-4 2 -3 18 q2 25 3 58 l-282 0 ZM286 273 q-1 -40 -1 -74 l283 0 q1 35 2 75 l0 182 l-284 0 l0 -183 Z" /><glyph glyph-name="uni53E6" unicode="&#x53e6;" d="M315 540 q0 -22 1 -41 q-1 -15 -38 -40 q-8 -4 -12 -4 q-6 1 -5 20 q4 100 7 206 l0 76 q-1 32 -7 78 q-2 10 1 11 q1 0 40 -31 l451 0 q12 0 19 7 l25 26 q5 7 14 1 q31 -23 53 -42 q7 -8 -2 -9 q-17 -3 -26 -12 q-8 -9 -8 -19 l0 -100 q1 -68 8 -167 q0 -13 -10 -19 q-45 -26 -49 -25 q-4 2 -3 18 q2 29 3 66 l-462 0 ZM316 681 q-1 -59 -1 -110 l463 0 q1 31 2 67 l0 146 l-464 0 l0 -103 ZM472 371 q10 75 9 141 q-1 7 3 10 q4 2 11 1 q45 -12 81 -27 q7 -3 6 -9 q-1 -6 -19 -6 q-14 0 -21 -9 q-11 -11 -17 -101 l295 0 q11 1 15 5 l23 32 q6 10 15 0 q37 -32 59 -56 q4 -7 -3 -10 q-32 -11 -33 -27 q-21 -220 -34 -292 q-20 -77 -102 -108 q-9 -5 -10 1 q-5 24 -20 36 q-18 12 -82 21 q-15 2 -14 12 q2 10 14 7 q130 -10 146 8 q5 7 11 14 q8 14 45 326 l-330 0 q-17 -88 -48 -158 q-39 -88 -108 -146 q-82 -70 -257 -125 q-14 -5 -17 8 q-2 12 11 16 q152 59 236 134 q91 91 130 271 l-244 0 q-42 -1 -73 -7 q-9 -3 -10 6 q-5 18 -20 31 q-8 7 -4 11 q4 3 11 -1 q38 -9 84 -9 l261 0 Z" /><glyph glyph-name="uni53EA" unicode="&#x53ea;" d="M312 376 q0 -19 1 -37 q-1 -15 -38 -40 q-8 -4 -12 -4 q-6 1 -5 20 q4 100 7 206 l0 212 q-1 32 -7 78 q-2 10 1 11 q1 0 40 -31 l435 0 q12 0 19 7 l25 26 q5 7 14 1 q31 -23 53 -42 q7 -8 -2 -9 q-17 -3 -26 -12 q-8 -9 -8 -19 l0 -236 q1 -68 8 -167 q0 -13 -10 -19 q-45 -26 -49 -25 q-4 2 -3 18 q2 28 3 62 l-446 0 ZM313 521 q-1 -62 -1 -114 l447 0 q1 34 2 71 l0 282 l-448 0 l0 -239 ZM363 249 q6 12 9 13 q5 0 14 -7 q27 -22 46 -41 q15 -16 14 -20 q-2 -4 -15 -4 q-31 -3 -106 -84 q-95 -93 -243 -189 q-14 -8 -20 2 q-5 9 8 19 q185 137 293 311 ZM643 240 q-6 8 -2 15 q6 8 18 -1 q246 -153 291 -246 q17 -30 11 -55 q-7 -24 -14 -34 q-5 -9 -14 -9 q-7 2 -11 15 q-54 138 -279 315 Z" /><glyph glyph-name="uni53EF" unicode="&#x53ef;" d="M251 232 q0 -44 1 -81 q-1 -15 -38 -40 q-8 -4 -12 -4 q-6 1 -5 20 q4 100 7 206 l0 172 q-1 32 -7 78 q-2 10 1 11 q1 0 40 -31 l219 0 q12 0 19 7 l25 26 q5 7 14 1 q31 -23 53 -42 q7 -8 -2 -9 q-17 -3 -26 -12 q-8 -9 -8 -19 l0 -156 q1 -68 8 -167 q0 -13 -10 -19 q-45 -26 -49 -25 q-4 2 -3 18 q2 29 3 66 l-230 0 ZM252 333 q-1 -36 -1 -70 l231 0 q1 31 2 67 l0 202 l-232 0 l0 -199 ZM796 8 q-1 -42 -17 -61 q-19 -21 -58 -31 q-11 -6 -12 4 q-3 31 -15 37 q-21 13 -85 26 q-12 2 -11 12 q1 11 43 8 q86 -5 93 4 q13 14 14 39 l0 686 l-585 0 q-42 -1 -73 -7 q-9 -3 -10 6 q-5 18 -20 31 q-8 7 -4 11 q4 3 11 -1 q38 -9 84 -9 l677 0 q14 1 30 19 l26 37 q7 9 16 0 q71 -63 70 -78 q-2 -8 -15 -9 l-159 0 l0 -724 Z" /><glyph glyph-name="uni53F3" unicode="&#x53f3;" d="M764 375 q6 0 9 4 l18 28 q7 8 14 1 q29 -19 57 -41 q6 -6 5 -12 q-3 -6 -13 -7 q-12 -2 -18 -12 q-4 -9 -4 -22 l0 -272 q0 -32 6 -87 q2 -12 -7 -16 q-35 -20 -42 -20 q-5 1 -5 11 l0 78 l-408 0 l0 -79 q-1 -8 -5 -9 q-10 -4 -32 -13 q-15 -6 -14 4 q2 26 3 51 l0 394 q0 11 -1 21 q-87 -122 -250 -266 q-12 -10 -22 2 q-10 13 6 26 q46 37 92 85 q175 187 253 400 l-247 0 q-42 -1 -73 -7 q-9 -3 -10 6 q-5 18 -20 31 q-8 7 -4 11 q4 3 11 -1 q38 -9 84 -9 l270 0 q34 100 47 200 q1 13 11 10 q51 -17 79 -29 q10 -5 10 -9 q0 -7 -13 -11 q-5 0 -8 -3 q-26 -10 -77 -158 l370 0 q14 1 30 19 l26 37 q7 9 16 0 q71 -63 70 -78 q-2 -8 -15 -9 l-509 0 q-49 -127 -109 -221 q14 -15 35 -28 l384 0 ZM784 39 l0 305 l-408 0 l0 -305 l408 0 Z" /><glyph glyph-name="uni5404" unicode="&#x5404;" d="M667 759 q17 33 18 33 q5 1 9 -3 q26 -22 60 -53 q8 -7 5 -11 q-3 -5 -15 -1 q-13 5 -28 -2 q-13 -6 -46 -54 q-76 -110 -142 -185 q93 -93 261 -154 q136 -47 193 -47 q5 -2 4 -9 q-1 -8 -13 -7 q-47 -1 -60 -35 q-4 -6 -20 1 q-60 22 -112 43 q2 -3 5 -4 q7 -8 -2 -9 q-17 -3 -26 -12 q-8 -9 -8 -19 l0 -108 q1 -68 8 -167 q0 -13 -10 -19 q-45 -26 -49 -25 q-4 2 -3 18 q2 25 3 56 l-385 0 q-1 -42 -5 -48 q-35 -27 -41 -28 q-8 1 -7 20 q4 61 5 203 l0 88 q-1 29 -4 63 q-84 -44 -192 -87 q-25 -11 -29 2 q-4 16 9 20 q184 79 281 148 q70 50 143 128 q-64 91 -110 224 q-58 -80 -104 -129 q-62 -67 -159 -131 q-12 -8 -16 -1 q-5 8 4 14 q108 90 181 187 q62 87 107 205 q3 11 12 7 q40 -21 71 -40 q9 -6 6 -10 q-4 -6 -17 -6 q-14 0 -20 -6 q-17 -10 -36 -50 l274 0 ZM383 728 q44 -127 111 -209 q93 110 156 209 l-267 0 ZM544 416 q-22 19 -40 41 q-80 -82 -218 -160 q10 -8 23 -18 l366 0 q12 0 19 7 l19 20 q-109 55 -169 110 ZM314 13 l386 0 q1 38 2 81 l0 154 l-388 0 l0 -235 Z" /><glyph glyph-name="uni540C" unicode="&#x540c;" d="M873 6 q0 -34 -18 -59 q-18 -25 -45 -35 q-9 -5 -13 5 q-9 21 -33 37 q-24 16 -73 20 q-12 2 -11 12 q1 9 14 8 q118 -5 124 -2 q7 4 7 25 l0 755 l-664 0 l0 -635 q-1 -107 0 -182 q-1 -15 -38 -40 q-8 -4 -12 -4 q-6 1 -5 20 q4 100 7 206 l0 608 q-1 32 -7 78 q-2 10 1 11 q1 0 40 -31 l661 0 q9 0 10 1 l25 33 q2 4 6 4 q4 0 8 -4 q31 -25 55 -50 q7 -8 -9 -14 q-24 -10 -27 -14 q-3 -6 -3 -13 l0 -740 ZM637 627 q6 0 12 7 l36 41 q7 7 14 0 q26 -26 44 -48 q11 -14 4 -24 q-5 -6 -18 -7 l-393 0 q-42 -1 -73 -7 q-8 -3 -11 6 q-4 18 -19 30 q-7 7 -4 11 q4 3 11 -1 q38 -8 84 -8 l313 0 ZM365 204 l0 -67 q-1 -8 -5 -9 q-10 -4 -32 -13 q-15 -6 -14 4 q2 26 3 51 l0 270 q-1 26 -2 45 q0 9 4 10 q4 3 13 -6 q13 -13 31 -26 l222 0 q6 0 9 4 l18 28 q7 8 14 1 q29 -19 57 -41 q6 -6 5 -12 q-3 -6 -13 -7 q-12 -2 -18 -12 q-4 -9 -4 -22 l0 -148 q0 -32 6 -87 q2 -12 -7 -16 q-35 -20 -42 -20 q-5 1 -5 11 l0 62 l-240 0 ZM365 235 l240 0 l0 197 l-240 0 l0 -197 Z" /><glyph glyph-name="uni540D" unicode="&#x540d;" d="M403 611 q-5 7 -1 13 q4 6 16 -1 q124 -65 134 -119 q2 -19 -11 -49 q-12 -24 -22 -24 q-10 0 -14 19 q-24 89 -102 161 ZM424 -4 q-1 -52 -5 -58 q-35 -27 -41 -28 q-8 1 -7 20 q4 61 5 203 l0 104 q-1 9 -1 18 q-128 -73 -266 -130 q-15 -7 -18 3 q-3 9 10 15 q136 65 271 156 q-1 10 -1 20 q-2 12 2 13 q3 1 10 -6 q4 -5 11 -12 q219 158 378 365 q3 4 2 7 q-1 3 -7 2 l-348 0 q-83 -135 -266 -315 q-13 -12 -20 -3 q-7 10 3 20 q203 214 299 455 q3 14 7 15 q9 3 67 -36 q19 -14 18 -18 q-1 -4 -14 -7 q-30 -5 -75 -80 l337 0 q19 0 23 1 l24 20 q8 8 17 -1 q26 -21 51 -46 q6 -7 3 -11 q-3 -5 -13 -4 q-6 1 -10 0 q-21 0 -142 -145 q-102 -109 -289 -238 l378 0 q12 0 19 7 l25 26 q5 7 14 1 q31 -23 53 -42 q7 -8 -2 -9 q-17 -3 -26 -12 q-8 -9 -8 -19 l0 -124 q1 -68 8 -167 q0 -13 -10 -19 q-45 -26 -49 -25 q-4 2 -3 18 q2 29 3 66 l-417 0 ZM424 27 l418 0 q1 31 2 67 l0 170 l-420 0 l0 -237 Z" /><glyph glyph-name="uni540E" unicode="&#x540e;" d="M843 561 l12 12 l30 42 q7 9 16 0 q71 -63 70 -78 q-2 -8 -15 -9 l-704 0 q-3 -117 -10 -208 q-20 -230 -164 -366 q-13 -11 -20 -1 q-7 11 2 18 q50 63 80 120 q66 154 66 547 l0 61 q-1 38 -10 78 q-1 8 3 11 q5 1 12 -6 q15 -15 43 -31 q276 16 586 101 q10 4 14 -3 q29 -45 47 -67 q4 -6 3 -9 q-5 -6 -18 -2 q-45 17 -268 -16 q-180 -25 -364 -29 l0 -43 q-1 -64 -2 -124 l577 0 l14 2 ZM397 20 q-1 -68 -5 -74 q-35 -27 -41 -28 q-8 1 -7 20 q4 61 5 203 l0 136 q-1 36 -5 82 q-2 12 2 13 q3 1 10 -6 q12 -13 36 -31 l362 0 q12 0 19 7 l25 26 q5 7 14 1 q31 -23 53 -42 q7 -8 -2 -9 q-17 -3 -26 -12 q-8 -9 -8 -19 l0 -164 q1 -68 8 -167 q0 -13 -10 -19 q-45 -26 -49 -25 q-4 2 -3 18 q3 38 4 90 l-382 0 ZM397 51 l383 0 q0 21 1 43 l0 210 l-384 0 l0 -253 Z" /><glyph glyph-name="uni5411" unicode="&#x5411;" d="M853 2 q0 -34 -18 -59 q-18 -25 -45 -35 q-9 -5 -13 5 q-9 21 -33 37 q-24 16 -73 20 q-12 2 -11 12 q1 9 14 8 q118 -5 124 -2 q7 4 7 25 l0 627 l-624 0 l0 -511 q-1 -107 0 -182 q-1 -15 -38 -40 q-8 -4 -12 -4 q-6 1 -5 20 q4 100 7 206 l0 484 q-1 32 -7 78 q-2 10 1 11 q1 0 40 -31 l189 0 q1 4 4 7 q36 85 45 184 q0 7 4 8 q4 3 11 0 q32 -12 66 -27 q13 -6 12 -12 q-2 -6 -8 -6 q-32 -2 -45 -44 q-20 -44 -60 -110 l403 0 q9 0 10 1 l25 33 q2 4 6 4 q4 0 8 -4 q31 -25 55 -50 q7 -8 -9 -14 q-24 -10 -27 -14 q-3 -6 -3 -13 l0 -612 ZM385 192 l0 -67 q-1 -8 -5 -9 q-10 -4 -32 -13 q-15 -6 -14 4 q2 26 3 51 l0 298 q-1 26 -2 45 q0 9 4 10 q4 3 13 -6 q13 -13 31 -26 l190 0 q6 0 9 4 l18 28 q7 8 14 1 q29 -19 57 -41 q6 -6 5 -12 q-3 -6 -13 -7 q-12 -2 -18 -12 q-4 -9 -4 -22 l0 -172 q0 -32 6 -87 q2 -12 -7 -16 q-35 -20 -42 -20 q-5 1 -5 11 l0 58 l-208 0 ZM385 223 l208 0 l0 225 l-208 0 l0 -225 Z" /><glyph glyph-name="uni5440" unicode="&#x5440;" d="M120 280 q0 -51 1 -93 q-1 -15 -38 -40 q-8 -4 -12 -4 q-6 1 -5 20 q4 100 7 206 l0 312 q-1 32 -7 78 q-2 10 1 11 q1 1 46 -35 l141 0 q12 0 19 7 l25 26 q5 7 14 1 q31 -23 53 -42 q7 -8 -2 -9 q-17 -3 -26 -12 q-8 -9 -8 -19 l0 -280 q1 -68 8 -167 q0 -13 -10 -19 q-45 -26 -49 -25 q-4 2 -3 18 q2 29 3 66 l-158 0 ZM121 369 q-1 -30 -1 -58 l159 0 q1 31 2 67 l0 326 l-160 0 l0 -335 ZM704 436 q-85 -159 -205 -274 q-104 -101 -266 -207 q-14 -8 -20 -1 q-9 13 3 20 q305 216 429 462 l-194 0 q-1 0 -1 -1 q-11 -12 -15 -16 q-6 -7 -10 0 q-12 19 -37 38 q-7 6 0 10 q9 4 19 10 q6 5 12 11 q60 184 63 214 q1 11 8 7 q29 -17 63 -42 q9 -6 8 -13 q0 -6 -12 -7 q-7 -1 -10 -4 q-19 -8 -76 -176 l254 0 l0 281 l-221 0 q-42 -1 -73 -7 q-8 -3 -11 6 q-4 18 -19 30 q-7 7 -4 11 q4 3 11 -1 q38 -8 84 -8 l333 0 q6 0 12 7 l36 41 q7 7 14 0 q26 -26 44 -48 q11 -14 4 -24 q-5 -6 -18 -7 l-144 0 l0 -281 l64 0 q13 0 23 12 l35 41 q9 8 16 1 q26 -28 45 -53 q11 -15 8 -24 q-3 -7 -18 -8 l-173 0 l0 -432 q-1 -42 -17 -61 q-19 -21 -58 -31 q-11 -4 -11 5 q-1 28 -11 35 q-21 15 -79 31 q-10 2 -9 12 q1 8 19 8 q98 -6 104 0 q13 14 14 39 l0 394 l-13 0 Z" /><glyph glyph-name="uni547D" unicode="&#x547d;" d="M531 812 q23 -33 51 -63 q167 -178 395 -200 q6 0 6 -7 q0 -8 -12 -9 q-17 -1 -35 -11 q-19 -13 -29 -35 q-3 -7 -16 0 q-149 73 -242 152 q-80 69 -141 171 q-7 -3 -85 -91 q-169 -175 -361 -284 q-13 -7 -17 2 q-5 9 4 15 q107 64 221 169 q97 86 194 242 q7 10 14 6 q27 -13 67 -41 q8 -7 7 -11 q-3 -6 -19 -5 l-2 0 ZM553 563 q16 1 29 16 l24 35 q8 9 15 0 q68 -61 67 -73 q-2 -8 -15 -9 l-257 0 q-42 -1 -73 -7 q-9 -3 -10 6 q-5 18 -20 31 q-8 7 -4 11 q4 3 11 -1 q38 -9 84 -9 l149 0 ZM225 84 l0 -99 q-1 -8 -5 -9 q-10 -4 -32 -13 q-15 -6 -14 4 q2 26 3 51 l0 366 q-1 26 -2 45 q0 9 4 10 q4 3 13 -6 q13 -13 31 -26 l142 0 q6 0 9 4 l18 28 q7 8 14 1 q29 -19 57 -41 q6 -6 5 -12 q-3 -6 -13 -7 q-12 -2 -18 -12 q-4 -9 -4 -22 l0 -216 q0 -32 6 -87 q2 -12 -7 -16 q-35 -20 -42 -20 q-5 1 -5 11 l0 66 l-160 0 ZM225 115 l160 0 l0 261 l-160 0 l0 -261 ZM609 133 q-1 -107 0 -182 q-1 -15 -38 -40 q-8 -4 -12 -4 q-6 1 -5 20 q4 100 7 206 l0 228 q-1 32 -7 78 q-2 10 1 11 q1 0 40 -31 l168 0 q8 0 12 4 l26 35 q8 8 15 1 q32 -27 47 -52 q7 -10 0 -11 q-10 -2 -16 -9 q-6 -7 -6 -23 l0 -273 q0 -29 -16 -48 q-15 -19 -54 -31 q-11 -5 -12 2 q-5 24 -14 34 q-12 12 -67 22 q-10 2 -9 14 q2 10 14 9 q94 -12 101 -9 q9 6 9 21 l0 283 l-184 0 l0 -255 Z" /><glyph glyph-name="uni548C" unicode="&#x548c;" d="M659 124 q0 -65 1 -117 q-1 -15 -38 -40 q-8 -4 -12 -4 q-6 1 -5 20 q4 100 7 206 l0 444 q-1 32 -7 78 q-2 10 1 11 q1 0 40 -31 l215 0 q12 0 19 7 l25 26 q5 7 14 1 q31 -23 53 -42 q7 -8 -2 -9 q-17 -3 -26 -12 q-8 -9 -8 -19 l0 -440 q1 -68 8 -167 q0 -13 -10 -19 q-45 -26 -49 -25 q-4 2 -3 18 q4 44 5 114 l-228 0 ZM660 189 q-1 -18 -1 -34 l228 0 q0 10 1 19 l0 486 l-228 0 l0 -471 ZM316 424 q7 29 11 54 q1 5 -3 6 q-6 1 -7 -3 q-5 -18 -9 -36 q-40 -129 -227 -348 q-9 -10 -16 -3 q-6 6 4 18 q153 211 225 404 l-139 0 q-42 -1 -73 -7 q-8 -3 -11 6 q-4 18 -19 30 q-7 7 -4 11 q4 3 11 -1 q38 -8 84 -8 l173 0 l0 181 q-112 -23 -212 -33 q-17 -2 -18 8 q-1 11 12 12 q257 54 380 117 q12 6 16 -1 q19 -32 46 -57 q9 -8 6 -14 q-4 -5 -17 -1 q-47 10 -165 -20 l0 -192 l104 0 q6 0 12 7 l36 41 q7 7 14 0 q26 -26 44 -48 q11 -14 4 -24 q-5 -6 -18 -7 l-196 0 l0 -81 q2 0 3 -1 q88 -40 137 -80 q35 -28 38 -47 q4 -24 -8 -39 q-12 -17 -19 -18 q-6 0 -16 19 q-63 97 -135 142 l0 -264 q0 -118 4 -197 q-1 -9 -46 -39 q-14 -9 -13 12 q7 133 7 224 l0 277 Z" /><glyph glyph-name="uni5668" unicode="&#x5668;" d="M194 600 l0 -43 q-1 -8 -5 -9 q-10 -4 -32 -13 q-15 -6 -14 4 q2 26 3 51 l0 202 q-1 26 -2 45 q0 9 4 10 q4 3 13 -6 q13 -13 31 -26 l170 0 q6 0 9 4 l18 28 q7 8 14 1 q29 -19 57 -41 q6 -6 5 -12 q-3 -6 -13 -7 q-12 -2 -18 -12 q-4 -9 -4 -22 l0 -84 q0 -32 6 -87 q2 -12 -7 -16 q-35 -20 -42 -20 q-5 1 -5 11 l0 42 l-188 0 ZM194 631 l188 0 l0 153 l-188 0 l0 -153 ZM618 600 l0 -19 q-1 -8 -5 -9 q-10 -4 -32 -13 q-15 -6 -14 4 q2 26 3 51 l0 178 q-1 26 -2 45 q0 9 4 10 q4 3 13 -6 q13 -13 31 -26 l170 0 q6 0 9 4 l18 28 q7 8 14 1 q29 -19 57 -41 q6 -6 5 -12 q-3 -6 -13 -7 q-12 -2 -18 -12 q-4 -9 -4 -22 l0 -84 q0 -32 6 -87 q2 -12 -7 -16 q-35 -20 -42 -20 q-5 1 -5 11 l0 42 l-188 0 ZM618 631 l188 0 l0 153 l-188 0 l0 -153 ZM602 -12 l0 -51 q-1 -8 -5 -9 q-10 -4 -32 -13 q-15 -6 -14 4 q2 26 3 51 l0 226 q-1 26 -2 45 q0 9 4 10 q4 3 13 -6 q13 -13 31 -26 l174 0 q6 0 9 4 l11 18 q-113 63 -200 183 l-155 0 q-16 -17 -29 -32 q-90 -93 -216 -156 q10 -8 22 -17 l170 0 q6 0 9 4 l18 28 q7 8 14 1 q29 -19 57 -41 q6 -6 5 -12 q-3 -6 -13 -7 q-12 -2 -18 -12 q-4 -9 -4 -22 l0 -120 q0 -32 6 -87 q2 -12 -7 -16 q-35 -20 -42 -20 q-5 1 -5 11 l0 62 l-188 0 l0 -51 q-1 -8 -5 -9 q-10 -4 -32 -13 q-15 -6 -14 4 q2 26 3 51 l0 226 q0 16 -1 29 q-52 -20 -116 -38 q-16 -3 -17 7 q-1 11 8 12 q185 62 323 218 l-210 0 q-42 -1 -73 -7 q-9 -3 -10 6 q-5 18 -20 31 q-8 7 -4 11 q4 3 11 -1 q38 -9 84 -9 l247 0 q49 66 59 100 q0 7 3 8 q12 5 78 -37 q5 -3 4 -7 q-1 -7 -13 -8 q-12 -3 -19 -10 q-15 -4 -39 -46 l266 0 l-4 4 q-51 63 -108 84 q-10 3 -9 13 q2 10 18 6 q117 -20 132 -53 q10 -27 -8 -54 l78 0 q14 1 30 19 l26 37 q7 9 16 0 q71 -63 70 -78 q-2 -8 -15 -9 l-337 0 q42 -51 114 -96 q133 -74 247 -74 q7 -1 7 -8 q-2 -7 -9 -7 q-40 -3 -61 -45 q-2 -5 -15 -1 q-13 5 -26 9 q-4 -10 -13 -10 q-12 -2 -18 -12 q-4 -9 -4 -22 l0 -120 q0 -32 6 -87 q2 -12 -7 -16 q-35 -20 -42 -20 q-5 1 -5 11 l0 62 l-192 0 ZM602 19 l192 0 l0 169 l-192 0 l0 -169 ZM218 19 l188 0 l0 169 l-188 0 l0 -169 Z" /><glyph glyph-name="uni56DE" unicode="&#x56de;" d="M369 276 l0 -71 q-1 -8 -5 -9 q-10 -4 -32 -13 q-15 -6 -14 4 q2 26 3 51 l0 318 q-1 26 -2 45 q0 9 4 10 q4 3 13 -6 q13 -13 31 -26 l246 0 q6 0 9 4 l18 28 q7 8 14 1 q29 -19 57 -41 q6 -6 5 -12 q-3 -6 -13 -7 q-12 -2 -18 -12 q-4 -9 -4 -22 l0 -192 q0 -32 6 -87 q2 -12 -7 -16 q-35 -20 -42 -20 q-5 1 -5 11 l0 62 l-264 0 ZM369 307 l264 0 l0 241 l-264 0 l0 -241 ZM160 60 q0 -56 1 -101 q-1 -15 -38 -40 q-8 -4 -12 -4 q-6 1 -5 20 q4 100 7 206 l0 576 q-1 32 -7 78 q-2 10 1 11 q1 0 40 -31 l655 0 q12 0 19 7 l25 26 q5 7 14 1 q31 -23 53 -42 q7 -8 -2 -9 q-17 -3 -26 -12 q-8 -9 -8 -19 l0 -604 q1 -68 8 -167 q0 -13 -10 -19 q-45 -26 -49 -25 q-4 2 -3 18 q4 49 5 130 l-668 0 ZM161 141 q-1 -25 -1 -50 l668 0 q0 2 1 3 l0 650 l-668 0 l0 -603 Z" /><glyph glyph-name="uni5728" unicode="&#x5728;" d="M235 390 q-2 30 -6 69 q-2 10 1 11 q4 2 14 -8 q11 -11 30 -26 q71 89 137 228 l-244 0 q-42 -1 -73 -7 q-9 -3 -10 6 q-5 18 -20 31 q-8 7 -4 11 q4 3 11 -1 q38 -9 84 -9 l269 0 q32 82 50 163 q2 13 11 9 q49 -21 77 -34 q9 -6 9 -10 q-1 -6 -14 -9 q-17 -5 -30 -18 q-25 -20 -50 -101 l363 0 q14 1 30 19 l26 37 q7 9 16 0 q71 -63 70 -78 q-2 -8 -15 -9 l-504 0 q-77 -165 -179 -279 l0 -256 q-1 -107 0 -182 q-1 -15 -38 -40 q-8 -4 -12 -4 q-6 1 -5 20 q4 100 7 206 l0 207 q-71 -66 -167 -139 q-12 -9 -22 4 q-10 13 8 25 q89 62 180 164 ZM844 -5 q14 1 30 19 l26 37 q7 9 16 0 q71 -63 70 -78 q-2 -8 -15 -9 l-548 0 q-42 -1 -73 -7 q-9 -3 -10 6 q-5 18 -20 31 q-8 7 -4 11 q4 3 11 -1 q38 -9 84 -9 l193 0 l0 329 l-149 0 q-42 -1 -73 -7 q-9 -3 -10 6 q-5 18 -20 31 q-8 7 -4 11 q4 3 11 -1 q38 -9 84 -9 l161 0 l0 163 q-1 39 -4 70 q-1 16 9 13 q53 -17 71 -26 q14 -9 -2 -16 q-15 -8 -19 -18 q-7 -13 -7 -23 l0 -163 l144 0 q14 1 30 19 l26 37 q7 9 16 0 q71 -63 70 -78 q-2 -8 -15 -9 l-271 0 l0 -329 l192 0 Z" /><glyph glyph-name="uni5730" unicode="&#x5730;" d="M245 130 q82 33 149 61 q14 7 17 -3 q4 -10 -11 -17 q-150 -83 -249 -129 q-39 -16 -51 -37 q-5 -9 -9 -10 q-4 0 -8 7 q-15 24 -37 40 q-14 9 -13 12 q1 3 11 6 q70 18 146 48 q3 2 7 2 l0 394 l-53 0 q-42 -1 -73 -7 q-8 -3 -11 6 q-4 18 -19 30 q-7 7 -4 11 q4 3 11 -1 q38 -8 84 -8 l65 0 l0 235 q-1 39 -4 70 q-1 16 9 13 q53 -17 71 -26 q14 -9 -2 -16 q-15 -8 -19 -18 q-7 -13 -7 -23 l0 -235 l52 0 q6 0 12 7 l36 41 q7 7 14 0 q26 -26 44 -48 q11 -14 4 -24 q-5 -6 -18 -7 l-144 0 l0 -374 ZM856 224 q-20 -33 -65 -52 q-9 -3 -10 6 q-4 24 -74 54 q-11 4 -10 14 q3 9 15 5 q79 -10 92 2 q40 33 28 343 l-147 -67 l0 -198 q0 -117 4 -196 q1 -8 -5 -12 l-42 -27 q-13 -10 -12 11 q6 133 7 224 l0 176 l-144 -66 l0 -394 q1 -28 14 -41 q13 -14 37 -14 l306 0 q29 0 45 16 q21 16 48 151 q2 14 12 13 q11 -1 10 -14 q-9 -86 1 -110 q7 -19 17 -25 q8 -6 -1 -13 q-58 -66 -148 -66 l-291 0 q-53 0 -74 24 q-24 25 -24 68 l0 383 l-38 -17 q-49 -20 -65 -42 q-5 -6 -8 0 q-16 20 -35 27 q-7 0 -7 6 q0 6 10 6 q35 5 90 33 l53 24 l0 130 q0 78 -4 126 q-1 16 9 13 q53 -18 72 -25 q13 -8 -3 -17 q-15 -9 -19 -18 q-7 -18 -7 -79 l0 -108 l144 65 l0 175 q-1 80 -5 128 q-2 17 10 13 q54 -17 72 -27 q14 -7 -2 -16 q-16 -8 -20 -18 q-7 -19 -7 -80 l0 -153 l120 54 q10 5 13 12 l15 36 q1 5 5 6 q10 -1 76 -40 q6 -5 6 -9 q-2 -6 -15 -10 q-5 0 -6 -3 q-26 -9 -23 -82 q8 -260 -20 -305 Z" /><glyph glyph-name="uni57DF" unicode="&#x57df;" d="M235 212 q54 20 102 36 q13 6 16 -4 q4 -10 -11 -17 q-116 -59 -192 -93 q-40 -15 -52 -34 q-6 -9 -10 -10 q-4 0 -8 7 q-13 25 -35 41 q-13 10 -13 13 q2 4 12 5 q58 12 122 33 q11 5 21 6 l0 349 l-37 0 q-42 -1 -73 -7 q-8 -3 -11 6 q-4 18 -19 30 q-7 7 -4 11 q4 3 11 -1 q38 -8 84 -8 l49 0 l0 195 q-1 39 -4 70 q-1 16 9 13 q53 -17 71 -26 q14 -9 -2 -16 q-15 -8 -19 -18 q-7 -13 -7 -23 l0 -195 l8 0 q6 0 12 7 l36 41 q7 7 14 0 q26 -26 44 -48 q11 -14 4 -24 q-5 -6 -18 -7 l-100 0 l0 -332 ZM427 272 l0 -63 q-1 -8 -5 -9 q-10 -4 -32 -13 q-15 -6 -14 4 q2 26 3 51 l0 242 q-1 26 -2 45 q0 9 4 10 q4 3 13 -6 q13 -13 31 -26 l88 0 q8 -1 11 2 l18 22 q8 12 17 3 q21 -18 40 -39 q6 -7 5 -11 q-1 -5 -11 -6 q-8 -1 -11 -7 q-3 -7 -3 -11 l0 -176 q0 -11 4 -32 q1 -9 -3 -12 q-36 -19 -43 -19 q-7 0 -6 10 l0 41 l-104 0 ZM427 303 l104 0 l0 173 l-104 0 l0 -173 ZM296 85 q95 13 338 77 q15 4 16 -5 q2 -12 -14 -16 q-143 -57 -237 -87 q-42 -11 -55 -30 q-6 -8 -10 -9 q-4 1 -8 8 q-10 26 -31 45 q-12 10 -11 13 q2 4 12 4 ZM744 143 q-104 -144 -287 -234 q-18 -8 -22 4 q-5 12 13 21 q180 90 277 259 q-42 128 -55 399 q-1 17 -2 32 l-218 0 q-42 -1 -73 -7 q-8 -3 -11 6 q-4 18 -19 30 q-7 7 -4 11 q4 3 11 -1 q38 -8 84 -8 l228 0 q-8 137 -18 204 q-2 18 14 11 q37 -15 68 -31 q11 -6 11 -10 q0 -5 -15 -9 q-17 -7 -21 -20 q-3 -12 4 -145 l154 0 q6 0 12 7 l36 41 q7 7 14 0 q26 -26 44 -48 q11 -14 4 -24 q-5 -6 -18 -7 l-244 0 q21 -279 45 -366 q80 190 81 280 q0 8 3 9 q12 5 87 -37 q11 -7 10 -11 q-1 -6 -14 -6 q-36 0 -57 -82 q-37 -132 -91 -223 q3 -6 6 -13 q29 -81 89 -136 q28 -25 41 -22 q10 1 16 25 q13 46 25 128 q2 17 12 16 q11 -2 10 -20 q-23 -169 13 -224 q5 -9 1 -16 q-6 -7 -34 6 q-57 23 -121 84 q-56 54 -89 127 ZM780 805 q-8 6 -4 15 q6 9 19 0 q86 -38 90 -66 q1 -24 -12 -39 q-14 -15 -20 -15 q-6 1 -15 20 q-25 61 -58 85 Z" /><glyph glyph-name="uni57FA" unicode="&#x57fa;" d="M669 328 q107 -138 312 -165 q5 0 5 -7 q0 -8 -10 -9 q-17 -2 -33 -14 q-19 -14 -23 -29 q-1 -7 -13 0 q-203 98 -263 224 l-252 0 q-66 -85 -148 -143 q-74 -50 -180 -98 q-15 -6 -19 3 q-7 13 6 19 q184 89 283 219 l-178 0 q-42 -1 -73 -7 q-8 -3 -11 6 q-4 18 -19 30 q-7 7 -4 11 q4 3 11 -1 q38 -8 84 -8 l165 0 l0 345 l-125 0 q-42 -1 -73 -7 q-8 -3 -11 6 q-4 18 -19 30 q-7 7 -4 11 q4 3 11 -1 q38 -8 84 -8 l137 0 l0 35 q-1 39 -4 70 q-1 16 9 13 q53 -17 71 -26 q14 -9 -2 -16 q-15 -8 -19 -18 q-7 -13 -7 -23 l0 -35 l300 0 l0 35 q-1 39 -4 70 q-1 16 9 13 q53 -17 71 -26 q14 -9 -2 -16 q-15 -8 -19 -18 q-7 -13 -7 -23 l0 -35 l104 0 q6 0 12 7 l36 41 q7 7 14 0 q26 -26 44 -48 q11 -14 4 -24 q-5 -6 -18 -7 l-196 0 l0 -345 l152 0 q6 0 12 7 l36 41 q7 7 14 0 q26 -26 44 -48 q11 -14 4 -24 q-5 -6 -18 -7 l-280 0 ZM357 359 l300 0 l0 93 l-300 0 l0 -93 ZM357 483 l300 0 l0 93 l-300 0 l0 -93 ZM357 607 l300 0 l0 97 l-300 0 l0 -97 ZM813 -17 q6 0 12 7 l36 41 q7 7 14 0 q26 -26 44 -48 q11 -14 4 -24 q-5 -6 -18 -7 l-693 0 q-42 -1 -73 -7 q-8 -3 -11 6 q-4 18 -19 30 q-7 7 -4 11 q4 3 11 -1 q38 -8 84 -8 l285 0 l0 141 l-113 0 q-42 -1 -73 -7 q-8 -3 -11 6 q-4 18 -19 30 q-7 7 -4 11 q4 3 11 -1 q38 -8 84 -8 l125 0 l0 67 q-1 39 -4 70 q-1 16 9 13 q53 -17 71 -26 q14 -9 -2 -16 q-15 -8 -19 -18 q-7 -13 -7 -23 l0 -67 l104 0 q6 0 12 7 l36 41 q7 7 14 0 q26 -26 44 -48 q11 -14 4 -24 q-5 -6 -18 -7 l-196 0 l0 -141 l280 0 Z" /><glyph glyph-name="uni5883" unicode="&#x5883;" d="M811 747 q6 0 12 7 l36 41 q7 7 14 0 q26 -26 44 -48 q11 -14 4 -24 q-5 -6 -18 -7 l-409 0 q-42 -1 -73 -7 q-8 -3 -11 6 q-4 18 -19 30 q-7 7 -4 11 q4 3 11 -1 q38 -8 84 -8 l151 0 q-1 1 0 1 q-19 72 -43 100 q-7 8 -1 15 q6 8 18 -2 q76 -51 76 -78 q-2 -24 -18 -36 l146 0 ZM871 547 q6 0 12 7 l36 41 q7 7 14 0 q26 -26 44 -48 q11 -14 4 -24 q-5 -6 -18 -7 l-521 0 q-42 -1 -73 -7 q-8 -3 -11 6 q-4 18 -19 30 q-7 7 -4 11 q4 3 11 -1 q38 -8 84 -8 l121 0 q-24 90 -57 129 q-8 8 -1 15 q6 7 18 -3 q89 -67 89 -101 q-4 -18 -25 -40 l112 0 q2 6 6 12 q38 70 48 137 q2 7 5 8 q6 1 72 -39 q13 -9 10 -13 q-2 -5 -8 -5 q-30 2 -46 -29 q-20 -29 -57 -71 l154 0 ZM874 -19 q17 2 24 6 q31 20 43 156 q1 14 14 13 q13 -1 12 -16 q-10 -89 -4 -117 q6 -22 22 -32 q6 -4 2 -10 q-23 -39 -92 -42 l-150 0 q-43 0 -52 12 q-10 12 -10 37 l0 208 l-88 0 q-8 -69 -21 -112 q-15 -47 -61 -81 q-92 -60 -291 -87 q-12 0 -11 10 q1 11 13 10 q164 28 239 79 q74 55 74 181 l-66 0 l0 -39 q-1 -8 -5 -9 q-10 -4 -32 -13 q-15 -6 -14 4 q2 26 3 51 l0 234 q-1 26 -2 45 q0 9 4 10 q4 3 13 -6 q13 -13 31 -26 l324 0 q8 -1 11 2 l18 22 q8 12 17 3 q21 -18 40 -39 q6 -7 5 -11 q-1 -5 -11 -6 q-8 -1 -11 -7 q-3 -7 -3 -11 l0 -196 q0 -11 4 -32 q1 -9 -3 -12 q-36 -19 -43 -19 q-7 0 -6 10 l0 45 l-80 0 l0 -195 q1 -12 2 -16 q2 -4 17 -4 l124 0 ZM471 227 l340 0 l0 81 l-340 0 l0 -81 ZM471 339 l340 0 l0 77 l-340 0 l0 -77 ZM235 230 q74 28 138 50 q13 6 16 -3 q4 -11 -11 -18 q-138 -71 -228 -108 q-40 -16 -52 -35 q-6 -9 -10 -10 q-4 0 -8 7 q-14 25 -36 41 q-12 10 -12 13 q2 4 12 5 q64 14 137 39 q2 2 6 2 l0 347 l-45 0 q-42 -1 -73 -7 q-8 -3 -11 6 q-4 18 -19 30 q-7 7 -4 11 q4 3 11 -1 q38 -8 84 -8 l57 0 l0 179 q-1 39 -4 70 q-1 16 9 13 q53 -17 71 -26 q14 -9 -2 -16 q-15 -8 -19 -18 q-7 -13 -7 -23 l0 -179 l48 0 q6 0 12 7 l36 41 q7 7 14 0 q26 -26 44 -48 q11 -14 4 -24 q-5 -6 -18 -7 l-140 0 l0 -330 Z" /><glyph glyph-name="uni5904" unicode="&#x5904;" d="M301 184 q-66 110 -112 300 q-51 -100 -111 -190 q-6 -9 -13 -5 q-8 3 -4 13 q157 292 196 529 q0 11 4 12 q5 3 17 -3 q44 -17 72 -32 q7 -4 6 -8 q-2 -7 -15 -6 q-23 -1 -27 -5 q-6 -7 -10 -20 q-20 -64 -53 -146 l173 0 q13 0 17 3 l27 34 q4 8 10 8 q6 0 66 -63 q5 -8 -8 -12 q-7 -1 -13 -4 q-25 -9 -43 -85 q-48 -201 -132 -330 q2 -3 5 -6 q155 -194 629 -158 q8 0 8 -7 q1 -9 -15 -10 q-41 -10 -50 -47 q-1 -9 -14 -6 q-98 15 -173 19 q-174 12 -276 64 q-79 43 -134 122 q-108 -139 -268 -221 q-20 -9 -24 6 q-3 14 13 21 q144 80 252 233 ZM222 553 q-10 -20 -19 -39 q0 -2 1 -3 q43 -164 116 -296 q85 154 125 377 l-207 0 q-9 -20 -16 -39 ZM690 607 q2 0 3 -1 q129 -66 202 -130 q51 -45 54 -73 q4 -24 -9 -39 q-13 -16 -19 -17 q-6 -1 -16 18 q-98 152 -215 218 l0 -272 q0 -117 4 -196 q1 -8 -5 -12 l-42 -27 q-13 -10 -12 11 q6 133 7 224 l0 391 q-1 80 -5 128 q-2 17 10 13 q54 -17 72 -27 q14 -7 -2 -16 q-16 -8 -20 -18 q-7 -19 -7 -80 l0 -95 Z" /><glyph glyph-name="uni5907" unicode="&#x5907;" d="M241 376 q7 -6 17 -13 l454 0 q6 0 9 4 l18 28 q7 8 14 1 q29 -19 57 -41 q6 -6 5 -12 q-3 -6 -13 -7 q-12 -2 -18 -12 q-4 -9 -4 -22 l0 -264 q0 -32 6 -87 q2 -12 -7 -16 q-35 -20 -42 -20 q-5 1 -5 11 l0 86 l-464 0 q-1 -64 -5 -70 q-35 -27 -41 -28 q-8 1 -7 20 q4 61 5 203 l0 164 q-1 31 -4 65 q-74 -26 -147 -47 q-15 -5 -18 5 q-1 10 12 14 q208 72 415 210 q-100 68 -161 147 q-88 -110 -188 -185 q-13 -8 -17 -1 q-5 8 2 15 q155 135 239 336 q3 11 12 8 q29 -10 72 -32 q10 -5 9 -9 q-2 -7 -18 -8 q-17 1 -24 -5 q-9 -5 -45 -63 l308 0 q19 0 23 1 l24 20 q8 8 17 -1 q26 -21 51 -46 q6 -7 3 -11 q-3 -5 -13 -4 q-24 2 -93 -62 q-63 -59 -126 -107 q13 -6 28 -13 q234 -102 387 -102 q6 -1 6 -8 q0 -7 -12 -8 q-18 -2 -36 -15 q-21 -16 -28 -35 q-2 -6 -14 0 q-218 69 -357 156 q-4 2 -5 3 q-121 -77 -281 -143 ZM336 720 q-4 -2 -5 -6 q61 -79 161 -139 q7 -4 11 -8 q82 63 161 144 q3 4 2 7 q-1 3 -7 2 l-323 0 ZM268 332 l0 -129 l212 0 l0 129 l-212 0 ZM268 172 l0 -129 l212 0 l0 129 l-212 0 ZM528 172 l0 -129 l204 0 l0 129 l-204 0 ZM732 203 l0 129 l-204 0 l0 -129 l204 0 Z" /><glyph glyph-name="uni590D" unicode="&#x590d;" d="M789 757 l12 12 l30 42 q7 9 16 0 q71 -63 70 -78 q-2 -8 -15 -9 l-605 0 q-104 -133 -227 -206 q-12 -7 -16 0 q-3 8 4 14 q175 137 253 330 q3 10 12 6 q40 -23 70 -42 q7 -7 6 -11 q-3 -5 -18 -5 q-14 1 -20 -5 q-15 -10 -40 -50 l454 0 l14 2 ZM323 360 l0 -27 q-1 -8 -5 -9 q-10 -4 -32 -13 q-15 -6 -14 4 q2 26 3 51 l0 250 q-1 26 -2 45 q0 9 4 10 q4 3 13 -6 q13 -13 31 -26 l386 0 q6 0 9 4 l18 28 q7 8 14 1 q29 -19 57 -41 q6 -6 5 -12 q-3 -6 -13 -7 q-12 -2 -18 -12 q-4 -9 -4 -22 l0 -140 q0 -32 6 -87 q2 -12 -7 -16 q-35 -20 -42 -20 q-5 1 -5 11 l0 34 l-404 0 ZM323 391 l404 0 l0 93 l-404 0 l0 -93 ZM323 515 l404 0 l0 93 l-404 0 l0 -93 ZM549 37 q-158 -91 -461 -124 q-17 -1 -18 14 q-1 15 15 16 q250 28 424 124 q-69 53 -147 168 q-2 4 -3 5 l-18 0 q-122 -146 -263 -227 q-12 -6 -16 1 q-4 8 5 14 q183 133 265 316 q5 9 12 5 q40 -23 68 -45 q9 -7 6 -11 q-5 -5 -18 -4 q-18 1 -34 -18 l343 0 q11 1 15 5 l27 27 q4 4 7 4 q13 -1 58 -58 q6 -8 3 -12 q-3 -3 -10 -2 q-21 6 -58 -33 q-86 -90 -165 -142 q46 -23 100 -39 q100 -23 278 -23 q7 0 8 -7 q1 -7 -5 -8 q-20 -4 -36 -17 q-24 -20 -28 -45 q-3 -10 -13 -7 q-224 45 -341 123 ZM386 240 q75 -100 154 -154 q91 57 179 154 l-333 0 Z" /><glyph glyph-name="uni5916" unicode="&#x5916;" d="M196 485 q133 -38 151 -87 q6 -19 -1 -50 q-5 -27 -17 -28 q-10 -2 -17 16 q-40 81 -125 132 q-49 -89 -106 -170 q-6 -9 -13 -5 q-7 3 -3 13 q165 291 211 534 q1 11 5 12 q16 5 88 -37 q7 -4 6 -8 q-2 -7 -15 -6 q-22 1 -28 -5 q-6 -6 -10 -19 q-22 -60 -53 -138 l197 0 q9 0 13 7 l23 28 q4 5 7 5 q5 1 9 -5 q33 -28 52 -53 q7 -9 -3 -10 q-24 -1 -37 -14 q-10 -8 -23 -57 q-51 -192 -154 -328 q-90 -120 -271 -249 q-16 -11 -23 1 q-7 13 6 23 q195 138 300 322 q60 107 106 299 l-215 0 q-29 -63 -60 -123 ZM709 151 q0 -117 4 -196 q1 -8 -5 -12 l-42 -27 q-13 -10 -12 11 q6 133 7 224 l0 563 q-1 80 -5 128 q-2 17 10 13 q54 -17 72 -27 q14 -7 -2 -16 q-16 -8 -20 -18 q-7 -19 -7 -80 l0 -192 q189 -70 243 -136 q20 -27 19 -52 q-3 -24 -7 -36 q-4 -10 -13 -11 q-7 -1 -14 12 q-53 98 -228 198 l0 -346 Z" /><glyph glyph-name="uni591A" unicode="&#x591a;" d="M405 690 q105 -84 105 -133 q0 -19 -19 -46 q-15 -21 -27 -20 q-9 3 -9 22 q-6 77 -64 165 q-141 -111 -288 -180 q-13 -7 -17 3 q-4 10 5 14 q240 122 400 344 q7 9 14 5 q27 -16 64 -47 q9 -7 6 -11 q-3 -6 -19 -3 q-7 2 -10 1 q-21 2 -94 -73 l340 0 q9 0 13 4 l38 23 q5 4 9 4 q5 -1 59 -44 q12 -9 -4 -12 q-55 -9 -104 -54 q-276 -248 -682 -320 q-15 -3 -18 7 q-1 9 12 13 q459 122 673 348 l-371 0 q-8 -6 -12 -10 ZM832 327 q11 1 15 5 l27 27 q4 4 7 4 q13 -1 58 -58 q6 -8 3 -12 q-3 -3 -10 -2 q-23 6 -63 -39 q-112 -121 -218 -188 q-190 -118 -544 -154 q-17 -3 -18 13 q-1 15 15 16 q172 21 319 69 q244 90 419 288 l-370 0 q-71 -60 -132 -105 q-111 -75 -241 -133 q-14 -7 -17 3 q-4 10 6 14 q261 127 444 365 q6 9 13 5 q27 -17 63 -48 q8 -8 7 -12 q-2 -1 -24 -1 q-24 6 -84 -57 l325 0 ZM430 239 q-4 8 2 12 q6 4 16 -6 q89 -89 83 -134 q-2 -20 -24 -44 q-19 -20 -29 -16 q-10 3 -7 22 q5 75 -41 166 Z" /><glyph glyph-name="uni5934" unicode="&#x5934;" d="M257 791 q-6 7 -2 13 q5 6 17 0 q150 -81 160 -139 q4 -19 -9 -50 q-10 -24 -22 -24 q-10 -1 -13 18 q-32 98 -131 182 ZM157 607 q-5 7 -1 13 q4 6 16 -1 q151 -91 154 -151 q4 -19 -11 -49 q-11 -24 -23 -23 q-10 0 -13 19 q-28 101 -122 192 ZM522 331 q20 61 20 250 l0 125 q0 79 -4 128 q0 16 10 13 q53 -18 72 -27 q13 -10 -3 -17 q-16 -8 -20 -18 q-7 -18 -7 -79 l0 -125 q-1 -147 -20 -247 q-1 -2 -1 -3 l261 0 q14 1 30 19 l26 37 q7 9 16 0 q71 -63 70 -78 q-2 -8 -15 -9 l-396 0 q-12 -38 -25 -74 q267 -119 331 -212 q20 -27 17 -52 q-2 -24 -8 -36 q-6 -10 -13 -11 q-7 0 -13 13 q-77 138 -323 279 q-31 -56 -77 -104 q-111 -108 -348 -184 q-13 -4 -16 5 q-2 9 8 13 q122 46 201 92 q165 103 219 271 l-353 0 q-42 -1 -73 -7 q-9 -3 -10 6 q-5 18 -20 31 q-8 7 -4 11 q4 3 11 -1 q38 -9 84 -9 l373 0 Z" /><glyph glyph-name="uni597D" unicode="&#x597d;" d="M815 779 q10 0 14 6 l28 30 q3 4 7 4 q11 0 56 -60 q8 -12 -7 -13 q-4 0 -7 -1 q-66 -9 -180 -165 q15 -6 22 -10 q12 -8 -3 -15 q-18 -8 -22 -17 q-6 -19 -6 -80 l0 -51 l148 0 q6 0 12 7 l36 41 q7 7 14 0 q26 -26 44 -48 q11 -14 4 -24 q-5 -6 -18 -7 l-240 0 l0 -344 q-2 -37 -18 -62 q-25 -37 -50 -50 q-8 -7 -12 -7 q-3 1 -9 20 q-10 29 -20 39 q-10 13 -68 19 q-16 2 -15 15 q1 14 17 13 q91 -15 112 -5 q14 6 15 28 l0 334 l-149 0 q-42 -1 -73 -7 q-8 -3 -11 6 q-4 18 -19 30 q-7 7 -4 11 q4 3 11 -1 q38 -8 84 -8 l161 0 l0 51 q-1 80 -4 129 q-3 16 7 13 q18 -6 33 -12 q57 85 106 160 l-263 0 q-42 -1 -73 -7 q-9 -3 -10 6 q-5 18 -20 31 q-8 7 -4 11 q4 3 11 -1 q38 -9 84 -9 l279 0 ZM204 659 q24 175 24 196 q1 5 2 8 q3 1 10 0 q35 -11 66 -27 q10 -5 10 -9 q0 -6 -12 -7 q-12 -2 -18 -11 q-13 -14 -34 -150 l102 0 q11 0 15 4 l21 29 q6 10 15 1 q25 -19 50 -41 q5 -5 4 -9 q0 -4 -10 -5 q-10 -1 -14 -4 q-20 -5 -29 -75 q-32 -211 -93 -352 q105 -78 117 -132 q7 -27 -3 -43 q-10 -18 -23 -18 q-12 1 -18 17 q-38 80 -96 132 q-69 -126 -225 -223 q-14 -8 -18 2 q-5 10 7 17 q95 67 162 155 q21 35 42 75 q-55 42 -134 76 q-8 3 -9 13 q-1 8 2 15 q50 172 81 335 l-46 0 q-42 -1 -73 -7 q-9 -3 -10 6 q-5 18 -20 31 q-8 7 -4 11 q4 3 11 -1 q38 -9 84 -9 l64 0 ZM178 268 q55 -14 98 -39 q73 185 97 399 l-127 0 q-22 -110 -35 -165 q-45 -174 -41 -189 q1 -5 8 -6 Z" /><glyph glyph-name="uni5982" unicode="&#x5982;" d="M653 84 q0 -61 1 -109 q-1 -15 -38 -40 q-8 -4 -12 -4 q-6 1 -5 20 q4 100 7 206 l0 444 q-1 32 -7 78 q-2 10 1 11 q1 0 40 -31 l219 0 q12 0 19 7 l25 26 q5 7 14 1 q31 -23 53 -42 q7 -8 -2 -9 q-17 -3 -26 -12 q-8 -9 -8 -19 l0 -448 q1 -68 8 -167 q0 -13 -10 -19 q-45 -26 -49 -25 q-4 2 -3 18 q4 44 5 114 l-232 0 ZM654 157 q-1 -21 -1 -42 l232 0 q0 10 1 19 l0 494 l-232 0 l0 -471 ZM247 623 q27 142 27 215 q0 9 3 10 q2 2 11 1 q27 -6 64 -21 q11 -6 11 -10 q-2 -6 -11 -7 q-13 -1 -22 -13 q-9 -12 -37 -175 l116 0 q15 1 18 2 l20 33 q3 5 7 5 q12 0 66 -51 q5 -6 4 -10 q-2 -5 -11 -6 q-34 -4 -38 -79 q-18 -229 -97 -368 q147 -81 151 -144 q1 -23 -11 -39 q-10 -14 -14 -13 q-4 1 -10 14 q-44 73 -143 142 q-74 -94 -224 -193 q-12 -9 -19 1 q-7 10 3 19 q149 101 209 195 q-68 45 -155 88 q-13 7 -13 13 q-3 9 0 16 q49 145 89 344 l-84 0 q-42 -1 -73 -7 q-9 -3 -10 6 q-5 18 -20 31 q-8 7 -4 11 q4 3 11 -1 q38 -9 84 -9 l102 0 ZM215 227 q68 -26 128 -59 q74 142 93 424 l-149 0 q-27 -135 -72 -307 q-12 -43 -8 -52 q1 -3 8 -6 Z" /><glyph glyph-name="uni5B57" unicode="&#x5b57;" d="M836 743 q9 1 13 5 l31 31 q3 4 6 4 q15 -1 75 -64 q5 -8 -8 -9 q-48 -5 -132 -102 q-8 -12 -17 -6 q-7 5 0 18 q32 52 50 92 l-679 0 q3 -85 -33 -130 q-14 -16 -29 -16 q-15 1 -22 8 q-22 23 6 50 q51 52 54 151 q0 10 7 10 q8 1 9 -9 q4 -17 5 -33 l330 0 l-1 2 q0 48 -63 111 q-6 6 -2 12 q5 6 17 0 q82 -32 92 -63 q4 -22 -15 -62 l306 0 ZM701 563 q10 0 14 6 l28 30 q3 4 7 4 q11 0 56 -60 q8 -12 -7 -13 q-85 -14 -224 -131 q2 0 3 -1 q12 -8 -3 -15 q-18 -8 -22 -17 q-5 -12 -6 -43 l316 0 q6 0 12 7 l36 41 q7 7 14 0 q26 -26 44 -48 q11 -14 4 -24 q-5 -6 -18 -7 l-408 0 l0 -260 q-2 -37 -18 -62 q-25 -37 -50 -50 q-8 -8 -12 -8 q-4 0 -11 21 q-11 31 -21 41 q-12 14 -73 18 q-16 1 -15 14 q1 14 16 13 q102 -14 121 -5 q14 6 15 28 l0 244 q-1 5 -1 6 l-344 0 q-42 -1 -73 -7 q-8 -3 -11 6 q-4 18 -19 30 q-7 7 -4 11 q4 3 11 -1 q38 -8 84 -8 l356 0 q-2 55 -3 92 q-3 16 7 13 q31 -10 50 -19 q78 65 145 123 l-415 0 q-42 -1 -73 -7 q-9 -3 -10 6 q-5 18 -20 31 q-8 7 -4 11 q4 3 11 -1 q38 -9 84 -9 l431 0 Z" /><glyph glyph-name="uni5B58" unicode="&#x5b58;" d="M264 461 q-1 32 -7 78 q-2 10 1 11 q4 2 14 -8 q11 -12 29 -25 q64 102 101 183 l-235 0 q-42 -1 -73 -7 q-9 -3 -10 6 q-5 18 -20 31 q-8 7 -4 11 q4 3 11 -1 q38 -9 84 -9 l259 0 q26 66 35 124 q0 12 4 13 q11 4 86 -32 q11 -5 10 -12 q-3 -6 -13 -5 q-14 1 -24 -8 q-11 -10 -38 -80 l350 0 q14 1 30 19 l26 37 q7 9 16 0 q71 -63 70 -78 q-2 -8 -15 -9 l-491 0 q-49 -107 -148 -245 l0 -318 q-1 -107 0 -182 q-1 -15 -38 -40 q-8 -4 -12 -4 q-6 1 -5 20 q4 100 7 206 l0 258 q-83 -99 -191 -205 q-12 -11 -19 -4 q-8 7 2 16 q111 118 208 257 l0 2 ZM798 567 q10 0 14 6 l28 30 q3 4 7 4 q11 0 56 -60 q8 -12 -7 -13 q-77 -13 -197 -125 q10 -3 16 -7 q12 -8 -3 -15 q-18 -8 -22 -17 q-6 -19 -6 -50 l0 -37 l176 0 q6 0 12 7 l36 41 q7 7 14 0 q26 -26 44 -48 q11 -14 4 -24 q-5 -6 -18 -7 l-268 0 l0 -220 q-2 -37 -18 -62 q-25 -37 -50 -50 q-8 -7 -12 -7 q-3 1 -9 20 q-10 29 -20 39 q-10 13 -68 19 q-16 2 -15 15 q1 14 17 13 q91 -15 112 -5 q14 6 15 28 l0 210 l-181 0 q-42 -1 -73 -7 q-8 -3 -11 6 q-4 18 -19 30 q-7 7 -4 11 q4 3 11 -1 q38 -8 84 -8 l193 0 l0 37 q-1 50 -4 99 q-3 16 7 13 q22 -7 37 -14 l118 118 l-275 0 q-42 -1 -73 -7 q-9 -3 -10 6 q-5 18 -20 31 q-8 7 -4 11 q4 3 11 -1 q38 -9 84 -9 l291 0 Z" /><glyph glyph-name="uni5B89" unicode="&#x5b89;" d="M807 727 q9 1 13 5 l31 31 q3 4 6 4 q15 -1 75 -64 q5 -8 -8 -9 q-54 -5 -132 -113 q-8 -11 -17 -7 q-8 5 -1 18 q33 59 51 104 l-628 0 q5 -73 -25 -112 q-13 -17 -28 -17 q-15 0 -22 7 q-23 23 4 50 q44 45 44 135 q0 9 7 10 q9 1 10 -9 q4 -17 7 -33 l321 0 q-1 56 -59 128 q-4 7 0 13 q4 5 16 -2 q86 -46 93 -82 q2 -21 -14 -49 q-4 -4 -5 -8 l261 0 ZM519 114 q-100 37 -221 67 q-22 5 -23 14 q-1 7 2 13 q45 84 91 196 l-215 0 q-42 -1 -73 -7 q-9 -3 -10 6 q-5 18 -20 31 q-8 7 -4 11 q4 3 11 -1 q38 -9 84 -9 l239 0 q2 7 5 11 q50 131 62 195 q1 9 4 10 q11 5 71 -34 q10 -7 9 -11 q-3 -6 -12 -5 q-14 1 -24 -9 q-7 -6 -64 -157 l407 0 q14 1 30 19 l26 37 q7 9 16 0 q71 -63 70 -78 q-2 -8 -15 -9 l-243 0 q-54 -182 -127 -278 q59 -18 114 -42 q154 -68 169 -117 q4 -23 -3 -42 q-7 -15 -11 -15 q-6 -1 -13 12 q-99 104 -282 173 q-151 -156 -484 -183 q-20 -1 -19 15 q2 13 17 14 q292 32 436 173 ZM342 236 q-14 -29 -13 -36 q1 -5 14 -8 q106 -19 202 -49 q70 87 130 261 l-257 0 q-33 -77 -76 -168 Z" /><glyph glyph-name="uni5B8F" unicode="&#x5b8f;" d="M412 475 q33 85 49 170 q2 13 12 9 q49 -19 77 -32 q9 -6 9 -10 q0 -7 -15 -11 q-36 -6 -79 -126 l359 0 q14 1 30 19 l26 37 q7 9 16 0 q71 -63 70 -78 q-2 -8 -15 -9 l-499 0 q-53 -116 -114 -201 q-84 -113 -253 -245 q-12 -10 -22 3 q-10 13 8 25 q5 5 11 8 q221 179 317 410 l-196 0 q-42 -1 -73 -7 q-9 -3 -10 6 q-5 18 -20 31 q-8 7 -4 11 q4 3 11 -1 q38 -9 84 -9 l221 0 ZM795 51 q-47 68 -125 141 q-8 8 -1 15 q7 7 17 -2 q177 -123 208 -193 q19 -48 -9 -88 q-8 -9 -15 -8 q-7 2 -11 15 q-12 43 -49 98 q-311 -38 -455 -86 q-11 -4 -14 3 q-8 19 -17 38 q-14 29 7 29 q106 40 241 352 q4 11 16 4 q38 -22 71 -46 q8 -6 7 -10 q-2 -6 -11 -5 q-20 2 -36 -7 q-15 -10 -37 -47 q-68 -111 -165 -219 q-9 -12 -8 -15 q2 -5 24 -1 q199 31 362 32 ZM841 719 q9 1 13 5 l31 31 q3 4 6 4 q15 -1 75 -64 q5 -8 -8 -9 q-60 -7 -117 -104 q-7 -12 -16 -8 q-9 5 -2 18 q24 56 36 96 l-664 0 q-2 -79 -36 -119 q-16 -16 -29 -15 q-15 1 -22 8 q-21 23 7 50 q51 45 57 147 q0 10 7 10 q8 1 9 -9 q4 -22 5 -41 l332 0 q-2 56 -66 128 q-5 7 -1 13 q4 5 16 -2 q93 -45 99 -82 q3 -19 -12 -49 q-4 -4 -5 -8 l285 0 Z" /></font>
</defs>
</svg>
